<?xml version="1.0" encoding="UTF-8" standalone="no"?>
<!DOCTYPE svg PUBLIC "-//W3C//DTD SVG 1.1//EN"
 "http://www.w3.org/Graphics/SVG/1.1/DTD/svg11.dtd">
<!-- Generated by graphviz version 2.44.0 (0)
 -->
<!-- Title: NeoNetwork Nodes Pages: 1 -->
<svg width="1478pt" height="1236pt"
 viewBox="0.00 0.00 1478.00 1236.00" xmlns="http://www.w3.org/2000/svg" xmlns:xlink="http://www.w3.org/1999/xlink">
<g id="graph0" class="graph" transform="scale(1 1) rotate(0) translate(4 1232)">
<title>NeoNetwork Nodes</title>
<polygon fill="white" stroke="transparent" points="-4,4 -4,-1232 1474,-1232 1474,4 -4,4"/>
<text text-anchor="middle" x="735" y="-1212.8" font-family="Times,serif" font-size="14.00">NeoNetwork Nodes</text>
<g id="clust1" class="cluster">
<title>cluster_AS4201270000</title>
<polygon fill="none" stroke="black" points="8,-960 8,-1197 1123.5,-1197 1123.5,-960 8,-960"/>
<text text-anchor="middle" x="565.75" y="-1181.8" font-family="Times,serif" font-size="14.00">NeoNetwork (AS4201270000)</text>
</g>
<g id="clust2" class="cluster">
<title>cluster_4201270008</title>
<polygon fill="none" stroke="black" points="437.5,-383 437.5,-852 928,-852 928,-383 437.5,-383"/>
<text text-anchor="middle" x="682.75" y="-836.8" font-family="Times,serif" font-size="14.00">MagicNeko Network Internet exchange (AS4201270008)</text>
</g>
<g id="clust3" class="cluster">
<title>cluster_4201270006</title>
<polygon fill="none" stroke="black" points="679,-8 679,-105 1462,-105 1462,-8 679,-8"/>
<text text-anchor="middle" x="1070.5" y="-89.8" font-family="Times,serif" font-size="14.00">Jerry Network (4201270006)</text>
</g>
<!-- c -->
<g id="node1" class="node">
<title>c</title>
<polygon fill="none" stroke="black" points="1115.5,-1008 963.5,-1008 963.5,-970 1115.5,-970 1115.5,-1008"/>
<text text-anchor="middle" x="1039.5" y="-992.8" font-family="Times,serif" font-size="14.00">caasih.neocloud.tw</text>
<text text-anchor="middle" x="1039.5" y="-977.8" font-family="Times,serif" font-size="14.00">(10.127.0.1)</text>
</g>
<!-- staph -->
<g id="node17" class="node">
<title>staph</title>
<polygon fill="none" stroke="black" points="834,-913.5 697,-913.5 697,-860.5 834,-860.5 834,-913.5"/>
<text text-anchor="middle" x="765.5" y="-898.3" font-family="Times,serif" font-size="14.00">s.aureus.ga</text>
<text text-anchor="middle" x="765.5" y="-883.3" font-family="Times,serif" font-size="14.00">(10.127.8.185)</text>
<text text-anchor="middle" x="765.5" y="-868.3" font-family="Times,serif" font-size="14.00">(AS4201270007)</text>
</g>
<!-- c&#45;&gt;staph -->
<g id="edge14" class="edge">
<title>c&#45;&gt;staph</title>
<path fill="none" stroke="black" d="M971.6,-966.58C966.31,-964.72 961.06,-962.85 956,-961 918.24,-947.23 876.6,-931.08 842,-917.38"/>
<polygon fill="black" stroke="black" points="970.54,-969.92 981.13,-969.9 972.84,-963.31 970.54,-969.92"/>
<polygon fill="black" stroke="black" points="843.02,-914.02 832.44,-913.59 840.44,-920.53 843.02,-914.02"/>
</g>
<!-- ucbvax -->
<g id="node2" class="node">
<title>ucbvax</title>
<polygon fill="none" stroke="black" points="841,-1008 690,-1008 690,-970 841,-970 841,-1008"/>
<text text-anchor="middle" x="765.5" y="-992.8" font-family="Times,serif" font-size="14.00">router.neocloud.tw</text>
<text text-anchor="middle" x="765.5" y="-977.8" font-family="Times,serif" font-size="14.00">(10.127.255.2)</text>
</g>
<!-- ucbvax&#45;&gt;c -->
<g id="edge8" class="edge">
<title>ucbvax&#45;&gt;c</title>
<path fill="none" stroke="black" d="M851.58,-989C883.79,-989 920.45,-989 952.72,-989"/>
<polygon fill="black" stroke="black" points="851.18,-985.5 841.18,-989 851.18,-992.5 851.18,-985.5"/>
<polygon fill="black" stroke="black" points="953.04,-992.5 963.04,-989 953.04,-985.5 953.04,-992.5"/>
</g>
<!-- chenx97 -->
<g id="node19" class="node">
<title>chenx97</title>
<polygon fill="none" stroke="black" points="1123,-952 956,-952 956,-914 1123,-914 1123,-952"/>
<text text-anchor="middle" x="1039.5" y="-936.8" font-family="Times,serif" font-size="14.00">chenx97.neocloud.tw</text>
<text text-anchor="middle" x="1039.5" y="-921.8" font-family="Times,serif" font-size="14.00">(AS4201270003)</text>
</g>
<!-- ucbvax&#45;&gt;chenx97 -->
<g id="edge16" class="edge">
<title>ucbvax&#45;&gt;chenx97</title>
<path fill="none" stroke="black" d="M851.36,-971.72C876.08,-966.67 903.12,-961.13 928,-956 933.78,-954.81 939.73,-953.58 945.72,-952.34"/>
<polygon fill="black" stroke="black" points="850.39,-968.35 841.29,-973.78 851.79,-975.21 850.39,-968.35"/>
<polygon fill="black" stroke="black" points="946.76,-955.7 955.84,-950.24 945.34,-948.84 946.76,-955.7"/>
</g>
<!-- septs -->
<g id="node24" class="node">
<title>septs</title>
<polygon fill="none" stroke="black" points="1108,-256 971,-256 971,-218 1108,-218 1108,-256"/>
<text text-anchor="middle" x="1039.5" y="-240.8" font-family="Times,serif" font-size="14.00">bgp.septs.me</text>
<text text-anchor="middle" x="1039.5" y="-225.8" font-family="Times,serif" font-size="14.00">(AS4201270001)</text>
</g>
<!-- ucbvax&#45;&gt;septs -->
<g id="edge37" class="edge">
<title>ucbvax&#45;&gt;septs</title>
<path fill="none" stroke="black" d="M850.77,-972.41C879.36,-962.66 908.87,-947.25 928,-923 953.34,-890.87 949.58,-781.41 956,-741 984.68,-560.35 1020.71,-343.56 1033.62,-266.19"/>
<polygon fill="black" stroke="black" points="849.58,-969.12 841.12,-975.51 851.72,-975.78 849.58,-969.12"/>
<polygon fill="black" stroke="black" points="1037.09,-266.66 1035.29,-256.22 1030.19,-265.5 1037.09,-266.66"/>
</g>
<!-- np11 -->
<g id="node3" class="node">
<title>np11</title>
<polygon fill="none" stroke="black" points="338,-1077.5 217,-1077.5 217,-1024.5 338,-1024.5 338,-1077.5"/>
<text text-anchor="middle" x="277.5" y="-1062.3" font-family="Times,serif" font-size="14.00">NeoPDP&#45;11</text>
<text text-anchor="middle" x="277.5" y="-1047.3" font-family="Times,serif" font-size="14.00">(10.127.255.1,</text>
<text text-anchor="middle" x="277.5" y="-1032.3" font-family="Times,serif" font-size="14.00">10.127.1.1)</text>
</g>
<!-- np11&#45;&gt;c -->
<g id="edge7" class="edge">
<title>np11&#45;&gt;c</title>
<path fill="none" stroke="black" d="M338.09,-1052.34C453.04,-1053.95 713.04,-1052.81 928,-1017 938.69,-1015.22 949.86,-1012.92 960.81,-1010.41"/>
<polygon fill="black" stroke="black" points="961.87,-1013.75 970.79,-1008.04 960.26,-1006.94 961.87,-1013.75"/>
</g>
<!-- np11&#45;&gt;ucbvax -->
<g id="edge5" class="edge">
<title>np11&#45;&gt;ucbvax</title>
<path fill="none" stroke="black" d="M338.17,-1051C398.28,-1050.24 493.52,-1046.98 575,-1035 612.95,-1029.42 654.44,-1019.77 688.89,-1010.74"/>
<polygon fill="black" stroke="black" points="690.11,-1014.04 698.87,-1008.09 688.31,-1007.27 690.11,-1014.04"/>
</g>
<!-- pan -->
<g id="node6" class="node">
<title>pan</title>
<polygon fill="none" stroke="black" points="568,-1026 445,-1026 445,-988 568,-988 568,-1026"/>
<text text-anchor="middle" x="506.5" y="-1010.8" font-family="Times,serif" font-size="14.00">r2.neocloud.tw</text>
<text text-anchor="middle" x="506.5" y="-995.8" font-family="Times,serif" font-size="14.00">(10.127.3.1)</text>
</g>
<!-- np11&#45;&gt;pan -->
<g id="edge6" class="edge">
<title>np11&#45;&gt;pan</title>
<path fill="none" stroke="black" d="M338.14,-1039.44C367.77,-1033.7 403.78,-1026.72 434.8,-1020.7"/>
<polygon fill="black" stroke="black" points="435.53,-1024.13 444.68,-1018.79 434.19,-1017.26 435.53,-1024.13"/>
</g>
<!-- ns -->
<g id="node4" class="node">
<title>ns</title>
<polygon fill="none" stroke="black" points="343,-1006 212,-1006 212,-968 343,-968 343,-1006"/>
<text text-anchor="middle" x="277.5" y="-990.8" font-family="Times,serif" font-size="14.00">NeoSystem</text>
<text text-anchor="middle" x="277.5" y="-975.8" font-family="Times,serif" font-size="14.00">(10.127.255.80)</text>
</g>
<!-- ns&#45;&gt;ucbvax -->
<g id="edge9" class="edge">
<title>ns&#45;&gt;ucbvax</title>
<path fill="none" stroke="black" d="M343.07,-983.01C371.95,-981.42 406.42,-979.78 437.5,-979 498.59,-977.46 513.91,-977.39 575,-979 609.32,-979.9 647.11,-981.73 679.84,-983.58"/>
<polygon fill="black" stroke="black" points="679.65,-987.07 689.83,-984.15 680.05,-980.08 679.65,-987.07"/>
</g>
<!-- ns&#45;&gt;pan -->
<g id="edge10" class="edge">
<title>ns&#45;&gt;pan</title>
<path fill="none" stroke="black" d="M343.25,-992.7C371.85,-995.22 405.55,-998.19 434.81,-1000.77"/>
<polygon fill="black" stroke="black" points="434.69,-1004.27 444.95,-1001.67 435.3,-997.3 434.69,-1004.27"/>
</g>
<!-- megumiLHS -->
<g id="node5" class="node">
<title>megumiLHS</title>
<polygon fill="none" stroke="black" points="848,-265 683,-265 683,-227 848,-227 848,-265"/>
<text text-anchor="middle" x="765.5" y="-249.8" font-family="Times,serif" font-size="14.00">megumi.yukipedia.cf</text>
<text text-anchor="middle" x="765.5" y="-234.8" font-family="Times,serif" font-size="14.00">(AS4242421037)</text>
</g>
<!-- megumiLHS&#45;&gt;ucbvax -->
<g id="edge12" class="edge">
<title>megumiLHS&#45;&gt;ucbvax</title>
<path fill="none" stroke="black" d="M673.12,-263.73C641.98,-274.71 610.66,-292.43 593,-321 574.72,-350.58 574.72,-917.42 593,-947 611.07,-976.23 646.12,-987.97 679.93,-991.9"/>
<polygon fill="black" stroke="black" points="674.38,-267 682.77,-260.54 672.18,-260.36 674.38,-267"/>
<polygon fill="black" stroke="black" points="679.6,-995.39 689.89,-992.85 680.27,-988.42 679.6,-995.39"/>
</g>
<!-- megumiLHS&#45;&gt;septs -->
<g id="edge40" class="edge">
<title>megumiLHS&#45;&gt;septs</title>
<path fill="none" stroke="black" d="M858.34,-242.96C891.53,-241.86 928.65,-240.63 960.53,-239.58"/>
<polygon fill="black" stroke="black" points="857.99,-239.47 848.11,-243.3 858.22,-246.47 857.99,-239.47"/>
<polygon fill="black" stroke="black" points="960.81,-243.07 970.69,-239.24 960.58,-236.08 960.81,-243.07"/>
</g>
<!-- pan&#45;&gt;ucbvax -->
<g id="edge11" class="edge">
<title>pan&#45;&gt;ucbvax</title>
<path fill="none" stroke="black" d="M578.11,-1002.05C609.49,-999.86 646.69,-997.25 679.57,-994.95"/>
<polygon fill="black" stroke="black" points="577.81,-998.57 568.08,-1002.76 578.3,-1005.55 577.81,-998.57"/>
<polygon fill="black" stroke="black" points="679.9,-998.43 689.63,-994.24 679.41,-991.45 679.9,-998.43"/>
</g>
<!-- magicneko_JP03 -->
<g id="node15" class="node">
<title>magicneko_JP03</title>
<polygon fill="none" stroke="black" points="563,-429 450,-429 450,-391 563,-391 563,-429"/>
<text text-anchor="middle" x="506.5" y="-413.8" font-family="Times,serif" font-size="14.00">M&#45;JP3</text>
<text text-anchor="middle" x="506.5" y="-398.8" font-family="Times,serif" font-size="14.00">(10.127.4.15)</text>
</g>
<!-- pan&#45;&gt;magicneko_JP03 -->
<g id="edge53" class="edge">
<title>pan&#45;&gt;magicneko_JP03</title>
<path fill="none" stroke="black" d="M485.81,-979.23C464.44,-948.66 432.48,-897.18 419.75,-847 408.82,-803.92 396.49,-484.87 419.75,-447 424.84,-438.72 432.23,-432.28 440.59,-427.29"/>
<polygon fill="black" stroke="black" points="483.15,-981.53 491.8,-987.64 488.86,-977.47 483.15,-981.53"/>
<polygon fill="black" stroke="black" points="442.35,-430.32 449.59,-422.59 439.11,-424.12 442.35,-430.32"/>
</g>
<!-- icecat_Explosion -->
<g id="node7" class="node">
<title>icecat_Explosion</title>
<polygon fill="none" stroke="black" points="920,-618 611,-618 611,-582 920,-582 920,-618"/>
<text text-anchor="middle" x="765.5" y="-596.3" font-family="Times,serif" font-size="14.00">MagicNeko P2P network interconnection</text>
</g>
<!-- icecat_Notebook -->
<g id="node8" class="node">
<title>icecat_Notebook</title>
<polygon fill="none" stroke="black" points="402,-660.5 153,-660.5 153,-607.5 402,-607.5 402,-660.5"/>
<text text-anchor="middle" x="277.5" y="-645.3" font-family="Times,serif" font-size="14.00">NextMoe Group Access Network</text>
<text text-anchor="middle" x="277.5" y="-630.3" font-family="Times,serif" font-size="14.00">(4201270005)</text>
<text text-anchor="middle" x="277.5" y="-615.3" font-family="Times,serif" font-size="14.00">(10.127.233.1)</text>
</g>
<!-- magicneko_HK01 -->
<g id="node9" class="node">
<title>magicneko_HK01</title>
<polygon fill="none" stroke="black" points="558.5,-653 454.5,-653 454.5,-615 558.5,-615 558.5,-653"/>
<text text-anchor="middle" x="506.5" y="-637.8" font-family="Times,serif" font-size="14.00">M&#45;HK1</text>
<text text-anchor="middle" x="506.5" y="-622.8" font-family="Times,serif" font-size="14.00">(10.127.4.1)</text>
</g>
<!-- icecat_Notebook&#45;&gt;magicneko_HK01 -->
<g id="edge47" class="edge">
<title>icecat_Notebook&#45;&gt;magicneko_HK01</title>
<path fill="none" stroke="black" d="M402.3,-634C416.79,-634 431.05,-634 444.13,-634"/>
<polygon fill="black" stroke="black" points="444.35,-637.5 454.35,-634 444.35,-630.5 444.35,-637.5"/>
</g>
<!-- magicneko_JP02 -->
<g id="node13" class="node">
<title>magicneko_JP02</title>
<polygon fill="none" stroke="black" points="563,-821 450,-821 450,-783 563,-783 563,-821"/>
<text text-anchor="middle" x="506.5" y="-805.8" font-family="Times,serif" font-size="14.00">M&#45;JP2</text>
<text text-anchor="middle" x="506.5" y="-790.8" font-family="Times,serif" font-size="14.00">(10.127.4.13)</text>
</g>
<!-- icecat_Notebook&#45;&gt;magicneko_JP02 -->
<g id="edge51" class="edge">
<title>icecat_Notebook&#45;&gt;magicneko_JP02</title>
<path fill="none" stroke="black" d="M303.35,-660.69C332.95,-691.28 385.03,-741.37 437.5,-774 439.94,-775.52 442.48,-776.98 445.07,-778.4"/>
<polygon fill="black" stroke="black" points="443.58,-781.57 454.08,-782.99 446.76,-775.33 443.58,-781.57"/>
</g>
<!-- magicneko_RU01 -->
<g id="node14" class="node">
<title>magicneko_RU01</title>
<polygon fill="none" stroke="black" points="563,-541 450,-541 450,-503 563,-503 563,-541"/>
<text text-anchor="middle" x="506.5" y="-525.8" font-family="Times,serif" font-size="14.00">M&#45;RU1</text>
<text text-anchor="middle" x="506.5" y="-510.8" font-family="Times,serif" font-size="14.00">(10.127.4.14)</text>
</g>
<!-- icecat_Notebook&#45;&gt;magicneko_RU01 -->
<g id="edge49" class="edge">
<title>icecat_Notebook&#45;&gt;magicneko_RU01</title>
<path fill="none" stroke="black" d="M325.91,-607.43C357.21,-590.27 399.34,-567.89 437.5,-550 441.04,-548.34 444.71,-546.68 448.42,-545.04"/>
<polygon fill="black" stroke="black" points="449.91,-548.2 457.69,-541.01 447.13,-541.78 449.91,-548.2"/>
</g>
<!-- icecat_Notebook&#45;&gt;magicneko_JP03 -->
<g id="edge48" class="edge">
<title>icecat_Notebook&#45;&gt;magicneko_JP03</title>
<path fill="none" stroke="black" d="M294.02,-607.3C319.28,-565.9 373.01,-486.01 437.5,-438 439.29,-436.67 441.15,-435.39 443.07,-434.16"/>
<polygon fill="black" stroke="black" points="444.88,-437.15 451.76,-429.09 441.36,-431.1 444.88,-437.15"/>
</g>
<!-- magicneko_CN01 -->
<g id="node16" class="node">
<title>magicneko_CN01</title>
<polygon fill="none" stroke="black" points="567.5,-709 445.5,-709 445.5,-671 567.5,-671 567.5,-709"/>
<text text-anchor="middle" x="506.5" y="-693.8" font-family="Times,serif" font-size="14.00">M&#45;CN1</text>
<text text-anchor="middle" x="506.5" y="-678.8" font-family="Times,serif" font-size="14.00">(10.127.4.101)</text>
</g>
<!-- icecat_Notebook&#45;&gt;magicneko_CN01 -->
<g id="edge50" class="edge">
<title>icecat_Notebook&#45;&gt;magicneko_CN01</title>
<path fill="none" stroke="black" d="M386.02,-660.52C402.75,-664.65 419.66,-668.82 435.28,-672.68"/>
<polygon fill="black" stroke="black" points="434.79,-676.16 445.34,-675.16 436.47,-669.37 434.79,-676.16"/>
</g>
<!-- magicneko_HK01&#45;&gt;icecat_Explosion -->
<g id="edge17" class="edge">
<title>magicneko_HK01&#45;&gt;icecat_Explosion</title>
<path fill="none" stroke="black" d="M558.58,-627.24C576.15,-624.92 596.79,-622.19 618.1,-619.37"/>
<polygon fill="black" stroke="black" points="618.82,-622.8 628.27,-618.02 617.9,-615.86 618.82,-622.8"/>
</g>
<!-- magicneko_HK02 -->
<g id="node10" class="node">
<title>magicneko_HK02</title>
<polygon fill="none" stroke="black" points="563,-597 450,-597 450,-559 563,-559 563,-597"/>
<text text-anchor="middle" x="506.5" y="-581.8" font-family="Times,serif" font-size="14.00">M&#45;HK2</text>
<text text-anchor="middle" x="506.5" y="-566.8" font-family="Times,serif" font-size="14.00">(10.127.4.10)</text>
</g>
<!-- magicneko_HK02&#45;&gt;ucbvax -->
<g id="edge13" class="edge">
<title>magicneko_HK02&#45;&gt;ucbvax</title>
<path fill="none" stroke="black" d="M571.01,-601.36C572.44,-602.81 573.78,-604.36 575,-606 621.7,-668.71 558.81,-897.78 611,-956 628.35,-975.35 654.06,-984.87 679.51,-989.19"/>
<polygon fill="black" stroke="black" points="573.08,-598.53 563.16,-594.81 568.6,-603.9 573.08,-598.53"/>
<polygon fill="black" stroke="black" points="679.21,-992.68 689.61,-990.65 680.21,-985.75 679.21,-992.68"/>
</g>
<!-- magicneko_HK02&#45;&gt;icecat_Explosion -->
<g id="edge18" class="edge">
<title>magicneko_HK02&#45;&gt;icecat_Explosion</title>
<path fill="none" stroke="black" d="M563.27,-582.77C574.79,-583.76 587.49,-584.85 600.72,-585.98"/>
<polygon fill="black" stroke="black" points="600.68,-589.49 610.94,-586.85 601.27,-582.51 600.68,-589.49"/>
</g>
<!-- SUNNET -->
<g id="node27" class="node">
<title>SUNNET</title>
<polygon fill="none" stroke="black" points="834,-374.5 697,-374.5 697,-321.5 834,-321.5 834,-374.5"/>
<text text-anchor="middle" x="765.5" y="-359.3" font-family="Times,serif" font-size="14.00">SUNNET</text>
<text text-anchor="middle" x="765.5" y="-344.3" font-family="Times,serif" font-size="14.00">(10.127.11.0/24)</text>
<text text-anchor="middle" x="765.5" y="-329.3" font-family="Times,serif" font-size="14.00">(AS4242423088)</text>
</g>
<!-- magicneko_HK02&#45;&gt;SUNNET -->
<g id="edge41" class="edge">
<title>magicneko_HK02&#45;&gt;SUNNET</title>
<path fill="none" stroke="black" d="M570.89,-554.37C572.35,-552.99 573.72,-551.54 575,-550 624.59,-490.23 555.86,-433.69 611,-379 630.77,-359.39 659.29,-350.51 686.39,-346.91"/>
<polygon fill="black" stroke="black" points="568.68,-551.66 563.01,-560.61 573.03,-557.15 568.68,-551.66"/>
<polygon fill="black" stroke="black" points="687.13,-350.35 696.69,-345.78 686.37,-343.4 687.13,-350.35"/>
</g>
<!-- magicneko_JP01 -->
<g id="node11" class="node">
<title>magicneko_JP01</title>
<polygon fill="none" stroke="black" points="563,-485 450,-485 450,-447 563,-447 563,-485"/>
<text text-anchor="middle" x="506.5" y="-469.8" font-family="Times,serif" font-size="14.00">M&#45;JP1</text>
<text text-anchor="middle" x="506.5" y="-454.8" font-family="Times,serif" font-size="14.00">(10.127.4.11)</text>
</g>
<!-- magicneko_JP01&#45;&gt;icecat_Explosion -->
<g id="edge19" class="edge">
<title>magicneko_JP01&#45;&gt;icecat_Explosion</title>
<path fill="none" stroke="black" d="M555.38,-485.05C562.03,-487.93 568.72,-490.95 575,-494 628.54,-519.97 688.1,-554.21 725.9,-576.65"/>
<polygon fill="black" stroke="black" points="724.18,-579.7 734.56,-581.81 727.76,-573.69 724.18,-579.7"/>
</g>
<!-- magicneko_HK03 -->
<g id="node12" class="node">
<title>magicneko_HK03</title>
<polygon fill="none" stroke="black" points="563,-765 450,-765 450,-727 563,-727 563,-765"/>
<text text-anchor="middle" x="506.5" y="-749.8" font-family="Times,serif" font-size="14.00">M&#45;HK3</text>
<text text-anchor="middle" x="506.5" y="-734.8" font-family="Times,serif" font-size="14.00">(10.127.4.12)</text>
</g>
<!-- magicneko_HK03&#45;&gt;icecat_Explosion -->
<g id="edge20" class="edge">
<title>magicneko_HK03&#45;&gt;icecat_Explosion</title>
<path fill="none" stroke="black" d="M556.24,-726.91C562.62,-724.08 569.02,-721.08 575,-718 631.31,-689.03 692.94,-648.97 730.16,-623.78"/>
<polygon fill="black" stroke="black" points="732.32,-626.54 738.62,-618.02 728.39,-620.75 732.32,-626.54"/>
</g>
<!-- magicneko_JP02&#45;&gt;icecat_Explosion -->
<g id="edge21" class="edge">
<title>magicneko_JP02&#45;&gt;icecat_Explosion</title>
<path fill="none" stroke="black" d="M558.96,-782.9C564.52,-780.18 569.97,-777.21 575,-774 642.56,-730.89 708.51,-662.73 741.91,-625.82"/>
<polygon fill="black" stroke="black" points="744.85,-627.78 748.92,-618 739.64,-623.11 744.85,-627.78"/>
</g>
<!-- magicneko_RU01&#45;&gt;icecat_Explosion -->
<g id="edge22" class="edge">
<title>magicneko_RU01&#45;&gt;icecat_Explosion</title>
<path fill="none" stroke="black" d="M563.27,-538.92C601.94,-550.66 653.73,-566.38 695.08,-578.93"/>
<polygon fill="black" stroke="black" points="694.23,-582.33 704.81,-581.89 696.26,-575.63 694.23,-582.33"/>
</g>
<!-- magicneko_RU01&#45;&gt;staph -->
<g id="edge39" class="edge">
<title>magicneko_RU01&#45;&gt;staph</title>
<path fill="none" stroke="black" d="M570.98,-545.38C572.42,-546.83 573.77,-548.37 575,-550 657.58,-659.23 518.23,-755.28 611,-856 630.19,-876.84 659.19,-885.85 686.84,-889.21"/>
<polygon fill="black" stroke="black" points="573.03,-542.54 563.09,-538.86 568.57,-547.93 573.03,-542.54"/>
<polygon fill="black" stroke="black" points="686.65,-892.71 696.94,-890.2 687.33,-885.74 686.65,-892.71"/>
</g>
<!-- magicneko_RU01&#45;&gt;septs -->
<g id="edge43" class="edge">
<title>magicneko_RU01&#45;&gt;septs</title>
<path fill="none" stroke="black" d="M570.92,-498.39C572.37,-497.01 573.73,-495.55 575,-494 627.26,-430.22 550.52,-368.05 611,-312 663.04,-263.77 858.78,-289.57 928,-274 944.91,-270.2 962.88,-264.79 979.31,-259.29"/>
<polygon fill="black" stroke="black" points="568.7,-495.68 563.07,-504.65 573.07,-501.15 568.7,-495.68"/>
<polygon fill="black" stroke="black" points="980.45,-262.6 988.78,-256.05 978.19,-255.97 980.45,-262.6"/>
</g>
<!-- magicneko_JP03&#45;&gt;megumiLHS -->
<g id="edge44" class="edge">
<title>magicneko_JP03&#45;&gt;megumiLHS</title>
<path fill="none" stroke="black" d="M521.79,-382.16C538.82,-351.88 570.2,-304.41 611,-279 629.56,-267.44 651.56,-259.89 673.02,-254.96"/>
<polygon fill="black" stroke="black" points="518.7,-380.51 516.96,-390.96 524.84,-383.87 518.7,-380.51"/>
<polygon fill="black" stroke="black" points="673.78,-258.38 682.83,-252.88 672.32,-251.53 673.78,-258.38"/>
</g>
<!-- magicneko_JP03&#45;&gt;icecat_Explosion -->
<g id="edge23" class="edge">
<title>magicneko_JP03&#45;&gt;icecat_Explosion</title>
<path fill="none" stroke="black" d="M558.49,-429.11C564.19,-431.84 569.81,-434.82 575,-438 640.17,-477.98 705.63,-539.92 739.95,-574.47"/>
<polygon fill="black" stroke="black" points="737.67,-577.16 747.19,-581.82 742.66,-572.24 737.67,-577.16"/>
</g>
<!-- magicneko_JP03&#45;&gt;chenx97 -->
<g id="edge38" class="edge">
<title>magicneko_JP03&#45;&gt;chenx97</title>
<path fill="none" stroke="black" d="M571.07,-433.31C572.49,-434.78 573.8,-436.34 575,-438 638.31,-525.59 532.67,-848.54 611,-923 657.24,-966.96 834.11,-956.39 945.35,-944.71"/>
<polygon fill="black" stroke="black" points="573.18,-430.51 563.29,-426.71 568.65,-435.85 573.18,-430.51"/>
<polygon fill="black" stroke="black" points="946,-948.16 955.57,-943.61 945.25,-941.2 946,-948.16"/>
</g>
<!-- JerryXiao -->
<g id="node20" class="node">
<title>JerryXiao</title>
<polygon fill="none" stroke="black" points="844,-74 687,-74 687,-36 844,-36 844,-74"/>
<text text-anchor="middle" x="765.5" y="-58.8" font-family="Times,serif" font-size="14.00">jpn.neo.jerryxiao.cc</text>
<text text-anchor="middle" x="765.5" y="-43.8" font-family="Times,serif" font-size="14.00">(10.127.8.193)</text>
</g>
<!-- magicneko_JP03&#45;&gt;JerryXiao -->
<g id="edge32" class="edge">
<title>magicneko_JP03&#45;&gt;JerryXiao</title>
<path fill="none" stroke="black" d="M512.51,-381.07C522.8,-329 550.61,-218.28 611,-147 636.59,-116.79 674.74,-93.87 706.6,-78.45"/>
<polygon fill="black" stroke="black" points="509.06,-380.49 510.63,-390.97 515.94,-381.8 509.06,-380.49"/>
<polygon fill="black" stroke="black" points="708.27,-81.53 715.83,-74.11 705.29,-75.2 708.27,-81.53"/>
</g>
<!-- magicneko_JP03&#45;&gt;septs -->
<g id="edge35" class="edge">
<title>magicneko_JP03&#45;&gt;septs</title>
<path fill="none" stroke="black" d="M513.38,-380.95C524.09,-336.65 551.4,-253.58 611,-218 725.82,-149.45 890.53,-186.7 978.2,-214.85"/>
<polygon fill="black" stroke="black" points="509.94,-380.29 511.12,-390.82 516.76,-381.85 509.94,-380.29"/>
<polygon fill="black" stroke="black" points="977.14,-218.18 987.73,-217.97 979.32,-211.53 977.14,-218.18"/>
</g>
<!-- frank_hsinchu -->
<g id="node29" class="node">
<title>frank_hsinchu</title>
<polygon fill="none" stroke="black" points="1296,-254.5 1159,-254.5 1159,-201.5 1296,-201.5 1296,-254.5"/>
<text text-anchor="middle" x="1227.5" y="-239.3" font-family="Times,serif" font-size="14.00">Frank_Hsinchu</text>
<text text-anchor="middle" x="1227.5" y="-224.3" font-family="Times,serif" font-size="14.00">(10.127.255.56)</text>
<text text-anchor="middle" x="1227.5" y="-209.3" font-family="Times,serif" font-size="14.00">(AS4201270004)</text>
</g>
<!-- magicneko_JP03&#45;&gt;frank_hsinchu -->
<g id="edge45" class="edge">
<title>magicneko_JP03&#45;&gt;frank_hsinchu</title>
<path fill="none" stroke="black" d="M510.49,-380.53C517.52,-328.63 540.28,-222.05 611,-176 782.06,-64.62 1039.02,-147.62 1159.57,-197.52"/>
<polygon fill="black" stroke="black" points="506.98,-380.38 509.22,-390.74 513.93,-381.25 506.98,-380.38"/>
<polygon fill="black" stroke="black" points="1158.48,-200.86 1169.06,-201.49 1161.19,-194.4 1158.48,-200.86"/>
</g>
<!-- magicneko_CN01&#45;&gt;icecat_Explosion -->
<g id="edge24" class="edge">
<title>magicneko_CN01&#45;&gt;icecat_Explosion</title>
<path fill="none" stroke="black" d="M562,-670.91C603.37,-656.43 660.26,-636.5 703.21,-621.46"/>
<polygon fill="black" stroke="black" points="704.42,-624.75 712.7,-618.14 702.11,-618.14 704.42,-624.75"/>
</g>
<!-- staph_CN -->
<g id="node18" class="node">
<title>staph_CN</title>
<polygon fill="none" stroke="black" points="1113,-895.5 966,-895.5 966,-842.5 1113,-842.5 1113,-895.5"/>
<text text-anchor="middle" x="1039.5" y="-880.3" font-family="Times,serif" font-size="14.00">cnhome.aureus.ga</text>
<text text-anchor="middle" x="1039.5" y="-865.3" font-family="Times,serif" font-size="14.00">(10.127.8.187)</text>
<text text-anchor="middle" x="1039.5" y="-850.3" font-family="Times,serif" font-size="14.00">(AS4201270007)</text>
</g>
<!-- staph&#45;&gt;staph_CN -->
<g id="edge15" class="edge">
<title>staph&#45;&gt;staph_CN</title>
<path fill="none" stroke="black" d="M834.09,-882.53C870.77,-880.1 916.44,-877.08 955.29,-874.51"/>
<polygon fill="black" stroke="black" points="955.79,-877.98 965.54,-873.83 955.33,-871 955.79,-877.98"/>
</g>
<!-- staph&#45;&gt;septs -->
<g id="edge36" class="edge">
<title>staph&#45;&gt;septs</title>
<path fill="none" stroke="black" d="M844.09,-889.92C874.06,-886.93 906.29,-878 928,-856 938.64,-845.22 1013.96,-387.44 1033.75,-266.21"/>
<polygon fill="black" stroke="black" points="843.72,-886.44 834.03,-890.72 844.27,-893.42 843.72,-886.44"/>
<polygon fill="black" stroke="black" points="1037.23,-266.6 1035.38,-256.17 1030.32,-265.48 1037.23,-266.6"/>
</g>
<!-- santost12 -->
<g id="node28" class="node">
<title>santost12</title>
<polygon fill="none" stroke="black" points="1108,-802.5 971,-802.5 971,-749.5 1108,-749.5 1108,-802.5"/>
<text text-anchor="middle" x="1039.5" y="-787.3" font-family="Times,serif" font-size="14.00">Santost12</text>
<text text-anchor="middle" x="1039.5" y="-772.3" font-family="Times,serif" font-size="14.00">(10.127.69.1)</text>
<text text-anchor="middle" x="1039.5" y="-757.3" font-family="Times,serif" font-size="14.00">(AS4201270009)</text>
</g>
<!-- staph&#45;&gt;santost12 -->
<g id="edge42" class="edge">
<title>staph&#45;&gt;santost12</title>
<path fill="none" stroke="black" d="M844.22,-879.72C871.58,-875.19 901.97,-867.87 928,-856 942.4,-849.43 943.3,-843.44 956,-834 967.31,-825.59 979.66,-816.74 991.28,-808.55"/>
<polygon fill="black" stroke="black" points="843.64,-876.27 834.3,-881.26 844.72,-883.18 843.64,-876.27"/>
<polygon fill="black" stroke="black" points="993.41,-811.33 999.58,-802.73 989.39,-805.6 993.41,-811.33"/>
</g>
<!-- JerryXiao&#45;&gt;ucbvax -->
<g id="edge29" class="edge">
<title>JerryXiao&#45;&gt;ucbvax</title>
<path fill="none" stroke="black" d="M726.55,-79.75C684.5,-109.05 619.92,-162.14 593,-227 577.67,-263.94 571.97,-912.97 593,-947 611.07,-976.23 646.12,-987.97 679.93,-991.9"/>
<polygon fill="black" stroke="black" points="728.63,-82.58 734.91,-74.04 724.68,-76.8 728.63,-82.58"/>
<polygon fill="black" stroke="black" points="679.6,-995.39 689.89,-992.85 680.27,-988.42 679.6,-995.39"/>
</g>
<!-- JerryXiao_SH01 -->
<g id="node21" class="node">
<title>JerryXiao_SH01</title>
<polygon fill="none" stroke="black" points="1100.5,-74 978.5,-74 978.5,-36 1100.5,-36 1100.5,-74"/>
<text text-anchor="middle" x="1039.5" y="-58.8" font-family="Times,serif" font-size="14.00">jerryxiao&#45;sh01</text>
<text text-anchor="middle" x="1039.5" y="-43.8" font-family="Times,serif" font-size="14.00">(10.127.8.195)</text>
</g>
<!-- JerryXiao&#45;&gt;JerryXiao_SH01 -->
<g id="edge25" class="edge">
<title>JerryXiao&#45;&gt;JerryXiao_SH01</title>
<path fill="none" stroke="black" d="M854.22,-55C891.04,-55 933.3,-55 968.05,-55"/>
<polygon fill="black" stroke="black" points="854.08,-51.5 844.08,-55 854.08,-58.5 854.08,-51.5"/>
<polygon fill="black" stroke="black" points="968.11,-58.5 978.11,-55 968.11,-51.5 968.11,-58.5"/>
</g>
<!-- JerryXiao_HK01 -->
<g id="node22" class="node">
<title>JerryXiao_HK01</title>
<polygon fill="none" stroke="black" points="1288.5,-64 1166.5,-64 1166.5,-26 1288.5,-26 1288.5,-64"/>
<text text-anchor="middle" x="1227.5" y="-48.8" font-family="Times,serif" font-size="14.00">jerryxiao&#45;hk01</text>
<text text-anchor="middle" x="1227.5" y="-33.8" font-family="Times,serif" font-size="14.00">(10.127.8.194)</text>
</g>
<!-- JerryXiao&#45;&gt;JerryXiao_HK01 -->
<g id="edge26" class="edge">
<title>JerryXiao&#45;&gt;JerryXiao_HK01</title>
<path fill="none" stroke="black" d="M854.31,-39.29C886.22,-34.3 922.63,-29.45 956,-27 1030.24,-21.54 1049.33,-20.57 1123.5,-27 1134.16,-27.92 1145.38,-29.38 1156.32,-31.07"/>
<polygon fill="black" stroke="black" points="853.45,-35.88 844.12,-40.91 854.55,-42.79 853.45,-35.88"/>
<polygon fill="black" stroke="black" points="1155.84,-34.54 1166.27,-32.68 1156.96,-27.63 1155.84,-34.54"/>
</g>
<!-- JerryXiao&#45;&gt;septs -->
<g id="edge30" class="edge">
<title>JerryXiao&#45;&gt;septs</title>
<path fill="none" stroke="black" d="M853.9,-74.86C879.12,-83 905.79,-94.11 928,-109 967.78,-135.67 1001.73,-180.32 1021.13,-209.21"/>
<polygon fill="black" stroke="black" points="854.91,-71.51 844.32,-71.88 852.84,-78.19 854.91,-71.51"/>
<polygon fill="black" stroke="black" points="1018.25,-211.21 1026.67,-217.64 1024.1,-207.36 1018.25,-211.21"/>
</g>
<!-- JerryXiao_SH01&#45;&gt;JerryXiao_HK01 -->
<g id="edge27" class="edge">
<title>JerryXiao_SH01&#45;&gt;JerryXiao_HK01</title>
<path fill="none" stroke="black" d="M1110.65,-51.23C1125.52,-50.43 1141.23,-49.58 1156.11,-48.78"/>
<polygon fill="black" stroke="black" points="1110.43,-47.74 1100.63,-51.77 1110.81,-54.73 1110.43,-47.74"/>
<polygon fill="black" stroke="black" points="1156.46,-52.27 1166.26,-48.24 1156.08,-45.28 1156.46,-52.27"/>
</g>
<!-- dfceaef -->
<g id="node26" class="node">
<title>dfceaef</title>
<polygon fill="none" stroke="black" points="1296,-166.5 1159,-166.5 1159,-113.5 1296,-113.5 1296,-166.5"/>
<text text-anchor="middle" x="1227.5" y="-151.3" font-family="Times,serif" font-size="14.00">dfceaef</text>
<text text-anchor="middle" x="1227.5" y="-136.3" font-family="Times,serif" font-size="14.00">(10.127.8.64/26)</text>
<text text-anchor="middle" x="1227.5" y="-121.3" font-family="Times,serif" font-size="14.00">(AS4242420140)</text>
</g>
<!-- JerryXiao_SH01&#45;&gt;dfceaef -->
<g id="edge31" class="edge">
<title>JerryXiao_SH01&#45;&gt;dfceaef</title>
<path fill="none" stroke="black" d="M1091.45,-78.28C1112.36,-87.84 1136.87,-99.04 1159.22,-109.26"/>
<polygon fill="black" stroke="black" points="1092.79,-75.05 1082.24,-74.08 1089.88,-81.42 1092.79,-75.05"/>
<polygon fill="black" stroke="black" points="1157.77,-112.44 1168.32,-113.41 1160.68,-106.07 1157.77,-112.44"/>
</g>
<!-- JerryXiao_HK02 -->
<g id="node23" class="node">
<title>JerryXiao_HK02</title>
<polygon fill="none" stroke="black" points="1454,-64 1332,-64 1332,-26 1454,-26 1454,-64"/>
<text text-anchor="middle" x="1393" y="-48.8" font-family="Times,serif" font-size="14.00">jerryxiao&#45;hk02</text>
<text text-anchor="middle" x="1393" y="-33.8" font-family="Times,serif" font-size="14.00">(10.127.8.196)</text>
</g>
<!-- JerryXiao_HK01&#45;&gt;JerryXiao_HK02 -->
<g id="edge28" class="edge">
<title>JerryXiao_HK01&#45;&gt;JerryXiao_HK02</title>
<path fill="none" stroke="black" d="M1299.23,-45C1306.7,-45 1314.29,-45 1321.76,-45"/>
<polygon fill="black" stroke="black" points="1298.92,-41.5 1288.92,-45 1298.92,-48.5 1298.92,-41.5"/>
<polygon fill="black" stroke="black" points="1321.83,-48.5 1331.83,-45 1321.83,-41.5 1321.83,-48.5"/>
</g>
<!-- septs&#45;&gt;frank_hsinchu -->
<g id="edge46" class="edge">
<title>septs&#45;&gt;frank_hsinchu</title>
<path fill="none" stroke="black" d="M1118.36,-233.23C1128.46,-232.74 1138.8,-232.24 1148.89,-231.76"/>
<polygon fill="black" stroke="black" points="1118,-229.75 1108.18,-233.73 1118.33,-236.74 1118,-229.75"/>
<polygon fill="black" stroke="black" points="1149.05,-235.25 1158.87,-231.27 1148.72,-228.26 1149.05,-235.25"/>
</g>
<!-- lantian -->
<g id="node25" class="node">
<title>lantian</title>
<polygon fill="none" stroke="black" points="575,-108 438,-108 438,-70 575,-70 575,-108"/>
<text text-anchor="middle" x="506.5" y="-92.8" font-family="Times,serif" font-size="14.00">lantian</text>
<text text-anchor="middle" x="506.5" y="-77.8" font-family="Times,serif" font-size="14.00">(AS4201270010)</text>
</g>
<!-- lantian&#45;&gt;JerryXiao -->
<g id="edge34" class="edge">
<title>lantian&#45;&gt;JerryXiao</title>
<path fill="none" stroke="black" d="M585.29,-78.71C614.23,-74.88 647.27,-70.51 677.02,-66.57"/>
<polygon fill="black" stroke="black" points="584.48,-75.29 575.02,-80.07 585.4,-82.23 584.48,-75.29"/>
<polygon fill="black" stroke="black" points="677.52,-70.04 686.97,-65.26 676.6,-63.1 677.52,-70.04"/>
</g>
<!-- lantian&#45;&gt;septs -->
<g id="edge33" class="edge">
<title>lantian&#45;&gt;septs</title>
<path fill="none" stroke="black" d="M585.26,-104.66C688.6,-125.83 865.4,-163.41 928,-185 950.32,-192.7 974.13,-203.54 993.91,-213.33"/>
<polygon fill="black" stroke="black" points="585.69,-101.18 575.19,-102.6 584.29,-108.03 585.69,-101.18"/>
<polygon fill="black" stroke="black" points="992.48,-216.53 1002.99,-217.89 995.62,-210.27 992.48,-216.53"/>
</g>
<!-- santost12&#45;&gt;magicneko_JP03 -->
<g id="edge52" class="edge">
<title>santost12&#45;&gt;magicneko_JP03</title>
<path fill="none" stroke="black" d="M970.68,-772.58C875.29,-763.93 702.9,-733.53 611,-627 555.14,-562.25 628.96,-504.33 575,-438 573.74,-436.45 572.38,-434.98 570.93,-433.6"/>
<polygon fill="black" stroke="black" points="573.09,-430.84 563.1,-427.32 568.71,-436.3 573.09,-430.84"/>
</g>
<!-- NNPCC -->
<g id="node30" class="node">
<title>NNPCC</title>
<polygon fill="none" stroke="black" points="102,-1166 31,-1166 31,-1130 102,-1130 102,-1166"/>
<text text-anchor="middle" x="66.5" y="-1144.3" font-family="Times,serif" font-size="14.00">NNPCC</text>
</g>
<!-- NNPCC&#45;&gt;np11 -->
<g id="edge1" class="edge">
<title>NNPCC&#45;&gt;np11</title>
<path fill="none" stroke="black" d="M111.35,-1127.65C139.83,-1114.43 177.51,-1096.94 209.68,-1082.01"/>
<polygon fill="black" stroke="black" points="109.61,-1124.6 102.01,-1131.98 112.56,-1130.95 109.61,-1124.6"/>
<polygon fill="black" stroke="black" points="211.44,-1085.05 219.04,-1077.67 208.49,-1078.71 211.44,-1085.05"/>
</g>
<!-- NeoBOX -->
<g id="node31" class="node">
<title>NeoBOX</title>
<polygon fill="none" stroke="black" points="105,-1112 28,-1112 28,-1076 105,-1076 105,-1112"/>
<text text-anchor="middle" x="66.5" y="-1090.3" font-family="Times,serif" font-size="14.00">NeoBOX</text>
</g>
<!-- NeoBOX&#45;&gt;np11 -->
<g id="edge2" class="edge">
<title>NeoBOX&#45;&gt;np11</title>
<path fill="none" stroke="black" d="M115.2,-1084.19C142.3,-1078.61 176.71,-1071.53 206.78,-1065.34"/>
<polygon fill="black" stroke="black" points="114.44,-1080.77 105.35,-1086.21 115.85,-1087.63 114.44,-1080.77"/>
<polygon fill="black" stroke="black" points="207.7,-1068.73 216.79,-1063.28 206.29,-1061.87 207.7,-1068.73"/>
</g>
<!-- cklvax -->
<g id="node32" class="node">
<title>cklvax</title>
<polygon fill="none" stroke="black" points="97.5,-1058 35.5,-1058 35.5,-1022 97.5,-1022 97.5,-1058"/>
<text text-anchor="middle" x="66.5" y="-1036.3" font-family="Times,serif" font-size="14.00">cklvax</text>
</g>
<!-- cklvax&#45;&gt;np11 -->
<g id="edge3" class="edge">
<title>cklvax&#45;&gt;np11</title>
<path fill="none" stroke="black" d="M108.27,-1042.15C136.11,-1043.61 173.72,-1045.59 206.32,-1047.31"/>
<polygon fill="black" stroke="black" points="108.06,-1038.63 97.89,-1041.6 107.69,-1045.62 108.06,-1038.63"/>
<polygon fill="black" stroke="black" points="206.54,-1050.82 216.71,-1047.85 206.91,-1043.83 206.54,-1050.82"/>
</g>
<!-- NeoStorage -->
<g id="node33" class="node">
<title>NeoStorage</title>
<polygon fill="none" stroke="black" points="117,-1004 16,-1004 16,-968 117,-968 117,-1004"/>
<text text-anchor="middle" x="66.5" y="-982.3" font-family="Times,serif" font-size="14.00">NeoStorage</text>
</g>
<!-- NeoStorage&#45;&gt;np11 -->
<g id="edge4" class="edge">
<title>NeoStorage&#45;&gt;np11</title>
<path fill="none" stroke="black" d="M126.59,-1006.42C135.43,-1009.36 144.44,-1012.3 153,-1015 170.52,-1020.52 189.54,-1026.21 207.27,-1031.39"/>
<polygon fill="black" stroke="black" points="127.71,-1003.1 117.11,-1003.23 125.48,-1009.73 127.71,-1003.1"/>
<polygon fill="black" stroke="black" points="206.4,-1034.78 216.98,-1034.22 208.35,-1028.06 206.4,-1034.78"/>
</g>
</g>
</svg>
