<?xml version="1.0" encoding="UTF-8" standalone="no"?>
<!DOCTYPE svg PUBLIC "-//W3C//DTD SVG 1.1//EN"
 "http://www.w3.org/Graphics/SVG/1.1/DTD/svg11.dtd">
<!-- Generated by graphviz version 2.44.0 (0)
 -->
<!-- Title: NeoNetwork Nodes Pages: 1 -->
<svg width="945pt" height="1105pt"
 viewBox="0.00 0.00 945.00 1105.00" xmlns="http://www.w3.org/2000/svg" xmlns:xlink="http://www.w3.org/1999/xlink">
<g id="graph0" class="graph" transform="scale(1 1) rotate(0) translate(4 1101)">
<title>NeoNetwork Nodes</title>
<polygon fill="white" stroke="transparent" points="-4,4 -4,-1101 941,-1101 941,4 -4,4"/>
<text text-anchor="middle" x="468.5" y="-1081.8" font-family="Times,serif" font-size="14.00">NeoNetwork Nodes</text>
<g id="clust1" class="cluster">
<title>cluster_AS4201048576</title>
<polygon fill="none" stroke="black" points="8,-791 8,-1028 789,-1028 789,-791 8,-791"/>
<text text-anchor="middle" x="398.5" y="-1012.8" font-family="Times,serif" font-size="14.00">NeoNetwork (AS4201048576)</text>
</g>
<g id="clust2" class="cluster">
<title>cluster_AS4200012450</title>
<polygon fill="none" stroke="black" points="125.5,-214 125.5,-699 471,-699 471,-214 125.5,-214"/>
<text text-anchor="middle" x="298.25" y="-683.8" font-family="Times,serif" font-size="14.00">MagicNeko Network (AS4200012450)</text>
</g>
<g id="clust3" class="cluster">
<title>cluster_AS4200066666</title>
<polygon fill="none" stroke="black" points="300,-8 300,-105 929,-105 929,-8 300,-8"/>
<text text-anchor="middle" x="614.5" y="-89.8" font-family="Times,serif" font-size="14.00">Jerry Network (AS4200066666)</text>
</g>
<!-- c -->
<g id="node1" class="node">
<title>c</title>
<polygon fill="none" stroke="black" points="781,-871 660,-871 660,-833 781,-833 781,-871"/>
<text text-anchor="middle" x="720.5" y="-855.8" font-family="Times,serif" font-size="14.00">caasih.neocloud.tw</text>
<text text-anchor="middle" x="720.5" y="-840.8" font-family="Times,serif" font-size="14.00">(10.127.0.1)</text>
</g>
<!-- ucbvax -->
<g id="node2" class="node">
<title>ucbvax</title>
<polygon fill="none" stroke="black" points="618,-837 499,-837 499,-799 618,-799 618,-837"/>
<text text-anchor="middle" x="558.5" y="-821.8" font-family="Times,serif" font-size="14.00">router.neocloud.tw</text>
<text text-anchor="middle" x="558.5" y="-806.8" font-family="Times,serif" font-size="14.00">(10.127.255.2)</text>
</g>
<!-- ucbvax&#45;&gt;c -->
<g id="edge8" class="edge">
<title>ucbvax&#45;&gt;c</title>
<path fill="none" stroke="black" d="M628.15,-832.59C635.22,-834.09 642.41,-835.62 649.49,-837.12"/>
<polygon fill="black" stroke="black" points="628.68,-829.12 618.17,-830.47 627.22,-835.97 628.68,-829.12"/>
<polygon fill="black" stroke="black" points="649.26,-840.65 659.77,-839.31 650.71,-833.8 649.26,-840.65"/>
</g>
<!-- chenx97 -->
<g id="node18" class="node">
<title>chenx97</title>
<polygon fill="none" stroke="black" points="787,-1074 654,-1074 654,-1036 787,-1036 787,-1074"/>
<text text-anchor="middle" x="720.5" y="-1058.8" font-family="Times,serif" font-size="14.00">chenx97.neocloud.tw</text>
<text text-anchor="middle" x="720.5" y="-1043.8" font-family="Times,serif" font-size="14.00">(AS4200114514)</text>
</g>
<!-- ucbvax&#45;&gt;chenx97 -->
<g id="edge15" class="edge">
<title>ucbvax&#45;&gt;chenx97</title>
<path fill="none" stroke="black" d="M564.68,-847.11C573.86,-890.8 596.98,-973.7 651.26,-1028.7"/>
<polygon fill="black" stroke="black" points="568.1,-846.37 562.7,-837.25 561.24,-847.75 568.1,-846.37"/>
<polygon fill="black" stroke="black" points="649.13,-1031.51 658.76,-1035.93 653.99,-1026.47 649.13,-1031.51"/>
</g>
<!-- septs -->
<g id="node23" class="node">
<title>septs</title>
<polygon fill="none" stroke="black" points="775.5,-378 665.5,-378 665.5,-340 775.5,-340 775.5,-378"/>
<text text-anchor="middle" x="720.5" y="-362.8" font-family="Times,serif" font-size="14.00">bgp.septs.me</text>
<text text-anchor="middle" x="720.5" y="-347.8" font-family="Times,serif" font-size="14.00">(AS4200055555)</text>
</g>
<!-- ucbvax&#45;&gt;septs -->
<g id="edge36" class="edge">
<title>ucbvax&#45;&gt;septs</title>
<path fill="none" stroke="black" d="M569.53,-789.24C598.28,-706.76 680.77,-470.1 709.49,-387.7"/>
<polygon fill="black" stroke="black" points="566.16,-788.27 566.17,-798.86 572.77,-790.57 566.16,-788.27"/>
<polygon fill="black" stroke="black" points="712.81,-388.81 712.8,-378.22 706.2,-386.51 712.81,-388.81"/>
</g>
<!-- np11 -->
<g id="node3" class="node">
<title>np11</title>
<polygon fill="none" stroke="black" points="235.5,-874.5 138.5,-874.5 138.5,-821.5 235.5,-821.5 235.5,-874.5"/>
<text text-anchor="middle" x="187" y="-859.3" font-family="Times,serif" font-size="14.00">NeoPDP&#45;11</text>
<text text-anchor="middle" x="187" y="-844.3" font-family="Times,serif" font-size="14.00">(10.127.255.1,</text>
<text text-anchor="middle" x="187" y="-829.3" font-family="Times,serif" font-size="14.00">10.127.1.1)</text>
</g>
<!-- np11&#45;&gt;c -->
<g id="edge7" class="edge">
<title>np11&#45;&gt;c</title>
<path fill="none" stroke="black" d="M235.95,-865.85C249.36,-870.03 264.09,-873.89 278,-876 408.31,-895.8 562.43,-878.24 649.8,-864.53"/>
<polygon fill="black" stroke="black" points="650.53,-867.96 659.86,-862.93 649.43,-861.05 650.53,-867.96"/>
</g>
<!-- np11&#45;&gt;ucbvax -->
<g id="edge5" class="edge">
<title>np11&#45;&gt;ucbvax</title>
<path fill="none" stroke="black" d="M235.96,-830.22C249.38,-826.03 264.09,-822.16 278,-820 349.09,-808.94 431.59,-810.02 488.44,-812.89"/>
<polygon fill="black" stroke="black" points="488.57,-816.4 498.75,-813.44 488.95,-809.41 488.57,-816.4"/>
</g>
<!-- pan -->
<g id="node6" class="node">
<title>pan</title>
<polygon fill="none" stroke="black" points="419.5,-867 321.5,-867 321.5,-829 419.5,-829 419.5,-867"/>
<text text-anchor="middle" x="370.5" y="-851.8" font-family="Times,serif" font-size="14.00">r2.neocloud.tw</text>
<text text-anchor="middle" x="370.5" y="-836.8" font-family="Times,serif" font-size="14.00">(10.127.3.1)</text>
</g>
<!-- np11&#45;&gt;pan -->
<g id="edge6" class="edge">
<title>np11&#45;&gt;pan</title>
<path fill="none" stroke="black" d="M235.69,-848C258.75,-848 286.65,-848 311,-848"/>
<polygon fill="black" stroke="black" points="311.19,-851.5 321.19,-848 311.19,-844.5 311.19,-851.5"/>
</g>
<!-- ns -->
<g id="node4" class="node">
<title>ns</title>
<polygon fill="none" stroke="black" points="239,-931 135,-931 135,-893 239,-893 239,-931"/>
<text text-anchor="middle" x="187" y="-915.8" font-family="Times,serif" font-size="14.00">NeoSystem</text>
<text text-anchor="middle" x="187" y="-900.8" font-family="Times,serif" font-size="14.00">(10.127.255.80)</text>
</g>
<!-- ns&#45;&gt;ucbvax -->
<g id="edge9" class="edge">
<title>ns&#45;&gt;ucbvax</title>
<path fill="none" stroke="black" d="M239.01,-912.49C297.01,-911.48 393.67,-904.99 471,-876 491.14,-868.45 511.24,-855.39 526.99,-843.57"/>
<polygon fill="black" stroke="black" points="529.5,-846.06 535.27,-837.18 525.22,-840.53 529.5,-846.06"/>
</g>
<!-- ns&#45;&gt;pan -->
<g id="edge10" class="edge">
<title>ns&#45;&gt;pan</title>
<path fill="none" stroke="black" d="M239.04,-894C261.71,-886.01 288.5,-876.56 311.88,-868.32"/>
<polygon fill="black" stroke="black" points="313.07,-871.61 321.34,-864.98 310.74,-865.01 313.07,-871.61"/>
</g>
<!-- megumiLHS -->
<g id="node5" class="node">
<title>megumiLHS</title>
<polygon fill="none" stroke="black" points="437.5,-745 303.5,-745 303.5,-707 437.5,-707 437.5,-745"/>
<text text-anchor="middle" x="370.5" y="-729.8" font-family="Times,serif" font-size="14.00">megumi.yukipedia.cf</text>
<text text-anchor="middle" x="370.5" y="-714.8" font-family="Times,serif" font-size="14.00">(AS4203223939)</text>
</g>
<!-- megumiLHS&#45;&gt;ucbvax -->
<g id="edge12" class="edge">
<title>megumiLHS&#45;&gt;ucbvax</title>
<path fill="none" stroke="black" d="M447.18,-748.62C455.35,-751.79 463.44,-755.26 471,-759 489.83,-768.32 509.3,-781.25 524.98,-792.63"/>
<polygon fill="black" stroke="black" points="448.16,-745.25 437.57,-745.03 445.72,-751.81 448.16,-745.25"/>
<polygon fill="black" stroke="black" points="523.15,-795.64 533.27,-798.76 527.31,-790.01 523.15,-795.64"/>
</g>
<!-- megumiLHS&#45;&gt;septs -->
<g id="edge39" class="edge">
<title>megumiLHS&#45;&gt;septs</title>
<path fill="none" stroke="black" d="M447.5,-714.17C455.77,-711.23 463.79,-707.57 471,-703 596.81,-623.32 678.86,-455.02 707.83,-387.71"/>
<polygon fill="black" stroke="black" points="446.17,-710.92 437.71,-717.29 448.3,-717.59 446.17,-710.92"/>
<polygon fill="black" stroke="black" points="711.19,-388.74 711.87,-378.17 704.75,-386.01 711.19,-388.74"/>
</g>
<!-- pan&#45;&gt;ucbvax -->
<g id="edge11" class="edge">
<title>pan&#45;&gt;ucbvax</title>
<path fill="none" stroke="black" d="M430.04,-838.56C448.7,-835.55 469.5,-832.19 488.81,-829.08"/>
<polygon fill="black" stroke="black" points="429.2,-835.15 419.88,-840.2 430.31,-842.06 429.2,-835.15"/>
<polygon fill="black" stroke="black" points="489.43,-832.52 498.74,-827.48 488.31,-825.61 489.43,-832.52"/>
</g>
<!-- icecat_Explosion -->
<g id="node7" class="node">
<title>icecat_Explosion</title>
<polygon fill="none" stroke="black" points="463,-507.5 278,-507.5 278,-454.5 463,-454.5 463,-507.5"/>
<text text-anchor="middle" x="370.5" y="-492.3" font-family="Times,serif" font-size="14.00">hk&#45;01.nextmoe.cloud.imiku.cn</text>
<text text-anchor="middle" x="370.5" y="-477.3" font-family="Times,serif" font-size="14.00">(10.127.0.58,</text>
<text text-anchor="middle" x="370.5" y="-462.3" font-family="Times,serif" font-size="14.00">10.127.4.10)</text>
</g>
<!-- icecat_Explosion&#45;&gt;ucbvax -->
<g id="edge13" class="edge">
<title>icecat_Explosion&#45;&gt;ucbvax</title>
<path fill="none" stroke="black" d="M391.23,-516.74C428.39,-584.07 508.04,-728.39 541.83,-789.61"/>
<polygon fill="black" stroke="black" points="394.15,-514.79 386.25,-507.73 388.02,-518.17 394.15,-514.79"/>
<polygon fill="black" stroke="black" points="538.95,-791.64 546.85,-798.7 545.08,-788.25 538.95,-791.64"/>
</g>
<!-- SUNNET -->
<g id="node26" class="node">
<title>SUNNET</title>
<polygon fill="none" stroke="black" points="613.5,-507.5 503.5,-507.5 503.5,-454.5 613.5,-454.5 613.5,-507.5"/>
<text text-anchor="middle" x="558.5" y="-492.3" font-family="Times,serif" font-size="14.00">SUNNET</text>
<text text-anchor="middle" x="558.5" y="-477.3" font-family="Times,serif" font-size="14.00">(10.127.11.0/24)</text>
<text text-anchor="middle" x="558.5" y="-462.3" font-family="Times,serif" font-size="14.00">(AS4242423088)</text>
</g>
<!-- icecat_Explosion&#45;&gt;SUNNET -->
<g id="edge40" class="edge">
<title>icecat_Explosion&#45;&gt;SUNNET</title>
<path fill="none" stroke="black" d="M473.44,-481C480.02,-481 486.55,-481 492.87,-481"/>
<polygon fill="black" stroke="black" points="473.14,-477.5 463.14,-481 473.14,-484.5 473.14,-477.5"/>
<polygon fill="black" stroke="black" points="493.32,-484.5 503.32,-481 493.32,-477.5 493.32,-484.5"/>
</g>
<!-- icecat_Notebook -->
<g id="node8" class="node">
<title>icecat_Notebook</title>
<polygon fill="none" stroke="black" points="240.5,-387.5 133.5,-387.5 133.5,-334.5 240.5,-334.5 240.5,-387.5"/>
<text text-anchor="middle" x="187" y="-372.3" font-family="Times,serif" font-size="14.00">Notebook</text>
<text text-anchor="middle" x="187" y="-357.3" font-family="Times,serif" font-size="14.00">(10.127.0.64/30,</text>
<text text-anchor="middle" x="187" y="-342.3" font-family="Times,serif" font-size="14.00">10.127.4.100)</text>
</g>
<!-- icecat_Notebook&#45;&gt;icecat_Explosion -->
<g id="edge23" class="edge">
<title>icecat_Notebook&#45;&gt;icecat_Explosion</title>
<path fill="none" stroke="black" d="M228.28,-387.63C255.66,-405.73 292.02,-429.77 320.98,-448.92"/>
<polygon fill="black" stroke="black" points="319.06,-451.85 329.33,-454.44 322.92,-446.01 319.06,-451.85"/>
</g>
<!-- magicneko_HK01 -->
<g id="node9" class="node">
<title>magicneko_HK01</title>
<polygon fill="none" stroke="black" points="229,-316 145,-316 145,-278 229,-278 229,-316"/>
<text text-anchor="middle" x="187" y="-300.8" font-family="Times,serif" font-size="14.00">M&#45;HK1</text>
<text text-anchor="middle" x="187" y="-285.8" font-family="Times,serif" font-size="14.00">(10.127.4.1)</text>
</g>
<!-- magicneko_HK01&#45;&gt;icecat_Explosion -->
<g id="edge16" class="edge">
<title>magicneko_HK01&#45;&gt;icecat_Explosion</title>
<path fill="none" stroke="black" d="M228.19,-316.07C233.06,-319.09 237.79,-322.41 242,-326 262.04,-343.05 261.49,-352.51 278,-373 298.1,-397.94 321.45,-425.48 339.53,-446.51"/>
<polygon fill="black" stroke="black" points="337.01,-448.94 346.19,-454.23 342.31,-444.37 337.01,-448.94"/>
</g>
<!-- magicneko_HK02 -->
<g id="node10" class="node">
<title>magicneko_HK02</title>
<polygon fill="none" stroke="black" points="232.5,-668 141.5,-668 141.5,-630 232.5,-630 232.5,-668"/>
<text text-anchor="middle" x="187" y="-652.8" font-family="Times,serif" font-size="14.00">M&#45;HK2</text>
<text text-anchor="middle" x="187" y="-637.8" font-family="Times,serif" font-size="14.00">(10.127.4.10)</text>
</g>
<!-- magicneko_HK02&#45;&gt;icecat_Explosion -->
<g id="edge17" class="edge">
<title>magicneko_HK02&#45;&gt;icecat_Explosion</title>
<path fill="none" stroke="black" d="M228.77,-629.87C233.39,-627.12 237.9,-624.15 242,-621 281.91,-590.33 319.69,-546.27 343.61,-515.81"/>
<polygon fill="black" stroke="black" points="346.61,-517.64 349.98,-507.6 341.08,-513.35 346.61,-517.64"/>
</g>
<!-- magicneko_JP01 -->
<g id="node11" class="node">
<title>magicneko_JP01</title>
<polygon fill="none" stroke="black" points="232.5,-612 141.5,-612 141.5,-574 232.5,-574 232.5,-612"/>
<text text-anchor="middle" x="187" y="-596.8" font-family="Times,serif" font-size="14.00">M&#45;JP1</text>
<text text-anchor="middle" x="187" y="-581.8" font-family="Times,serif" font-size="14.00">(10.127.4.11)</text>
</g>
<!-- magicneko_JP01&#45;&gt;icecat_Explosion -->
<g id="edge18" class="edge">
<title>magicneko_JP01&#45;&gt;icecat_Explosion</title>
<path fill="none" stroke="black" d="M226.04,-573.91C231.45,-571.01 236.9,-567.99 242,-565 269.39,-548.94 299.06,-529.51 322.89,-513.39"/>
<polygon fill="black" stroke="black" points="325.08,-516.13 331.38,-507.61 321.15,-510.34 325.08,-516.13"/>
</g>
<!-- magicneko_HK03 -->
<g id="node12" class="node">
<title>magicneko_HK03</title>
<polygon fill="none" stroke="black" points="232.5,-500 141.5,-500 141.5,-462 232.5,-462 232.5,-500"/>
<text text-anchor="middle" x="187" y="-484.8" font-family="Times,serif" font-size="14.00">M&#45;HK3</text>
<text text-anchor="middle" x="187" y="-469.8" font-family="Times,serif" font-size="14.00">(10.127.4.12)</text>
</g>
<!-- magicneko_HK03&#45;&gt;icecat_Explosion -->
<g id="edge19" class="edge">
<title>magicneko_HK03&#45;&gt;icecat_Explosion</title>
<path fill="none" stroke="black" d="M232.87,-481C243.61,-481 255.52,-481 267.69,-481"/>
<polygon fill="black" stroke="black" points="267.97,-484.5 277.97,-481 267.97,-477.5 267.97,-484.5"/>
</g>
<!-- magicneko_JP02 -->
<g id="node13" class="node">
<title>magicneko_JP02</title>
<polygon fill="none" stroke="black" points="232.5,-444 141.5,-444 141.5,-406 232.5,-406 232.5,-444"/>
<text text-anchor="middle" x="187" y="-428.8" font-family="Times,serif" font-size="14.00">M&#45;JP2</text>
<text text-anchor="middle" x="187" y="-413.8" font-family="Times,serif" font-size="14.00">(10.127.4.13)</text>
</g>
<!-- magicneko_JP02&#45;&gt;icecat_Explosion -->
<g id="edge20" class="edge">
<title>magicneko_JP02&#45;&gt;icecat_Explosion</title>
<path fill="none" stroke="black" d="M232.87,-438.84C245.32,-442.68 259.33,-447.01 273.52,-451.39"/>
<polygon fill="black" stroke="black" points="272.77,-454.82 283.36,-454.42 274.83,-448.13 272.77,-454.82"/>
</g>
<!-- magicneko_RU01 -->
<g id="node14" class="node">
<title>magicneko_RU01</title>
<polygon fill="none" stroke="black" points="232.5,-260 141.5,-260 141.5,-222 232.5,-222 232.5,-260"/>
<text text-anchor="middle" x="187" y="-244.8" font-family="Times,serif" font-size="14.00">M&#45;RU1</text>
<text text-anchor="middle" x="187" y="-229.8" font-family="Times,serif" font-size="14.00">(10.127.4.14)</text>
</g>
<!-- magicneko_RU01&#45;&gt;icecat_Explosion -->
<g id="edge21" class="edge">
<title>magicneko_RU01&#45;&gt;icecat_Explosion</title>
<path fill="none" stroke="black" d="M232.3,-260.14C235.86,-262.78 239.17,-265.72 242,-269 273.99,-306 253.78,-330.51 278,-373 293.43,-400.07 316.02,-426.82 334.9,-446.93"/>
<polygon fill="black" stroke="black" points="332.49,-449.48 341.93,-454.29 337.56,-444.64 332.49,-449.48"/>
</g>
<!-- staph -->
<g id="node16" class="node">
<title>staph</title>
<polygon fill="none" stroke="black" points="425.5,-206 315.5,-206 315.5,-168 425.5,-168 425.5,-206"/>
<text text-anchor="middle" x="370.5" y="-190.8" font-family="Times,serif" font-size="14.00">s.aureus.ga</text>
<text text-anchor="middle" x="370.5" y="-175.8" font-family="Times,serif" font-size="14.00">(AS4200078274)</text>
</g>
<!-- magicneko_RU01&#45;&gt;staph -->
<g id="edge38" class="edge">
<title>magicneko_RU01&#45;&gt;staph</title>
<path fill="none" stroke="black" d="M242.28,-221.47C254,-217.48 266.37,-213.46 278,-210 286.76,-207.39 296.05,-204.83 305.23,-202.42"/>
<polygon fill="black" stroke="black" points="240.94,-218.23 232.62,-224.79 243.21,-224.85 240.94,-218.23"/>
<polygon fill="black" stroke="black" points="306.3,-205.76 315.1,-199.86 304.54,-198.98 306.3,-205.76"/>
</g>
<!-- magicneko_RU01&#45;&gt;septs -->
<g id="edge42" class="edge">
<title>magicneko_RU01&#45;&gt;septs</title>
<path fill="none" stroke="black" d="M242.11,-261.01C303.51,-282.9 407.09,-317.35 499,-336 550.97,-346.54 610.86,-352.4 655.1,-355.56"/>
<polygon fill="black" stroke="black" points="243.22,-257.69 232.62,-257.61 240.85,-264.28 243.22,-257.69"/>
<polygon fill="black" stroke="black" points="654.92,-359.06 665.14,-356.25 655.4,-352.07 654.92,-359.06"/>
</g>
<!-- magicneko_JP03 -->
<g id="node15" class="node">
<title>magicneko_JP03</title>
<polygon fill="none" stroke="black" points="232.5,-556 141.5,-556 141.5,-518 232.5,-518 232.5,-556"/>
<text text-anchor="middle" x="187" y="-540.8" font-family="Times,serif" font-size="14.00">M&#45;JP3</text>
<text text-anchor="middle" x="187" y="-525.8" font-family="Times,serif" font-size="14.00">(10.127.4.15)</text>
</g>
<!-- magicneko_JP03&#45;&gt;megumiLHS -->
<g id="edge43" class="edge">
<title>magicneko_JP03&#45;&gt;megumiLHS</title>
<path fill="none" stroke="black" d="M240.15,-562.83C240.79,-563.54 241.41,-564.26 242,-565 281.55,-614.53 232.98,-658.38 278,-703 282.66,-707.62 288.1,-711.35 293.96,-714.37"/>
<polygon fill="black" stroke="black" points="242.32,-560.07 232.57,-555.92 237.6,-565.24 242.32,-560.07"/>
<polygon fill="black" stroke="black" points="292.9,-717.72 303.46,-718.54 295.71,-711.31 292.9,-717.72"/>
</g>
<!-- magicneko_JP03&#45;&gt;icecat_Explosion -->
<g id="edge22" class="edge">
<title>magicneko_JP03&#45;&gt;icecat_Explosion</title>
<path fill="none" stroke="black" d="M232.87,-523.16C245.32,-519.32 259.33,-514.99 273.52,-510.61"/>
<polygon fill="black" stroke="black" points="274.83,-513.87 283.36,-507.58 272.77,-507.18 274.83,-513.87"/>
</g>
<!-- magicneko_JP03&#45;&gt;chenx97 -->
<g id="edge37" class="edge">
<title>magicneko_JP03&#45;&gt;chenx97</title>
<path fill="none" stroke="black" d="M239.91,-562.41C240.64,-563.25 241.34,-564.11 242,-565 293.09,-633.57 216.97,-694.11 278,-754 340.11,-814.95 411.2,-723.78 471,-787 546.31,-866.62 421.12,-954.89 499,-1032 536.15,-1068.79 595.96,-1073.01 643.92,-1068.87"/>
<polygon fill="black" stroke="black" points="242.25,-559.81 232.56,-555.53 237.47,-564.92 242.25,-559.81"/>
<polygon fill="black" stroke="black" points="644.36,-1072.34 653.96,-1067.87 643.66,-1065.38 644.36,-1072.34"/>
</g>
<!-- JerryXiao -->
<g id="node19" class="node">
<title>JerryXiao</title>
<polygon fill="none" stroke="black" points="433,-74 308,-74 308,-36 433,-36 433,-74"/>
<text text-anchor="middle" x="370.5" y="-58.8" font-family="Times,serif" font-size="14.00">jpn.neo.jerryxiao.cc</text>
<text text-anchor="middle" x="370.5" y="-43.8" font-family="Times,serif" font-size="14.00">(10.127.8.193)</text>
</g>
<!-- magicneko_JP03&#45;&gt;JerryXiao -->
<g id="edge31" class="edge">
<title>magicneko_JP03&#45;&gt;JerryXiao</title>
<path fill="none" stroke="black" d="M239.96,-511.73C240.68,-510.85 241.36,-509.94 242,-509 329.97,-379.71 215.38,-302.29 278,-159 291.41,-128.32 317.29,-100.25 338.12,-81.03"/>
<polygon fill="black" stroke="black" points="237.33,-509.41 232.64,-518.9 242.23,-514.41 237.33,-509.41"/>
<polygon fill="black" stroke="black" points="340.72,-83.4 345.82,-74.11 336.04,-78.19 340.72,-83.4"/>
</g>
<!-- magicneko_JP03&#45;&gt;septs -->
<g id="edge34" class="edge">
<title>magicneko_JP03&#45;&gt;septs</title>
<path fill="none" stroke="black" d="M238.66,-512C239.81,-511.03 240.93,-510.03 242,-509 265.26,-486.67 251.81,-464.82 278,-446 337.62,-403.16 547.65,-376.33 655.11,-365.09"/>
<polygon fill="black" stroke="black" points="236.53,-509.22 230.59,-518 240.71,-514.84 236.53,-509.22"/>
<polygon fill="black" stroke="black" points="655.6,-368.56 665.18,-364.06 654.88,-361.6 655.6,-368.56"/>
</g>
<!-- staph_CN -->
<g id="node17" class="node">
<title>staph_CN</title>
<polygon fill="none" stroke="black" points="616.5,-292.5 500.5,-292.5 500.5,-239.5 616.5,-239.5 616.5,-292.5"/>
<text text-anchor="middle" x="558.5" y="-277.3" font-family="Times,serif" font-size="14.00">cnhome.aureus.ga</text>
<text text-anchor="middle" x="558.5" y="-262.3" font-family="Times,serif" font-size="14.00">(10.127.8.187)</text>
<text text-anchor="middle" x="558.5" y="-247.3" font-family="Times,serif" font-size="14.00">(AS4200078274)</text>
</g>
<!-- staph&#45;&gt;staph_CN -->
<g id="edge14" class="edge">
<title>staph&#45;&gt;staph_CN</title>
<path fill="none" stroke="black" d="M425.53,-195.21C440.67,-198.65 456.85,-203.42 471,-210 485.1,-216.56 486.09,-222.33 499,-231 500.42,-231.95 501.86,-232.91 503.33,-233.87"/>
<polygon fill="black" stroke="black" points="501.55,-236.88 511.86,-239.33 505.32,-230.99 501.55,-236.88"/>
</g>
<!-- staph&#45;&gt;septs -->
<g id="edge35" class="edge">
<title>staph&#45;&gt;septs</title>
<path fill="none" stroke="black" d="M435.65,-191.58C448.62,-195.14 461.24,-200.89 471,-210 502.24,-239.17 468.14,-272.43 499,-302 521.32,-323.39 598.63,-339.91 655.44,-349.54"/>
<polygon fill="black" stroke="black" points="436.25,-188.12 425.72,-189.26 434.66,-194.94 436.25,-188.12"/>
<polygon fill="black" stroke="black" points="654.99,-353.01 665.43,-351.2 656.14,-346.11 654.99,-353.01"/>
</g>
<!-- santost12 -->
<g id="node27" class="node">
<title>santost12</title>
<polygon fill="none" stroke="black" points="613.5,-221.5 503.5,-221.5 503.5,-168.5 613.5,-168.5 613.5,-221.5"/>
<text text-anchor="middle" x="558.5" y="-206.3" font-family="Times,serif" font-size="14.00">Santost12</text>
<text text-anchor="middle" x="558.5" y="-191.3" font-family="Times,serif" font-size="14.00">(10.127.69.1)</text>
<text text-anchor="middle" x="558.5" y="-176.3" font-family="Times,serif" font-size="14.00">(AS4200006969)</text>
</g>
<!-- staph&#45;&gt;santost12 -->
<g id="edge41" class="edge">
<title>staph&#45;&gt;santost12</title>
<path fill="none" stroke="black" d="M435.8,-189.77C454.37,-190.56 474.63,-191.44 493.2,-192.23"/>
<polygon fill="black" stroke="black" points="435.69,-186.26 425.55,-189.32 435.39,-193.25 435.69,-186.26"/>
<polygon fill="black" stroke="black" points="493.18,-195.74 503.32,-192.67 493.48,-188.74 493.18,-195.74"/>
</g>
<!-- JerryXiao&#45;&gt;ucbvax -->
<g id="edge28" class="edge">
<title>JerryXiao&#45;&gt;ucbvax</title>
<path fill="none" stroke="black" d="M406.14,-80.59C428.84,-99.5 456.85,-127.37 471,-159 503.59,-231.84 488.26,-437.93 499,-517 512.67,-617.64 538.45,-735.45 550.71,-788.94"/>
<polygon fill="black" stroke="black" points="408.33,-77.86 398.36,-74.28 403.92,-83.3 408.33,-77.86"/>
<polygon fill="black" stroke="black" points="547.31,-789.8 552.97,-798.76 554.13,-788.23 547.31,-789.8"/>
</g>
<!-- JerryXiao_SH01 -->
<g id="node20" class="node">
<title>JerryXiao_SH01</title>
<polygon fill="none" stroke="black" points="607.5,-74 509.5,-74 509.5,-36 607.5,-36 607.5,-74"/>
<text text-anchor="middle" x="558.5" y="-58.8" font-family="Times,serif" font-size="14.00">jerryxiao&#45;sh01</text>
<text text-anchor="middle" x="558.5" y="-43.8" font-family="Times,serif" font-size="14.00">(10.127.8.195)</text>
</g>
<!-- JerryXiao&#45;&gt;JerryXiao_SH01 -->
<g id="edge24" class="edge">
<title>JerryXiao&#45;&gt;JerryXiao_SH01</title>
<path fill="none" stroke="black" d="M443.19,-55C461.67,-55 481.34,-55 499.05,-55"/>
<polygon fill="black" stroke="black" points="443.18,-51.5 433.18,-55 443.18,-58.5 443.18,-51.5"/>
<polygon fill="black" stroke="black" points="499.23,-58.5 509.23,-55 499.23,-51.5 499.23,-58.5"/>
</g>
<!-- JerryXiao_HK01 -->
<g id="node21" class="node">
<title>JerryXiao_HK01</title>
<polygon fill="none" stroke="black" points="769.5,-64 671.5,-64 671.5,-26 769.5,-26 769.5,-64"/>
<text text-anchor="middle" x="720.5" y="-48.8" font-family="Times,serif" font-size="14.00">jerryxiao&#45;hk01</text>
<text text-anchor="middle" x="720.5" y="-33.8" font-family="Times,serif" font-size="14.00">(10.127.8.194)</text>
</g>
<!-- JerryXiao&#45;&gt;JerryXiao_HK01 -->
<g id="edge25" class="edge">
<title>JerryXiao&#45;&gt;JerryXiao_HK01</title>
<path fill="none" stroke="black" d="M443.2,-36.41C461.28,-32.51 480.75,-28.98 499,-27 551.58,-21.29 565.31,-22.36 618,-27 632.13,-28.24 647.24,-30.44 661.37,-32.89"/>
<polygon fill="black" stroke="black" points="442.31,-33.02 433.31,-38.61 443.83,-39.86 442.31,-33.02"/>
<polygon fill="black" stroke="black" points="661,-36.37 671.46,-34.7 662.23,-29.48 661,-36.37"/>
</g>
<!-- JerryXiao&#45;&gt;septs -->
<g id="edge29" class="edge">
<title>JerryXiao&#45;&gt;septs</title>
<path fill="none" stroke="black" d="M443.08,-72.32C510.97,-89.27 604.56,-114.21 618,-126 650.32,-154.35 692.25,-274.55 710.43,-330.34"/>
<polygon fill="black" stroke="black" points="443.81,-68.89 433.26,-69.88 442.12,-75.69 443.81,-68.89"/>
<polygon fill="black" stroke="black" points="707.14,-331.53 713.54,-339.97 713.8,-329.38 707.14,-331.53"/>
</g>
<!-- JerryXiao_SH01&#45;&gt;JerryXiao_HK01 -->
<g id="edge26" class="edge">
<title>JerryXiao_SH01&#45;&gt;JerryXiao_HK01</title>
<path fill="none" stroke="black" d="M617.66,-51.36C631.82,-50.48 646.97,-49.53 661.14,-48.65"/>
<polygon fill="black" stroke="black" points="617.27,-47.88 607.51,-52 617.7,-54.87 617.27,-47.88"/>
<polygon fill="black" stroke="black" points="661.49,-52.13 671.25,-48.02 661.05,-45.15 661.49,-52.13"/>
</g>
<!-- dfceaef -->
<g id="node25" class="node">
<title>dfceaef</title>
<polygon fill="none" stroke="black" points="778,-166.5 663,-166.5 663,-113.5 778,-113.5 778,-166.5"/>
<text text-anchor="middle" x="720.5" y="-151.3" font-family="Times,serif" font-size="14.00">dfceaef</text>
<text text-anchor="middle" x="720.5" y="-136.3" font-family="Times,serif" font-size="14.00">(10.127.9.192/26)</text>
<text text-anchor="middle" x="720.5" y="-121.3" font-family="Times,serif" font-size="14.00">(AS4242420140)</text>
</g>
<!-- JerryXiao_SH01&#45;&gt;dfceaef -->
<g id="edge30" class="edge">
<title>JerryXiao_SH01&#45;&gt;dfceaef</title>
<path fill="none" stroke="black" d="M602.36,-79.08C607.64,-82.08 612.95,-85.1 618,-88 634.07,-97.22 637.61,-100.36 654,-109 654.09,-109.05 654.18,-109.1 654.27,-109.14"/>
<polygon fill="black" stroke="black" points="604,-75.99 593.57,-74.11 600.55,-82.08 604,-75.99"/>
<polygon fill="black" stroke="black" points="652.4,-112.12 662.9,-113.59 655.61,-105.9 652.4,-112.12"/>
</g>
<!-- JerryXiao_HK02 -->
<g id="node22" class="node">
<title>JerryXiao_HK02</title>
<polygon fill="none" stroke="black" points="921,-64 823,-64 823,-26 921,-26 921,-64"/>
<text text-anchor="middle" x="872" y="-48.8" font-family="Times,serif" font-size="14.00">jerryxiao&#45;hk02</text>
<text text-anchor="middle" x="872" y="-33.8" font-family="Times,serif" font-size="14.00">(10.127.8.196)</text>
</g>
<!-- JerryXiao_HK01&#45;&gt;JerryXiao_HK02 -->
<g id="edge27" class="edge">
<title>JerryXiao_HK01&#45;&gt;JerryXiao_HK02</title>
<path fill="none" stroke="black" d="M779.84,-45C790.66,-45 801.96,-45 812.78,-45"/>
<polygon fill="black" stroke="black" points="779.63,-41.5 769.63,-45 779.63,-48.5 779.63,-41.5"/>
<polygon fill="black" stroke="black" points="812.96,-48.5 822.96,-45 812.96,-41.5 812.96,-48.5"/>
</g>
<!-- lantian -->
<g id="node24" class="node">
<title>lantian</title>
<polygon fill="none" stroke="black" points="242,-116 132,-116 132,-78 242,-78 242,-116"/>
<text text-anchor="middle" x="187" y="-100.8" font-family="Times,serif" font-size="14.00">lantian</text>
<text text-anchor="middle" x="187" y="-85.8" font-family="Times,serif" font-size="14.00">(AS4200002547)</text>
</g>
<!-- lantian&#45;&gt;JerryXiao -->
<g id="edge33" class="edge">
<title>lantian&#45;&gt;JerryXiao</title>
<path fill="none" stroke="black" d="M252.3,-82.12C267.09,-78.7 282.91,-75.04 297.98,-71.55"/>
<polygon fill="black" stroke="black" points="251.41,-78.73 242.46,-84.4 252.99,-85.55 251.41,-78.73"/>
<polygon fill="black" stroke="black" points="298.81,-74.95 307.77,-69.29 297.23,-68.13 298.81,-74.95"/>
</g>
<!-- lantian&#45;&gt;septs -->
<g id="edge32" class="edge">
<title>lantian&#45;&gt;septs</title>
<path fill="none" stroke="black" d="M252.19,-105.63C370.26,-121.62 610.61,-154.7 618,-160 675.76,-201.44 702.85,-285.56 713.57,-330"/>
<polygon fill="black" stroke="black" points="252.56,-102.15 242.18,-104.28 251.62,-109.09 252.56,-102.15"/>
<polygon fill="black" stroke="black" points="710.19,-330.92 715.84,-339.88 717.01,-329.35 710.19,-330.92"/>
</g>
<!-- NNPCC -->
<g id="node28" class="node">
<title>NNPCC</title>
<polygon fill="none" stroke="black" points="87,-997 25,-997 25,-961 87,-961 87,-997"/>
<text text-anchor="middle" x="56" y="-975.3" font-family="Times,serif" font-size="14.00">NNPCC</text>
</g>
<!-- NNPCC&#45;&gt;np11 -->
<g id="edge1" class="edge">
<title>NNPCC&#45;&gt;np11</title>
<path fill="none" stroke="black" d="M94.48,-953.77C95,-953.19 95.51,-952.6 96,-952 116.9,-926.54 103.74,-908.73 125.5,-884 127.04,-882.25 128.69,-880.56 130.42,-878.93"/>
<polygon fill="black" stroke="black" points="91.86,-951.43 87.04,-960.87 96.69,-956.5 91.86,-951.43"/>
<polygon fill="black" stroke="black" points="133.05,-881.29 138.46,-872.18 128.55,-875.93 133.05,-881.29"/>
</g>
<!-- NeoBOX -->
<g id="node29" class="node">
<title>NeoBOX</title>
<polygon fill="none" stroke="black" points="90,-943 22,-943 22,-907 90,-907 90,-943"/>
<text text-anchor="middle" x="56" y="-921.3" font-family="Times,serif" font-size="14.00">NeoBOX</text>
</g>
<!-- NeoBOX&#45;&gt;np11 -->
<g id="edge2" class="edge">
<title>NeoBOX&#45;&gt;np11</title>
<path fill="none" stroke="black" d="M95.97,-901.65C105.62,-895.88 115.93,-889.71 125.5,-884 127.75,-882.66 130.05,-881.29 132.37,-879.9"/>
<polygon fill="black" stroke="black" points="94.12,-898.68 87.34,-906.82 97.72,-904.68 94.12,-898.68"/>
<polygon fill="black" stroke="black" points="134.59,-882.65 141.39,-874.53 131.01,-876.64 134.59,-882.65"/>
</g>
<!-- cklvax -->
<g id="node30" class="node">
<title>cklvax</title>
<polygon fill="none" stroke="black" points="83,-889 29,-889 29,-853 83,-853 83,-889"/>
<text text-anchor="middle" x="56" y="-867.3" font-family="Times,serif" font-size="14.00">cklvax</text>
</g>
<!-- cklvax&#45;&gt;np11 -->
<g id="edge3" class="edge">
<title>cklvax&#45;&gt;np11</title>
<path fill="none" stroke="black" d="M93.29,-864.53C104.2,-862.58 116.44,-860.4 128.37,-858.28"/>
<polygon fill="black" stroke="black" points="92.34,-861.14 83.11,-866.35 93.56,-868.04 92.34,-861.14"/>
<polygon fill="black" stroke="black" points="129.05,-861.71 138.28,-856.51 127.82,-854.82 129.05,-861.71"/>
</g>
<!-- NeoStorage -->
<g id="node31" class="node">
<title>NeoStorage</title>
<polygon fill="none" stroke="black" points="96,-835 16,-835 16,-799 96,-799 96,-835"/>
<text text-anchor="middle" x="56" y="-813.3" font-family="Times,serif" font-size="14.00">NeoStorage</text>
</g>
<!-- NeoStorage&#45;&gt;np11 -->
<g id="edge4" class="edge">
<title>NeoStorage&#45;&gt;np11</title>
<path fill="none" stroke="black" d="M106.02,-828.78C113.4,-830.55 121.08,-832.4 128.62,-834.21"/>
<polygon fill="black" stroke="black" points="106.6,-825.32 96.05,-826.39 104.96,-832.12 106.6,-825.32"/>
<polygon fill="black" stroke="black" points="127.89,-837.63 138.43,-836.57 129.52,-830.83 127.89,-837.63"/>
</g>
</g>
</svg>
