<?xml version="1.0" encoding="UTF-8" standalone="no"?>
<!DOCTYPE svg PUBLIC "-//W3C//DTD SVG 1.1//EN"
 "http://www.w3.org/Graphics/SVG/1.1/DTD/svg11.dtd">
<!-- Generated by graphviz version 2.43.0 (0)
 -->
<!-- Title: NeoNetwork Nodes Pages: 1 -->
<svg width="1652pt" height="1357pt"
 viewBox="0.00 0.00 1652.00 1357.00" xmlns="http://www.w3.org/2000/svg" xmlns:xlink="http://www.w3.org/1999/xlink">
<g id="graph0" class="graph" transform="scale(1 1) rotate(0) translate(4 1353)">
<title>NeoNetwork Nodes</title>
<polygon fill="white" stroke="transparent" points="-4,4 -4,-1353 1648,-1353 1648,4 -4,4"/>
<text text-anchor="middle" x="822" y="-1333.8" font-family="Times,serif" font-size="14.00">NeoNetwork Nodes</text>
<g id="clust1" class="cluster">
<title>cluster_AS4201270000</title>
<polygon fill="none" stroke="black" points="8,-1081 8,-1318 1297.5,-1318 1297.5,-1081 8,-1081"/>
<text text-anchor="middle" x="652.75" y="-1302.8" font-family="Times,serif" font-size="14.00">NeoNetwork (AS4201270000)</text>
</g>
<g id="clust2" class="cluster">
<title>cluster_4201270008</title>
<polygon fill="none" stroke="black" points="430,-383 430,-973 1102,-973 1102,-383 430,-383"/>
<text text-anchor="middle" x="766" y="-957.8" font-family="Times,serif" font-size="14.00">MagicNeko Network Internet exchange (AS4201270008)</text>
</g>
<g id="clust3" class="cluster">
<title>cluster_4201270006</title>
<polygon fill="none" stroke="black" points="853,-8 853,-105 1636,-105 1636,-8 853,-8"/>
<text text-anchor="middle" x="1244.5" y="-89.8" font-family="Times,serif" font-size="14.00">Jerry Network (4201270006)</text>
</g>
<!-- c -->
<g id="node1" class="node">
<title>c</title>
<polygon fill="none" stroke="black" points="1289.5,-1129 1137.5,-1129 1137.5,-1091 1289.5,-1091 1289.5,-1129"/>
<text text-anchor="middle" x="1213.5" y="-1113.8" font-family="Times,serif" font-size="14.00">caasih.neocloud.tw</text>
<text text-anchor="middle" x="1213.5" y="-1098.8" font-family="Times,serif" font-size="14.00">(10.127.0.1)</text>
</g>
<!-- staph -->
<g id="node17" class="node">
<title>staph</title>
<polygon fill="none" stroke="black" points="1008,-1034.5 871,-1034.5 871,-981.5 1008,-981.5 1008,-1034.5"/>
<text text-anchor="middle" x="939.5" y="-1019.3" font-family="Times,serif" font-size="14.00">s.aureus.ga</text>
<text text-anchor="middle" x="939.5" y="-1004.3" font-family="Times,serif" font-size="14.00">(10.127.8.185)</text>
<text text-anchor="middle" x="939.5" y="-989.3" font-family="Times,serif" font-size="14.00">(AS4201270007)</text>
</g>
<!-- c&#45;&gt;staph -->
<g id="edge14" class="edge">
<title>c&#45;&gt;staph</title>
<path fill="none" stroke="black" d="M1145.6,-1087.58C1140.31,-1085.72 1135.06,-1083.85 1130,-1082 1092.24,-1068.23 1050.6,-1052.08 1016,-1038.38"/>
<polygon fill="black" stroke="black" points="1144.54,-1090.92 1155.13,-1090.9 1146.84,-1084.31 1144.54,-1090.92"/>
<polygon fill="black" stroke="black" points="1017.02,-1035.02 1006.44,-1034.59 1014.44,-1041.53 1017.02,-1035.02"/>
</g>
<!-- ucbvax -->
<g id="node2" class="node">
<title>ucbvax</title>
<polygon fill="none" stroke="black" points="1015,-1129 864,-1129 864,-1091 1015,-1091 1015,-1129"/>
<text text-anchor="middle" x="939.5" y="-1113.8" font-family="Times,serif" font-size="14.00">router.neocloud.tw</text>
<text text-anchor="middle" x="939.5" y="-1098.8" font-family="Times,serif" font-size="14.00">(10.127.255.2)</text>
</g>
<!-- ucbvax&#45;&gt;c -->
<g id="edge8" class="edge">
<title>ucbvax&#45;&gt;c</title>
<path fill="none" stroke="black" d="M1025.58,-1110C1057.79,-1110 1094.45,-1110 1126.72,-1110"/>
<polygon fill="black" stroke="black" points="1025.18,-1106.5 1015.18,-1110 1025.18,-1113.5 1025.18,-1106.5"/>
<polygon fill="black" stroke="black" points="1127.04,-1113.5 1137.04,-1110 1127.04,-1106.5 1127.04,-1113.5"/>
</g>
<!-- chenx97 -->
<g id="node19" class="node">
<title>chenx97</title>
<polygon fill="none" stroke="black" points="1297,-1073 1130,-1073 1130,-1035 1297,-1035 1297,-1073"/>
<text text-anchor="middle" x="1213.5" y="-1057.8" font-family="Times,serif" font-size="14.00">chenx97.neocloud.tw</text>
<text text-anchor="middle" x="1213.5" y="-1042.8" font-family="Times,serif" font-size="14.00">(AS4201270003)</text>
</g>
<!-- ucbvax&#45;&gt;chenx97 -->
<g id="edge16" class="edge">
<title>ucbvax&#45;&gt;chenx97</title>
<path fill="none" stroke="black" d="M1025.36,-1092.72C1050.08,-1087.67 1077.12,-1082.13 1102,-1077 1107.78,-1075.81 1113.73,-1074.58 1119.72,-1073.34"/>
<polygon fill="black" stroke="black" points="1024.39,-1089.35 1015.29,-1094.78 1025.79,-1096.21 1024.39,-1089.35"/>
<polygon fill="black" stroke="black" points="1120.76,-1076.7 1129.84,-1071.24 1119.34,-1069.84 1120.76,-1076.7"/>
</g>
<!-- septs -->
<g id="node24" class="node">
<title>septs</title>
<polygon fill="none" stroke="black" points="1282,-256 1145,-256 1145,-218 1282,-218 1282,-256"/>
<text text-anchor="middle" x="1213.5" y="-240.8" font-family="Times,serif" font-size="14.00">bgp.septs.me</text>
<text text-anchor="middle" x="1213.5" y="-225.8" font-family="Times,serif" font-size="14.00">(AS4201270001)</text>
</g>
<!-- ucbvax&#45;&gt;septs -->
<g id="edge37" class="edge">
<title>ucbvax&#45;&gt;septs</title>
<path fill="none" stroke="black" d="M1024.99,-1093.58C1053.6,-1083.85 1083.08,-1068.41 1102,-1044 1105.07,-1040.04 1189.28,-410.82 1208.58,-266.34"/>
<polygon fill="black" stroke="black" points="1023.79,-1090.29 1015.33,-1096.67 1025.92,-1096.96 1023.79,-1090.29"/>
<polygon fill="black" stroke="black" points="1212.1,-266.43 1209.96,-256.05 1205.16,-265.5 1212.1,-266.43"/>
</g>
<!-- np11 -->
<g id="node3" class="node">
<title>np11</title>
<polygon fill="none" stroke="black" points="338,-1198.5 217,-1198.5 217,-1145.5 338,-1145.5 338,-1198.5"/>
<text text-anchor="middle" x="277.5" y="-1183.3" font-family="Times,serif" font-size="14.00">NeoPDP&#45;11</text>
<text text-anchor="middle" x="277.5" y="-1168.3" font-family="Times,serif" font-size="14.00">(10.127.255.1,</text>
<text text-anchor="middle" x="277.5" y="-1153.3" font-family="Times,serif" font-size="14.00">10.127.1.1)</text>
</g>
<!-- np11&#45;&gt;c -->
<g id="edge7" class="edge">
<title>np11&#45;&gt;c</title>
<path fill="none" stroke="black" d="M338.21,-1174.72C474.67,-1179.82 819.38,-1186.31 1102,-1138 1112.6,-1136.19 1123.69,-1133.88 1134.57,-1131.38"/>
<polygon fill="black" stroke="black" points="1135.56,-1134.74 1144.48,-1129.02 1133.95,-1127.93 1135.56,-1134.74"/>
</g>
<!-- np11&#45;&gt;ucbvax -->
<g id="edge5" class="edge">
<title>np11&#45;&gt;ucbvax</title>
<path fill="none" stroke="black" d="M338.25,-1173.85C427.92,-1175.76 602.43,-1176.07 749,-1156 787.47,-1150.73 829.5,-1140.95 864.18,-1131.76"/>
<polygon fill="black" stroke="black" points="865.48,-1135.04 874.22,-1129.06 863.66,-1128.28 865.48,-1135.04"/>
</g>
<!-- pan -->
<g id="node6" class="node">
<title>pan</title>
<polygon fill="none" stroke="black" points="655,-1147 532,-1147 532,-1109 655,-1109 655,-1147"/>
<text text-anchor="middle" x="593.5" y="-1131.8" font-family="Times,serif" font-size="14.00">r2.neocloud.tw</text>
<text text-anchor="middle" x="593.5" y="-1116.8" font-family="Times,serif" font-size="14.00">(10.127.3.1)</text>
</g>
<!-- np11&#45;&gt;pan -->
<g id="edge6" class="edge">
<title>np11&#45;&gt;pan</title>
<path fill="none" stroke="black" d="M338.3,-1163.62C390.56,-1156.3 466.52,-1145.65 521.78,-1137.91"/>
<polygon fill="black" stroke="black" points="522.44,-1141.35 531.85,-1136.5 521.46,-1134.42 522.44,-1141.35"/>
</g>
<!-- ns -->
<g id="node4" class="node">
<title>ns</title>
<polygon fill="none" stroke="black" points="343,-1127 212,-1127 212,-1089 343,-1089 343,-1127"/>
<text text-anchor="middle" x="277.5" y="-1111.8" font-family="Times,serif" font-size="14.00">NeoSystem</text>
<text text-anchor="middle" x="277.5" y="-1096.8" font-family="Times,serif" font-size="14.00">(10.127.255.80)</text>
</g>
<!-- ns&#45;&gt;ucbvax -->
<g id="edge9" class="edge">
<title>ns&#45;&gt;ucbvax</title>
<path fill="none" stroke="black" d="M343.35,-1103.82C370.16,-1102.29 401.56,-1100.75 430,-1100 571.73,-1096.26 607.27,-1096.26 749,-1100 783.32,-1100.9 821.11,-1102.73 853.84,-1104.58"/>
<polygon fill="black" stroke="black" points="853.65,-1108.07 863.83,-1105.15 854.05,-1101.08 853.65,-1108.07"/>
</g>
<!-- ns&#45;&gt;pan -->
<g id="edge10" class="edge">
<title>ns&#45;&gt;pan</title>
<path fill="none" stroke="black" d="M343.18,-1112.12C395.21,-1115.43 468.22,-1120.08 521.79,-1123.5"/>
<polygon fill="black" stroke="black" points="521.7,-1127 531.9,-1124.14 522.14,-1120.01 521.7,-1127"/>
</g>
<!-- megumiLHS -->
<g id="node5" class="node">
<title>megumiLHS</title>
<polygon fill="none" stroke="black" points="1022,-265 857,-265 857,-227 1022,-227 1022,-265"/>
<text text-anchor="middle" x="939.5" y="-249.8" font-family="Times,serif" font-size="14.00">megumi.yukipedia.cf</text>
<text text-anchor="middle" x="939.5" y="-234.8" font-family="Times,serif" font-size="14.00">(AS4242421037)</text>
</g>
<!-- megumiLHS&#45;&gt;ucbvax -->
<g id="edge12" class="edge">
<title>megumiLHS&#45;&gt;ucbvax</title>
<path fill="none" stroke="black" d="M847.12,-263.73C815.98,-274.71 784.66,-292.43 767,-321 745.18,-356.3 745.18,-1032.7 767,-1068 785.07,-1097.23 820.12,-1108.97 853.93,-1112.9"/>
<polygon fill="black" stroke="black" points="848.38,-267 856.77,-260.54 846.18,-260.36 848.38,-267"/>
<polygon fill="black" stroke="black" points="853.6,-1116.39 863.89,-1113.85 854.27,-1109.42 853.6,-1116.39"/>
</g>
<!-- megumiLHS&#45;&gt;septs -->
<g id="edge40" class="edge">
<title>megumiLHS&#45;&gt;septs</title>
<path fill="none" stroke="black" d="M1032.34,-242.96C1065.53,-241.86 1102.65,-240.63 1134.53,-239.58"/>
<polygon fill="black" stroke="black" points="1031.99,-239.47 1022.11,-243.3 1032.22,-246.47 1031.99,-239.47"/>
<polygon fill="black" stroke="black" points="1134.81,-243.07 1144.69,-239.24 1134.58,-236.08 1134.81,-243.07"/>
</g>
<!-- pan&#45;&gt;ucbvax -->
<g id="edge11" class="edge">
<title>pan&#45;&gt;ucbvax</title>
<path fill="none" stroke="black" d="M665.37,-1124.29C719.96,-1121.44 795.64,-1117.48 853.49,-1114.45"/>
<polygon fill="black" stroke="black" points="665.01,-1120.81 655.21,-1124.82 665.38,-1127.8 665.01,-1120.81"/>
<polygon fill="black" stroke="black" points="853.91,-1117.93 863.71,-1113.91 853.54,-1110.94 853.91,-1117.93"/>
</g>
<!-- magicneko_JP03 -->
<g id="node15" class="node">
<title>magicneko_JP03</title>
<polygon fill="none" stroke="black" points="744.5,-444.5 442.5,-444.5 442.5,-391.5 744.5,-391.5 744.5,-444.5"/>
<text text-anchor="middle" x="593.5" y="-429.3" font-family="Times,serif" font-size="14.00">M&#45;JP3</text>
<text text-anchor="middle" x="593.5" y="-414.3" font-family="Times,serif" font-size="14.00">(10.127.4.15,</text>
<text text-anchor="middle" x="593.5" y="-399.3" font-family="Times,serif" font-size="14.00">fd10:127:0233:7170:2021::10.127.4.15)</text>
</g>
<!-- pan&#45;&gt;magicneko_JP03 -->
<g id="edge53" class="edge">
<title>pan&#45;&gt;magicneko_JP03</title>
<path fill="none" stroke="black" d="M549.83,-1103.66C506.66,-1076.8 443.22,-1029.17 416,-968 404.6,-942.37 402.56,-487.62 416,-463 420.7,-454.39 426.84,-447.21 434.01,-441.23"/>
<polygon fill="black" stroke="black" points="548.09,-1106.69 558.45,-1108.91 551.73,-1100.71 548.09,-1106.69"/>
<polygon fill="black" stroke="black" points="436.21,-443.95 442.18,-435.2 432.05,-438.32 436.21,-443.95"/>
</g>
<!-- icecat_Explosion -->
<g id="node7" class="node">
<title>icecat_Explosion</title>
<polygon fill="none" stroke="black" points="1094,-679 785,-679 785,-643 1094,-643 1094,-679"/>
<text text-anchor="middle" x="939.5" y="-657.3" font-family="Times,serif" font-size="14.00">MagicNeko P2P network interconnection</text>
</g>
<!-- icecat_Notebook -->
<g id="node8" class="node">
<title>icecat_Notebook</title>
<polygon fill="none" stroke="black" points="402,-736 153,-736 153,-668 402,-668 402,-736"/>
<text text-anchor="middle" x="277.5" y="-720.8" font-family="Times,serif" font-size="14.00">NextMoe Group Access Network</text>
<text text-anchor="middle" x="277.5" y="-705.8" font-family="Times,serif" font-size="14.00">(4201270005)</text>
<text text-anchor="middle" x="277.5" y="-690.8" font-family="Times,serif" font-size="14.00">(10.127.233.1,</text>
<text text-anchor="middle" x="277.5" y="-675.8" font-family="Times,serif" font-size="14.00">fd10:127:0233:1c3c::1)</text>
</g>
<!-- magicneko_HK01 -->
<g id="node9" class="node">
<title>magicneko_HK01</title>
<polygon fill="none" stroke="black" points="740,-728.5 447,-728.5 447,-675.5 740,-675.5 740,-728.5"/>
<text text-anchor="middle" x="593.5" y="-713.3" font-family="Times,serif" font-size="14.00">M&#45;HK1</text>
<text text-anchor="middle" x="593.5" y="-698.3" font-family="Times,serif" font-size="14.00">(10.127.4.1,</text>
<text text-anchor="middle" x="593.5" y="-683.3" font-family="Times,serif" font-size="14.00">fd10:127:0233:7170:2021::10.127.4.1)</text>
</g>
<!-- icecat_Notebook&#45;&gt;magicneko_HK01 -->
<g id="edge47" class="edge">
<title>icecat_Notebook&#45;&gt;magicneko_HK01</title>
<path fill="none" stroke="black" d="M402.15,-702C413.5,-702 425.09,-702 436.68,-702"/>
<polygon fill="black" stroke="black" points="436.85,-705.5 446.85,-702 436.85,-698.5 436.85,-705.5"/>
</g>
<!-- magicneko_JP02 -->
<g id="node13" class="node">
<title>magicneko_JP02</title>
<polygon fill="none" stroke="black" points="744.5,-941.5 442.5,-941.5 442.5,-888.5 744.5,-888.5 744.5,-941.5"/>
<text text-anchor="middle" x="593.5" y="-926.3" font-family="Times,serif" font-size="14.00">M&#45;JP2</text>
<text text-anchor="middle" x="593.5" y="-911.3" font-family="Times,serif" font-size="14.00">(10.127.4.13,</text>
<text text-anchor="middle" x="593.5" y="-896.3" font-family="Times,serif" font-size="14.00">fd10:127:0233:7170:2021::10.127.4.13)</text>
</g>
<!-- icecat_Notebook&#45;&gt;magicneko_JP02 -->
<g id="edge51" class="edge">
<title>icecat_Notebook&#45;&gt;magicneko_JP02</title>
<path fill="none" stroke="black" d="M297.82,-736.06C322.85,-776.93 370.44,-844.39 430,-880 432.22,-881.33 434.49,-882.61 436.79,-883.84"/>
<polygon fill="black" stroke="black" points="435.34,-887.02 445.85,-888.35 438.46,-880.76 435.34,-887.02"/>
</g>
<!-- magicneko_RU01 -->
<g id="node14" class="node">
<title>magicneko_RU01</title>
<polygon fill="none" stroke="black" points="744.5,-586.5 442.5,-586.5 442.5,-533.5 744.5,-533.5 744.5,-586.5"/>
<text text-anchor="middle" x="593.5" y="-571.3" font-family="Times,serif" font-size="14.00">M&#45;RU1</text>
<text text-anchor="middle" x="593.5" y="-556.3" font-family="Times,serif" font-size="14.00">(10.127.4.14,</text>
<text text-anchor="middle" x="593.5" y="-541.3" font-family="Times,serif" font-size="14.00">fd10:127:0233:7170:2021::10.127.4.14)</text>
</g>
<!-- icecat_Notebook&#45;&gt;magicneko_RU01 -->
<g id="edge49" class="edge">
<title>icecat_Notebook&#45;&gt;magicneko_RU01</title>
<path fill="none" stroke="black" d="M317.98,-667.83C347.11,-644.31 388.71,-614.15 430,-596 434.76,-593.91 439.64,-591.93 444.62,-590.07"/>
<polygon fill="black" stroke="black" points="446.06,-593.27 454.3,-586.62 443.71,-586.68 446.06,-593.27"/>
</g>
<!-- icecat_Notebook&#45;&gt;magicneko_JP03 -->
<g id="edge48" class="edge">
<title>icecat_Notebook&#45;&gt;magicneko_JP03</title>
<path fill="none" stroke="black" d="M289.47,-667.87C308.75,-613.61 354.04,-508.25 430,-454 432.11,-452.49 434.27,-451.05 436.48,-449.66"/>
<polygon fill="black" stroke="black" points="438.3,-452.65 445.2,-444.6 434.79,-446.59 438.3,-452.65"/>
</g>
<!-- magicneko_CN01 -->
<g id="node16" class="node">
<title>magicneko_CN01</title>
<polygon fill="none" stroke="black" points="749,-799.5 438,-799.5 438,-746.5 749,-746.5 749,-799.5"/>
<text text-anchor="middle" x="593.5" y="-784.3" font-family="Times,serif" font-size="14.00">M&#45;CN1</text>
<text text-anchor="middle" x="593.5" y="-769.3" font-family="Times,serif" font-size="14.00">(10.127.4.101,</text>
<text text-anchor="middle" x="593.5" y="-754.3" font-family="Times,serif" font-size="14.00">fd10:127:0233:7170:2021::10.127.4.101)</text>
</g>
<!-- icecat_Notebook&#45;&gt;magicneko_CN01 -->
<g id="edge50" class="edge">
<title>icecat_Notebook&#45;&gt;magicneko_CN01</title>
<path fill="none" stroke="black" d="M402.06,-731.59C411.51,-733.78 420.9,-735.94 430,-738 439.09,-740.06 448.47,-742.15 457.92,-744.24"/>
<polygon fill="black" stroke="black" points="457.27,-747.69 467.79,-746.42 458.78,-740.85 457.27,-747.69"/>
</g>
<!-- magicneko_HK01&#45;&gt;icecat_Explosion -->
<g id="edge17" class="edge">
<title>magicneko_HK01&#45;&gt;icecat_Explosion</title>
<path fill="none" stroke="black" d="M740.39,-684.61C752.55,-683.16 764.89,-681.69 777.15,-680.23"/>
<polygon fill="black" stroke="black" points="777.92,-683.66 787.43,-679.01 777.09,-676.71 777.92,-683.66"/>
</g>
<!-- magicneko_HK02 -->
<g id="node10" class="node">
<title>magicneko_HK02</title>
<polygon fill="none" stroke="black" points="744.5,-657.5 442.5,-657.5 442.5,-604.5 744.5,-604.5 744.5,-657.5"/>
<text text-anchor="middle" x="593.5" y="-642.3" font-family="Times,serif" font-size="14.00">M&#45;HK2</text>
<text text-anchor="middle" x="593.5" y="-627.3" font-family="Times,serif" font-size="14.00">(10.127.4.10,</text>
<text text-anchor="middle" x="593.5" y="-612.3" font-family="Times,serif" font-size="14.00">fd10:127:0233:7170:2021::10.127.4.10)</text>
</g>
<!-- magicneko_HK02&#45;&gt;ucbvax -->
<g id="edge13" class="edge">
<title>magicneko_HK02&#45;&gt;ucbvax</title>
<path fill="none" stroke="black" d="M746.72,-664.48C747.49,-665.3 748.26,-666.14 749,-667 808.94,-736.08 724.46,-1008.44 785,-1077 802.28,-1096.57 828.12,-1106.12 853.69,-1110.4"/>
<polygon fill="black" stroke="black" points="749.03,-661.85 739.34,-657.56 744.24,-666.95 749.03,-661.85"/>
<polygon fill="black" stroke="black" points="853.45,-1113.9 863.84,-1111.84 854.43,-1106.97 853.45,-1113.9"/>
</g>
<!-- magicneko_HK02&#45;&gt;icecat_Explosion -->
<g id="edge18" class="edge">
<title>magicneko_HK02&#45;&gt;icecat_Explosion</title>
<path fill="none" stroke="black" d="M744.63,-644.09C754.61,-644.96 764.68,-645.84 774.72,-646.72"/>
<polygon fill="black" stroke="black" points="774.47,-650.21 784.73,-647.59 775.08,-643.23 774.47,-650.21"/>
</g>
<!-- SUNNET -->
<g id="node27" class="node">
<title>SUNNET</title>
<polygon fill="none" stroke="black" points="1008,-374.5 871,-374.5 871,-321.5 1008,-321.5 1008,-374.5"/>
<text text-anchor="middle" x="939.5" y="-359.3" font-family="Times,serif" font-size="14.00">SUNNET</text>
<text text-anchor="middle" x="939.5" y="-344.3" font-family="Times,serif" font-size="14.00">(10.127.11.0/24)</text>
<text text-anchor="middle" x="939.5" y="-329.3" font-family="Times,serif" font-size="14.00">(AS4242423088)</text>
</g>
<!-- magicneko_HK02&#45;&gt;SUNNET -->
<g id="edge41" class="edge">
<title>magicneko_HK02&#45;&gt;SUNNET</title>
<path fill="none" stroke="black" d="M747.66,-597.39C748.11,-596.93 748.56,-596.47 749,-596 816.08,-524.88 717.09,-449.32 785,-379 804.51,-358.8 833.27,-349.85 860.64,-346.37"/>
<polygon fill="black" stroke="black" points="745.04,-595.04 739.94,-604.33 749.72,-600.24 745.04,-595.04"/>
<polygon fill="black" stroke="black" points="861.06,-349.84 870.64,-345.32 860.33,-342.88 861.06,-349.84"/>
</g>
<!-- magicneko_JP01 -->
<g id="node11" class="node">
<title>magicneko_JP01</title>
<polygon fill="none" stroke="black" points="744.5,-515.5 442.5,-515.5 442.5,-462.5 744.5,-462.5 744.5,-515.5"/>
<text text-anchor="middle" x="593.5" y="-500.3" font-family="Times,serif" font-size="14.00">M&#45;JP1</text>
<text text-anchor="middle" x="593.5" y="-485.3" font-family="Times,serif" font-size="14.00">(10.127.4.11,</text>
<text text-anchor="middle" x="593.5" y="-470.3" font-family="Times,serif" font-size="14.00">fd10:127:0233:7170:2021::10.127.4.11)</text>
</g>
<!-- magicneko_JP01&#45;&gt;icecat_Explosion -->
<g id="edge19" class="edge">
<title>magicneko_JP01&#45;&gt;icecat_Explosion</title>
<path fill="none" stroke="black" d="M725.14,-515.51C733.33,-518.38 741.35,-521.53 749,-525 812.34,-553.72 875.97,-605.11 911.01,-635.83"/>
<polygon fill="black" stroke="black" points="909.06,-638.78 918.87,-642.8 913.71,-633.54 909.06,-638.78"/>
</g>
<!-- magicneko_HK03 -->
<g id="node12" class="node">
<title>magicneko_HK03</title>
<polygon fill="none" stroke="black" points="744.5,-870.5 442.5,-870.5 442.5,-817.5 744.5,-817.5 744.5,-870.5"/>
<text text-anchor="middle" x="593.5" y="-855.3" font-family="Times,serif" font-size="14.00">M&#45;HK3</text>
<text text-anchor="middle" x="593.5" y="-840.3" font-family="Times,serif" font-size="14.00">(10.127.4.12,</text>
<text text-anchor="middle" x="593.5" y="-825.3" font-family="Times,serif" font-size="14.00">fd10:127:0233:7170:2021::10.127.4.12)</text>
</g>
<!-- magicneko_HK03&#45;&gt;icecat_Explosion -->
<g id="edge20" class="edge">
<title>magicneko_HK03&#45;&gt;icecat_Explosion</title>
<path fill="none" stroke="black" d="M728.9,-817.43C735.8,-814.87 742.54,-812.06 749,-809 815.27,-777.56 879.84,-719.56 913.83,-686.27"/>
<polygon fill="black" stroke="black" points="916.36,-688.68 921,-679.16 911.43,-683.71 916.36,-688.68"/>
</g>
<!-- magicneko_JP02&#45;&gt;icecat_Explosion -->
<g id="edge21" class="edge">
<title>magicneko_JP02&#45;&gt;icecat_Explosion</title>
<path fill="none" stroke="black" d="M733.15,-888.35C738.62,-885.82 743.93,-883.04 749,-880 830.66,-831.04 895.2,-734.67 923.27,-687.83"/>
<polygon fill="black" stroke="black" points="926.32,-689.54 928.39,-679.15 920.29,-685.98 926.32,-689.54"/>
</g>
<!-- magicneko_RU01&#45;&gt;icecat_Explosion -->
<g id="edge22" class="edge">
<title>magicneko_RU01&#45;&gt;icecat_Explosion</title>
<path fill="none" stroke="black" d="M713.75,-586.5C725.7,-589.54 737.62,-592.73 749,-596 793.65,-608.82 843.29,-625.96 880.56,-639.42"/>
<polygon fill="black" stroke="black" points="879.65,-642.81 890.25,-642.93 882.04,-636.23 879.65,-642.81"/>
</g>
<!-- magicneko_RU01&#45;&gt;staph -->
<g id="edge39" class="edge">
<title>magicneko_RU01&#45;&gt;staph</title>
<path fill="none" stroke="black" d="M746.71,-593.49C747.49,-594.31 748.25,-595.14 749,-596 804.95,-660.05 728.11,-913.79 785,-977 803.95,-998.06 832.91,-1007.11 860.58,-1010.44"/>
<polygon fill="black" stroke="black" points="749.01,-590.84 739.31,-586.58 744.23,-595.96 749.01,-590.84"/>
<polygon fill="black" stroke="black" points="860.41,-1013.94 870.7,-1011.42 861.09,-1006.97 860.41,-1013.94"/>
</g>
<!-- magicneko_RU01&#45;&gt;septs -->
<g id="edge43" class="edge">
<title>magicneko_RU01&#45;&gt;septs</title>
<path fill="none" stroke="black" d="M747.66,-526.39C748.11,-525.93 748.56,-525.47 749,-525 814.98,-455.26 715.5,-378.24 785,-312 836.36,-263.05 1032.78,-289.57 1102,-274 1118.91,-270.2 1136.88,-264.79 1153.31,-259.29"/>
<polygon fill="black" stroke="black" points="745.04,-524.03 739.93,-533.31 749.71,-529.24 745.04,-524.03"/>
<polygon fill="black" stroke="black" points="1154.45,-262.6 1162.78,-256.05 1152.19,-255.97 1154.45,-262.6"/>
</g>
<!-- magicneko_JP03&#45;&gt;megumiLHS -->
<g id="edge44" class="edge">
<title>magicneko_JP03&#45;&gt;megumiLHS</title>
<path fill="none" stroke="black" d="M630.57,-384.42C666.85,-352.49 725.77,-305.52 785,-279 804.33,-270.34 826.06,-263.9 846.96,-259.13"/>
<polygon fill="black" stroke="black" points="627.88,-382.13 622.74,-391.39 632.53,-387.36 627.88,-382.13"/>
<polygon fill="black" stroke="black" points="847.79,-262.53 856.82,-256.98 846.3,-255.69 847.79,-262.53"/>
</g>
<!-- magicneko_JP03&#45;&gt;icecat_Explosion -->
<g id="edge23" class="edge">
<title>magicneko_JP03&#45;&gt;icecat_Explosion</title>
<path fill="none" stroke="black" d="M730.35,-444.55C736.8,-447.38 743.06,-450.52 749,-454 827.89,-500.14 892.91,-589.8 922.03,-634.43"/>
<polygon fill="black" stroke="black" points="919.18,-636.47 927.53,-642.99 925.07,-632.68 919.18,-636.47"/>
</g>
<!-- magicneko_JP03&#45;&gt;chenx97 -->
<g id="edge38" class="edge">
<title>magicneko_JP03&#45;&gt;chenx97</title>
<path fill="none" stroke="black" d="M747.1,-451.83C747.74,-452.54 748.38,-453.26 749,-454 833.76,-554.35 690.39,-952.88 785,-1044 831.02,-1088.32 1008.42,-1077.56 1119.72,-1065.76"/>
<polygon fill="black" stroke="black" points="749.38,-449.17 739.77,-444.72 744.51,-454.19 749.38,-449.17"/>
<polygon fill="black" stroke="black" points="1120.38,-1069.21 1129.95,-1064.65 1119.63,-1062.25 1120.38,-1069.21"/>
</g>
<!-- JerryXiao -->
<g id="node20" class="node">
<title>JerryXiao</title>
<polygon fill="none" stroke="black" points="1018,-74 861,-74 861,-36 1018,-36 1018,-74"/>
<text text-anchor="middle" x="939.5" y="-58.8" font-family="Times,serif" font-size="14.00">jpn.neo.jerryxiao.cc</text>
<text text-anchor="middle" x="939.5" y="-43.8" font-family="Times,serif" font-size="14.00">(10.127.8.193)</text>
</g>
<!-- magicneko_JP03&#45;&gt;JerryXiao -->
<g id="edge32" class="edge">
<title>magicneko_JP03&#45;&gt;JerryXiao</title>
<path fill="none" stroke="black" d="M613.14,-382.3C643.42,-326.81 707.76,-218.81 785,-147 815.34,-118.79 855.72,-95.01 887.44,-78.7"/>
<polygon fill="black" stroke="black" points="609.91,-380.92 608.23,-391.38 616.06,-384.25 609.91,-380.92"/>
<polygon fill="black" stroke="black" points="889.22,-81.72 896.57,-74.09 886.07,-75.47 889.22,-81.72"/>
</g>
<!-- magicneko_JP03&#45;&gt;septs -->
<g id="edge35" class="edge">
<title>magicneko_JP03&#45;&gt;septs</title>
<path fill="none" stroke="black" d="M615.15,-382.62C645.4,-334.76 706.74,-251.54 785,-218 901.55,-168.06 1052.7,-193.15 1140.52,-215.43"/>
<polygon fill="black" stroke="black" points="612,-381.07 609.7,-391.41 617.95,-384.76 612,-381.07"/>
<polygon fill="black" stroke="black" points="1139.83,-218.86 1150.39,-217.99 1141.59,-212.09 1139.83,-218.86"/>
</g>
<!-- frank_hsinchu -->
<g id="node29" class="node">
<title>frank_hsinchu</title>
<polygon fill="none" stroke="black" points="1470,-254.5 1333,-254.5 1333,-201.5 1470,-201.5 1470,-254.5"/>
<text text-anchor="middle" x="1401.5" y="-239.3" font-family="Times,serif" font-size="14.00">Frank_Hsinchu</text>
<text text-anchor="middle" x="1401.5" y="-224.3" font-family="Times,serif" font-size="14.00">(10.127.255.56)</text>
<text text-anchor="middle" x="1401.5" y="-209.3" font-family="Times,serif" font-size="14.00">(AS4201270004)</text>
</g>
<!-- magicneko_JP03&#45;&gt;frank_hsinchu -->
<g id="edge45" class="edge">
<title>magicneko_JP03&#45;&gt;frank_hsinchu</title>
<path fill="none" stroke="black" d="M611.1,-382.12C638.47,-327.81 698.77,-226.77 785,-186 962.71,-101.98 1201.96,-160.02 1323.18,-199.61"/>
<polygon fill="black" stroke="black" points="607.82,-380.86 606.53,-391.37 614.09,-383.96 607.82,-380.86"/>
<polygon fill="black" stroke="black" points="1322.17,-202.96 1332.76,-202.78 1324.37,-196.32 1322.17,-202.96"/>
</g>
<!-- magicneko_CN01&#45;&gt;icecat_Explosion -->
<g id="edge24" class="edge">
<title>magicneko_CN01&#45;&gt;icecat_Explosion</title>
<path fill="none" stroke="black" d="M719.77,-746.46C729.71,-743.79 739.55,-740.97 749,-738 798.04,-722.6 852.2,-700 890.01,-683.26"/>
<polygon fill="black" stroke="black" points="891.55,-686.41 899.26,-679.14 888.7,-680.02 891.55,-686.41"/>
</g>
<!-- staph_CN -->
<g id="node18" class="node">
<title>staph_CN</title>
<polygon fill="none" stroke="black" points="1287,-1016.5 1140,-1016.5 1140,-963.5 1287,-963.5 1287,-1016.5"/>
<text text-anchor="middle" x="1213.5" y="-1001.3" font-family="Times,serif" font-size="14.00">cnhome.aureus.ga</text>
<text text-anchor="middle" x="1213.5" y="-986.3" font-family="Times,serif" font-size="14.00">(10.127.8.187)</text>
<text text-anchor="middle" x="1213.5" y="-971.3" font-family="Times,serif" font-size="14.00">(AS4201270007)</text>
</g>
<!-- staph&#45;&gt;staph_CN -->
<g id="edge15" class="edge">
<title>staph&#45;&gt;staph_CN</title>
<path fill="none" stroke="black" d="M1008.09,-1003.53C1044.77,-1001.1 1090.44,-998.08 1129.29,-995.51"/>
<polygon fill="black" stroke="black" points="1129.79,-998.98 1139.54,-994.83 1129.33,-992 1129.79,-998.98"/>
</g>
<!-- staph&#45;&gt;septs -->
<g id="edge36" class="edge">
<title>staph&#45;&gt;septs</title>
<path fill="none" stroke="black" d="M1018.4,-1011.23C1048.42,-1008.29 1080.6,-999.3 1102,-977 1114.65,-963.81 1190.52,-401.41 1208.62,-266.07"/>
<polygon fill="black" stroke="black" points="1018.02,-1007.75 1008.32,-1012 1018.56,-1014.73 1018.02,-1007.75"/>
<polygon fill="black" stroke="black" points="1212.11,-266.41 1209.97,-256.03 1205.17,-265.48 1212.11,-266.41"/>
</g>
<!-- santost12 -->
<g id="node28" class="node">
<title>santost12</title>
<polygon fill="none" stroke="black" points="1282,-914.5 1145,-914.5 1145,-861.5 1282,-861.5 1282,-914.5"/>
<text text-anchor="middle" x="1213.5" y="-899.3" font-family="Times,serif" font-size="14.00">Santost12</text>
<text text-anchor="middle" x="1213.5" y="-884.3" font-family="Times,serif" font-size="14.00">(10.127.69.1)</text>
<text text-anchor="middle" x="1213.5" y="-869.3" font-family="Times,serif" font-size="14.00">(AS4201270009)</text>
</g>
<!-- staph&#45;&gt;santost12 -->
<g id="edge42" class="edge">
<title>staph&#45;&gt;santost12</title>
<path fill="none" stroke="black" d="M1018.3,-1000.89C1045.67,-996.39 1076.04,-989.02 1102,-977 1104.08,-976.03 1141.26,-945.98 1171.92,-921.06"/>
<polygon fill="black" stroke="black" points="1017.72,-997.44 1008.37,-1002.43 1018.79,-1004.36 1017.72,-997.44"/>
<polygon fill="black" stroke="black" points="1174.4,-923.55 1179.95,-914.52 1169.99,-918.12 1174.4,-923.55"/>
</g>
<!-- JerryXiao&#45;&gt;ucbvax -->
<g id="edge29" class="edge">
<title>JerryXiao&#45;&gt;ucbvax</title>
<path fill="none" stroke="black" d="M900.55,-79.75C858.5,-109.05 793.92,-162.14 767,-227 749.09,-270.15 742.44,-1028.26 767,-1068 785.07,-1097.23 820.12,-1108.97 853.93,-1112.9"/>
<polygon fill="black" stroke="black" points="902.63,-82.58 908.91,-74.04 898.68,-76.8 902.63,-82.58"/>
<polygon fill="black" stroke="black" points="853.6,-1116.39 863.89,-1113.85 854.27,-1109.42 853.6,-1116.39"/>
</g>
<!-- JerryXiao_SH01 -->
<g id="node21" class="node">
<title>JerryXiao_SH01</title>
<polygon fill="none" stroke="black" points="1274.5,-74 1152.5,-74 1152.5,-36 1274.5,-36 1274.5,-74"/>
<text text-anchor="middle" x="1213.5" y="-58.8" font-family="Times,serif" font-size="14.00">jerryxiao&#45;sh01</text>
<text text-anchor="middle" x="1213.5" y="-43.8" font-family="Times,serif" font-size="14.00">(10.127.8.195)</text>
</g>
<!-- JerryXiao&#45;&gt;JerryXiao_SH01 -->
<g id="edge25" class="edge">
<title>JerryXiao&#45;&gt;JerryXiao_SH01</title>
<path fill="none" stroke="black" d="M1028.22,-55C1065.04,-55 1107.3,-55 1142.05,-55"/>
<polygon fill="black" stroke="black" points="1028.08,-51.5 1018.08,-55 1028.08,-58.5 1028.08,-51.5"/>
<polygon fill="black" stroke="black" points="1142.11,-58.5 1152.11,-55 1142.11,-51.5 1142.11,-58.5"/>
</g>
<!-- JerryXiao_HK01 -->
<g id="node22" class="node">
<title>JerryXiao_HK01</title>
<polygon fill="none" stroke="black" points="1462.5,-64 1340.5,-64 1340.5,-26 1462.5,-26 1462.5,-64"/>
<text text-anchor="middle" x="1401.5" y="-48.8" font-family="Times,serif" font-size="14.00">jerryxiao&#45;hk01</text>
<text text-anchor="middle" x="1401.5" y="-33.8" font-family="Times,serif" font-size="14.00">(10.127.8.194)</text>
</g>
<!-- JerryXiao&#45;&gt;JerryXiao_HK01 -->
<g id="edge26" class="edge">
<title>JerryXiao&#45;&gt;JerryXiao_HK01</title>
<path fill="none" stroke="black" d="M1028.31,-39.29C1060.22,-34.3 1096.63,-29.45 1130,-27 1204.24,-21.54 1223.33,-20.57 1297.5,-27 1308.16,-27.92 1319.38,-29.38 1330.32,-31.07"/>
<polygon fill="black" stroke="black" points="1027.45,-35.88 1018.12,-40.91 1028.55,-42.79 1027.45,-35.88"/>
<polygon fill="black" stroke="black" points="1329.84,-34.54 1340.27,-32.68 1330.96,-27.63 1329.84,-34.54"/>
</g>
<!-- JerryXiao&#45;&gt;septs -->
<g id="edge30" class="edge">
<title>JerryXiao&#45;&gt;septs</title>
<path fill="none" stroke="black" d="M1027.9,-74.86C1053.12,-83 1079.79,-94.11 1102,-109 1141.78,-135.67 1175.73,-180.32 1195.13,-209.21"/>
<polygon fill="black" stroke="black" points="1028.91,-71.51 1018.32,-71.88 1026.84,-78.19 1028.91,-71.51"/>
<polygon fill="black" stroke="black" points="1192.25,-211.21 1200.67,-217.64 1198.1,-207.36 1192.25,-211.21"/>
</g>
<!-- JerryXiao_SH01&#45;&gt;JerryXiao_HK01 -->
<g id="edge27" class="edge">
<title>JerryXiao_SH01&#45;&gt;JerryXiao_HK01</title>
<path fill="none" stroke="black" d="M1284.65,-51.23C1299.52,-50.43 1315.23,-49.58 1330.11,-48.78"/>
<polygon fill="black" stroke="black" points="1284.43,-47.74 1274.63,-51.77 1284.81,-54.73 1284.43,-47.74"/>
<polygon fill="black" stroke="black" points="1330.46,-52.27 1340.26,-48.24 1330.08,-45.28 1330.46,-52.27"/>
</g>
<!-- dfceaef -->
<g id="node26" class="node">
<title>dfceaef</title>
<polygon fill="none" stroke="black" points="1470,-166.5 1333,-166.5 1333,-113.5 1470,-113.5 1470,-166.5"/>
<text text-anchor="middle" x="1401.5" y="-151.3" font-family="Times,serif" font-size="14.00">dfceaef</text>
<text text-anchor="middle" x="1401.5" y="-136.3" font-family="Times,serif" font-size="14.00">(10.127.8.64/26)</text>
<text text-anchor="middle" x="1401.5" y="-121.3" font-family="Times,serif" font-size="14.00">(AS4242420140)</text>
</g>
<!-- JerryXiao_SH01&#45;&gt;dfceaef -->
<g id="edge31" class="edge">
<title>JerryXiao_SH01&#45;&gt;dfceaef</title>
<path fill="none" stroke="black" d="M1265.45,-78.28C1286.36,-87.84 1310.87,-99.04 1333.22,-109.26"/>
<polygon fill="black" stroke="black" points="1266.79,-75.05 1256.24,-74.08 1263.88,-81.42 1266.79,-75.05"/>
<polygon fill="black" stroke="black" points="1331.77,-112.44 1342.32,-113.41 1334.68,-106.07 1331.77,-112.44"/>
</g>
<!-- JerryXiao_HK02 -->
<g id="node23" class="node">
<title>JerryXiao_HK02</title>
<polygon fill="none" stroke="black" points="1628,-64 1506,-64 1506,-26 1628,-26 1628,-64"/>
<text text-anchor="middle" x="1567" y="-48.8" font-family="Times,serif" font-size="14.00">jerryxiao&#45;hk02</text>
<text text-anchor="middle" x="1567" y="-33.8" font-family="Times,serif" font-size="14.00">(10.127.8.196)</text>
</g>
<!-- JerryXiao_HK01&#45;&gt;JerryXiao_HK02 -->
<g id="edge28" class="edge">
<title>JerryXiao_HK01&#45;&gt;JerryXiao_HK02</title>
<path fill="none" stroke="black" d="M1473.23,-45C1480.7,-45 1488.29,-45 1495.76,-45"/>
<polygon fill="black" stroke="black" points="1472.92,-41.5 1462.92,-45 1472.92,-48.5 1472.92,-41.5"/>
<polygon fill="black" stroke="black" points="1495.83,-48.5 1505.83,-45 1495.83,-41.5 1495.83,-48.5"/>
</g>
<!-- septs&#45;&gt;frank_hsinchu -->
<g id="edge46" class="edge">
<title>septs&#45;&gt;frank_hsinchu</title>
<path fill="none" stroke="black" d="M1292.36,-233.23C1302.46,-232.74 1312.8,-232.24 1322.89,-231.76"/>
<polygon fill="black" stroke="black" points="1292,-229.75 1282.18,-233.73 1292.33,-236.74 1292,-229.75"/>
<polygon fill="black" stroke="black" points="1323.05,-235.25 1332.87,-231.27 1322.72,-228.26 1323.05,-235.25"/>
</g>
<!-- lantian -->
<g id="node25" class="node">
<title>lantian</title>
<polygon fill="none" stroke="black" points="662,-108 525,-108 525,-70 662,-70 662,-108"/>
<text text-anchor="middle" x="593.5" y="-92.8" font-family="Times,serif" font-size="14.00">lantian</text>
<text text-anchor="middle" x="593.5" y="-77.8" font-family="Times,serif" font-size="14.00">(AS4201270010)</text>
</g>
<!-- lantian&#45;&gt;JerryXiao -->
<g id="edge34" class="edge">
<title>lantian&#45;&gt;JerryXiao</title>
<path fill="none" stroke="black" d="M672.34,-81.31C725.4,-76.06 795.75,-69.11 850.8,-63.67"/>
<polygon fill="black" stroke="black" points="671.66,-77.86 662.05,-82.32 672.35,-84.82 671.66,-77.86"/>
<polygon fill="black" stroke="black" points="851.28,-67.14 860.89,-62.67 850.59,-60.17 851.28,-67.14"/>
</g>
<!-- lantian&#45;&gt;septs -->
<g id="edge33" class="edge">
<title>lantian&#45;&gt;septs</title>
<path fill="none" stroke="black" d="M672.47,-97.53C773.42,-109.98 953.97,-137.03 1102,-185 1124.64,-192.34 1148.66,-203.23 1168.51,-213.16"/>
<polygon fill="black" stroke="black" points="672.7,-94.03 662.35,-96.3 671.86,-100.98 672.7,-94.03"/>
<polygon fill="black" stroke="black" points="1167.1,-216.37 1177.6,-217.78 1170.27,-210.13 1167.1,-216.37"/>
</g>
<!-- santost12&#45;&gt;magicneko_JP03 -->
<g id="edge52" class="edge">
<title>santost12&#45;&gt;magicneko_JP03</title>
<path fill="none" stroke="black" d="M1144.82,-876.71C1048.37,-856.82 873.3,-805.88 785,-688 721.91,-603.79 820.51,-531.19 749,-454 748.11,-453.03 747.19,-452.09 746.25,-451.17"/>
<polygon fill="black" stroke="black" points="748.55,-448.53 738.73,-444.56 743.93,-453.79 748.55,-448.53"/>
</g>
<!-- NNPCC -->
<g id="node30" class="node">
<title>NNPCC</title>
<polygon fill="none" stroke="black" points="102,-1287 31,-1287 31,-1251 102,-1251 102,-1287"/>
<text text-anchor="middle" x="66.5" y="-1265.3" font-family="Times,serif" font-size="14.00">NNPCC</text>
</g>
<!-- NNPCC&#45;&gt;np11 -->
<g id="edge1" class="edge">
<title>NNPCC&#45;&gt;np11</title>
<path fill="none" stroke="black" d="M111.35,-1248.65C139.83,-1235.43 177.51,-1217.94 209.68,-1203.01"/>
<polygon fill="black" stroke="black" points="109.61,-1245.6 102.01,-1252.98 112.56,-1251.95 109.61,-1245.6"/>
<polygon fill="black" stroke="black" points="211.44,-1206.05 219.04,-1198.67 208.49,-1199.71 211.44,-1206.05"/>
</g>
<!-- NeoBOX -->
<g id="node31" class="node">
<title>NeoBOX</title>
<polygon fill="none" stroke="black" points="105,-1233 28,-1233 28,-1197 105,-1197 105,-1233"/>
<text text-anchor="middle" x="66.5" y="-1211.3" font-family="Times,serif" font-size="14.00">NeoBOX</text>
</g>
<!-- NeoBOX&#45;&gt;np11 -->
<g id="edge2" class="edge">
<title>NeoBOX&#45;&gt;np11</title>
<path fill="none" stroke="black" d="M115.2,-1205.19C142.3,-1199.61 176.71,-1192.53 206.78,-1186.34"/>
<polygon fill="black" stroke="black" points="114.44,-1201.77 105.35,-1207.21 115.85,-1208.63 114.44,-1201.77"/>
<polygon fill="black" stroke="black" points="207.7,-1189.73 216.79,-1184.28 206.29,-1182.87 207.7,-1189.73"/>
</g>
<!-- cklvax -->
<g id="node32" class="node">
<title>cklvax</title>
<polygon fill="none" stroke="black" points="97.5,-1179 35.5,-1179 35.5,-1143 97.5,-1143 97.5,-1179"/>
<text text-anchor="middle" x="66.5" y="-1157.3" font-family="Times,serif" font-size="14.00">cklvax</text>
</g>
<!-- cklvax&#45;&gt;np11 -->
<g id="edge3" class="edge">
<title>cklvax&#45;&gt;np11</title>
<path fill="none" stroke="black" d="M108.27,-1163.15C136.11,-1164.61 173.72,-1166.59 206.32,-1168.31"/>
<polygon fill="black" stroke="black" points="108.06,-1159.63 97.89,-1162.6 107.69,-1166.62 108.06,-1159.63"/>
<polygon fill="black" stroke="black" points="206.54,-1171.82 216.71,-1168.85 206.91,-1164.83 206.54,-1171.82"/>
</g>
<!-- NeoStorage -->
<g id="node33" class="node">
<title>NeoStorage</title>
<polygon fill="none" stroke="black" points="117,-1125 16,-1125 16,-1089 117,-1089 117,-1125"/>
<text text-anchor="middle" x="66.5" y="-1103.3" font-family="Times,serif" font-size="14.00">NeoStorage</text>
</g>
<!-- NeoStorage&#45;&gt;np11 -->
<g id="edge4" class="edge">
<title>NeoStorage&#45;&gt;np11</title>
<path fill="none" stroke="black" d="M126.59,-1127.42C135.43,-1130.36 144.44,-1133.3 153,-1136 170.52,-1141.52 189.54,-1147.21 207.27,-1152.39"/>
<polygon fill="black" stroke="black" points="127.71,-1124.1 117.11,-1124.23 125.48,-1130.73 127.71,-1124.1"/>
<polygon fill="black" stroke="black" points="206.4,-1155.78 216.98,-1155.22 208.35,-1149.06 206.4,-1155.78"/>
</g>
</g>
</svg>
