<?xml version="1.0" encoding="UTF-8" standalone="no"?>
<!DOCTYPE svg PUBLIC "-//W3C//DTD SVG 1.1//EN"
 "http://www.w3.org/Graphics/SVG/1.1/DTD/svg11.dtd">
<!-- Generated by graphviz version 2.44.0 (0)
 -->
<!-- Title: NeoNetwork Nodes Pages: 1 -->
<svg width="1128pt" height="1153pt"
 viewBox="0.00 0.00 1128.00 1153.00" xmlns="http://www.w3.org/2000/svg" xmlns:xlink="http://www.w3.org/1999/xlink">
<g id="graph0" class="graph" transform="scale(1 1) rotate(0) translate(4 1149)">
<title>NeoNetwork Nodes</title>
<polygon fill="white" stroke="transparent" points="-4,4 -4,-1149 1124,-1149 1124,4 -4,4"/>
<text text-anchor="middle" x="560" y="-1129.8" font-family="Times,serif" font-size="14.00">NeoNetwork Nodes</text>
<g id="clust1" class="cluster">
<title>cluster_AS4201048576</title>
<polygon fill="none" stroke="black" points="8,-877 8,-1114 946.5,-1114 946.5,-877 8,-877"/>
<text text-anchor="middle" x="477.25" y="-1098.8" font-family="Times,serif" font-size="14.00">NeoNetwork (AS4201048576)</text>
</g>
<g id="clust2" class="cluster">
<title>cluster_AS4200012450</title>
<polygon fill="none" stroke="black" points="146.5,-384 146.5,-869 564,-869 564,-384 146.5,-384"/>
<text text-anchor="middle" x="355.25" y="-853.8" font-family="Times,serif" font-size="14.00">MagicNeko Network (AS4200012450)</text>
</g>
<g id="clust3" class="cluster">
<title>cluster_AS4200066666</title>
<polygon fill="none" stroke="black" points="354.5,-8 354.5,-105 1112,-105 1112,-8 354.5,-8"/>
<text text-anchor="middle" x="733.25" y="-89.8" font-family="Times,serif" font-size="14.00">Jerry Network (AS4200066666)</text>
</g>
<!-- c -->
<g id="node1" class="node">
<title>c</title>
<polygon fill="none" stroke="black" points="938.5,-962 786.5,-962 786.5,-924 938.5,-924 938.5,-962"/>
<text text-anchor="middle" x="862.5" y="-946.8" font-family="Times,serif" font-size="14.00">caasih.neocloud.tw</text>
<text text-anchor="middle" x="862.5" y="-931.8" font-family="Times,serif" font-size="14.00">(10.127.0.1)</text>
</g>
<!-- ucbvax -->
<g id="node2" class="node">
<title>ucbvax</title>
<polygon fill="none" stroke="black" points="743,-923 592,-923 592,-885 743,-885 743,-923"/>
<text text-anchor="middle" x="667.5" y="-907.8" font-family="Times,serif" font-size="14.00">router.neocloud.tw</text>
<text text-anchor="middle" x="667.5" y="-892.8" font-family="Times,serif" font-size="14.00">(10.127.255.2)</text>
</g>
<!-- ucbvax&#45;&gt;c -->
<g id="edge8" class="edge">
<title>ucbvax&#45;&gt;c</title>
<path fill="none" stroke="black" d="M753.21,-921.12C760.9,-922.67 768.7,-924.25 776.4,-925.8"/>
<polygon fill="black" stroke="black" points="753.61,-917.63 743.12,-919.08 752.23,-924.49 753.61,-917.63"/>
<polygon fill="black" stroke="black" points="775.95,-929.28 786.44,-927.83 777.33,-922.42 775.95,-929.28"/>
</g>
<!-- chenx97 -->
<g id="node18" class="node">
<title>chenx97</title>
<polygon fill="none" stroke="black" points="946,-579 779,-579 779,-541 946,-541 946,-579"/>
<text text-anchor="middle" x="862.5" y="-563.8" font-family="Times,serif" font-size="14.00">chenx97.neocloud.tw</text>
<text text-anchor="middle" x="862.5" y="-548.8" font-family="Times,serif" font-size="14.00">(AS4200114514)</text>
</g>
<!-- ucbvax&#45;&gt;chenx97 -->
<g id="edge15" class="edge">
<title>ucbvax&#45;&gt;chenx97</title>
<path fill="none" stroke="black" d="M684.42,-875.63C720.77,-810.84 809.54,-652.61 845.74,-588.08"/>
<polygon fill="black" stroke="black" points="681.27,-874.09 679.43,-884.52 687.37,-877.51 681.27,-874.09"/>
<polygon fill="black" stroke="black" points="848.85,-589.7 850.69,-579.27 842.74,-586.28 848.85,-589.7"/>
</g>
<!-- septs -->
<g id="node23" class="node">
<title>septs</title>
<polygon fill="none" stroke="black" points="931,-235 794,-235 794,-197 931,-197 931,-235"/>
<text text-anchor="middle" x="862.5" y="-219.8" font-family="Times,serif" font-size="14.00">bgp.septs.me</text>
<text text-anchor="middle" x="862.5" y="-204.8" font-family="Times,serif" font-size="14.00">(AS4200055555)</text>
</g>
<!-- ucbvax&#45;&gt;septs -->
<g id="edge36" class="edge">
<title>ucbvax&#45;&gt;septs</title>
<path fill="none" stroke="black" d="M678.33,-875.07C693.11,-831.17 721.6,-745.03 743,-671 760.72,-609.69 762.94,-593.76 779,-532 806.48,-426.32 839.31,-300.8 853.88,-245.11"/>
<polygon fill="black" stroke="black" points="674.93,-874.19 675.05,-884.78 681.56,-876.42 674.93,-874.19"/>
<polygon fill="black" stroke="black" points="857.32,-245.79 856.46,-235.23 850.55,-244.02 857.32,-245.79"/>
</g>
<!-- np11 -->
<g id="node3" class="node">
<title>np11</title>
<polygon fill="none" stroke="black" points="282,-994.5 161,-994.5 161,-941.5 282,-941.5 282,-994.5"/>
<text text-anchor="middle" x="221.5" y="-979.3" font-family="Times,serif" font-size="14.00">NeoPDP&#45;11</text>
<text text-anchor="middle" x="221.5" y="-964.3" font-family="Times,serif" font-size="14.00">(10.127.255.1,</text>
<text text-anchor="middle" x="221.5" y="-949.3" font-family="Times,serif" font-size="14.00">10.127.1.1)</text>
</g>
<!-- np11&#45;&gt;c -->
<g id="edge7" class="edge">
<title>np11&#45;&gt;c</title>
<path fill="none" stroke="black" d="M282.06,-969.22C350.23,-970.3 465.22,-971.12 564,-967 635.7,-964.01 716.89,-957.23 776.31,-951.64"/>
<polygon fill="black" stroke="black" points="776.78,-955.11 786.4,-950.68 776.12,-948.14 776.78,-955.11"/>
</g>
<!-- np11&#45;&gt;ucbvax -->
<g id="edge5" class="edge">
<title>np11&#45;&gt;ucbvax</title>
<path fill="none" stroke="black" d="M282.12,-972.14C351.07,-975.35 467.49,-975.86 564,-952 584.95,-946.82 606.8,-937.25 624.91,-928"/>
<polygon fill="black" stroke="black" points="626.79,-930.97 634.02,-923.23 623.54,-924.77 626.79,-930.97"/>
</g>
<!-- pan -->
<g id="node6" class="node">
<title>pan</title>
<polygon fill="none" stroke="black" points="502.5,-943 379.5,-943 379.5,-905 502.5,-905 502.5,-943"/>
<text text-anchor="middle" x="441" y="-927.8" font-family="Times,serif" font-size="14.00">r2.neocloud.tw</text>
<text text-anchor="middle" x="441" y="-912.8" font-family="Times,serif" font-size="14.00">(10.127.3.1)</text>
</g>
<!-- np11&#45;&gt;pan -->
<g id="edge6" class="edge">
<title>np11&#45;&gt;pan</title>
<path fill="none" stroke="black" d="M282.22,-955.92C309.1,-950.48 341.04,-944.02 369.12,-938.34"/>
<polygon fill="black" stroke="black" points="370.17,-941.7 379.28,-936.28 368.78,-934.84 370.17,-941.7"/>
</g>
<!-- ns -->
<g id="node4" class="node">
<title>ns</title>
<polygon fill="none" stroke="black" points="287,-923 156,-923 156,-885 287,-885 287,-923"/>
<text text-anchor="middle" x="221.5" y="-907.8" font-family="Times,serif" font-size="14.00">NeoSystem</text>
<text text-anchor="middle" x="221.5" y="-892.8" font-family="Times,serif" font-size="14.00">(10.127.255.80)</text>
</g>
<!-- ns&#45;&gt;ucbvax -->
<g id="edge9" class="edge">
<title>ns&#45;&gt;ucbvax</title>
<path fill="none" stroke="black" d="M287.05,-898.24C299.94,-897.31 313.39,-896.49 326,-896 431.7,-891.92 458.3,-891.88 564,-896 569.77,-896.22 575.72,-896.52 581.71,-896.87"/>
<polygon fill="black" stroke="black" points="581.61,-900.37 591.8,-897.49 582.04,-893.38 581.61,-900.37"/>
</g>
<!-- ns&#45;&gt;pan -->
<g id="edge10" class="edge">
<title>ns&#45;&gt;pan</title>
<path fill="none" stroke="black" d="M287.17,-909.95C312.93,-912.32 342.65,-915.05 369.01,-917.47"/>
<polygon fill="black" stroke="black" points="369.03,-920.99 379.3,-918.42 369.67,-914.02 369.03,-920.99"/>
</g>
<!-- megumiLHS -->
<g id="node5" class="node">
<title>megumiLHS</title>
<polygon fill="none" stroke="black" points="523.5,-376 358.5,-376 358.5,-338 523.5,-338 523.5,-376"/>
<text text-anchor="middle" x="441" y="-360.8" font-family="Times,serif" font-size="14.00">megumi.yukipedia.cf</text>
<text text-anchor="middle" x="441" y="-345.8" font-family="Times,serif" font-size="14.00">(AS4203223939)</text>
</g>
<!-- megumiLHS&#45;&gt;ucbvax -->
<g id="edge12" class="edge">
<title>megumiLHS&#45;&gt;ucbvax</title>
<path fill="none" stroke="black" d="M533.51,-360.64C545.06,-364.75 555.71,-370.92 564,-380 607.81,-427.97 578.92,-607.36 592,-671 607.51,-746.45 638.44,-831.94 655.15,-875.38"/>
<polygon fill="black" stroke="black" points="534.21,-357.19 523.63,-357.65 532.19,-363.89 534.21,-357.19"/>
<polygon fill="black" stroke="black" points="651.9,-876.68 658.78,-884.74 658.43,-874.15 651.9,-876.68"/>
</g>
<!-- megumiLHS&#45;&gt;septs -->
<g id="edge39" class="edge">
<title>megumiLHS&#45;&gt;septs</title>
<path fill="none" stroke="black" d="M533.35,-364C544.42,-367.7 554.98,-372.86 564,-380 588.03,-399.01 566.31,-426.3 592,-443 648.27,-479.57 685.61,-477.78 743,-443 815.05,-399.33 845.37,-295.91 856.25,-245.14"/>
<polygon fill="black" stroke="black" points="534.1,-360.57 523.52,-361.11 532.13,-367.29 534.1,-360.57"/>
<polygon fill="black" stroke="black" points="859.72,-245.64 858.29,-235.15 852.86,-244.25 859.72,-245.64"/>
</g>
<!-- pan&#45;&gt;ucbvax -->
<g id="edge11" class="edge">
<title>pan&#45;&gt;ucbvax</title>
<path fill="none" stroke="black" d="M512.92,-917.68C534.67,-915.74 558.82,-913.59 581.41,-911.58"/>
<polygon fill="black" stroke="black" points="512.4,-914.21 502.75,-918.59 513.02,-921.19 512.4,-914.21"/>
<polygon fill="black" stroke="black" points="582.02,-915.04 591.67,-910.67 581.4,-908.07 582.02,-915.04"/>
</g>
<!-- icecat_Explosion -->
<g id="node7" class="node">
<title>icecat_Explosion</title>
<polygon fill="none" stroke="black" points="556,-661.5 326,-661.5 326,-608.5 556,-608.5 556,-661.5"/>
<text text-anchor="middle" x="441" y="-646.3" font-family="Times,serif" font-size="14.00">hk&#45;01.nextmoe.cloud.imiku.cn</text>
<text text-anchor="middle" x="441" y="-631.3" font-family="Times,serif" font-size="14.00">(10.127.0.58,</text>
<text text-anchor="middle" x="441" y="-616.3" font-family="Times,serif" font-size="14.00">10.127.4.10)</text>
</g>
<!-- icecat_Explosion&#45;&gt;ucbvax -->
<g id="edge13" class="edge">
<title>icecat_Explosion&#45;&gt;ucbvax</title>
<path fill="none" stroke="black" d="M470.77,-669.48C515.98,-723.64 602.69,-827.55 643.81,-876.81"/>
<polygon fill="black" stroke="black" points="473.44,-667.21 464.35,-661.78 468.07,-671.7 473.44,-667.21"/>
<polygon fill="black" stroke="black" points="641.37,-879.35 650.47,-884.79 646.75,-874.87 641.37,-879.35"/>
</g>
<!-- SUNNET -->
<g id="node26" class="node">
<title>SUNNET</title>
<polygon fill="none" stroke="black" points="736,-661.5 599,-661.5 599,-608.5 736,-608.5 736,-661.5"/>
<text text-anchor="middle" x="667.5" y="-646.3" font-family="Times,serif" font-size="14.00">SUNNET</text>
<text text-anchor="middle" x="667.5" y="-631.3" font-family="Times,serif" font-size="14.00">(10.127.11.0/24)</text>
<text text-anchor="middle" x="667.5" y="-616.3" font-family="Times,serif" font-size="14.00">(AS4242423088)</text>
</g>
<!-- icecat_Explosion&#45;&gt;SUNNET -->
<g id="edge40" class="edge">
<title>icecat_Explosion&#45;&gt;SUNNET</title>
<path fill="none" stroke="black" d="M566.48,-635C574.06,-635 581.55,-635 588.83,-635"/>
<polygon fill="black" stroke="black" points="566.22,-631.5 556.22,-635 566.22,-638.5 566.22,-631.5"/>
<polygon fill="black" stroke="black" points="588.97,-638.5 598.97,-635 588.97,-631.5 588.97,-638.5"/>
</g>
<!-- icecat_Notebook -->
<g id="node8" class="node">
<title>icecat_Notebook</title>
<polygon fill="none" stroke="black" points="288.5,-781.5 154.5,-781.5 154.5,-728.5 288.5,-728.5 288.5,-781.5"/>
<text text-anchor="middle" x="221.5" y="-766.3" font-family="Times,serif" font-size="14.00">Notebook</text>
<text text-anchor="middle" x="221.5" y="-751.3" font-family="Times,serif" font-size="14.00">(10.127.0.64/30,</text>
<text text-anchor="middle" x="221.5" y="-736.3" font-family="Times,serif" font-size="14.00">10.127.4.100)</text>
</g>
<!-- icecat_Notebook&#45;&gt;icecat_Explosion -->
<g id="edge23" class="edge">
<title>icecat_Notebook&#45;&gt;icecat_Explosion</title>
<path fill="none" stroke="black" d="M272.69,-728.38C278.54,-725.23 284.41,-722.06 290,-719 321.31,-701.88 356.1,-682.43 384.28,-666.56"/>
<polygon fill="black" stroke="black" points="386.19,-669.5 393.18,-661.54 382.75,-663.4 386.19,-669.5"/>
</g>
<!-- magicneko_HK01 -->
<g id="node9" class="node">
<title>magicneko_HK01</title>
<polygon fill="none" stroke="black" points="273.5,-710 169.5,-710 169.5,-672 273.5,-672 273.5,-710"/>
<text text-anchor="middle" x="221.5" y="-694.8" font-family="Times,serif" font-size="14.00">M&#45;HK1</text>
<text text-anchor="middle" x="221.5" y="-679.8" font-family="Times,serif" font-size="14.00">(10.127.4.1)</text>
</g>
<!-- magicneko_HK01&#45;&gt;icecat_Explosion -->
<g id="edge16" class="edge">
<title>magicneko_HK01&#45;&gt;icecat_Explosion</title>
<path fill="none" stroke="black" d="M273.77,-677.8C289.92,-673.64 308.44,-668.87 327.13,-664.06"/>
<polygon fill="black" stroke="black" points="328.09,-667.43 336.9,-661.55 326.34,-660.65 328.09,-667.43"/>
</g>
<!-- magicneko_HK02 -->
<g id="node10" class="node">
<title>magicneko_HK02</title>
<polygon fill="none" stroke="black" points="278,-654 165,-654 165,-616 278,-616 278,-654"/>
<text text-anchor="middle" x="221.5" y="-638.8" font-family="Times,serif" font-size="14.00">M&#45;HK2</text>
<text text-anchor="middle" x="221.5" y="-623.8" font-family="Times,serif" font-size="14.00">(10.127.4.10)</text>
</g>
<!-- magicneko_HK02&#45;&gt;icecat_Explosion -->
<g id="edge17" class="edge">
<title>magicneko_HK02&#45;&gt;icecat_Explosion</title>
<path fill="none" stroke="black" d="M278.23,-635C289.75,-635 302.32,-635 315.2,-635"/>
<polygon fill="black" stroke="black" points="315.58,-638.5 325.58,-635 315.58,-631.5 315.58,-638.5"/>
</g>
<!-- magicneko_JP01 -->
<g id="node11" class="node">
<title>magicneko_JP01</title>
<polygon fill="none" stroke="black" points="278,-598 165,-598 165,-560 278,-560 278,-598"/>
<text text-anchor="middle" x="221.5" y="-582.8" font-family="Times,serif" font-size="14.00">M&#45;JP1</text>
<text text-anchor="middle" x="221.5" y="-567.8" font-family="Times,serif" font-size="14.00">(10.127.4.11)</text>
</g>
<!-- magicneko_JP01&#45;&gt;icecat_Explosion -->
<g id="edge18" class="edge">
<title>magicneko_JP01&#45;&gt;icecat_Explosion</title>
<path fill="none" stroke="black" d="M278.23,-593.35C293.17,-597.2 309.88,-601.5 326.73,-605.84"/>
<polygon fill="black" stroke="black" points="326.1,-609.29 336.66,-608.39 327.85,-602.51 326.1,-609.29"/>
</g>
<!-- magicneko_HK03 -->
<g id="node12" class="node">
<title>magicneko_HK03</title>
<polygon fill="none" stroke="black" points="278,-542 165,-542 165,-504 278,-504 278,-542"/>
<text text-anchor="middle" x="221.5" y="-526.8" font-family="Times,serif" font-size="14.00">M&#45;HK3</text>
<text text-anchor="middle" x="221.5" y="-511.8" font-family="Times,serif" font-size="14.00">(10.127.4.12)</text>
</g>
<!-- magicneko_HK03&#45;&gt;icecat_Explosion -->
<g id="edge19" class="edge">
<title>magicneko_HK03&#45;&gt;icecat_Explosion</title>
<path fill="none" stroke="black" d="M270.38,-542.04C277.03,-544.92 283.72,-547.95 290,-551 322.83,-566.93 358.52,-586.81 386.84,-603.23"/>
<polygon fill="black" stroke="black" points="385.37,-606.42 395.77,-608.42 388.89,-600.37 385.37,-606.42"/>
</g>
<!-- magicneko_JP02 -->
<g id="node13" class="node">
<title>magicneko_JP02</title>
<polygon fill="none" stroke="black" points="278,-838 165,-838 165,-800 278,-800 278,-838"/>
<text text-anchor="middle" x="221.5" y="-822.8" font-family="Times,serif" font-size="14.00">M&#45;JP2</text>
<text text-anchor="middle" x="221.5" y="-807.8" font-family="Times,serif" font-size="14.00">(10.127.4.13)</text>
</g>
<!-- magicneko_JP02&#45;&gt;icecat_Explosion -->
<g id="edge20" class="edge">
<title>magicneko_JP02&#45;&gt;icecat_Explosion</title>
<path fill="none" stroke="black" d="M274.87,-799.85C280.14,-797.17 285.29,-794.22 290,-791 339.84,-756.97 386.19,-704.23 413.81,-669.65"/>
<polygon fill="black" stroke="black" points="416.63,-671.73 420.08,-661.71 411.14,-667.39 416.63,-671.73"/>
</g>
<!-- magicneko_RU01 -->
<g id="node14" class="node">
<title>magicneko_RU01</title>
<polygon fill="none" stroke="black" points="278,-486 165,-486 165,-448 278,-448 278,-486"/>
<text text-anchor="middle" x="221.5" y="-470.8" font-family="Times,serif" font-size="14.00">M&#45;RU1</text>
<text text-anchor="middle" x="221.5" y="-455.8" font-family="Times,serif" font-size="14.00">(10.127.4.14)</text>
</g>
<!-- magicneko_RU01&#45;&gt;icecat_Explosion -->
<g id="edge21" class="edge">
<title>magicneko_RU01&#45;&gt;icecat_Explosion</title>
<path fill="none" stroke="black" d="M273.99,-486.06C279.54,-488.79 284.99,-491.77 290,-495 336.39,-524.87 381.55,-569.84 409.99,-600.7"/>
<polygon fill="black" stroke="black" points="407.53,-603.2 416.85,-608.23 412.7,-598.48 407.53,-603.2"/>
</g>
<!-- staph -->
<g id="node16" class="node">
<title>staph</title>
<polygon fill="none" stroke="black" points="509.5,-320 372.5,-320 372.5,-282 509.5,-282 509.5,-320"/>
<text text-anchor="middle" x="441" y="-304.8" font-family="Times,serif" font-size="14.00">s.aureus.ga</text>
<text text-anchor="middle" x="441" y="-289.8" font-family="Times,serif" font-size="14.00">(AS4200078274)</text>
</g>
<!-- magicneko_RU01&#45;&gt;staph -->
<g id="edge38" class="edge">
<title>magicneko_RU01&#45;&gt;staph</title>
<path fill="none" stroke="black" d="M286.25,-442.67C287.56,-441.5 288.81,-440.28 290,-439 324.95,-401.25 288.28,-363.98 326,-329 336.22,-319.52 349.12,-313.11 362.53,-308.8"/>
<polygon fill="black" stroke="black" points="284.05,-439.95 278.21,-448.79 288.29,-445.52 284.05,-439.95"/>
<polygon fill="black" stroke="black" points="363.69,-312.11 372.36,-306.02 361.79,-305.38 363.69,-312.11"/>
</g>
<!-- magicneko_RU01&#45;&gt;septs -->
<g id="edge42" class="edge">
<title>magicneko_RU01&#45;&gt;septs</title>
<path fill="none" stroke="black" d="M286.34,-442.92C287.63,-441.68 288.85,-440.37 290,-439 338.38,-381.05 269.83,-323.44 326,-273 391.68,-214.03 651.82,-211.04 783.81,-213.53"/>
<polygon fill="black" stroke="black" points="283.91,-440.38 278.31,-449.37 288.3,-445.84 283.91,-440.38"/>
<polygon fill="black" stroke="black" points="783.79,-217.03 793.86,-213.74 783.94,-210.03 783.79,-217.03"/>
</g>
<!-- magicneko_JP03 -->
<g id="node15" class="node">
<title>magicneko_JP03</title>
<polygon fill="none" stroke="black" points="278,-430 165,-430 165,-392 278,-392 278,-430"/>
<text text-anchor="middle" x="221.5" y="-414.8" font-family="Times,serif" font-size="14.00">M&#45;JP3</text>
<text text-anchor="middle" x="221.5" y="-399.8" font-family="Times,serif" font-size="14.00">(10.127.4.15)</text>
</g>
<!-- magicneko_JP03&#45;&gt;icecat_Explosion -->
<g id="edge22" class="edge">
<title>magicneko_JP03&#45;&gt;icecat_Explosion</title>
<path fill="none" stroke="black" d="M276.29,-430.18C281.12,-432.82 285.78,-435.75 290,-439 348.2,-483.74 395.68,-556.37 420.72,-599.53"/>
<polygon fill="black" stroke="black" points="417.72,-601.33 425.72,-608.27 423.8,-597.86 417.72,-601.33"/>
</g>
<!-- magicneko_JP03&#45;&gt;chenx97 -->
<g id="edge37" class="edge">
<title>magicneko_JP03&#45;&gt;chenx97</title>
<path fill="none" stroke="black" d="M234.22,-382.57C249.69,-349.28 280.41,-295.79 326,-273 491.77,-190.12 589.18,-170.61 743,-274 830.95,-333.11 853.72,-470.81 859.54,-530.99"/>
<polygon fill="black" stroke="black" points="230.99,-381.23 230.09,-391.79 237.37,-384.09 230.99,-381.23"/>
<polygon fill="black" stroke="black" points="856.05,-531.3 860.41,-540.96 863.02,-530.69 856.05,-531.3"/>
</g>
<!-- JerryXiao -->
<g id="node19" class="node">
<title>JerryXiao</title>
<polygon fill="none" stroke="black" points="519.5,-74 362.5,-74 362.5,-36 519.5,-36 519.5,-74"/>
<text text-anchor="middle" x="441" y="-58.8" font-family="Times,serif" font-size="14.00">jpn.neo.jerryxiao.cc</text>
<text text-anchor="middle" x="441" y="-43.8" font-family="Times,serif" font-size="14.00">(10.127.8.193)</text>
</g>
<!-- magicneko_JP03&#45;&gt;JerryXiao -->
<g id="edge31" class="edge">
<title>magicneko_JP03&#45;&gt;JerryXiao</title>
<path fill="none" stroke="black" d="M230.42,-381.94C244.45,-333.71 276.92,-235.39 326,-164 348.3,-131.56 381.5,-101.19 406.33,-80.78"/>
<polygon fill="black" stroke="black" points="227.01,-381.14 227.63,-391.71 233.74,-383.06 227.01,-381.14"/>
<polygon fill="black" stroke="black" points="408.83,-83.27 414.4,-74.26 404.42,-77.82 408.83,-83.27"/>
</g>
<!-- magicneko_JP03&#45;&gt;septs -->
<g id="edge34" class="edge">
<title>magicneko_JP03&#45;&gt;septs</title>
<path fill="none" stroke="black" d="M226.87,-381.84C235.79,-333.86 261.09,-239.55 326,-199 400.1,-152.72 653.81,-183.51 783.62,-203.19"/>
<polygon fill="black" stroke="black" points="223.38,-381.43 225.11,-391.89 230.28,-382.64 223.38,-381.43"/>
<polygon fill="black" stroke="black" points="783.1,-206.65 793.51,-204.7 784.15,-199.73 783.1,-206.65"/>
</g>
<!-- staph_CN -->
<g id="node17" class="node">
<title>staph_CN</title>
<polygon fill="none" stroke="black" points="741,-406.5 594,-406.5 594,-353.5 741,-353.5 741,-406.5"/>
<text text-anchor="middle" x="667.5" y="-391.3" font-family="Times,serif" font-size="14.00">cnhome.aureus.ga</text>
<text text-anchor="middle" x="667.5" y="-376.3" font-family="Times,serif" font-size="14.00">(10.127.8.187)</text>
<text text-anchor="middle" x="667.5" y="-361.3" font-family="Times,serif" font-size="14.00">(AS4200078274)</text>
</g>
<!-- staph&#45;&gt;staph_CN -->
<g id="edge14" class="edge">
<title>staph&#45;&gt;staph_CN</title>
<path fill="none" stroke="black" d="M509.55,-312.79C527.56,-316.94 546.79,-322.28 564,-329 577.35,-334.21 579.28,-338.39 592,-345 594.41,-346.25 596.88,-347.51 599.38,-348.77"/>
<polygon fill="black" stroke="black" points="598.01,-352 608.52,-353.32 601.12,-345.73 598.01,-352"/>
</g>
<!-- staph&#45;&gt;septs -->
<g id="edge35" class="edge">
<title>staph&#45;&gt;septs</title>
<path fill="none" stroke="black" d="M519.7,-306.4C535.89,-310.72 551.74,-317.74 564,-329 593.93,-356.46 559.17,-392.08 592,-416 646.24,-455.52 684.69,-449.23 743,-416 807.9,-379.02 840.9,-290.97 854.2,-245.03"/>
<polygon fill="black" stroke="black" points="520.14,-302.91 509.6,-304.04 518.55,-309.72 520.14,-302.91"/>
<polygon fill="black" stroke="black" points="857.65,-245.67 856.95,-235.1 850.91,-243.8 857.65,-245.67"/>
</g>
<!-- santost12 -->
<g id="node27" class="node">
<title>santost12</title>
<polygon fill="none" stroke="black" points="736,-335.5 599,-335.5 599,-282.5 736,-282.5 736,-335.5"/>
<text text-anchor="middle" x="667.5" y="-320.3" font-family="Times,serif" font-size="14.00">Santost12</text>
<text text-anchor="middle" x="667.5" y="-305.3" font-family="Times,serif" font-size="14.00">(10.127.69.1)</text>
<text text-anchor="middle" x="667.5" y="-290.3" font-family="Times,serif" font-size="14.00">(AS4200006969)</text>
</g>
<!-- staph&#45;&gt;santost12 -->
<g id="edge41" class="edge">
<title>staph&#45;&gt;santost12</title>
<path fill="none" stroke="black" d="M519.77,-303.77C542.13,-304.57 566.51,-305.44 588.86,-306.23"/>
<polygon fill="black" stroke="black" points="519.78,-300.27 509.66,-303.41 519.53,-307.27 519.78,-300.27"/>
<polygon fill="black" stroke="black" points="588.86,-309.74 598.98,-306.59 589.11,-302.74 588.86,-309.74"/>
</g>
<!-- JerryXiao&#45;&gt;ucbvax -->
<g id="edge28" class="edge">
<title>JerryXiao&#45;&gt;ucbvax</title>
<path fill="none" stroke="black" d="M462.68,-82.45C491.27,-122.1 541.85,-198.82 564,-273 614.74,-442.91 558.54,-496.86 592,-671 606.54,-746.64 637.87,-832.06 654.9,-875.43"/>
<polygon fill="black" stroke="black" points="465.32,-80.12 456.59,-74.1 459.66,-84.24 465.32,-80.12"/>
<polygon fill="black" stroke="black" points="651.67,-876.77 658.61,-884.77 658.18,-874.19 651.67,-876.77"/>
</g>
<!-- JerryXiao_SH01 -->
<g id="node20" class="node">
<title>JerryXiao_SH01</title>
<polygon fill="none" stroke="black" points="728.5,-74 606.5,-74 606.5,-36 728.5,-36 728.5,-74"/>
<text text-anchor="middle" x="667.5" y="-58.8" font-family="Times,serif" font-size="14.00">jerryxiao&#45;sh01</text>
<text text-anchor="middle" x="667.5" y="-43.8" font-family="Times,serif" font-size="14.00">(10.127.8.195)</text>
</g>
<!-- JerryXiao&#45;&gt;JerryXiao_SH01 -->
<g id="edge24" class="edge">
<title>JerryXiao&#45;&gt;JerryXiao_SH01</title>
<path fill="none" stroke="black" d="M529.68,-55C551.71,-55 575.08,-55 596.14,-55"/>
<polygon fill="black" stroke="black" points="529.57,-51.5 519.57,-55 529.57,-58.5 529.57,-51.5"/>
<polygon fill="black" stroke="black" points="596.28,-58.5 606.28,-55 596.28,-51.5 596.28,-58.5"/>
</g>
<!-- JerryXiao_HK01 -->
<g id="node21" class="node">
<title>JerryXiao_HK01</title>
<polygon fill="none" stroke="black" points="923.5,-64 801.5,-64 801.5,-26 923.5,-26 923.5,-64"/>
<text text-anchor="middle" x="862.5" y="-48.8" font-family="Times,serif" font-size="14.00">jerryxiao&#45;hk01</text>
<text text-anchor="middle" x="862.5" y="-33.8" font-family="Times,serif" font-size="14.00">(10.127.8.194)</text>
</g>
<!-- JerryXiao&#45;&gt;JerryXiao_HK01 -->
<g id="edge25" class="edge">
<title>JerryXiao&#45;&gt;JerryXiao_HK01</title>
<path fill="none" stroke="black" d="M529.73,-35.82C550.07,-32.15 571.71,-28.88 592,-27 658.83,-20.82 676.08,-21.95 743,-27 758.66,-28.18 775.38,-30.23 791.19,-32.53"/>
<polygon fill="black" stroke="black" points="529.05,-32.39 519.86,-37.65 530.33,-39.27 529.05,-32.39"/>
<polygon fill="black" stroke="black" points="791.01,-36.05 801.42,-34.08 792.05,-29.13 791.01,-36.05"/>
</g>
<!-- JerryXiao&#45;&gt;septs -->
<g id="edge29" class="edge">
<title>JerryXiao&#45;&gt;septs</title>
<path fill="none" stroke="black" d="M529.69,-72.47C611.99,-89.38 725.09,-114.15 743,-126 765.54,-140.91 758.32,-157.61 779,-175 786.62,-181.41 795.41,-187.12 804.36,-192.11"/>
<polygon fill="black" stroke="black" points="530.31,-69.02 519.81,-70.45 528.91,-75.88 530.31,-69.02"/>
<polygon fill="black" stroke="black" points="802.84,-195.26 813.31,-196.84 806.11,-189.07 802.84,-195.26"/>
</g>
<!-- JerryXiao_SH01&#45;&gt;JerryXiao_HK01 -->
<g id="edge26" class="edge">
<title>JerryXiao_SH01&#45;&gt;JerryXiao_HK01</title>
<path fill="none" stroke="black" d="M738.72,-51.36C755.68,-50.48 773.81,-49.54 790.79,-48.66"/>
<polygon fill="black" stroke="black" points="738.31,-47.88 728.51,-51.89 738.68,-54.87 738.31,-47.88"/>
<polygon fill="black" stroke="black" points="791.39,-52.14 801.2,-48.12 791.03,-45.15 791.39,-52.14"/>
</g>
<!-- dfceaef -->
<g id="node25" class="node">
<title>dfceaef</title>
<polygon fill="none" stroke="black" points="934.5,-166.5 790.5,-166.5 790.5,-113.5 934.5,-113.5 934.5,-166.5"/>
<text text-anchor="middle" x="862.5" y="-151.3" font-family="Times,serif" font-size="14.00">dfceaef</text>
<text text-anchor="middle" x="862.5" y="-136.3" font-family="Times,serif" font-size="14.00">(10.127.9.192/26)</text>
<text text-anchor="middle" x="862.5" y="-121.3" font-family="Times,serif" font-size="14.00">(AS4242420140)</text>
</g>
<!-- JerryXiao_SH01&#45;&gt;dfceaef -->
<g id="edge30" class="edge">
<title>JerryXiao_SH01&#45;&gt;dfceaef</title>
<path fill="none" stroke="black" d="M723,-78.3C729.79,-81.45 736.59,-84.72 743,-88 759.49,-96.43 762.27,-101.05 779,-109 779.56,-109.27 780.13,-109.53 780.69,-109.8"/>
<polygon fill="black" stroke="black" points="724.34,-75.06 713.79,-74.1 721.44,-81.43 724.34,-75.06"/>
<polygon fill="black" stroke="black" points="779.53,-113.11 790.08,-114.03 782.4,-106.73 779.53,-113.11"/>
</g>
<!-- JerryXiao_HK02 -->
<g id="node22" class="node">
<title>JerryXiao_HK02</title>
<polygon fill="none" stroke="black" points="1104,-64 982,-64 982,-26 1104,-26 1104,-64"/>
<text text-anchor="middle" x="1043" y="-48.8" font-family="Times,serif" font-size="14.00">jerryxiao&#45;hk02</text>
<text text-anchor="middle" x="1043" y="-33.8" font-family="Times,serif" font-size="14.00">(10.127.8.196)</text>
</g>
<!-- JerryXiao_HK01&#45;&gt;JerryXiao_HK02 -->
<g id="edge27" class="edge">
<title>JerryXiao_HK01&#45;&gt;JerryXiao_HK02</title>
<path fill="none" stroke="black" d="M934.18,-45C946.53,-45 959.37,-45 971.71,-45"/>
<polygon fill="black" stroke="black" points="933.93,-41.5 923.93,-45 933.93,-48.5 933.93,-41.5"/>
<polygon fill="black" stroke="black" points="971.93,-48.5 981.93,-45 971.93,-41.5 971.93,-48.5"/>
</g>
<!-- lantian -->
<g id="node24" class="node">
<title>lantian</title>
<polygon fill="none" stroke="black" points="290,-116 153,-116 153,-78 290,-78 290,-116"/>
<text text-anchor="middle" x="221.5" y="-100.8" font-family="Times,serif" font-size="14.00">lantian</text>
<text text-anchor="middle" x="221.5" y="-85.8" font-family="Times,serif" font-size="14.00">(AS4200002547)</text>
</g>
<!-- lantian&#45;&gt;JerryXiao -->
<g id="edge33" class="edge">
<title>lantian&#45;&gt;JerryXiao</title>
<path fill="none" stroke="black" d="M300.18,-82C317.01,-78.75 334.93,-75.29 352.12,-71.97"/>
<polygon fill="black" stroke="black" points="299.28,-78.61 290.13,-83.94 300.61,-85.48 299.28,-78.61"/>
<polygon fill="black" stroke="black" points="352.99,-75.37 362.15,-70.03 351.66,-68.49 352.99,-75.37"/>
</g>
<!-- lantian&#45;&gt;septs -->
<g id="edge32" class="edge">
<title>lantian&#45;&gt;septs</title>
<path fill="none" stroke="black" d="M300.26,-106.42C440.2,-123.45 721.95,-158.16 743,-164 767.99,-170.94 794.53,-182.19 816.15,-192.45"/>
<polygon fill="black" stroke="black" points="300.38,-102.91 290.03,-105.17 299.53,-109.86 300.38,-102.91"/>
<polygon fill="black" stroke="black" points="814.87,-195.73 825.4,-196.93 817.92,-189.42 814.87,-195.73"/>
</g>
<!-- NNPCC -->
<g id="node28" class="node">
<title>NNPCC</title>
<polygon fill="none" stroke="black" points="102,-1083 31,-1083 31,-1047 102,-1047 102,-1083"/>
<text text-anchor="middle" x="66.5" y="-1061.3" font-family="Times,serif" font-size="14.00">NNPCC</text>
</g>
<!-- NNPCC&#45;&gt;np11 -->
<g id="edge1" class="edge">
<title>NNPCC&#45;&gt;np11</title>
<path fill="none" stroke="black" d="M110.36,-1041.96C112.62,-1040.64 114.84,-1039.31 117,-1038 136.11,-1026.36 156.61,-1012.74 174.3,-1000.63"/>
<polygon fill="black" stroke="black" points="108.51,-1038.98 101.56,-1046.98 111.98,-1045.06 108.51,-1038.98"/>
<polygon fill="black" stroke="black" points="176.48,-1003.37 182.73,-994.81 172.51,-997.61 176.48,-1003.37"/>
</g>
<!-- NeoBOX -->
<g id="node29" class="node">
<title>NeoBOX</title>
<polygon fill="none" stroke="black" points="105,-1029 28,-1029 28,-993 105,-993 105,-1029"/>
<text text-anchor="middle" x="66.5" y="-1007.3" font-family="Times,serif" font-size="14.00">NeoBOX</text>
</g>
<!-- NeoBOX&#45;&gt;np11 -->
<g id="edge2" class="edge">
<title>NeoBOX&#45;&gt;np11</title>
<path fill="none" stroke="black" d="M115.05,-997.64C126.47,-994.43 138.9,-990.93 151.09,-987.51"/>
<polygon fill="black" stroke="black" points="114,-994.3 105.32,-1000.37 115.89,-1001.03 114,-994.3"/>
<polygon fill="black" stroke="black" points="152.11,-990.86 160.79,-984.78 150.21,-984.12 152.11,-990.86"/>
</g>
<!-- cklvax -->
<g id="node30" class="node">
<title>cklvax</title>
<polygon fill="none" stroke="black" points="97.5,-975 35.5,-975 35.5,-939 97.5,-939 97.5,-975"/>
<text text-anchor="middle" x="66.5" y="-953.3" font-family="Times,serif" font-size="14.00">cklvax</text>
</g>
<!-- cklvax&#45;&gt;np11 -->
<g id="edge3" class="edge">
<title>cklvax&#45;&gt;np11</title>
<path fill="none" stroke="black" d="M107.93,-959.91C121.11,-960.85 136.13,-961.93 150.81,-962.99"/>
<polygon fill="black" stroke="black" points="107.95,-956.4 97.73,-959.17 107.45,-963.38 107.95,-956.4"/>
<polygon fill="black" stroke="black" points="150.67,-966.49 160.9,-963.71 151.17,-959.51 150.67,-966.49"/>
</g>
<!-- NeoStorage -->
<g id="node31" class="node">
<title>NeoStorage</title>
<polygon fill="none" stroke="black" points="117,-921 16,-921 16,-885 117,-885 117,-921"/>
<text text-anchor="middle" x="66.5" y="-899.3" font-family="Times,serif" font-size="14.00">NeoStorage</text>
</g>
<!-- NeoStorage&#45;&gt;np11 -->
<g id="edge4" class="edge">
<title>NeoStorage&#45;&gt;np11</title>
<path fill="none" stroke="black" d="M119.59,-925.13C129.88,-929.5 140.83,-934.16 151.59,-938.72"/>
<polygon fill="black" stroke="black" points="120.69,-921.79 110.12,-921.11 117.95,-928.24 120.69,-921.79"/>
<polygon fill="black" stroke="black" points="150.39,-942.02 160.96,-942.71 153.12,-935.57 150.39,-942.02"/>
</g>
</g>
</svg>
