<?xml version="1.0" encoding="UTF-8" standalone="no"?>
<!DOCTYPE svg PUBLIC "-//W3C//DTD SVG 1.1//EN"
 "http://www.w3.org/Graphics/SVG/1.1/DTD/svg11.dtd">
<!-- Generated by graphviz version 2.43.0 (0)
 -->
<!-- Title: NeoNetwork Nodes Pages: 1 -->
<svg width="1347pt" height="1291pt"
 viewBox="0.00 0.00 1346.50 1291.00" xmlns="http://www.w3.org/2000/svg" xmlns:xlink="http://www.w3.org/1999/xlink">
<g id="graph0" class="graph" transform="scale(1 1) rotate(0) translate(4 1287)">
<title>NeoNetwork Nodes</title>
<polygon fill="white" stroke="transparent" points="-4,4 -4,-1287 1342.5,-1287 1342.5,4 -4,4"/>
<text text-anchor="middle" x="669.25" y="-1267.8" font-family="Times,serif" font-size="14.00">NeoNetwork Nodes</text>
<g id="clust1" class="cluster">
<title>cluster_AS4201048576</title>
<polygon fill="none" stroke="black" points="66,-1015 66,-1252 1157.5,-1252 1157.5,-1015 66,-1015"/>
<text text-anchor="middle" x="611.75" y="-1236.8" font-family="Times,serif" font-size="14.00">NeoNetwork (AS4201048576)</text>
</g>
<g id="clust2" class="cluster">
<title>cluster_4201270008</title>
<polygon fill="none" stroke="black" points="284.5,-344 284.5,-813 775,-813 775,-344 284.5,-344"/>
<text text-anchor="middle" x="529.75" y="-797.8" font-family="Times,serif" font-size="14.00">MagicNeko Network Internet exchange (AS4201270008)</text>
</g>
<g id="clust3" class="cluster">
<title>cluster_AS4200066666</title>
<polygon fill="none" stroke="black" points="526,-8 526,-105 1330.5,-105 1330.5,-8 526,-8"/>
<text text-anchor="middle" x="928.25" y="-89.8" font-family="Times,serif" font-size="14.00">Jerry Network (AS4200066666)</text>
</g>
<!-- c -->
<g id="node1" class="node">
<title>c</title>
<polygon fill="none" stroke="black" points="1149.5,-1110 997.5,-1110 997.5,-1072 1149.5,-1072 1149.5,-1110"/>
<text text-anchor="middle" x="1073.5" y="-1094.8" font-family="Times,serif" font-size="14.00">caasih.neocloud.tw</text>
<text text-anchor="middle" x="1073.5" y="-1079.8" font-family="Times,serif" font-size="14.00">(10.127.0.1)</text>
</g>
<!-- ucbvax -->
<g id="node2" class="node">
<title>ucbvax</title>
<polygon fill="none" stroke="black" points="954,-1061 803,-1061 803,-1023 954,-1023 954,-1061"/>
<text text-anchor="middle" x="878.5" y="-1045.8" font-family="Times,serif" font-size="14.00">router.neocloud.tw</text>
<text text-anchor="middle" x="878.5" y="-1030.8" font-family="Times,serif" font-size="14.00">(10.127.255.2)</text>
</g>
<!-- ucbvax&#45;&gt;c -->
<g id="edge8" class="edge">
<title>ucbvax&#45;&gt;c</title>
<path fill="none" stroke="black" d="M963.87,-1063.42C971.73,-1065.41 979.69,-1067.44 987.55,-1069.43"/>
<polygon fill="black" stroke="black" points="964.67,-1060.01 954.12,-1060.94 962.95,-1066.8 964.67,-1060.01"/>
<polygon fill="black" stroke="black" points="986.89,-1072.88 997.44,-1071.94 988.61,-1066.09 986.89,-1072.88"/>
</g>
<!-- chenx97 -->
<g id="node19" class="node">
<title>chenx97</title>
<polygon fill="none" stroke="black" points="1157,-983 990,-983 990,-945 1157,-945 1157,-983"/>
<text text-anchor="middle" x="1073.5" y="-967.8" font-family="Times,serif" font-size="14.00">chenx97.neocloud.tw</text>
<text text-anchor="middle" x="1073.5" y="-952.8" font-family="Times,serif" font-size="14.00">(AS4201270003)</text>
</g>
<!-- ucbvax&#45;&gt;chenx97 -->
<g id="edge15" class="edge">
<title>ucbvax&#45;&gt;chenx97</title>
<path fill="none" stroke="black" d="M936.11,-1019.12C961.29,-1008.94 990.87,-996.99 1016.03,-986.82"/>
<polygon fill="black" stroke="black" points="934.67,-1015.93 926.71,-1022.92 937.3,-1022.42 934.67,-1015.93"/>
<polygon fill="black" stroke="black" points="1017.48,-990.01 1025.44,-983.02 1014.86,-983.52 1017.48,-990.01"/>
</g>
<!-- septs -->
<g id="node24" class="node">
<title>septs</title>
<polygon fill="none" stroke="black" points="1142,-282 1005,-282 1005,-244 1142,-244 1142,-282"/>
<text text-anchor="middle" x="1073.5" y="-266.8" font-family="Times,serif" font-size="14.00">bgp.septs.me</text>
<text text-anchor="middle" x="1073.5" y="-251.8" font-family="Times,serif" font-size="14.00">(AS4200055555)</text>
</g>
<!-- ucbvax&#45;&gt;septs -->
<g id="edge36" class="edge">
<title>ucbvax&#45;&gt;septs</title>
<path fill="none" stroke="black" d="M899.93,-1014.39C916.98,-989.99 940.58,-952.82 954,-917 1040.33,-686.5 1065.07,-386.07 1070.91,-292.27"/>
<polygon fill="black" stroke="black" points="896.91,-1012.59 893.97,-1022.77 902.62,-1016.65 896.91,-1012.59"/>
<polygon fill="black" stroke="black" points="1074.42,-292.31 1071.52,-282.12 1067.43,-291.89 1074.42,-292.31"/>
</g>
<!-- np11 -->
<g id="node3" class="node">
<title>np11</title>
<polygon fill="none" stroke="black" points="414,-1122.5 293,-1122.5 293,-1069.5 414,-1069.5 414,-1122.5"/>
<text text-anchor="middle" x="353.5" y="-1107.3" font-family="Times,serif" font-size="14.00">NeoPDP&#45;11</text>
<text text-anchor="middle" x="353.5" y="-1092.3" font-family="Times,serif" font-size="14.00">(10.127.255.1,</text>
<text text-anchor="middle" x="353.5" y="-1077.3" font-family="Times,serif" font-size="14.00">10.127.1.1)</text>
</g>
<!-- np11&#45;&gt;c -->
<g id="edge7" class="edge">
<title>np11&#45;&gt;c</title>
<path fill="none" stroke="black" d="M414.18,-1119.16C428.33,-1123.65 443.53,-1127.68 458,-1130 645.18,-1159.96 867.9,-1129.7 987.11,-1108.27"/>
<polygon fill="black" stroke="black" points="988.05,-1111.66 997.26,-1106.42 986.8,-1104.77 988.05,-1111.66"/>
</g>
<!-- np11&#45;&gt;ucbvax -->
<g id="edge5" class="edge">
<title>np11&#45;&gt;ucbvax</title>
<path fill="none" stroke="black" d="M414.19,-1081.9C428.47,-1078.91 443.73,-1076.05 458,-1074 490.11,-1069.38 679.64,-1055.77 792.67,-1047.86"/>
<polygon fill="black" stroke="black" points="792.96,-1051.35 802.69,-1047.16 792.47,-1044.37 792.96,-1051.35"/>
</g>
<!-- pan -->
<g id="node6" class="node">
<title>pan</title>
<polygon fill="none" stroke="black" points="674,-1121 551,-1121 551,-1083 674,-1083 674,-1121"/>
<text text-anchor="middle" x="612.5" y="-1105.8" font-family="Times,serif" font-size="14.00">r2.neocloud.tw</text>
<text text-anchor="middle" x="612.5" y="-1090.8" font-family="Times,serif" font-size="14.00">(10.127.3.1)</text>
</g>
<!-- np11&#45;&gt;pan -->
<g id="edge6" class="edge">
<title>np11&#45;&gt;pan</title>
<path fill="none" stroke="black" d="M414.11,-1097.39C451.89,-1098.27 500.96,-1099.42 540.72,-1100.35"/>
<polygon fill="black" stroke="black" points="540.8,-1103.85 550.88,-1100.58 540.96,-1096.85 540.8,-1103.85"/>
</g>
<!-- ns -->
<g id="node4" class="node">
<title>ns</title>
<polygon fill="none" stroke="black" points="419,-1179 288,-1179 288,-1141 419,-1141 419,-1179"/>
<text text-anchor="middle" x="353.5" y="-1163.8" font-family="Times,serif" font-size="14.00">NeoSystem</text>
<text text-anchor="middle" x="353.5" y="-1148.8" font-family="Times,serif" font-size="14.00">(10.127.255.80)</text>
</g>
<!-- ns&#45;&gt;ucbvax -->
<g id="edge9" class="edge">
<title>ns&#45;&gt;ucbvax</title>
<path fill="none" stroke="black" d="M419.31,-1167.59C504.42,-1174.88 656.89,-1178.59 775,-1130 807.12,-1116.79 836.38,-1089.41 855.34,-1068.69"/>
<polygon fill="black" stroke="black" points="858.05,-1070.9 862.08,-1061.11 852.82,-1066.25 858.05,-1070.9"/>
</g>
<!-- ns&#45;&gt;pan -->
<g id="edge10" class="edge">
<title>ns&#45;&gt;pan</title>
<path fill="none" stroke="black" d="M419.02,-1145.44C456.15,-1137.06 502.84,-1126.52 540.94,-1117.93"/>
<polygon fill="black" stroke="black" points="541.95,-1121.29 550.93,-1115.67 540.4,-1114.46 541.95,-1121.29"/>
</g>
<!-- megumiLHS -->
<g id="node5" class="node">
<title>megumiLHS</title>
<polygon fill="none" stroke="black" points="695,-1007 530,-1007 530,-969 695,-969 695,-1007"/>
<text text-anchor="middle" x="612.5" y="-991.8" font-family="Times,serif" font-size="14.00">megumi.yukipedia.cf</text>
<text text-anchor="middle" x="612.5" y="-976.8" font-family="Times,serif" font-size="14.00">(AS4242421037)</text>
</g>
<!-- megumiLHS&#45;&gt;ucbvax -->
<g id="edge12" class="edge">
<title>megumiLHS&#45;&gt;ucbvax</title>
<path fill="none" stroke="black" d="M705.32,-998.61C728.2,-1001.93 752.6,-1006.05 775,-1011 786.56,-1013.56 798.71,-1016.76 810.44,-1020.13"/>
<polygon fill="black" stroke="black" points="705.66,-995.12 695.27,-997.18 704.68,-1002.05 705.66,-995.12"/>
<polygon fill="black" stroke="black" points="809.59,-1023.52 820.17,-1022.98 811.56,-1016.81 809.59,-1023.52"/>
</g>
<!-- megumiLHS&#45;&gt;septs -->
<g id="edge39" class="edge">
<title>megumiLHS&#45;&gt;septs</title>
<path fill="none" stroke="black" d="M705.47,-985.06C783.07,-977.45 891.27,-953.89 954,-884 1034.35,-794.48 1063.98,-402.96 1070.84,-292.26"/>
<polygon fill="black" stroke="black" points="704.85,-981.6 695.2,-985.99 705.48,-988.57 704.85,-981.6"/>
<polygon fill="black" stroke="black" points="1074.34,-292.35 1071.45,-282.15 1067.35,-291.92 1074.34,-292.35"/>
</g>
<!-- pan&#45;&gt;ucbvax -->
<g id="edge11" class="edge">
<title>pan&#45;&gt;ucbvax</title>
<path fill="none" stroke="black" d="M684.08,-1088.47C712.42,-1082.8 745.34,-1075.93 775,-1069 782.29,-1067.3 789.85,-1065.45 797.41,-1063.56"/>
<polygon fill="black" stroke="black" points="683.39,-1085.04 674.26,-1090.42 684.75,-1091.9 683.39,-1085.04"/>
<polygon fill="black" stroke="black" points="798.5,-1066.89 807.33,-1061.04 796.78,-1060.11 798.5,-1066.89"/>
</g>
<!-- icecat_Explosion -->
<g id="node7" class="node">
<title>icecat_Explosion</title>
<polygon fill="none" stroke="black" points="767,-585 458,-585 458,-549 767,-549 767,-585"/>
<text text-anchor="middle" x="612.5" y="-563.3" font-family="Times,serif" font-size="14.00">MagicNeko P2P network interconnection</text>
</g>
<!-- icecat_Notebook -->
<g id="node8" class="node">
<title>icecat_Notebook</title>
<polygon fill="none" stroke="black" points="249,-621.5 0,-621.5 0,-568.5 249,-568.5 249,-621.5"/>
<text text-anchor="middle" x="124.5" y="-606.3" font-family="Times,serif" font-size="14.00">NextMoe Group Access Network</text>
<text text-anchor="middle" x="124.5" y="-591.3" font-family="Times,serif" font-size="14.00">(4201270005)</text>
<text text-anchor="middle" x="124.5" y="-576.3" font-family="Times,serif" font-size="14.00">(10.127.233.1)</text>
</g>
<!-- magicneko_HK01 -->
<g id="node9" class="node">
<title>magicneko_HK01</title>
<polygon fill="none" stroke="black" points="405.5,-726 301.5,-726 301.5,-688 405.5,-688 405.5,-726"/>
<text text-anchor="middle" x="353.5" y="-710.8" font-family="Times,serif" font-size="14.00">M&#45;HK1</text>
<text text-anchor="middle" x="353.5" y="-695.8" font-family="Times,serif" font-size="14.00">(10.127.4.1)</text>
</g>
<!-- icecat_Notebook&#45;&gt;magicneko_HK01 -->
<g id="edge46" class="edge">
<title>icecat_Notebook&#45;&gt;magicneko_HK01</title>
<path fill="none" stroke="black" d="M172.91,-621.57C204.21,-638.73 246.34,-661.11 284.5,-679 288.04,-680.66 291.71,-682.32 295.42,-683.96"/>
<polygon fill="black" stroke="black" points="294.13,-687.22 304.69,-687.99 296.91,-680.8 294.13,-687.22"/>
</g>
<!-- magicneko_JP02 -->
<g id="node13" class="node">
<title>magicneko_JP02</title>
<polygon fill="none" stroke="black" points="410,-614 297,-614 297,-576 410,-576 410,-614"/>
<text text-anchor="middle" x="353.5" y="-598.8" font-family="Times,serif" font-size="14.00">M&#45;JP2</text>
<text text-anchor="middle" x="353.5" y="-583.8" font-family="Times,serif" font-size="14.00">(10.127.4.13)</text>
</g>
<!-- icecat_Notebook&#45;&gt;magicneko_JP02 -->
<g id="edge50" class="edge">
<title>icecat_Notebook&#45;&gt;magicneko_JP02</title>
<path fill="none" stroke="black" d="M249.3,-595C262.13,-595 274.8,-595 286.62,-595"/>
<polygon fill="black" stroke="black" points="286.77,-598.5 296.77,-595 286.77,-591.5 286.77,-598.5"/>
</g>
<!-- magicneko_RU01 -->
<g id="node14" class="node">
<title>magicneko_RU01</title>
<polygon fill="none" stroke="black" points="410,-558 297,-558 297,-520 410,-520 410,-558"/>
<text text-anchor="middle" x="353.5" y="-542.8" font-family="Times,serif" font-size="14.00">M&#45;RU1</text>
<text text-anchor="middle" x="353.5" y="-527.8" font-family="Times,serif" font-size="14.00">(10.127.4.14)</text>
</g>
<!-- icecat_Notebook&#45;&gt;magicneko_RU01 -->
<g id="edge48" class="edge">
<title>icecat_Notebook&#45;&gt;magicneko_RU01</title>
<path fill="none" stroke="black" d="M233.02,-568.48C251.51,-563.91 270.21,-559.3 287.15,-555.12"/>
<polygon fill="black" stroke="black" points="288.04,-558.51 296.91,-552.71 286.36,-551.71 288.04,-558.51"/>
</g>
<!-- magicneko_JP03 -->
<g id="node15" class="node">
<title>magicneko_JP03</title>
<polygon fill="none" stroke="black" points="410,-670 297,-670 297,-632 410,-632 410,-670"/>
<text text-anchor="middle" x="353.5" y="-654.8" font-family="Times,serif" font-size="14.00">M&#45;JP3</text>
<text text-anchor="middle" x="353.5" y="-639.8" font-family="Times,serif" font-size="14.00">(10.127.4.15)</text>
</g>
<!-- icecat_Notebook&#45;&gt;magicneko_JP03 -->
<g id="edge47" class="edge">
<title>icecat_Notebook&#45;&gt;magicneko_JP03</title>
<path fill="none" stroke="black" d="M233.02,-621.52C251.51,-626.09 270.21,-630.7 287.15,-634.88"/>
<polygon fill="black" stroke="black" points="286.36,-638.29 296.91,-637.29 288.04,-631.49 286.36,-638.29"/>
</g>
<!-- magicneko_CN01 -->
<g id="node16" class="node">
<title>magicneko_CN01</title>
<polygon fill="none" stroke="black" points="414.5,-390 292.5,-390 292.5,-352 414.5,-352 414.5,-390"/>
<text text-anchor="middle" x="353.5" y="-374.8" font-family="Times,serif" font-size="14.00">M&#45;CN1</text>
<text text-anchor="middle" x="353.5" y="-359.8" font-family="Times,serif" font-size="14.00">(10.127.4.101)</text>
</g>
<!-- icecat_Notebook&#45;&gt;magicneko_CN01 -->
<g id="edge49" class="edge">
<title>icecat_Notebook&#45;&gt;magicneko_CN01</title>
<path fill="none" stroke="black" d="M141.02,-568.3C166.28,-526.9 220.01,-447.01 284.5,-399 286.29,-397.67 288.15,-396.39 290.07,-395.16"/>
<polygon fill="black" stroke="black" points="291.88,-398.15 298.76,-390.09 288.36,-392.1 291.88,-398.15"/>
</g>
<!-- magicneko_HK01&#45;&gt;icecat_Explosion -->
<g id="edge16" class="edge">
<title>magicneko_HK01&#45;&gt;icecat_Explosion</title>
<path fill="none" stroke="black" d="M402.81,-687.93C409.33,-685.08 415.87,-682.06 422,-679 476.91,-651.56 537.51,-614.46 575.05,-590.63"/>
<polygon fill="black" stroke="black" points="577.07,-593.49 583.62,-585.16 573.31,-587.59 577.07,-593.49"/>
</g>
<!-- magicneko_HK02 -->
<g id="node10" class="node">
<title>magicneko_HK02</title>
<polygon fill="none" stroke="black" points="410,-782 297,-782 297,-744 410,-744 410,-782"/>
<text text-anchor="middle" x="353.5" y="-766.8" font-family="Times,serif" font-size="14.00">M&#45;HK2</text>
<text text-anchor="middle" x="353.5" y="-751.8" font-family="Times,serif" font-size="14.00">(10.127.4.10)</text>
</g>
<!-- magicneko_HK02&#45;&gt;ucbvax -->
<g id="edge13" class="edge">
<title>magicneko_HK02&#45;&gt;ucbvax</title>
<path fill="none" stroke="black" d="M356.73,-792.02C362.62,-846.34 383.7,-962.71 458,-1016 484.44,-1034.96 677.68,-1040.12 792.46,-1041.51"/>
<polygon fill="black" stroke="black" points="360.21,-791.62 355.74,-782.02 353.24,-792.31 360.21,-791.62"/>
<polygon fill="black" stroke="black" points="792.59,-1045.01 802.63,-1041.62 792.67,-1038.01 792.59,-1045.01"/>
</g>
<!-- magicneko_HK02&#45;&gt;icecat_Explosion -->
<g id="edge17" class="edge">
<title>magicneko_HK02&#45;&gt;icecat_Explosion</title>
<path fill="none" stroke="black" d="M405.55,-743.98C411.24,-741.23 416.84,-738.23 422,-735 488.35,-693.47 554.07,-628.45 587.94,-592.7"/>
<polygon fill="black" stroke="black" points="590.77,-594.8 595.06,-585.11 585.67,-590.01 590.77,-594.8"/>
</g>
<!-- SUNNET -->
<g id="node27" class="node">
<title>SUNNET</title>
<polygon fill="none" stroke="black" points="681,-335.5 544,-335.5 544,-282.5 681,-282.5 681,-335.5"/>
<text text-anchor="middle" x="612.5" y="-320.3" font-family="Times,serif" font-size="14.00">SUNNET</text>
<text text-anchor="middle" x="612.5" y="-305.3" font-family="Times,serif" font-size="14.00">(10.127.11.0/24)</text>
<text text-anchor="middle" x="612.5" y="-290.3" font-family="Times,serif" font-size="14.00">(AS4242423088)</text>
</g>
<!-- magicneko_HK02&#45;&gt;SUNNET -->
<g id="edge40" class="edge">
<title>magicneko_HK02&#45;&gt;SUNNET</title>
<path fill="none" stroke="black" d="M418.04,-739.66C419.46,-738.2 420.79,-736.65 422,-735 474.23,-664 399.14,-405.61 458,-340 476.92,-318.91 505.87,-309.86 533.55,-306.53"/>
<polygon fill="black" stroke="black" points="415.62,-737.12 410.21,-746.23 420.12,-742.48 415.62,-737.12"/>
<polygon fill="black" stroke="black" points="534.05,-310 543.67,-305.55 533.38,-303.03 534.05,-310"/>
</g>
<!-- magicneko_JP01 -->
<g id="node11" class="node">
<title>magicneko_JP01</title>
<polygon fill="none" stroke="black" points="410,-502 297,-502 297,-464 410,-464 410,-502"/>
<text text-anchor="middle" x="353.5" y="-486.8" font-family="Times,serif" font-size="14.00">M&#45;JP1</text>
<text text-anchor="middle" x="353.5" y="-471.8" font-family="Times,serif" font-size="14.00">(10.127.4.11)</text>
</g>
<!-- magicneko_JP01&#45;&gt;icecat_Explosion -->
<g id="edge18" class="edge">
<title>magicneko_JP01&#45;&gt;icecat_Explosion</title>
<path fill="none" stroke="black" d="M410.27,-501.23C450.39,-514.34 504.63,-532.07 546.69,-545.82"/>
<polygon fill="black" stroke="black" points="545.69,-549.17 556.29,-548.95 547.87,-542.52 545.69,-549.17"/>
</g>
<!-- magicneko_HK03 -->
<g id="node12" class="node">
<title>magicneko_HK03</title>
<polygon fill="none" stroke="black" points="410,-446 297,-446 297,-408 410,-408 410,-446"/>
<text text-anchor="middle" x="353.5" y="-430.8" font-family="Times,serif" font-size="14.00">M&#45;HK3</text>
<text text-anchor="middle" x="353.5" y="-415.8" font-family="Times,serif" font-size="14.00">(10.127.4.12)</text>
</g>
<!-- magicneko_HK03&#45;&gt;icecat_Explosion -->
<g id="edge19" class="edge">
<title>magicneko_HK03&#45;&gt;icecat_Explosion</title>
<path fill="none" stroke="black" d="M402.81,-446.07C409.33,-448.92 415.87,-451.94 422,-455 476.91,-482.44 537.51,-519.54 575.05,-543.37"/>
<polygon fill="black" stroke="black" points="573.31,-546.41 583.62,-548.84 577.07,-540.51 573.31,-546.41"/>
</g>
<!-- magicneko_JP02&#45;&gt;icecat_Explosion -->
<g id="edge20" class="edge">
<title>magicneko_JP02&#45;&gt;icecat_Explosion</title>
<path fill="none" stroke="black" d="M410.27,-588.92C421.79,-587.67 434.49,-586.29 447.72,-584.84"/>
<polygon fill="black" stroke="black" points="448.38,-588.29 457.94,-583.73 447.62,-581.33 448.38,-588.29"/>
</g>
<!-- magicneko_RU01&#45;&gt;icecat_Explosion -->
<g id="edge21" class="edge">
<title>magicneko_RU01&#45;&gt;icecat_Explosion</title>
<path fill="none" stroke="black" d="M410.27,-545.08C421.79,-546.33 434.49,-547.71 447.72,-549.16"/>
<polygon fill="black" stroke="black" points="447.62,-552.67 457.94,-550.27 448.38,-545.71 447.62,-552.67"/>
</g>
<!-- staph -->
<g id="node17" class="node">
<title>staph</title>
<polygon fill="none" stroke="black" points="681,-874.5 544,-874.5 544,-821.5 681,-821.5 681,-874.5"/>
<text text-anchor="middle" x="612.5" y="-859.3" font-family="Times,serif" font-size="14.00">s.aureus.ga</text>
<text text-anchor="middle" x="612.5" y="-844.3" font-family="Times,serif" font-size="14.00">(10.127.8.185)</text>
<text text-anchor="middle" x="612.5" y="-829.3" font-family="Times,serif" font-size="14.00">(AS4201270007)</text>
</g>
<!-- magicneko_RU01&#45;&gt;staph -->
<g id="edge38" class="edge">
<title>magicneko_RU01&#45;&gt;staph</title>
<path fill="none" stroke="black" d="M418.03,-562.53C419.44,-563.93 420.77,-565.42 422,-567 490.85,-655.66 380.89,-735.42 458,-817 477.38,-837.5 506.26,-846.47 533.77,-849.9"/>
<polygon fill="black" stroke="black" points="420.24,-559.81 410.29,-556.16 415.79,-565.22 420.24,-559.81"/>
<polygon fill="black" stroke="black" points="533.51,-853.39 543.82,-850.92 534.22,-846.43 533.51,-853.39"/>
</g>
<!-- magicneko_RU01&#45;&gt;septs -->
<g id="edge42" class="edge">
<title>magicneko_RU01&#45;&gt;septs</title>
<path fill="none" stroke="black" d="M417.95,-515.59C419.4,-514.15 420.75,-512.62 422,-511 496,-414.63 366.6,-320.06 458,-240 618.71,-99.22 903.68,-192.6 1020.42,-240.07"/>
<polygon fill="black" stroke="black" points="415.54,-513.04 410.03,-522.09 419.98,-518.46 415.54,-513.04"/>
<polygon fill="black" stroke="black" points="1019.29,-243.39 1029.86,-243.96 1021.95,-236.92 1019.29,-243.39"/>
</g>
<!-- magicneko_JP03&#45;&gt;megumiLHS -->
<g id="edge43" class="edge">
<title>magicneko_JP03&#45;&gt;megumiLHS</title>
<path fill="none" stroke="black" d="M417.95,-674.4C419.4,-675.85 420.76,-677.38 422,-679 497.22,-777.21 374.19,-864.01 458,-955 474,-972.37 496.74,-981.76 519.84,-986.59"/>
<polygon fill="black" stroke="black" points="419.99,-671.54 410.04,-667.9 415.54,-676.95 419.99,-671.54"/>
<polygon fill="black" stroke="black" points="519.28,-990.04 529.74,-988.38 520.53,-983.15 519.28,-990.04"/>
</g>
<!-- magicneko_JP03&#45;&gt;icecat_Explosion -->
<g id="edge22" class="edge">
<title>magicneko_JP03&#45;&gt;icecat_Explosion</title>
<path fill="none" stroke="black" d="M410.27,-632.77C450.39,-619.66 504.63,-601.93 546.69,-588.18"/>
<polygon fill="black" stroke="black" points="547.87,-591.48 556.29,-585.05 545.69,-584.83 547.87,-591.48"/>
</g>
<!-- magicneko_JP03&#45;&gt;chenx97 -->
<g id="edge37" class="edge">
<title>magicneko_JP03&#45;&gt;chenx97</title>
<path fill="none" stroke="black" d="M418,-674.55C419.43,-675.95 420.76,-677.43 422,-679 485.96,-760.33 382.46,-838.29 458,-909 495.21,-943.83 816.73,-957.27 979.26,-961.87"/>
<polygon fill="black" stroke="black" points="420.2,-671.82 410.24,-668.21 415.77,-677.24 420.2,-671.82"/>
<polygon fill="black" stroke="black" points="979.64,-965.39 989.73,-962.16 979.83,-958.39 979.64,-965.39"/>
</g>
<!-- JerryXiao -->
<g id="node20" class="node">
<title>JerryXiao</title>
<polygon fill="none" stroke="black" points="691,-74 534,-74 534,-36 691,-36 691,-74"/>
<text text-anchor="middle" x="612.5" y="-58.8" font-family="Times,serif" font-size="14.00">jpn.neo.jerryxiao.cc</text>
<text text-anchor="middle" x="612.5" y="-43.8" font-family="Times,serif" font-size="14.00">(10.127.8.193)</text>
</g>
<!-- magicneko_JP03&#45;&gt;JerryXiao -->
<g id="edge31" class="edge">
<title>magicneko_JP03&#45;&gt;JerryXiao</title>
<path fill="none" stroke="black" d="M418.05,-627.67C419.47,-626.21 420.79,-624.65 422,-623 477.43,-547.21 417.48,-286.71 458,-202 483.21,-149.3 535.94,-105.57 572.51,-79.86"/>
<polygon fill="black" stroke="black" points="415.63,-625.13 410.24,-634.25 420.14,-630.48 415.63,-625.13"/>
<polygon fill="black" stroke="black" points="574.73,-82.59 580.97,-74.03 570.75,-76.82 574.73,-82.59"/>
</g>
<!-- magicneko_JP03&#45;&gt;septs -->
<g id="edge34" class="edge">
<title>magicneko_JP03&#45;&gt;septs</title>
<path fill="none" stroke="black" d="M418.01,-627.64C419.44,-626.19 420.78,-624.64 422,-623 468.7,-560.29 400.38,-325.85 458,-273 496.64,-237.56 838.21,-250.65 994.75,-258.63"/>
<polygon fill="black" stroke="black" points="415.6,-625.1 410.16,-634.19 420.08,-630.47 415.6,-625.1"/>
<polygon fill="black" stroke="black" points="994.62,-262.13 1004.78,-259.15 994.98,-255.14 994.62,-262.13"/>
</g>
<!-- frank_hsinchu -->
<g id="node29" class="node">
<title>frank_hsinchu</title>
<polygon fill="none" stroke="black" points="1330,-265.5 1193,-265.5 1193,-212.5 1330,-212.5 1330,-265.5"/>
<text text-anchor="middle" x="1261.5" y="-250.3" font-family="Times,serif" font-size="14.00">Frank_Hsinchu</text>
<text text-anchor="middle" x="1261.5" y="-235.3" font-family="Times,serif" font-size="14.00">(10.127.255.56)</text>
<text text-anchor="middle" x="1261.5" y="-220.3" font-family="Times,serif" font-size="14.00">(AS4200005566)</text>
</g>
<!-- magicneko_JP03&#45;&gt;frank_hsinchu -->
<g id="edge44" class="edge">
<title>magicneko_JP03&#45;&gt;frank_hsinchu</title>
<path fill="none" stroke="black" d="M418.03,-627.65C419.45,-626.19 420.78,-624.65 422,-623 472.02,-555.32 396.31,-303.25 458,-246 561.3,-150.13 1002.48,-201.41 1183.02,-227.14"/>
<polygon fill="black" stroke="black" points="415.61,-625.11 410.19,-634.22 420.11,-630.48 415.61,-625.11"/>
<polygon fill="black" stroke="black" points="1182.58,-230.61 1192.97,-228.57 1183.57,-223.68 1182.58,-230.61"/>
</g>
<!-- magicneko_CN01&#45;&gt;icecat_Explosion -->
<g id="edge23" class="edge">
<title>magicneko_CN01&#45;&gt;icecat_Explosion</title>
<path fill="none" stroke="black" d="M405.55,-390.02C411.24,-392.77 416.84,-395.77 422,-399 488.35,-440.53 554.07,-505.55 587.94,-541.3"/>
<polygon fill="black" stroke="black" points="585.67,-543.99 595.06,-548.89 590.77,-539.2 585.67,-543.99"/>
</g>
<!-- staph_CN -->
<g id="node18" class="node">
<title>staph_CN</title>
<polygon fill="none" stroke="black" points="952,-803.5 805,-803.5 805,-750.5 952,-750.5 952,-803.5"/>
<text text-anchor="middle" x="878.5" y="-788.3" font-family="Times,serif" font-size="14.00">cnhome.aureus.ga</text>
<text text-anchor="middle" x="878.5" y="-773.3" font-family="Times,serif" font-size="14.00">(10.127.8.187)</text>
<text text-anchor="middle" x="878.5" y="-758.3" font-family="Times,serif" font-size="14.00">(AS4201270007)</text>
</g>
<!-- staph&#45;&gt;staph_CN -->
<g id="edge14" class="edge">
<title>staph&#45;&gt;staph_CN</title>
<path fill="none" stroke="black" d="M681.33,-837.82C710.45,-832.72 744.69,-825.74 775,-817 784.88,-814.15 795.13,-810.73 805.16,-807.11"/>
<polygon fill="black" stroke="black" points="806.53,-810.34 814.7,-803.59 804.1,-803.77 806.53,-810.34"/>
</g>
<!-- staph&#45;&gt;septs -->
<g id="edge35" class="edge">
<title>staph&#45;&gt;septs</title>
<path fill="none" stroke="black" d="M691.42,-848.62C720.49,-845.13 751.98,-836.45 775,-817 802.18,-794.04 788.01,-774.27 803,-742 885.7,-563.99 1009.5,-362.79 1054.95,-290.59"/>
<polygon fill="black" stroke="black" points="690.86,-845.16 681.26,-849.64 691.56,-852.12 690.86,-845.16"/>
<polygon fill="black" stroke="black" points="1057.97,-292.37 1060.35,-282.05 1052.05,-288.64 1057.97,-292.37"/>
</g>
<!-- santost12 -->
<g id="node28" class="node">
<title>santost12</title>
<polygon fill="none" stroke="black" points="947,-874.5 810,-874.5 810,-821.5 947,-821.5 947,-874.5"/>
<text text-anchor="middle" x="878.5" y="-859.3" font-family="Times,serif" font-size="14.00">Santost12</text>
<text text-anchor="middle" x="878.5" y="-844.3" font-family="Times,serif" font-size="14.00">(10.127.69.1)</text>
<text text-anchor="middle" x="878.5" y="-829.3" font-family="Times,serif" font-size="14.00">(AS4200006969)</text>
</g>
<!-- staph&#45;&gt;santost12 -->
<g id="edge41" class="edge">
<title>staph&#45;&gt;santost12</title>
<path fill="none" stroke="black" d="M691.52,-848C725.49,-848 765.22,-848 799.22,-848"/>
<polygon fill="black" stroke="black" points="691.14,-844.5 681.14,-848 691.14,-851.5 691.14,-844.5"/>
<polygon fill="black" stroke="black" points="799.57,-851.5 809.57,-848 799.57,-844.5 799.57,-851.5"/>
</g>
<!-- JerryXiao&#45;&gt;ucbvax -->
<g id="edge28" class="edge">
<title>JerryXiao&#45;&gt;ucbvax</title>
<path fill="none" stroke="black" d="M641.44,-81.3C679.71,-119.36 746.89,-193.95 775,-273 820.55,-401.06 770.27,-752.08 803,-884 814.98,-932.28 842.19,-983.56 860.2,-1014.17"/>
<polygon fill="black" stroke="black" points="643.78,-78.69 634.19,-74.18 638.87,-83.69 643.78,-78.69"/>
<polygon fill="black" stroke="black" points="857.33,-1016.19 865.47,-1022.98 863.34,-1012.6 857.33,-1016.19"/>
</g>
<!-- JerryXiao_SH01 -->
<g id="node21" class="node">
<title>JerryXiao_SH01</title>
<polygon fill="none" stroke="black" points="939.5,-74 817.5,-74 817.5,-36 939.5,-36 939.5,-74"/>
<text text-anchor="middle" x="878.5" y="-58.8" font-family="Times,serif" font-size="14.00">jerryxiao&#45;sh01</text>
<text text-anchor="middle" x="878.5" y="-43.8" font-family="Times,serif" font-size="14.00">(10.127.8.195)</text>
</g>
<!-- JerryXiao&#45;&gt;JerryXiao_SH01 -->
<g id="edge24" class="edge">
<title>JerryXiao&#45;&gt;JerryXiao_SH01</title>
<path fill="none" stroke="black" d="M701.35,-55C735.74,-55 774.65,-55 807.13,-55"/>
<polygon fill="black" stroke="black" points="701.28,-51.5 691.28,-55 701.28,-58.5 701.28,-51.5"/>
<polygon fill="black" stroke="black" points="807.44,-58.5 817.44,-55 807.44,-51.5 807.44,-58.5"/>
</g>
<!-- JerryXiao_HK01 -->
<g id="node22" class="node">
<title>JerryXiao_HK01</title>
<polygon fill="none" stroke="black" points="1134.5,-64 1012.5,-64 1012.5,-26 1134.5,-26 1134.5,-64"/>
<text text-anchor="middle" x="1073.5" y="-48.8" font-family="Times,serif" font-size="14.00">jerryxiao&#45;hk01</text>
<text text-anchor="middle" x="1073.5" y="-33.8" font-family="Times,serif" font-size="14.00">(10.127.8.194)</text>
</g>
<!-- JerryXiao&#45;&gt;JerryXiao_HK01 -->
<g id="edge25" class="edge">
<title>JerryXiao&#45;&gt;JerryXiao_HK01</title>
<path fill="none" stroke="black" d="M701.31,-39.29C733.22,-34.3 769.63,-29.45 803,-27 869.93,-22.08 887.08,-21.95 954,-27 969.66,-28.18 986.38,-30.23 1002.19,-32.53"/>
<polygon fill="black" stroke="black" points="700.45,-35.88 691.12,-40.91 701.55,-42.79 700.45,-35.88"/>
<polygon fill="black" stroke="black" points="1002.01,-36.05 1012.42,-34.08 1003.05,-29.13 1002.01,-36.05"/>
</g>
<!-- JerryXiao&#45;&gt;septs -->
<g id="edge29" class="edge">
<title>JerryXiao&#45;&gt;septs</title>
<path fill="none" stroke="black" d="M701.2,-69.93C794.89,-86.41 932.83,-112.39 954,-126 976.73,-140.61 972.73,-154.22 990,-175 1007.76,-196.37 1029.27,-219.23 1045.87,-236.29"/>
<polygon fill="black" stroke="black" points="701.6,-66.45 691.15,-68.17 700.39,-73.34 701.6,-66.45"/>
<polygon fill="black" stroke="black" points="1043.63,-239 1053.13,-243.69 1048.63,-234.1 1043.63,-239"/>
</g>
<!-- JerryXiao_SH01&#45;&gt;JerryXiao_HK01 -->
<g id="edge26" class="edge">
<title>JerryXiao_SH01&#45;&gt;JerryXiao_HK01</title>
<path fill="none" stroke="black" d="M949.72,-51.36C966.68,-50.48 984.81,-49.54 1001.79,-48.66"/>
<polygon fill="black" stroke="black" points="949.31,-47.88 939.51,-51.89 949.68,-54.87 949.31,-47.88"/>
<polygon fill="black" stroke="black" points="1002.39,-52.14 1012.2,-48.12 1002.03,-45.15 1002.39,-52.14"/>
</g>
<!-- dfceaef -->
<g id="node26" class="node">
<title>dfceaef</title>
<polygon fill="none" stroke="black" points="1142,-166.5 1005,-166.5 1005,-113.5 1142,-113.5 1142,-166.5"/>
<text text-anchor="middle" x="1073.5" y="-151.3" font-family="Times,serif" font-size="14.00">dfceaef</text>
<text text-anchor="middle" x="1073.5" y="-136.3" font-family="Times,serif" font-size="14.00">(10.127.8.64/26)</text>
<text text-anchor="middle" x="1073.5" y="-121.3" font-family="Times,serif" font-size="14.00">(AS4242420140)</text>
</g>
<!-- JerryXiao_SH01&#45;&gt;dfceaef -->
<g id="edge30" class="edge">
<title>JerryXiao_SH01&#45;&gt;dfceaef</title>
<path fill="none" stroke="black" d="M934,-78.3C940.79,-81.45 947.59,-84.72 954,-88 970.49,-96.43 973.27,-101.05 990,-109 991.76,-109.84 993.55,-110.67 995.37,-111.49"/>
<polygon fill="black" stroke="black" points="935.34,-75.06 924.79,-74.1 932.44,-81.43 935.34,-75.06"/>
<polygon fill="black" stroke="black" points="994.02,-114.72 1004.58,-115.53 996.83,-108.31 994.02,-114.72"/>
</g>
<!-- JerryXiao_HK02 -->
<g id="node23" class="node">
<title>JerryXiao_HK02</title>
<polygon fill="none" stroke="black" points="1322.5,-64 1200.5,-64 1200.5,-26 1322.5,-26 1322.5,-64"/>
<text text-anchor="middle" x="1261.5" y="-48.8" font-family="Times,serif" font-size="14.00">jerryxiao&#45;hk02</text>
<text text-anchor="middle" x="1261.5" y="-33.8" font-family="Times,serif" font-size="14.00">(10.127.8.196)</text>
</g>
<!-- JerryXiao_HK01&#45;&gt;JerryXiao_HK02 -->
<g id="edge27" class="edge">
<title>JerryXiao_HK01&#45;&gt;JerryXiao_HK02</title>
<path fill="none" stroke="black" d="M1144.65,-45C1159.52,-45 1175.23,-45 1190.11,-45"/>
<polygon fill="black" stroke="black" points="1144.63,-41.5 1134.63,-45 1144.63,-48.5 1144.63,-41.5"/>
<polygon fill="black" stroke="black" points="1190.26,-48.5 1200.26,-45 1190.26,-41.5 1190.26,-48.5"/>
</g>
<!-- septs&#45;&gt;frank_hsinchu -->
<g id="edge45" class="edge">
<title>septs&#45;&gt;frank_hsinchu</title>
<path fill="none" stroke="black" d="M1152.36,-252.95C1162.46,-251.65 1172.8,-250.32 1182.89,-249.01"/>
<polygon fill="black" stroke="black" points="1151.65,-249.52 1142.18,-254.27 1152.54,-256.46 1151.65,-249.52"/>
<polygon fill="black" stroke="black" points="1183.4,-252.48 1192.87,-247.73 1182.51,-245.53 1183.4,-252.48"/>
</g>
<!-- lantian -->
<g id="node25" class="node">
<title>lantian</title>
<polygon fill="none" stroke="black" points="422,-116 285,-116 285,-78 422,-78 422,-116"/>
<text text-anchor="middle" x="353.5" y="-100.8" font-family="Times,serif" font-size="14.00">lantian</text>
<text text-anchor="middle" x="353.5" y="-85.8" font-family="Times,serif" font-size="14.00">(AS4200002547)</text>
</g>
<!-- lantian&#45;&gt;JerryXiao -->
<g id="edge33" class="edge">
<title>lantian&#45;&gt;JerryXiao</title>
<path fill="none" stroke="black" d="M432.29,-84.29C461.23,-79.56 494.27,-74.16 524.02,-69.3"/>
<polygon fill="black" stroke="black" points="431.33,-80.9 422.02,-85.96 432.46,-87.81 431.33,-80.9"/>
<polygon fill="black" stroke="black" points="524.67,-72.74 533.97,-67.67 523.54,-65.83 524.67,-72.74"/>
</g>
<!-- lantian&#45;&gt;septs -->
<g id="edge32" class="edge">
<title>lantian&#45;&gt;septs</title>
<path fill="none" stroke="black" d="M432.28,-106.06C440.96,-107.06 449.67,-108.05 458,-109 568.19,-121.5 852,-120.49 954,-164 992.1,-180.25 1027.39,-212.96 1049.37,-236.33"/>
<polygon fill="black" stroke="black" points="432.47,-102.56 422.14,-104.89 431.67,-109.51 432.47,-102.56"/>
<polygon fill="black" stroke="black" points="1046.95,-238.87 1056.3,-243.86 1052.1,-234.13 1046.95,-238.87"/>
</g>
<!-- santost12&#45;&gt;magicneko_JP03 -->
<g id="edge51" class="edge">
<title>santost12&#45;&gt;magicneko_JP03</title>
<path fill="none" stroke="black" d="M812.48,-874.51C800.22,-878.45 787.36,-881.89 775,-884 705.56,-895.84 511.95,-929.3 458,-884 387.16,-824.51 479.86,-751.18 422,-679 420.75,-677.44 419.4,-675.97 417.96,-674.58"/>
<polygon fill="black" stroke="black" points="420.14,-671.83 410.16,-668.27 415.74,-677.28 420.14,-671.83"/>
</g>
<!-- NNPCC -->
<g id="node30" class="node">
<title>NNPCC</title>
<polygon fill="none" stroke="black" points="160,-1113 89,-1113 89,-1077 160,-1077 160,-1113"/>
<text text-anchor="middle" x="124.5" y="-1091.3" font-family="Times,serif" font-size="14.00">NNPCC</text>
</g>
<!-- NNPCC&#45;&gt;np11 -->
<g id="edge1" class="edge">
<title>NNPCC&#45;&gt;np11</title>
<path fill="none" stroke="black" d="M170.86,-1095.2C202.85,-1095.34 246.3,-1095.53 282.68,-1095.69"/>
<polygon fill="black" stroke="black" points="170.49,-1091.7 160.47,-1095.15 170.46,-1098.7 170.49,-1091.7"/>
<polygon fill="black" stroke="black" points="282.73,-1099.19 292.74,-1095.74 282.76,-1092.19 282.73,-1099.19"/>
</g>
<!-- NeoBOX -->
<g id="node31" class="node">
<title>NeoBOX</title>
<polygon fill="none" stroke="black" points="163,-1059 86,-1059 86,-1023 163,-1023 163,-1059"/>
<text text-anchor="middle" x="124.5" y="-1037.3" font-family="Times,serif" font-size="14.00">NeoBOX</text>
</g>
<!-- NeoBOX&#45;&gt;np11 -->
<g id="edge2" class="edge">
<title>NeoBOX&#45;&gt;np11</title>
<path fill="none" stroke="black" d="M173.03,-1050.82C196.04,-1055.72 224.02,-1061.89 249,-1068 260.05,-1070.7 271.72,-1073.71 283.09,-1076.72"/>
<polygon fill="black" stroke="black" points="173.68,-1047.38 163.17,-1048.74 172.23,-1054.23 173.68,-1047.38"/>
<polygon fill="black" stroke="black" points="282.41,-1080.16 292.97,-1079.36 284.21,-1073.4 282.41,-1080.16"/>
</g>
<!-- cklvax -->
<g id="node32" class="node">
<title>cklvax</title>
<polygon fill="none" stroke="black" points="155.5,-1221 93.5,-1221 93.5,-1185 155.5,-1185 155.5,-1221"/>
<text text-anchor="middle" x="124.5" y="-1199.3" font-family="Times,serif" font-size="14.00">cklvax</text>
</g>
<!-- cklvax&#45;&gt;np11 -->
<g id="edge3" class="edge">
<title>cklvax&#45;&gt;np11</title>
<path fill="none" stroke="black" d="M165.6,-1201.01C191.09,-1198.18 223.89,-1191.52 249,-1176 270.37,-1162.79 265.11,-1147.98 284.5,-1132 286.01,-1130.76 287.56,-1129.54 289.16,-1128.35"/>
<polygon fill="black" stroke="black" points="165.14,-1197.54 155.52,-1201.98 165.81,-1204.51 165.14,-1197.54"/>
<polygon fill="black" stroke="black" points="291.21,-1131.19 297.42,-1122.61 287.21,-1125.44 291.21,-1131.19"/>
</g>
<!-- NeoStorage -->
<g id="node33" class="node">
<title>NeoStorage</title>
<polygon fill="none" stroke="black" points="175,-1167 74,-1167 74,-1131 175,-1131 175,-1167"/>
<text text-anchor="middle" x="124.5" y="-1145.3" font-family="Times,serif" font-size="14.00">NeoStorage</text>
</g>
<!-- NeoStorage&#45;&gt;np11 -->
<g id="edge4" class="edge">
<title>NeoStorage&#45;&gt;np11</title>
<path fill="none" stroke="black" d="M185.2,-1136.34C205.48,-1131.93 228.25,-1126.87 249,-1122 260.02,-1119.41 271.68,-1116.58 283.04,-1113.76"/>
<polygon fill="black" stroke="black" points="184.19,-1132.97 175.16,-1138.51 185.67,-1139.82 184.19,-1132.97"/>
<polygon fill="black" stroke="black" points="284.06,-1117.11 292.92,-1111.3 282.37,-1110.32 284.06,-1117.11"/>
</g>
</g>
</svg>
