<?xml version="1.0" encoding="UTF-8" standalone="no"?>
<!DOCTYPE svg PUBLIC "-//W3C//DTD SVG 1.1//EN"
 "http://www.w3.org/Graphics/SVG/1.1/DTD/svg11.dtd">
<!-- Generated by graphviz version 2.42.3 (0)
 -->
<!-- Title: NeoNetwork Nodes Pages: 1 -->
<svg width="1376pt" height="971pt"
 viewBox="0.00 0.00 1375.50 970.60" xmlns="http://www.w3.org/2000/svg" xmlns:xlink="http://www.w3.org/1999/xlink">
<g id="graph0" class="graph" transform="scale(1 1) rotate(0) translate(4 966.6)">
<title>NeoNetwork Nodes</title>
<polygon fill="white" stroke="transparent" points="-4,4 -4,-966.6 1371.5,-966.6 1371.5,4 -4,4"/>
<text text-anchor="middle" x="683.75" y="-947.4" font-family="Times,serif" font-size="14.00">NeoNetwork Nodes</text>
<g id="clust1" class="cluster">
<title>cluster_AS4201048576</title>
<polygon fill="none" stroke="black" points="24.5,-656.6 24.5,-893.6 1012,-893.6 1012,-656.6 24.5,-656.6"/>
<text text-anchor="middle" x="518.25" y="-878.4" font-family="Times,serif" font-size="14.00">NeoNetwork (AS4201048576)</text>
</g>
<g id="clust2" class="cluster">
<title>cluster_AS4200012450</title>
<polygon fill="none" stroke="black" points="8,-163.6 8,-648.6 425.5,-648.6 425.5,-163.6 8,-163.6"/>
<text text-anchor="middle" x="216.75" y="-633.4" font-family="Times,serif" font-size="14.00">MagicNeko Network (AS4200012450)</text>
</g>
<g id="clust3" class="cluster">
<title>cluster_AS4200066666</title>
<polygon fill="none" stroke="black" points="216,-58.6 216,-155.6 997,-155.6 997,-58.6 216,-58.6"/>
<text text-anchor="middle" x="606.5" y="-140.4" font-family="Times,serif" font-size="14.00">Jerry Network (AS4200066666)</text>
</g>
<!-- c -->
<g id="node1" class="node">
<title>c</title>
<polygon fill="none" stroke="black" points="1004,-741.6 852,-741.6 852,-703.6 1004,-703.6 1004,-741.6"/>
<text text-anchor="middle" x="928" y="-726.4" font-family="Times,serif" font-size="14.00">caasih.neocloud.tw</text>
<text text-anchor="middle" x="928" y="-711.4" font-family="Times,serif" font-size="14.00">(10.127.0.1)</text>
</g>
<!-- staph -->
<g id="node17" class="node">
<title>staph</title>
<polygon fill="none" stroke="black" points="1184.5,-658.6 1047.5,-658.6 1047.5,-620.6 1184.5,-620.6 1184.5,-658.6"/>
<text text-anchor="middle" x="1116" y="-643.4" font-family="Times,serif" font-size="14.00">s.aureus.ga</text>
<text text-anchor="middle" x="1116" y="-628.4" font-family="Times,serif" font-size="14.00">(AS4200078274)</text>
</g>
<!-- c&#45;&gt;staph -->
<g id="edge15" class="edge">
<title>c&#45;&gt;staph</title>
<path fill="none" stroke="black" d="M971.67,-703.56C998.75,-691.47 1033.97,-675.76 1062.72,-662.93"/>
<polygon fill="black" stroke="black" points="1064.5,-665.97 1072.2,-658.69 1061.65,-659.57 1064.5,-665.97"/>
</g>
<!-- ucbvax -->
<g id="node2" class="node">
<title>ucbvax</title>
<polygon fill="none" stroke="black" points="807,-702.6 656,-702.6 656,-664.6 807,-664.6 807,-702.6"/>
<text text-anchor="middle" x="731.5" y="-687.4" font-family="Times,serif" font-size="14.00">router.neocloud.tw</text>
<text text-anchor="middle" x="731.5" y="-672.4" font-family="Times,serif" font-size="14.00">(10.127.255.2)</text>
</g>
<!-- ucbvax&#45;&gt;c -->
<g id="edge8" class="edge">
<title>ucbvax&#45;&gt;c</title>
<path fill="none" stroke="black" d="M817.21,-700.58C825.42,-702.23 833.76,-703.9 841.97,-705.55"/>
<polygon fill="black" stroke="black" points="817.64,-697.1 807.14,-698.56 816.26,-703.96 817.64,-697.1"/>
<polygon fill="black" stroke="black" points="841.42,-709.01 851.91,-707.54 842.8,-702.14 841.42,-709.01"/>
</g>
<!-- chenx97 -->
<g id="node19" class="node">
<title>chenx97</title>
<polygon fill="none" stroke="black" points="1011.5,-564.6 844.5,-564.6 844.5,-526.6 1011.5,-526.6 1011.5,-564.6"/>
<text text-anchor="middle" x="928" y="-549.4" font-family="Times,serif" font-size="14.00">chenx97.neocloud.tw</text>
<text text-anchor="middle" x="928" y="-534.4" font-family="Times,serif" font-size="14.00">(AS4200114514)</text>
</g>
<!-- ucbvax&#45;&gt;chenx97 -->
<g id="edge17" class="edge">
<title>ucbvax&#45;&gt;chenx97</title>
<path fill="none" stroke="black" d="M755.71,-656.8C776.93,-633.61 810.16,-600.46 844.5,-578.6 849.88,-575.17 855.67,-571.99 861.61,-569.07"/>
<polygon fill="black" stroke="black" points="753.08,-654.48 748.99,-664.25 758.28,-659.17 753.08,-654.48"/>
<polygon fill="black" stroke="black" points="863.43,-572.09 871.01,-564.69 860.47,-565.74 863.43,-572.09"/>
</g>
<!-- septs -->
<g id="node24" class="node">
<title>septs</title>
<polygon fill="none" stroke="black" points="1362.5,-267.6 1225.5,-267.6 1225.5,-229.6 1362.5,-229.6 1362.5,-267.6"/>
<text text-anchor="middle" x="1294" y="-252.4" font-family="Times,serif" font-size="14.00">bgp.septs.me</text>
<text text-anchor="middle" x="1294" y="-237.4" font-family="Times,serif" font-size="14.00">(AS4200055555)</text>
</g>
<!-- ucbvax&#45;&gt;septs -->
<g id="edge39" class="edge">
<title>ucbvax&#45;&gt;septs</title>
<path fill="none" stroke="black" d="M816.97,-662C875.32,-644.41 952.77,-615.56 1012,-573.6 1133.28,-487.67 1236.01,-338.6 1275.59,-276.74"/>
<polygon fill="black" stroke="black" points="815.64,-658.75 807.04,-664.94 817.62,-665.46 815.64,-658.75"/>
<polygon fill="black" stroke="black" points="1278.78,-278.25 1281.18,-267.93 1272.86,-274.5 1278.78,-278.25"/>
</g>
<!-- np11 -->
<g id="node3" class="node">
<title>np11</title>
<polygon fill="none" stroke="black" points="363,-774.1 242,-774.1 242,-721.1 363,-721.1 363,-774.1"/>
<text text-anchor="middle" x="302.5" y="-758.9" font-family="Times,serif" font-size="14.00">NeoPDP&#45;11</text>
<text text-anchor="middle" x="302.5" y="-743.9" font-family="Times,serif" font-size="14.00">(10.127.255.1,</text>
<text text-anchor="middle" x="302.5" y="-728.9" font-family="Times,serif" font-size="14.00">10.127.1.1)</text>
</g>
<!-- np11&#45;&gt;c -->
<g id="edge7" class="edge">
<title>np11&#45;&gt;c</title>
<path fill="none" stroke="black" d="M363.04,-748.43C426.4,-749.02 529.57,-749.19 618.5,-745.6 694.12,-742.54 779.95,-735.88 841.85,-730.51"/>
<polygon fill="black" stroke="black" points="842.3,-733.99 851.96,-729.63 841.69,-727.01 842.3,-733.99"/>
</g>
<!-- np11&#45;&gt;ucbvax -->
<g id="edge5" class="edge">
<title>np11&#45;&gt;ucbvax</title>
<path fill="none" stroke="black" d="M363.29,-750.77C427.3,-752.73 531.42,-751.79 618.5,-731.6 641.45,-726.28 665.63,-716.5 685.62,-707.16"/>
<polygon fill="black" stroke="black" points="687.28,-710.24 694.78,-702.77 684.25,-703.93 687.28,-710.24"/>
</g>
<!-- pan -->
<g id="node7" class="node">
<title>pan</title>
<polygon fill="none" stroke="black" points="597.5,-722.6 474.5,-722.6 474.5,-684.6 597.5,-684.6 597.5,-722.6"/>
<text text-anchor="middle" x="536" y="-707.4" font-family="Times,serif" font-size="14.00">r2.neocloud.tw</text>
<text text-anchor="middle" x="536" y="-692.4" font-family="Times,serif" font-size="14.00">(10.127.3.1)</text>
</g>
<!-- np11&#45;&gt;pan -->
<g id="edge6" class="edge">
<title>np11&#45;&gt;pan</title>
<path fill="none" stroke="black" d="M363.12,-736.27C394.08,-730.38 432.1,-723.15 464.51,-716.99"/>
<polygon fill="black" stroke="black" points="465.21,-720.43 474.38,-715.12 463.9,-713.55 465.21,-720.43"/>
</g>
<!-- ns -->
<g id="node4" class="node">
<title>ns</title>
<polygon fill="none" stroke="black" points="368,-702.6 237,-702.6 237,-664.6 368,-664.6 368,-702.6"/>
<text text-anchor="middle" x="302.5" y="-687.4" font-family="Times,serif" font-size="14.00">NeoSystem</text>
<text text-anchor="middle" x="302.5" y="-672.4" font-family="Times,serif" font-size="14.00">(10.127.255.80)</text>
</g>
<!-- ns&#45;&gt;ucbvax -->
<g id="edge9" class="edge">
<title>ns&#45;&gt;ucbvax</title>
<path fill="none" stroke="black" d="M368.07,-679.4C394.54,-677.88 425.48,-676.34 453.5,-675.6 526.81,-673.64 545.21,-672.98 618.5,-675.6 627.28,-675.91 636.43,-676.36 645.56,-676.89"/>
<polygon fill="black" stroke="black" points="645.64,-680.4 655.84,-677.52 646.07,-673.42 645.64,-680.4"/>
</g>
<!-- ns&#45;&gt;pan -->
<g id="edge10" class="edge">
<title>ns&#45;&gt;pan</title>
<path fill="none" stroke="black" d="M368.29,-689.2C398.1,-691.77 433.53,-694.83 464.05,-697.47"/>
<polygon fill="black" stroke="black" points="463.94,-700.97 474.2,-698.35 464.54,-694 463.94,-700.97"/>
</g>
<!-- ncuiqh -->
<g id="node5" class="node">
<title>ncuiqh</title>
<polygon fill="none" stroke="black" points="808.5,-939.6 654.5,-939.6 654.5,-901.6 808.5,-901.6 808.5,-939.6"/>
<text text-anchor="middle" x="731.5" y="-924.4" font-family="Times,serif" font-size="14.00">ncuiqh.nerdpol.ovh</text>
<text text-anchor="middle" x="731.5" y="-909.4" font-family="Times,serif" font-size="14.00">(LEGACY)</text>
</g>
<!-- ncuiqh&#45;&gt;c -->
<g id="edge12" class="edge">
<title>ncuiqh&#45;&gt;c</title>
<path fill="none" stroke="black" d="M810.56,-895.45C863.87,-852.91 898.37,-788.08 915.16,-751.05"/>
<polygon fill="black" stroke="black" points="808.43,-892.67 802.6,-901.52 812.68,-898.23 808.43,-892.67"/>
<polygon fill="black" stroke="black" points="918.4,-752.39 919.24,-741.83 912,-749.56 918.4,-752.39"/>
</g>
<!-- megumiLHS -->
<g id="node6" class="node">
<title>megumiLHS</title>
<polygon fill="none" stroke="black" points="618.5,-369.6 453.5,-369.6 453.5,-333.6 618.5,-333.6 618.5,-369.6"/>
<text text-anchor="middle" x="536" y="-347.9" font-family="Times,serif" font-size="14.00">megumi.yukipedia.cf</text>
</g>
<!-- megumiLHS&#45;&gt;ucbvax -->
<g id="edge13" class="edge">
<title>megumiLHS&#45;&gt;ucbvax</title>
<path fill="none" stroke="black" d="M608.43,-375.13C612.05,-377.67 615.44,-380.49 618.5,-383.6 694.64,-461.03 719.8,-594.97 727.44,-654.09"/>
<polygon fill="black" stroke="black" points="609.97,-371.97 599.63,-369.66 606.27,-377.91 609.97,-371.97"/>
<polygon fill="black" stroke="black" points="723.99,-654.73 728.67,-664.23 730.94,-653.88 723.99,-654.73"/>
</g>
<!-- megumiLHS&#45;&gt;septs -->
<g id="edge42" class="edge">
<title>megumiLHS&#45;&gt;septs</title>
<path fill="none" stroke="black" d="M628.54,-339.13C778.67,-318.67 1074.59,-278.35 1215.23,-259.19"/>
<polygon fill="black" stroke="black" points="628.06,-335.66 618.62,-340.48 629,-342.6 628.06,-335.66"/>
<polygon fill="black" stroke="black" points="1216.06,-262.61 1225.49,-257.8 1215.11,-255.68 1216.06,-262.61"/>
</g>
<!-- pan&#45;&gt;ucbvax -->
<g id="edge11" class="edge">
<title>pan&#45;&gt;ucbvax</title>
<path fill="none" stroke="black" d="M607.79,-696.28C620.1,-695.01 633.02,-693.67 645.67,-692.37"/>
<polygon fill="black" stroke="black" points="607.28,-692.82 597.69,-697.32 608,-699.78 607.28,-692.82"/>
<polygon fill="black" stroke="black" points="646.14,-695.84 655.73,-691.33 645.42,-688.87 646.14,-695.84"/>
</g>
<!-- icecat_Explosion -->
<g id="node8" class="node">
<title>icecat_Explosion</title>
<polygon fill="none" stroke="black" points="417.5,-460.1 187.5,-460.1 187.5,-407.1 417.5,-407.1 417.5,-460.1"/>
<text text-anchor="middle" x="302.5" y="-444.9" font-family="Times,serif" font-size="14.00">hk&#45;01.nextmoe.cloud.imiku.cn</text>
<text text-anchor="middle" x="302.5" y="-429.9" font-family="Times,serif" font-size="14.00">(10.127.0.58,</text>
<text text-anchor="middle" x="302.5" y="-414.9" font-family="Times,serif" font-size="14.00">10.127.4.10)</text>
</g>
<!-- icecat_Explosion&#45;&gt;ucbvax -->
<g id="edge14" class="edge">
<title>icecat_Explosion&#45;&gt;ucbvax</title>
<path fill="none" stroke="black" d="M357.47,-465.2C443.83,-515.76 611.25,-613.78 688.98,-659.29"/>
<polygon fill="black" stroke="black" points="359.19,-462.15 348.79,-460.12 355.65,-468.19 359.19,-462.15"/>
<polygon fill="black" stroke="black" points="687.61,-662.54 698.01,-664.57 691.15,-656.5 687.61,-662.54"/>
</g>
<!-- SUNNET -->
<g id="node27" class="node">
<title>SUNNET</title>
<polygon fill="none" stroke="black" points="604.5,-479.1 467.5,-479.1 467.5,-426.1 604.5,-426.1 604.5,-479.1"/>
<text text-anchor="middle" x="536" y="-463.9" font-family="Times,serif" font-size="14.00">SUNNET</text>
<text text-anchor="middle" x="536" y="-448.9" font-family="Times,serif" font-size="14.00">(10.127.11.0/24)</text>
<text text-anchor="middle" x="536" y="-433.9" font-family="Times,serif" font-size="14.00">(AS4242423088)</text>
</g>
<!-- icecat_Explosion&#45;&gt;SUNNET -->
<g id="edge43" class="edge">
<title>icecat_Explosion&#45;&gt;SUNNET</title>
<path fill="none" stroke="black" d="M427.91,-443.81C437.84,-444.62 447.68,-445.43 457.14,-446.21"/>
<polygon fill="black" stroke="black" points="427.81,-440.29 417.55,-442.96 427.23,-447.27 427.81,-440.29"/>
<polygon fill="black" stroke="black" points="457,-449.71 467.25,-447.04 457.57,-442.73 457,-449.71"/>
</g>
<!-- icecat_Notebook -->
<g id="node9" class="node">
<title>icecat_Notebook</title>
<polygon fill="none" stroke="black" points="150,-561.1 16,-561.1 16,-508.1 150,-508.1 150,-561.1"/>
<text text-anchor="middle" x="83" y="-545.9" font-family="Times,serif" font-size="14.00">Notebook</text>
<text text-anchor="middle" x="83" y="-530.9" font-family="Times,serif" font-size="14.00">(10.127.0.64/30,</text>
<text text-anchor="middle" x="83" y="-515.9" font-family="Times,serif" font-size="14.00">10.127.4.100)</text>
</g>
<!-- icecat_Notebook&#45;&gt;icecat_Explosion -->
<g id="edge25" class="edge">
<title>icecat_Notebook&#45;&gt;icecat_Explosion</title>
<path fill="none" stroke="black" d="M141.15,-508.06C170,-494.66 205.17,-478.33 235.21,-464.38"/>
<polygon fill="black" stroke="black" points="236.76,-467.52 244.36,-460.13 233.81,-461.17 236.76,-467.52"/>
</g>
<!-- magicneko_HK01 -->
<g id="node10" class="node">
<title>magicneko_HK01</title>
<polygon fill="none" stroke="black" points="135,-489.6 31,-489.6 31,-451.6 135,-451.6 135,-489.6"/>
<text text-anchor="middle" x="83" y="-474.4" font-family="Times,serif" font-size="14.00">M&#45;HK1</text>
<text text-anchor="middle" x="83" y="-459.4" font-family="Times,serif" font-size="14.00">(10.127.4.1)</text>
</g>
<!-- magicneko_HK01&#45;&gt;icecat_Explosion -->
<g id="edge18" class="edge">
<title>magicneko_HK01&#45;&gt;icecat_Explosion</title>
<path fill="none" stroke="black" d="M135.27,-461.88C148.13,-459.69 162.49,-457.25 177.24,-454.74"/>
<polygon fill="black" stroke="black" points="178.23,-458.12 187.5,-452.99 177.05,-451.22 178.23,-458.12"/>
</g>
<!-- magicneko_HK02 -->
<g id="node11" class="node">
<title>magicneko_HK02</title>
<polygon fill="none" stroke="black" points="139.5,-433.6 26.5,-433.6 26.5,-395.6 139.5,-395.6 139.5,-433.6"/>
<text text-anchor="middle" x="83" y="-418.4" font-family="Times,serif" font-size="14.00">M&#45;HK2</text>
<text text-anchor="middle" x="83" y="-403.4" font-family="Times,serif" font-size="14.00">(10.127.4.10)</text>
</g>
<!-- magicneko_HK02&#45;&gt;icecat_Explosion -->
<g id="edge19" class="edge">
<title>magicneko_HK02&#45;&gt;icecat_Explosion</title>
<path fill="none" stroke="black" d="M139.73,-419.47C151.36,-420.48 164.07,-421.59 177.08,-422.73"/>
<polygon fill="black" stroke="black" points="176.81,-426.22 187.08,-423.6 177.42,-419.25 176.81,-426.22"/>
</g>
<!-- magicneko_JP01 -->
<g id="node12" class="node">
<title>magicneko_JP01</title>
<polygon fill="none" stroke="black" points="139.5,-377.6 26.5,-377.6 26.5,-339.6 139.5,-339.6 139.5,-377.6"/>
<text text-anchor="middle" x="83" y="-362.4" font-family="Times,serif" font-size="14.00">M&#45;JP1</text>
<text text-anchor="middle" x="83" y="-347.4" font-family="Times,serif" font-size="14.00">(10.127.4.11)</text>
</g>
<!-- magicneko_JP01&#45;&gt;icecat_Explosion -->
<g id="edge20" class="edge">
<title>magicneko_JP01&#45;&gt;icecat_Explosion</title>
<path fill="none" stroke="black" d="M139.17,-377.62C162.15,-385.55 189.4,-394.94 214.94,-403.75"/>
<polygon fill="black" stroke="black" points="214.04,-407.14 224.64,-407.09 216.32,-400.52 214.04,-407.14"/>
</g>
<!-- magicneko_HK03 -->
<g id="node13" class="node">
<title>magicneko_HK03</title>
<polygon fill="none" stroke="black" points="139.5,-321.6 26.5,-321.6 26.5,-283.6 139.5,-283.6 139.5,-321.6"/>
<text text-anchor="middle" x="83" y="-306.4" font-family="Times,serif" font-size="14.00">M&#45;HK3</text>
<text text-anchor="middle" x="83" y="-291.4" font-family="Times,serif" font-size="14.00">(10.127.4.12)</text>
</g>
<!-- magicneko_HK03&#45;&gt;icecat_Explosion -->
<g id="edge21" class="edge">
<title>magicneko_HK03&#45;&gt;icecat_Explosion</title>
<path fill="none" stroke="black" d="M133.23,-321.6C139.48,-324.43 145.7,-327.45 151.5,-330.6 189.53,-351.25 229.8,-379.29 259.04,-400.9"/>
<polygon fill="black" stroke="black" points="257.25,-403.93 267.36,-407.1 261.43,-398.32 257.25,-403.93"/>
</g>
<!-- magicneko_JP02 -->
<g id="node14" class="node">
<title>magicneko_JP02</title>
<polygon fill="none" stroke="black" points="139.5,-617.6 26.5,-617.6 26.5,-579.6 139.5,-579.6 139.5,-617.6"/>
<text text-anchor="middle" x="83" y="-602.4" font-family="Times,serif" font-size="14.00">M&#45;JP2</text>
<text text-anchor="middle" x="83" y="-587.4" font-family="Times,serif" font-size="14.00">(10.127.4.13)</text>
</g>
<!-- magicneko_JP02&#45;&gt;icecat_Explosion -->
<g id="edge22" class="edge">
<title>magicneko_JP02&#45;&gt;icecat_Explosion</title>
<path fill="none" stroke="black" d="M135.45,-579.48C141.01,-576.77 146.47,-573.8 151.5,-570.6 197.31,-541.45 242.27,-497.81 270.84,-467.66"/>
<polygon fill="black" stroke="black" points="273.45,-469.98 277.73,-460.3 268.34,-465.2 273.45,-469.98"/>
</g>
<!-- magicneko_RU01 -->
<g id="node15" class="node">
<title>magicneko_RU01</title>
<polygon fill="none" stroke="black" points="139.5,-265.6 26.5,-265.6 26.5,-227.6 139.5,-227.6 139.5,-265.6"/>
<text text-anchor="middle" x="83" y="-250.4" font-family="Times,serif" font-size="14.00">M&#45;RU1</text>
<text text-anchor="middle" x="83" y="-235.4" font-family="Times,serif" font-size="14.00">(10.127.4.14)</text>
</g>
<!-- magicneko_RU01&#45;&gt;icecat_Explosion -->
<g id="edge23" class="edge">
<title>magicneko_RU01&#45;&gt;icecat_Explosion</title>
<path fill="none" stroke="black" d="M137.37,-265.69C142.34,-268.35 147.14,-271.32 151.5,-274.6 171.97,-289.99 170.42,-300.51 187.5,-319.6 212.49,-347.52 242.52,-377.41 265.48,-399.58"/>
<polygon fill="black" stroke="black" points="263.34,-402.38 272.98,-406.79 268.19,-397.33 263.34,-402.38"/>
</g>
<!-- magicneko_RU01&#45;&gt;staph -->
<g id="edge41" class="edge">
<title>magicneko_RU01&#45;&gt;staph</title>
<path fill="none" stroke="black" d="M149.64,-260.63C237.11,-278.08 396.95,-305.6 535,-305.6 535,-305.6 535,-305.6 732.5,-305.6 917.6,-305.6 1056.38,-530.28 1100.3,-611.08"/>
<polygon fill="black" stroke="black" points="150.08,-257.15 139.59,-258.61 148.7,-264.01 150.08,-257.15"/>
<polygon fill="black" stroke="black" points="1097.38,-613.03 1105.18,-620.2 1103.55,-609.73 1097.38,-613.03"/>
</g>
<!-- magicneko_JP03 -->
<g id="node16" class="node">
<title>magicneko_JP03</title>
<polygon fill="none" stroke="black" points="139.5,-209.6 26.5,-209.6 26.5,-171.6 139.5,-171.6 139.5,-209.6"/>
<text text-anchor="middle" x="83" y="-194.4" font-family="Times,serif" font-size="14.00">M&#45;JP3</text>
<text text-anchor="middle" x="83" y="-179.4" font-family="Times,serif" font-size="14.00">(10.127.4.15)</text>
</g>
<!-- magicneko_JP03&#45;&gt;icecat_Explosion -->
<g id="edge24" class="edge">
<title>magicneko_JP03&#45;&gt;icecat_Explosion</title>
<path fill="none" stroke="black" d="M138.28,-209.77C142.96,-212.4 147.45,-215.34 151.5,-218.6 213.54,-268.5 260.84,-350.61 284.57,-397.6"/>
<polygon fill="black" stroke="black" points="281.55,-399.39 289.14,-406.79 287.82,-396.27 281.55,-399.39"/>
</g>
<!-- magicneko_JP03&#45;&gt;chenx97 -->
<g id="edge40" class="edge">
<title>magicneko_JP03&#45;&gt;chenx97</title>
<path fill="none" stroke="black" d="M147.53,-214.12C148.94,-215.53 150.27,-217.02 151.5,-218.6 220.6,-307.63 106.23,-391.52 187.5,-469.6 364.63,-639.77 687.11,-598.92 840.93,-566.76"/>
<polygon fill="black" stroke="black" points="149.74,-211.41 139.8,-207.76 145.29,-216.82 149.74,-211.41"/>
<polygon fill="black" stroke="black" points="841.76,-570.16 850.81,-564.66 840.3,-563.32 841.76,-570.16"/>
</g>
<!-- JerryXiao -->
<g id="node20" class="node">
<title>JerryXiao</title>
<polygon fill="none" stroke="black" points="381,-124.6 224,-124.6 224,-86.6 381,-86.6 381,-124.6"/>
<text text-anchor="middle" x="302.5" y="-109.4" font-family="Times,serif" font-size="14.00">jpn.neo.jerryxiao.cc</text>
<text text-anchor="middle" x="302.5" y="-94.4" font-family="Times,serif" font-size="14.00">(10.127.8.193)</text>
</g>
<!-- magicneko_JP03&#45;&gt;JerryXiao -->
<g id="edge34" class="edge">
<title>magicneko_JP03&#45;&gt;JerryXiao</title>
<path fill="none" stroke="black" d="M142.31,-167.81C173.62,-155.57 212.11,-140.53 243.39,-128.31"/>
<polygon fill="black" stroke="black" points="140.85,-164.62 132.81,-171.52 143.4,-171.14 140.85,-164.62"/>
<polygon fill="black" stroke="black" points="244.81,-131.51 252.85,-124.61 242.26,-124.99 244.81,-131.51"/>
</g>
<!-- magicneko_JP03&#45;&gt;septs -->
<g id="edge37" class="edge">
<title>magicneko_JP03&#45;&gt;septs</title>
<path fill="none" stroke="black" d="M149.83,-199.87C237.53,-211.41 397.6,-229.6 535,-229.6 535,-229.6 535,-229.6 929,-229.6 1027.82,-229.6 1141.52,-236.67 1215.18,-242.18"/>
<polygon fill="black" stroke="black" points="150.14,-196.38 139.76,-198.54 149.21,-203.32 150.14,-196.38"/>
<polygon fill="black" stroke="black" points="1215.06,-245.68 1225.3,-242.95 1215.59,-238.7 1215.06,-245.68"/>
</g>
<!-- staph_CN -->
<g id="node18" class="node">
<title>staph_CN</title>
<polygon fill="none" stroke="black" points="1367.5,-666.1 1220.5,-666.1 1220.5,-613.1 1367.5,-613.1 1367.5,-666.1"/>
<text text-anchor="middle" x="1294" y="-650.9" font-family="Times,serif" font-size="14.00">cnhome.aureus.ga</text>
<text text-anchor="middle" x="1294" y="-635.9" font-family="Times,serif" font-size="14.00">(10.127.8.187)</text>
<text text-anchor="middle" x="1294" y="-620.9" font-family="Times,serif" font-size="14.00">(AS4200078274)</text>
</g>
<!-- staph&#45;&gt;staph_CN -->
<g id="edge16" class="edge">
<title>staph&#45;&gt;staph_CN</title>
<path fill="none" stroke="black" d="M1184.54,-639.6C1192.97,-639.6 1201.67,-639.6 1210.3,-639.6"/>
<polygon fill="black" stroke="black" points="1210.37,-643.1 1220.37,-639.6 1210.37,-636.1 1210.37,-643.1"/>
</g>
<!-- staph&#45;&gt;septs -->
<g id="edge38" class="edge">
<title>staph&#45;&gt;septs</title>
<path fill="none" stroke="black" d="M1176.41,-614.49C1179.34,-612.07 1182.07,-609.45 1184.5,-606.6 1268.84,-507.52 1287.62,-344.25 1291.8,-277.95"/>
<polygon fill="black" stroke="black" points="1174.28,-611.71 1168.23,-620.4 1178.38,-617.38 1174.28,-611.71"/>
<polygon fill="black" stroke="black" points="1295.31,-277.99 1292.37,-267.81 1288.32,-277.6 1295.31,-277.99"/>
</g>
<!-- JerryXiao&#45;&gt;ucbvax -->
<g id="edge31" class="edge">
<title>JerryXiao&#45;&gt;ucbvax</title>
<path fill="none" stroke="black" d="M387.79,-129.11C402.31,-136.68 415.81,-146.6 425.5,-159.6 484.15,-238.27 387.85,-305.67 453.5,-378.6 503.92,-434.6 560.97,-368.93 618.5,-417.6 692.2,-479.95 718.4,-599.1 726.86,-654.25"/>
<polygon fill="black" stroke="black" points="389.18,-125.9 378.65,-124.7 386.13,-132.2 389.18,-125.9"/>
<polygon fill="black" stroke="black" points="723.43,-655 728.32,-664.39 730.36,-654 723.43,-655"/>
</g>
<!-- JerryXiao&#45;&gt;pan -->
<g id="edge30" class="edge">
<title>JerryXiao&#45;&gt;pan</title>
<path fill="none" stroke="black" d="M388.74,-129.07C403.02,-136.62 416.2,-146.56 425.5,-159.6 468.1,-219.34 437.23,-417.05 453.5,-488.6 469.28,-558 502.62,-635.02 521.4,-675.38"/>
<polygon fill="black" stroke="black" points="390.25,-125.91 379.73,-124.66 387.18,-132.2 390.25,-125.91"/>
<polygon fill="black" stroke="black" points="518.3,-677.03 525.73,-684.59 524.64,-674.05 518.3,-677.03"/>
</g>
<!-- JerryXiao_SH01 -->
<g id="node21" class="node">
<title>JerryXiao_SH01</title>
<polygon fill="none" stroke="black" points="597,-124.6 475,-124.6 475,-86.6 597,-86.6 597,-124.6"/>
<text text-anchor="middle" x="536" y="-109.4" font-family="Times,serif" font-size="14.00">jerryxiao&#45;sh01</text>
<text text-anchor="middle" x="536" y="-94.4" font-family="Times,serif" font-size="14.00">(10.127.8.195)</text>
</g>
<!-- JerryXiao&#45;&gt;JerryXiao_SH01 -->
<g id="edge26" class="edge">
<title>JerryXiao&#45;&gt;JerryXiao_SH01</title>
<path fill="none" stroke="black" d="M391.36,-105.6C415.58,-105.6 441.54,-105.6 464.63,-105.6"/>
<polygon fill="black" stroke="black" points="391.23,-102.1 381.23,-105.6 391.23,-109.1 391.23,-102.1"/>
<polygon fill="black" stroke="black" points="464.68,-109.1 474.68,-105.6 464.68,-102.1 464.68,-109.1"/>
</g>
<!-- JerryXiao_HK01 -->
<g id="node22" class="node">
<title>JerryXiao_HK01</title>
<polygon fill="none" stroke="black" points="792.5,-114.6 670.5,-114.6 670.5,-76.6 792.5,-76.6 792.5,-114.6"/>
<text text-anchor="middle" x="731.5" y="-99.4" font-family="Times,serif" font-size="14.00">jerryxiao&#45;hk01</text>
<text text-anchor="middle" x="731.5" y="-84.4" font-family="Times,serif" font-size="14.00">(10.127.8.194)</text>
</g>
<!-- JerryXiao&#45;&gt;JerryXiao_HK01 -->
<g id="edge27" class="edge">
<title>JerryXiao&#45;&gt;JerryXiao_HK01</title>
<path fill="none" stroke="black" d="M391.23,-86.42C411.57,-82.75 433.21,-79.48 453.5,-77.6 526.52,-70.84 545.4,-71.76 618.5,-77.6 632.09,-78.68 646.51,-80.5 660.33,-82.57"/>
<polygon fill="black" stroke="black" points="390.55,-82.98 381.36,-88.24 391.83,-89.87 390.55,-82.98"/>
<polygon fill="black" stroke="black" points="659.84,-86.03 670.26,-84.11 660.92,-79.12 659.84,-86.03"/>
</g>
<!-- JerryXiao&#45;&gt;septs -->
<g id="edge32" class="edge">
<title>JerryXiao&#45;&gt;septs</title>
<path fill="none" stroke="black" d="M382.5,-84.01C405.28,-78.36 430.26,-72.7 453.5,-68.6 575.44,-47.05 606.67,-38.6 730.5,-38.6 730.5,-38.6 730.5,-38.6 929,-38.6 1074.28,-38.6 1213.79,-165.66 1268.6,-222.12"/>
<polygon fill="black" stroke="black" points="381.38,-80.68 372.54,-86.51 383.09,-87.47 381.38,-80.68"/>
<polygon fill="black" stroke="black" points="1266.32,-224.79 1275.77,-229.59 1271.37,-219.95 1266.32,-224.79"/>
</g>
<!-- JerryXiao_SH01&#45;&gt;JerryXiao_HK01 -->
<g id="edge28" class="edge">
<title>JerryXiao_SH01&#45;&gt;JerryXiao_HK01</title>
<path fill="none" stroke="black" d="M607.17,-101.97C624.48,-101.08 643.03,-100.12 660.34,-99.22"/>
<polygon fill="black" stroke="black" points="606.97,-98.48 597.16,-102.49 607.33,-105.47 606.97,-98.48"/>
<polygon fill="black" stroke="black" points="660.57,-102.72 670.37,-98.71 660.21,-95.73 660.57,-102.72"/>
</g>
<!-- dfceaef -->
<g id="node26" class="node">
<title>dfceaef</title>
<polygon fill="none" stroke="black" points="800,-201.6 663,-201.6 663,-163.6 800,-163.6 800,-201.6"/>
<text text-anchor="middle" x="731.5" y="-186.4" font-family="Times,serif" font-size="14.00">dfceaef</text>
<text text-anchor="middle" x="731.5" y="-171.4" font-family="Times,serif" font-size="14.00">(AS4242420140)</text>
</g>
<!-- JerryXiao_SH01&#45;&gt;dfceaef -->
<g id="edge33" class="edge">
<title>JerryXiao_SH01&#45;&gt;dfceaef</title>
<path fill="none" stroke="black" d="M584.18,-129.07C605.39,-139.16 630.91,-150.66 654.5,-159.6 654.83,-159.72 655.15,-159.85 655.48,-159.97"/>
<polygon fill="black" stroke="black" points="585.6,-125.87 575.07,-124.7 582.57,-132.18 585.6,-125.87"/>
<polygon fill="black" stroke="black" points="654.62,-163.38 665.21,-163.48 656.99,-156.79 654.62,-163.38"/>
</g>
<!-- JerryXiao_HK02 -->
<g id="node23" class="node">
<title>JerryXiao_HK02</title>
<polygon fill="none" stroke="black" points="989,-114.6 867,-114.6 867,-76.6 989,-76.6 989,-114.6"/>
<text text-anchor="middle" x="928" y="-99.4" font-family="Times,serif" font-size="14.00">jerryxiao&#45;hk02</text>
<text text-anchor="middle" x="928" y="-84.4" font-family="Times,serif" font-size="14.00">(10.127.8.196)</text>
</g>
<!-- JerryXiao_HK01&#45;&gt;JerryXiao_HK02 -->
<g id="edge29" class="edge">
<title>JerryXiao_HK01&#45;&gt;JerryXiao_HK02</title>
<path fill="none" stroke="black" d="M802.82,-95.6C820.33,-95.6 839.09,-95.6 856.6,-95.6"/>
<polygon fill="black" stroke="black" points="802.71,-92.1 792.71,-95.6 802.71,-99.1 802.71,-92.1"/>
<polygon fill="black" stroke="black" points="856.74,-99.1 866.74,-95.6 856.74,-92.1 856.74,-99.1"/>
</g>
<!-- lantian -->
<g id="node25" class="node">
<title>lantian</title>
<polygon fill="none" stroke="black" points="151.5,-71.6 14.5,-71.6 14.5,-33.6 151.5,-33.6 151.5,-71.6"/>
<text text-anchor="middle" x="83" y="-56.4" font-family="Times,serif" font-size="14.00">lantian</text>
<text text-anchor="middle" x="83" y="-41.4" font-family="Times,serif" font-size="14.00">(AS4200002547)</text>
</g>
<!-- lantian&#45;&gt;JerryXiao -->
<g id="edge36" class="edge">
<title>lantian&#45;&gt;JerryXiao</title>
<path fill="none" stroke="black" d="M161.41,-71.46C178.3,-75.58 196.3,-79.96 213.58,-84.17"/>
<polygon fill="black" stroke="black" points="162.17,-68.04 151.63,-69.08 160.51,-74.85 162.17,-68.04"/>
<polygon fill="black" stroke="black" points="213.1,-87.66 223.65,-86.63 214.76,-80.86 213.1,-87.66"/>
</g>
<!-- lantian&#45;&gt;septs -->
<g id="edge35" class="edge">
<title>lantian&#45;&gt;septs</title>
<path fill="none" stroke="black" d="M161.8,-38.13C251.44,-22.74 403.33,-0.6 535,-0.6 535,-0.6 535,-0.6 929,-0.6 1045.64,-0.6 1090.87,8.97 1184.5,-60.6 1239.13,-101.19 1270.68,-178.08 1284.53,-219.85"/>
<polygon fill="black" stroke="black" points="160.98,-34.72 151.72,-39.88 162.17,-41.62 160.98,-34.72"/>
<polygon fill="black" stroke="black" points="1281.21,-220.97 1287.59,-229.42 1287.88,-218.83 1281.21,-220.97"/>
</g>
<!-- NNPCC -->
<g id="node28" class="node">
<title>NNPCC</title>
<polygon fill="none" stroke="black" points="118.5,-700.6 47.5,-700.6 47.5,-664.6 118.5,-664.6 118.5,-700.6"/>
<text text-anchor="middle" x="83" y="-678.9" font-family="Times,serif" font-size="14.00">NNPCC</text>
</g>
<!-- NNPCC&#45;&gt;np11 -->
<g id="edge1" class="edge">
<title>NNPCC&#45;&gt;np11</title>
<path fill="none" stroke="black" d="M128.66,-695.95C158.36,-704.82 197.96,-716.66 231.77,-726.76"/>
<polygon fill="black" stroke="black" points="129.53,-692.55 118.95,-693.04 127.52,-699.26 129.53,-692.55"/>
<polygon fill="black" stroke="black" points="231.01,-730.18 241.59,-729.69 233.01,-723.48 231.01,-730.18"/>
</g>
<!-- NeoBOX -->
<g id="node29" class="node">
<title>NeoBOX</title>
<polygon fill="none" stroke="black" points="121.5,-862.6 44.5,-862.6 44.5,-826.6 121.5,-826.6 121.5,-862.6"/>
<text text-anchor="middle" x="83" y="-840.9" font-family="Times,serif" font-size="14.00">NeoBOX</text>
</g>
<!-- NeoBOX&#45;&gt;np11 -->
<g id="edge2" class="edge">
<title>NeoBOX&#45;&gt;np11</title>
<path fill="none" stroke="black" d="M130.96,-826.21C137.87,-823.39 144.89,-820.46 151.5,-817.6 179.93,-805.29 211.01,-790.94 237.47,-778.44"/>
<polygon fill="black" stroke="black" points="129.6,-822.98 121.64,-829.97 132.23,-829.47 129.6,-822.98"/>
<polygon fill="black" stroke="black" points="239.08,-781.55 246.62,-774.11 236.09,-775.22 239.08,-781.55"/>
</g>
<!-- cklvax -->
<g id="node30" class="node">
<title>cklvax</title>
<polygon fill="none" stroke="black" points="114,-808.6 52,-808.6 52,-772.6 114,-772.6 114,-808.6"/>
<text text-anchor="middle" x="83" y="-786.9" font-family="Times,serif" font-size="14.00">cklvax</text>
</g>
<!-- cklvax&#45;&gt;np11 -->
<g id="edge3" class="edge">
<title>cklvax&#45;&gt;np11</title>
<path fill="none" stroke="black" d="M124.41,-782.61C154.49,-776.66 196.31,-768.39 231.76,-761.39"/>
<polygon fill="black" stroke="black" points="123.37,-779.25 114.24,-784.62 124.73,-786.11 123.37,-779.25"/>
<polygon fill="black" stroke="black" points="232.44,-764.82 241.57,-759.45 231.08,-757.95 232.44,-764.82"/>
</g>
<!-- NeoStorage -->
<g id="node31" class="node">
<title>NeoStorage</title>
<polygon fill="none" stroke="black" points="133.5,-754.6 32.5,-754.6 32.5,-718.6 133.5,-718.6 133.5,-754.6"/>
<text text-anchor="middle" x="83" y="-732.9" font-family="Times,serif" font-size="14.00">NeoStorage</text>
</g>
<!-- NeoStorage&#45;&gt;np11 -->
<g id="edge4" class="edge">
<title>NeoStorage&#45;&gt;np11</title>
<path fill="none" stroke="black" d="M143.69,-739.62C170.83,-740.99 203.13,-742.62 231.41,-744.05"/>
<polygon fill="black" stroke="black" points="143.79,-736.12 133.63,-739.11 143.44,-743.11 143.79,-736.12"/>
<polygon fill="black" stroke="black" points="231.47,-747.56 241.64,-744.57 231.83,-740.57 231.47,-747.56"/>
</g>
</g>
</svg>
