<?xml version="1.0" encoding="UTF-8" standalone="no"?>
<!DOCTYPE svg PUBLIC "-//W3C//DTD SVG 1.1//EN"
 "http://www.w3.org/Graphics/SVG/1.1/DTD/svg11.dtd">
<!-- Generated by graphviz version 2.44.0 (0)
 -->
<!-- Title: NeoNetwork Nodes Pages: 1 -->
<svg width="1111pt" height="1253pt"
 viewBox="0.00 0.00 1111.00 1253.00" xmlns="http://www.w3.org/2000/svg" xmlns:xlink="http://www.w3.org/1999/xlink">
<g id="graph0" class="graph" transform="scale(1 1) rotate(0) translate(4 1249)">
<title>NeoNetwork Nodes</title>
<polygon fill="white" stroke="transparent" points="-4,4 -4,-1249 1107,-1249 1107,4 -4,4"/>
<text text-anchor="middle" x="551.5" y="-1229.8" font-family="Times,serif" font-size="14.00">NeoNetwork Nodes</text>
<g id="clust1" class="cluster">
<title>cluster_AS4201048576</title>
<polygon fill="none" stroke="black" points="51.5,-977 51.5,-1214 949,-1214 949,-977 51.5,-977"/>
<text text-anchor="middle" x="500.25" y="-1198.8" font-family="Times,serif" font-size="14.00">NeoNetwork (AS4201048576)</text>
</g>
<g id="clust2" class="cluster">
<title>cluster_AS4200012450</title>
<polygon fill="none" stroke="black" points="233,-306 233,-775 631,-775 631,-306 233,-306"/>
<text text-anchor="middle" x="432" y="-759.8" font-family="Times,serif" font-size="14.00">MagicNeko Network Internet exchange (AS4200012450)</text>
</g>
<g id="clust3" class="cluster">
<title>cluster_AS4200066666</title>
<polygon fill="none" stroke="black" points="431.5,-8 431.5,-105 1095,-105 1095,-8 431.5,-8"/>
<text text-anchor="middle" x="763.25" y="-89.8" font-family="Times,serif" font-size="14.00">Jerry Network (AS4200066666)</text>
</g>
<!-- c -->
<g id="node1" class="node">
<title>c</title>
<polygon fill="none" stroke="black" points="941,-1044 820,-1044 820,-1006 941,-1006 941,-1044"/>
<text text-anchor="middle" x="880.5" y="-1028.8" font-family="Times,serif" font-size="14.00">caasih.neocloud.tw</text>
<text text-anchor="middle" x="880.5" y="-1013.8" font-family="Times,serif" font-size="14.00">(10.127.0.1)</text>
</g>
<!-- ucbvax -->
<g id="node2" class="node">
<title>ucbvax</title>
<polygon fill="none" stroke="black" points="778,-1023 659,-1023 659,-985 778,-985 778,-1023"/>
<text text-anchor="middle" x="718.5" y="-1007.8" font-family="Times,serif" font-size="14.00">router.neocloud.tw</text>
<text text-anchor="middle" x="718.5" y="-992.8" font-family="Times,serif" font-size="14.00">(10.127.255.2)</text>
</g>
<!-- ucbvax&#45;&gt;c -->
<g id="edge8" class="edge">
<title>ucbvax&#45;&gt;c</title>
<path fill="none" stroke="black" d="M788.15,-1013.01C795.22,-1013.94 802.41,-1014.88 809.49,-1015.81"/>
<polygon fill="black" stroke="black" points="788.54,-1009.53 778.17,-1011.7 787.63,-1016.47 788.54,-1009.53"/>
<polygon fill="black" stroke="black" points="809.4,-1019.33 819.77,-1017.16 810.31,-1012.39 809.4,-1019.33"/>
</g>
<!-- chenx97 -->
<g id="node19" class="node">
<title>chenx97</title>
<polygon fill="none" stroke="black" points="947,-945 814,-945 814,-907 947,-907 947,-945"/>
<text text-anchor="middle" x="880.5" y="-929.8" font-family="Times,serif" font-size="14.00">chenx97.neocloud.tw</text>
<text text-anchor="middle" x="880.5" y="-914.8" font-family="Times,serif" font-size="14.00">(AS4200114514)</text>
</g>
<!-- ucbvax&#45;&gt;chenx97 -->
<g id="edge15" class="edge">
<title>ucbvax&#45;&gt;chenx97</title>
<path fill="none" stroke="black" d="M767.66,-980.52C787.86,-970.68 811.29,-959.25 831.47,-949.42"/>
<polygon fill="black" stroke="black" points="766.1,-977.39 758.64,-984.92 769.16,-983.68 766.1,-977.39"/>
<polygon fill="black" stroke="black" points="833.03,-952.55 840.49,-945.02 829.96,-946.25 833.03,-952.55"/>
</g>
<!-- septs -->
<g id="node24" class="node">
<title>septs</title>
<polygon fill="none" stroke="black" points="935.5,-388 825.5,-388 825.5,-350 935.5,-350 935.5,-388"/>
<text text-anchor="middle" x="880.5" y="-372.8" font-family="Times,serif" font-size="14.00">bgp.septs.me</text>
<text text-anchor="middle" x="880.5" y="-357.8" font-family="Times,serif" font-size="14.00">(AS4200055555)</text>
</g>
<!-- ucbvax&#45;&gt;septs -->
<g id="edge36" class="edge">
<title>ucbvax&#45;&gt;septs</title>
<path fill="none" stroke="black" d="M760.87,-978.61C767.47,-972.91 773.58,-966.33 778,-959 836.39,-862.19 868.84,-503.84 877.27,-398.38"/>
<polygon fill="black" stroke="black" points="758.61,-975.95 752.96,-984.91 762.97,-981.42 758.61,-975.95"/>
<polygon fill="black" stroke="black" points="880.78,-398.4 878.08,-388.15 873.8,-397.85 880.78,-398.4"/>
</g>
<!-- np11 -->
<g id="node3" class="node">
<title>np11</title>
<polygon fill="none" stroke="black" points="338.5,-1083.5 241.5,-1083.5 241.5,-1030.5 338.5,-1030.5 338.5,-1083.5"/>
<text text-anchor="middle" x="290" y="-1068.3" font-family="Times,serif" font-size="14.00">NeoPDP&#45;11</text>
<text text-anchor="middle" x="290" y="-1053.3" font-family="Times,serif" font-size="14.00">(10.127.255.1,</text>
<text text-anchor="middle" x="290" y="-1038.3" font-family="Times,serif" font-size="14.00">10.127.1.1)</text>
</g>
<!-- np11&#45;&gt;c -->
<g id="edge7" class="edge">
<title>np11&#45;&gt;c</title>
<path fill="none" stroke="black" d="M338.71,-1054.83C425.95,-1050.8 617.01,-1041.68 778,-1032 788.29,-1031.38 799.16,-1030.68 809.81,-1029.97"/>
<polygon fill="black" stroke="black" points="810.2,-1033.45 819.94,-1029.28 809.72,-1026.47 810.2,-1033.45"/>
</g>
<!-- np11&#45;&gt;ucbvax -->
<g id="edge5" class="edge">
<title>np11&#45;&gt;ucbvax</title>
<path fill="none" stroke="black" d="M338.55,-1047.94C352.22,-1045.5 367.18,-1042.99 381,-1041 473.41,-1027.72 580.69,-1016.68 648.82,-1010.2"/>
<polygon fill="black" stroke="black" points="649.37,-1013.67 658.99,-1009.24 648.71,-1006.7 649.37,-1013.67"/>
</g>
<!-- pan -->
<g id="node6" class="node">
<title>pan</title>
<polygon fill="none" stroke="black" points="551,-1103 453,-1103 453,-1065 551,-1065 551,-1103"/>
<text text-anchor="middle" x="502" y="-1087.8" font-family="Times,serif" font-size="14.00">r2.neocloud.tw</text>
<text text-anchor="middle" x="502" y="-1072.8" font-family="Times,serif" font-size="14.00">(10.127.3.1)</text>
</g>
<!-- np11&#45;&gt;pan -->
<g id="edge6" class="edge">
<title>np11&#45;&gt;pan</title>
<path fill="none" stroke="black" d="M338.65,-1063.13C369.45,-1067.09 409.73,-1072.27 442.47,-1076.47"/>
<polygon fill="black" stroke="black" points="442.44,-1080 452.81,-1077.8 443.34,-1073.06 442.44,-1080"/>
</g>
<!-- ns -->
<g id="node4" class="node">
<title>ns</title>
<polygon fill="none" stroke="black" points="342,-1140 238,-1140 238,-1102 342,-1102 342,-1140"/>
<text text-anchor="middle" x="290" y="-1124.8" font-family="Times,serif" font-size="14.00">NeoSystem</text>
<text text-anchor="middle" x="290" y="-1109.8" font-family="Times,serif" font-size="14.00">(10.127.255.80)</text>
</g>
<!-- ns&#45;&gt;ucbvax -->
<g id="edge9" class="edge">
<title>ns&#45;&gt;ucbvax</title>
<path fill="none" stroke="black" d="M342.29,-1132.4C411.77,-1145.11 537.79,-1158.29 631,-1112 664.92,-1095.15 689.86,-1058.1 704.02,-1032.12"/>
<polygon fill="black" stroke="black" points="707.21,-1033.59 708.75,-1023.1 701.01,-1030.33 707.21,-1033.59"/>
</g>
<!-- ns&#45;&gt;pan -->
<g id="edge10" class="edge">
<title>ns&#45;&gt;pan</title>
<path fill="none" stroke="black" d="M342.1,-1112C372.56,-1106.63 411.31,-1099.8 442.92,-1094.23"/>
<polygon fill="black" stroke="black" points="443.68,-1097.65 452.92,-1092.47 442.46,-1090.76 443.68,-1097.65"/>
</g>
<!-- megumiLHS -->
<g id="node5" class="node">
<title>megumiLHS</title>
<polygon fill="none" stroke="black" points="569,-969 435,-969 435,-931 569,-931 569,-969"/>
<text text-anchor="middle" x="502" y="-953.8" font-family="Times,serif" font-size="14.00">megumi.yukipedia.cf</text>
<text text-anchor="middle" x="502" y="-938.8" font-family="Times,serif" font-size="14.00">(AS4242421037)</text>
</g>
<!-- megumiLHS&#45;&gt;ucbvax -->
<g id="edge12" class="edge">
<title>megumiLHS&#45;&gt;ucbvax</title>
<path fill="none" stroke="black" d="M579.22,-961.55C596.37,-964.74 614.41,-968.57 631,-973 640.15,-975.44 649.71,-978.42 659,-981.55"/>
<polygon fill="black" stroke="black" points="579.7,-958.08 569.24,-959.74 578.46,-964.97 579.7,-958.08"/>
<polygon fill="black" stroke="black" points="657.95,-984.9 668.55,-984.86 660.24,-978.28 657.95,-984.9"/>
</g>
<!-- megumiLHS&#45;&gt;septs -->
<g id="edge39" class="edge">
<title>megumiLHS&#45;&gt;septs</title>
<path fill="none" stroke="black" d="M579.38,-951.2C641.62,-947.87 727.22,-932.71 778,-879 844.8,-808.34 871.05,-495.46 877.69,-398.05"/>
<polygon fill="black" stroke="black" points="579.05,-947.71 569.22,-951.65 579.36,-954.71 579.05,-947.71"/>
<polygon fill="black" stroke="black" points="881.19,-398.24 878.36,-388.03 874.2,-397.77 881.19,-398.24"/>
</g>
<!-- pan&#45;&gt;ucbvax -->
<g id="edge11" class="edge">
<title>pan&#45;&gt;ucbvax</title>
<path fill="none" stroke="black" d="M560.66,-1062.49C590.45,-1051.39 626.77,-1037.84 656.96,-1026.58"/>
<polygon fill="black" stroke="black" points="559.28,-1059.27 551.14,-1066.05 561.73,-1065.83 559.28,-1059.27"/>
<polygon fill="black" stroke="black" points="658.39,-1029.78 666.53,-1023.01 655.94,-1023.22 658.39,-1029.78"/>
</g>
<!-- icecat_Explosion -->
<g id="node7" class="node">
<title>icecat_Explosion</title>
<polygon fill="none" stroke="black" points="623,-547 381,-547 381,-511 623,-511 623,-547"/>
<text text-anchor="middle" x="502" y="-525.3" font-family="Times,serif" font-size="14.00">MagicNeko P2P network interconnection</text>
</g>
<!-- icecat_Notebook -->
<g id="node8" class="node">
<title>icecat_Notebook</title>
<polygon fill="none" stroke="black" points="199,-527.5 0,-527.5 0,-474.5 199,-474.5 199,-527.5"/>
<text text-anchor="middle" x="99.5" y="-512.3" font-family="Times,serif" font-size="14.00">NextMoe Group Access Network</text>
<text text-anchor="middle" x="99.5" y="-497.3" font-family="Times,serif" font-size="14.00">(AS4200012451)</text>
<text text-anchor="middle" x="99.5" y="-482.3" font-family="Times,serif" font-size="14.00">(10.127.233.1)</text>
</g>
<!-- magicneko_HK01 -->
<g id="node9" class="node">
<title>magicneko_HK01</title>
<polygon fill="none" stroke="black" points="332,-408 248,-408 248,-370 332,-370 332,-408"/>
<text text-anchor="middle" x="290" y="-392.8" font-family="Times,serif" font-size="14.00">M&#45;HK1</text>
<text text-anchor="middle" x="290" y="-377.8" font-family="Times,serif" font-size="14.00">(10.127.4.1)</text>
</g>
<!-- icecat_Notebook&#45;&gt;magicneko_HK01 -->
<g id="edge46" class="edge">
<title>icecat_Notebook&#45;&gt;magicneko_HK01</title>
<path fill="none" stroke="black" d="M140.16,-474.37C166.15,-457.29 201.11,-435.02 233,-417 235.48,-415.6 238.05,-414.19 240.65,-412.79"/>
<polygon fill="black" stroke="black" points="242.36,-415.84 249.57,-408.08 239.09,-409.65 242.36,-415.84"/>
</g>
<!-- magicneko_JP02 -->
<g id="node13" class="node">
<title>magicneko_JP02</title>
<polygon fill="none" stroke="black" points="335.5,-632 244.5,-632 244.5,-594 335.5,-594 335.5,-632"/>
<text text-anchor="middle" x="290" y="-616.8" font-family="Times,serif" font-size="14.00">M&#45;JP2</text>
<text text-anchor="middle" x="290" y="-601.8" font-family="Times,serif" font-size="14.00">(10.127.4.13)</text>
</g>
<!-- icecat_Notebook&#45;&gt;magicneko_JP02 -->
<g id="edge50" class="edge">
<title>icecat_Notebook&#45;&gt;magicneko_JP02</title>
<path fill="none" stroke="black" d="M140.16,-527.63C166.15,-544.71 201.11,-566.98 233,-585 235.48,-586.4 238.05,-587.81 240.65,-589.21"/>
<polygon fill="black" stroke="black" points="239.09,-592.35 249.57,-593.92 242.36,-586.16 239.09,-592.35"/>
</g>
<!-- magicneko_RU01 -->
<g id="node14" class="node">
<title>magicneko_RU01</title>
<polygon fill="none" stroke="black" points="335.5,-520 244.5,-520 244.5,-482 335.5,-482 335.5,-520"/>
<text text-anchor="middle" x="290" y="-504.8" font-family="Times,serif" font-size="14.00">M&#45;RU1</text>
<text text-anchor="middle" x="290" y="-489.8" font-family="Times,serif" font-size="14.00">(10.127.4.14)</text>
</g>
<!-- icecat_Notebook&#45;&gt;magicneko_RU01 -->
<g id="edge48" class="edge">
<title>icecat_Notebook&#45;&gt;magicneko_RU01</title>
<path fill="none" stroke="black" d="M199.17,-501C211.18,-501 223.1,-501 234.14,-501"/>
<polygon fill="black" stroke="black" points="234.43,-504.5 244.43,-501 234.43,-497.5 234.43,-504.5"/>
</g>
<!-- magicneko_JP03 -->
<g id="node15" class="node">
<title>magicneko_JP03</title>
<polygon fill="none" stroke="black" points="335.5,-688 244.5,-688 244.5,-650 335.5,-650 335.5,-688"/>
<text text-anchor="middle" x="290" y="-672.8" font-family="Times,serif" font-size="14.00">M&#45;JP3</text>
<text text-anchor="middle" x="290" y="-657.8" font-family="Times,serif" font-size="14.00">(10.127.4.15)</text>
</g>
<!-- icecat_Notebook&#45;&gt;magicneko_JP03 -->
<g id="edge47" class="edge">
<title>icecat_Notebook&#45;&gt;magicneko_JP03</title>
<path fill="none" stroke="black" d="M120.92,-527.65C145.15,-557.97 187.98,-607.6 233,-641 234.6,-642.19 236.27,-643.35 237.97,-644.49"/>
<polygon fill="black" stroke="black" points="236.41,-647.64 246.76,-649.91 240.09,-641.68 236.41,-647.64"/>
</g>
<!-- magicneko_CN01 -->
<g id="node16" class="node">
<title>magicneko_CN01</title>
<polygon fill="none" stroke="black" points="339,-352 241,-352 241,-314 339,-314 339,-352"/>
<text text-anchor="middle" x="290" y="-336.8" font-family="Times,serif" font-size="14.00">M&#45;CN1</text>
<text text-anchor="middle" x="290" y="-321.8" font-family="Times,serif" font-size="14.00">(10.127.4.101)</text>
</g>
<!-- icecat_Notebook&#45;&gt;magicneko_CN01 -->
<g id="edge49" class="edge">
<title>icecat_Notebook&#45;&gt;magicneko_CN01</title>
<path fill="none" stroke="black" d="M120.92,-474.35C145.15,-444.03 187.98,-394.4 233,-361 234.6,-359.81 236.27,-358.65 237.97,-357.51"/>
<polygon fill="black" stroke="black" points="240.09,-360.32 246.76,-352.09 236.41,-354.36 240.09,-360.32"/>
</g>
<!-- magicneko_HK01&#45;&gt;icecat_Explosion -->
<g id="edge16" class="edge">
<title>magicneko_HK01&#45;&gt;icecat_Explosion</title>
<path fill="none" stroke="black" d="M329.44,-408.06C334.73,-410.94 340.05,-413.96 345,-417 389.93,-444.58 438.88,-480.82 469.74,-504.5"/>
<polygon fill="black" stroke="black" points="467.88,-507.49 477.94,-510.83 472.16,-501.95 467.88,-507.49"/>
</g>
<!-- magicneko_HK02 -->
<g id="node10" class="node">
<title>magicneko_HK02</title>
<polygon fill="none" stroke="black" points="335.5,-744 244.5,-744 244.5,-706 335.5,-706 335.5,-744"/>
<text text-anchor="middle" x="290" y="-728.8" font-family="Times,serif" font-size="14.00">M&#45;HK2</text>
<text text-anchor="middle" x="290" y="-713.8" font-family="Times,serif" font-size="14.00">(10.127.4.10)</text>
</g>
<!-- magicneko_HK02&#45;&gt;ucbvax -->
<g id="edge13" class="edge">
<title>magicneko_HK02&#45;&gt;ucbvax</title>
<path fill="none" stroke="black" d="M291.74,-754.51C294.86,-808.75 309.99,-923.67 381,-978 421.53,-1009.01 562.67,-1009.86 648.76,-1007.23"/>
<polygon fill="black" stroke="black" points="295.22,-754.03 291.26,-744.21 288.23,-754.36 295.22,-754.03"/>
<polygon fill="black" stroke="black" points="649.09,-1010.72 658.97,-1006.9 648.86,-1003.73 649.09,-1010.72"/>
</g>
<!-- magicneko_HK02&#45;&gt;icecat_Explosion -->
<g id="edge17" class="edge">
<title>magicneko_HK02&#45;&gt;icecat_Explosion</title>
<path fill="none" stroke="black" d="M331.46,-706C336.18,-703.21 340.8,-700.2 345,-697 401.01,-654.39 454.07,-590.49 481.54,-555.04"/>
<polygon fill="black" stroke="black" points="484.33,-557.15 487.64,-547.09 478.77,-552.89 484.33,-557.15"/>
</g>
<!-- SUNNET -->
<g id="node27" class="node">
<title>SUNNET</title>
<polygon fill="none" stroke="black" points="557,-297.5 447,-297.5 447,-244.5 557,-244.5 557,-297.5"/>
<text text-anchor="middle" x="502" y="-282.3" font-family="Times,serif" font-size="14.00">SUNNET</text>
<text text-anchor="middle" x="502" y="-267.3" font-family="Times,serif" font-size="14.00">(10.127.11.0/24)</text>
<text text-anchor="middle" x="502" y="-252.3" font-family="Times,serif" font-size="14.00">(AS4242423088)</text>
</g>
<!-- magicneko_HK02&#45;&gt;SUNNET -->
<g id="edge40" class="edge">
<title>magicneko_HK02&#45;&gt;SUNNET</title>
<path fill="none" stroke="black" d="M343.03,-699.68C343.72,-698.81 344.38,-697.92 345,-697 394.16,-623.84 323.92,-369.16 381,-302 394.83,-285.73 415.98,-277.41 436.69,-273.33"/>
<polygon fill="black" stroke="black" points="340.56,-697.2 335.93,-706.73 345.49,-702.16 340.56,-697.2"/>
<polygon fill="black" stroke="black" points="437.49,-276.74 446.78,-271.65 436.34,-269.84 437.49,-276.74"/>
</g>
<!-- magicneko_JP01 -->
<g id="node11" class="node">
<title>magicneko_JP01</title>
<polygon fill="none" stroke="black" points="335.5,-576 244.5,-576 244.5,-538 335.5,-538 335.5,-576"/>
<text text-anchor="middle" x="290" y="-560.8" font-family="Times,serif" font-size="14.00">M&#45;JP1</text>
<text text-anchor="middle" x="290" y="-545.8" font-family="Times,serif" font-size="14.00">(10.127.4.11)</text>
</g>
<!-- magicneko_JP01&#45;&gt;icecat_Explosion -->
<g id="edge18" class="edge">
<title>magicneko_JP01&#45;&gt;icecat_Explosion</title>
<path fill="none" stroke="black" d="M335.54,-551.06C346.27,-549.63 358.29,-548.03 370.81,-546.36"/>
<polygon fill="black" stroke="black" points="371.49,-549.8 380.94,-545.01 370.57,-542.86 371.49,-549.8"/>
</g>
<!-- magicneko_HK03 -->
<g id="node12" class="node">
<title>magicneko_HK03</title>
<polygon fill="none" stroke="black" points="335.5,-464 244.5,-464 244.5,-426 335.5,-426 335.5,-464"/>
<text text-anchor="middle" x="290" y="-448.8" font-family="Times,serif" font-size="14.00">M&#45;HK3</text>
<text text-anchor="middle" x="290" y="-433.8" font-family="Times,serif" font-size="14.00">(10.127.4.12)</text>
</g>
<!-- magicneko_HK03&#45;&gt;icecat_Explosion -->
<g id="edge19" class="edge">
<title>magicneko_HK03&#45;&gt;icecat_Explosion</title>
<path fill="none" stroke="black" d="M335.54,-462.81C367.89,-475.76 411.86,-493.35 446.35,-507.14"/>
<polygon fill="black" stroke="black" points="445.22,-510.46 455.8,-510.92 447.82,-503.96 445.22,-510.46"/>
</g>
<!-- magicneko_JP02&#45;&gt;icecat_Explosion -->
<g id="edge20" class="edge">
<title>magicneko_JP02&#45;&gt;icecat_Explosion</title>
<path fill="none" stroke="black" d="M335.54,-595.19C367.89,-582.24 411.86,-564.65 446.35,-550.86"/>
<polygon fill="black" stroke="black" points="447.82,-554.04 455.8,-547.08 445.22,-547.54 447.82,-554.04"/>
</g>
<!-- magicneko_RU01&#45;&gt;icecat_Explosion -->
<g id="edge21" class="edge">
<title>magicneko_RU01&#45;&gt;icecat_Explosion</title>
<path fill="none" stroke="black" d="M335.54,-506.94C346.27,-508.37 358.29,-509.97 370.81,-511.64"/>
<polygon fill="black" stroke="black" points="370.57,-515.14 380.94,-512.99 371.49,-508.2 370.57,-515.14"/>
</g>
<!-- staph -->
<g id="node17" class="node">
<title>staph</title>
<polygon fill="none" stroke="black" points="557,-836.5 447,-836.5 447,-783.5 557,-783.5 557,-836.5"/>
<text text-anchor="middle" x="502" y="-821.3" font-family="Times,serif" font-size="14.00">s.aureus.ga</text>
<text text-anchor="middle" x="502" y="-806.3" font-family="Times,serif" font-size="14.00">(10.127.8.185)</text>
<text text-anchor="middle" x="502" y="-791.3" font-family="Times,serif" font-size="14.00">(AS4200078274)</text>
</g>
<!-- magicneko_RU01&#45;&gt;staph -->
<g id="edge38" class="edge">
<title>magicneko_RU01&#45;&gt;staph</title>
<path fill="none" stroke="black" d="M342.96,-526.37C343.68,-527.22 344.36,-528.1 345,-529 410.02,-620.51 306.1,-695.39 381,-779 395.19,-794.84 416.31,-803.07 436.89,-807.2"/>
<polygon fill="black" stroke="black" points="345.36,-523.82 335.73,-519.41 340.51,-528.86 345.36,-523.82"/>
<polygon fill="black" stroke="black" points="436.47,-810.68 446.92,-808.92 437.65,-803.78 436.47,-810.68"/>
</g>
<!-- magicneko_RU01&#45;&gt;septs -->
<g id="edge42" class="edge">
<title>magicneko_RU01&#45;&gt;septs</title>
<path fill="none" stroke="black" d="M342.95,-475.63C343.67,-474.78 344.35,-473.9 345,-473 407.27,-386.01 299.89,-304.76 381,-235 522.2,-113.55 762.69,-277.61 848.19,-343.65"/>
<polygon fill="black" stroke="black" points="340.5,-473.13 335.7,-482.57 345.35,-478.18 340.5,-473.13"/>
<polygon fill="black" stroke="black" points="846.17,-346.51 856.21,-349.91 850.48,-341 846.17,-346.51"/>
</g>
<!-- magicneko_JP03&#45;&gt;megumiLHS -->
<g id="edge43" class="edge">
<title>magicneko_JP03&#45;&gt;megumiLHS</title>
<path fill="none" stroke="black" d="M342.94,-694.39C343.66,-695.23 344.35,-696.1 345,-697 403.16,-777.21 314.76,-843.32 381,-917 392.53,-929.83 408.54,-937.86 425.11,-942.85"/>
<polygon fill="black" stroke="black" points="345.32,-691.82 335.66,-687.46 340.49,-696.89 345.32,-691.82"/>
<polygon fill="black" stroke="black" points="424.34,-946.27 434.91,-945.45 426.14,-939.5 424.34,-946.27"/>
</g>
<!-- magicneko_JP03&#45;&gt;icecat_Explosion -->
<g id="edge22" class="edge">
<title>magicneko_JP03&#45;&gt;icecat_Explosion</title>
<path fill="none" stroke="black" d="M329.44,-649.94C334.73,-647.06 340.05,-644.04 345,-641 389.93,-613.42 438.88,-577.18 469.74,-553.5"/>
<polygon fill="black" stroke="black" points="472.16,-556.05 477.94,-547.17 467.88,-550.51 472.16,-556.05"/>
</g>
<!-- magicneko_JP03&#45;&gt;chenx97 -->
<g id="edge37" class="edge">
<title>magicneko_JP03&#45;&gt;chenx97</title>
<path fill="none" stroke="black" d="M342.9,-694.42C343.63,-695.25 344.33,-696.11 345,-697 394.5,-762.95 319.82,-823.72 381,-879 411.68,-906.72 672.19,-919.2 803.9,-923.78"/>
<polygon fill="black" stroke="black" points="345.24,-691.81 335.53,-687.55 340.46,-696.93 345.24,-691.81"/>
<polygon fill="black" stroke="black" points="803.81,-927.28 813.93,-924.12 804.05,-920.28 803.81,-927.28"/>
</g>
<!-- JerryXiao -->
<g id="node20" class="node">
<title>JerryXiao</title>
<polygon fill="none" stroke="black" points="564.5,-74 439.5,-74 439.5,-36 564.5,-36 564.5,-74"/>
<text text-anchor="middle" x="502" y="-58.8" font-family="Times,serif" font-size="14.00">jpn.neo.jerryxiao.cc</text>
<text text-anchor="middle" x="502" y="-43.8" font-family="Times,serif" font-size="14.00">(10.127.8.193)</text>
</g>
<!-- magicneko_JP03&#45;&gt;JerryXiao -->
<g id="edge31" class="edge">
<title>magicneko_JP03&#45;&gt;JerryXiao</title>
<path fill="none" stroke="black" d="M343.04,-643.68C343.73,-642.82 344.39,-641.92 345,-641 399.22,-559.51 344.4,-292.78 381,-202 400.68,-153.2 442.51,-108.07 471.2,-81.03"/>
<polygon fill="black" stroke="black" points="340.56,-641.21 335.97,-650.75 345.51,-646.16 340.56,-641.21"/>
<polygon fill="black" stroke="black" points="473.59,-83.58 478.55,-74.22 468.83,-78.45 473.59,-83.58"/>
</g>
<!-- magicneko_JP03&#45;&gt;septs -->
<g id="edge34" class="edge">
<title>magicneko_JP03&#45;&gt;septs</title>
<path fill="none" stroke="black" d="M343.17,-694.82C343.81,-695.53 344.42,-696.25 345,-697 387.03,-750.62 327.47,-803.86 381,-846 415.66,-873.28 743.72,-873.76 778,-846 848.57,-788.87 872.14,-492.64 877.93,-398.06"/>
<polygon fill="black" stroke="black" points="345.36,-692.07 335.64,-687.86 340.61,-697.22 345.36,-692.07"/>
<polygon fill="black" stroke="black" points="881.42,-398.24 878.52,-388.05 874.43,-397.82 881.42,-398.24"/>
</g>
<!-- frank_hsinchu -->
<g id="node29" class="node">
<title>frank_hsinchu</title>
<polygon fill="none" stroke="black" points="1093,-318.5 983,-318.5 983,-265.5 1093,-265.5 1093,-318.5"/>
<text text-anchor="middle" x="1038" y="-303.3" font-family="Times,serif" font-size="14.00">Frank_Hsinchu</text>
<text text-anchor="middle" x="1038" y="-288.3" font-family="Times,serif" font-size="14.00">(10.127.255.56)</text>
<text text-anchor="middle" x="1038" y="-273.3" font-family="Times,serif" font-size="14.00">(AS4200005566)</text>
</g>
<!-- magicneko_JP03&#45;&gt;frank_hsinchu -->
<g id="edge44" class="edge">
<title>magicneko_JP03&#45;&gt;frank_hsinchu</title>
<path fill="none" stroke="black" d="M343.03,-643.68C343.73,-642.81 344.38,-641.92 345,-641 395.43,-565.76 314.18,-296.15 381,-235 547.8,-82.33 848.47,-199.61 976.56,-260.83"/>
<polygon fill="black" stroke="black" points="340.56,-641.2 335.94,-650.74 345.5,-646.16 340.56,-641.2"/>
<polygon fill="black" stroke="black" points="975.32,-264.12 985.85,-265.31 978.37,-257.81 975.32,-264.12"/>
</g>
<!-- magicneko_CN01&#45;&gt;icecat_Explosion -->
<g id="edge23" class="edge">
<title>magicneko_CN01&#45;&gt;icecat_Explosion</title>
<path fill="none" stroke="black" d="M331.46,-352C336.18,-354.79 340.8,-357.8 345,-361 401.01,-403.61 454.07,-467.51 481.54,-502.96"/>
<polygon fill="black" stroke="black" points="478.77,-505.11 487.64,-510.91 484.33,-500.85 478.77,-505.11"/>
</g>
<!-- staph_CN -->
<g id="node18" class="node">
<title>staph_CN</title>
<polygon fill="none" stroke="black" points="776.5,-765.5 660.5,-765.5 660.5,-712.5 776.5,-712.5 776.5,-765.5"/>
<text text-anchor="middle" x="718.5" y="-750.3" font-family="Times,serif" font-size="14.00">cnhome.aureus.ga</text>
<text text-anchor="middle" x="718.5" y="-735.3" font-family="Times,serif" font-size="14.00">(10.127.8.187)</text>
<text text-anchor="middle" x="718.5" y="-720.3" font-family="Times,serif" font-size="14.00">(AS4200078274)</text>
</g>
<!-- staph&#45;&gt;staph_CN -->
<g id="edge14" class="edge">
<title>staph&#45;&gt;staph_CN</title>
<path fill="none" stroke="black" d="M557.24,-799.33C580.28,-794.17 607.25,-787.28 631,-779 638.86,-776.26 646.97,-773.05 654.93,-769.67"/>
<polygon fill="black" stroke="black" points="656.42,-772.84 664.19,-765.63 653.62,-766.42 656.42,-772.84"/>
</g>
<!-- staph&#45;&gt;septs -->
<g id="edge35" class="edge">
<title>staph&#45;&gt;septs</title>
<path fill="none" stroke="black" d="M567.36,-806.63C589.74,-802.52 613.57,-794.46 631,-779 657.62,-755.39 642.9,-735.73 659,-704 720.48,-582.89 816.29,-451.84 858.42,-396.32"/>
<polygon fill="black" stroke="black" points="566.53,-803.22 557.21,-808.25 567.63,-810.13 566.53,-803.22"/>
<polygon fill="black" stroke="black" points="861.43,-398.15 864.7,-388.07 855.86,-393.9 861.43,-398.15"/>
</g>
<!-- santost12 -->
<g id="node28" class="node">
<title>santost12</title>
<polygon fill="none" stroke="black" points="773.5,-836.5 663.5,-836.5 663.5,-783.5 773.5,-783.5 773.5,-836.5"/>
<text text-anchor="middle" x="718.5" y="-821.3" font-family="Times,serif" font-size="14.00">Santost12</text>
<text text-anchor="middle" x="718.5" y="-806.3" font-family="Times,serif" font-size="14.00">(10.127.69.1)</text>
<text text-anchor="middle" x="718.5" y="-791.3" font-family="Times,serif" font-size="14.00">(AS4200006969)</text>
</g>
<!-- staph&#45;&gt;santost12 -->
<g id="edge41" class="edge">
<title>staph&#45;&gt;santost12</title>
<path fill="none" stroke="black" d="M567.29,-810C594.46,-810 626.04,-810 653.21,-810"/>
<polygon fill="black" stroke="black" points="567.13,-806.5 557.13,-810 567.13,-813.5 567.13,-806.5"/>
<polygon fill="black" stroke="black" points="653.39,-813.5 663.39,-810 653.39,-806.5 653.39,-813.5"/>
</g>
<!-- JerryXiao&#45;&gt;ucbvax -->
<g id="edge28" class="edge">
<title>JerryXiao&#45;&gt;ucbvax</title>
<path fill="none" stroke="black" d="M529.5,-81.5C560.35,-114.3 609.77,-173.41 631,-235 675.3,-363.5 631.97,-712.79 659,-846 668.5,-892.82 689.69,-944.21 703.79,-975.28"/>
<polygon fill="black" stroke="black" points="531.9,-78.94 522.47,-74.13 526.84,-83.78 531.9,-78.94"/>
<polygon fill="black" stroke="black" points="700.73,-977 708.09,-984.62 707.08,-974.08 700.73,-977"/>
</g>
<!-- JerryXiao_SH01 -->
<g id="node21" class="node">
<title>JerryXiao_SH01</title>
<polygon fill="none" stroke="black" points="767.5,-74 669.5,-74 669.5,-36 767.5,-36 767.5,-74"/>
<text text-anchor="middle" x="718.5" y="-58.8" font-family="Times,serif" font-size="14.00">jerryxiao&#45;sh01</text>
<text text-anchor="middle" x="718.5" y="-43.8" font-family="Times,serif" font-size="14.00">(10.127.8.195)</text>
</g>
<!-- JerryXiao&#45;&gt;JerryXiao_SH01 -->
<g id="edge24" class="edge">
<title>JerryXiao&#45;&gt;JerryXiao_SH01</title>
<path fill="none" stroke="black" d="M575.1,-55C602.53,-55 633.4,-55 659.37,-55"/>
<polygon fill="black" stroke="black" points="574.75,-51.5 564.75,-55 574.75,-58.5 574.75,-51.5"/>
<polygon fill="black" stroke="black" points="659.44,-58.5 669.44,-55 659.44,-51.5 659.44,-58.5"/>
</g>
<!-- JerryXiao_HK01 -->
<g id="node22" class="node">
<title>JerryXiao_HK01</title>
<polygon fill="none" stroke="black" points="929.5,-64 831.5,-64 831.5,-26 929.5,-26 929.5,-64"/>
<text text-anchor="middle" x="880.5" y="-48.8" font-family="Times,serif" font-size="14.00">jerryxiao&#45;hk01</text>
<text text-anchor="middle" x="880.5" y="-33.8" font-family="Times,serif" font-size="14.00">(10.127.8.194)</text>
</g>
<!-- JerryXiao&#45;&gt;JerryXiao_HK01 -->
<g id="edge25" class="edge">
<title>JerryXiao&#45;&gt;JerryXiao_HK01</title>
<path fill="none" stroke="black" d="M574.46,-39.43C600.88,-34.39 631.17,-29.48 659,-27 711.68,-22.31 725.31,-22.36 778,-27 792.13,-28.24 807.24,-30.44 821.37,-32.89"/>
<polygon fill="black" stroke="black" points="573.68,-36.01 564.53,-41.35 575.02,-42.88 573.68,-36.01"/>
<polygon fill="black" stroke="black" points="821,-36.37 831.46,-34.7 822.23,-29.48 821,-36.37"/>
</g>
<!-- JerryXiao&#45;&gt;septs -->
<g id="edge29" class="edge">
<title>JerryXiao&#45;&gt;septs</title>
<path fill="none" stroke="black" d="M574.61,-70.03C650.79,-86.56 762.48,-112.56 778,-126 811.9,-155.37 853.46,-282.48 871.03,-340.24"/>
<polygon fill="black" stroke="black" points="575.09,-66.55 564.58,-67.86 573.62,-73.4 575.09,-66.55"/>
<polygon fill="black" stroke="black" points="867.69,-341.29 873.92,-349.86 874.39,-339.27 867.69,-341.29"/>
</g>
<!-- JerryXiao_SH01&#45;&gt;JerryXiao_HK01 -->
<g id="edge26" class="edge">
<title>JerryXiao_SH01&#45;&gt;JerryXiao_HK01</title>
<path fill="none" stroke="black" d="M777.66,-51.36C791.82,-50.48 806.97,-49.53 821.14,-48.65"/>
<polygon fill="black" stroke="black" points="777.27,-47.88 767.51,-52 777.7,-54.87 777.27,-47.88"/>
<polygon fill="black" stroke="black" points="821.49,-52.13 831.25,-48.02 821.05,-45.15 821.49,-52.13"/>
</g>
<!-- dfceaef -->
<g id="node26" class="node">
<title>dfceaef</title>
<polygon fill="none" stroke="black" points="935.5,-166.5 825.5,-166.5 825.5,-113.5 935.5,-113.5 935.5,-166.5"/>
<text text-anchor="middle" x="880.5" y="-151.3" font-family="Times,serif" font-size="14.00">dfceaef</text>
<text text-anchor="middle" x="880.5" y="-136.3" font-family="Times,serif" font-size="14.00">(10.127.8.64/26)</text>
<text text-anchor="middle" x="880.5" y="-121.3" font-family="Times,serif" font-size="14.00">(AS4242420140)</text>
</g>
<!-- JerryXiao_SH01&#45;&gt;dfceaef -->
<g id="edge30" class="edge">
<title>JerryXiao_SH01&#45;&gt;dfceaef</title>
<path fill="none" stroke="black" d="M762.36,-79.08C767.64,-82.08 772.95,-85.1 778,-88 794.07,-97.22 797.61,-100.36 814,-109 814.8,-109.42 815.61,-109.85 816.43,-110.27"/>
<polygon fill="black" stroke="black" points="764,-75.99 753.57,-74.11 760.55,-82.08 764,-75.99"/>
<polygon fill="black" stroke="black" points="814.85,-113.39 825.35,-114.82 818.03,-107.16 814.85,-113.39"/>
</g>
<!-- JerryXiao_HK02 -->
<g id="node23" class="node">
<title>JerryXiao_HK02</title>
<polygon fill="none" stroke="black" points="1087,-64 989,-64 989,-26 1087,-26 1087,-64"/>
<text text-anchor="middle" x="1038" y="-48.8" font-family="Times,serif" font-size="14.00">jerryxiao&#45;hk02</text>
<text text-anchor="middle" x="1038" y="-33.8" font-family="Times,serif" font-size="14.00">(10.127.8.196)</text>
</g>
<!-- JerryXiao_HK01&#45;&gt;JerryXiao_HK02 -->
<g id="edge27" class="edge">
<title>JerryXiao_HK01&#45;&gt;JerryXiao_HK02</title>
<path fill="none" stroke="black" d="M940.22,-45C952.78,-45 966.05,-45 978.61,-45"/>
<polygon fill="black" stroke="black" points="939.85,-41.5 929.85,-45 939.85,-48.5 939.85,-41.5"/>
<polygon fill="black" stroke="black" points="978.95,-48.5 988.95,-45 978.95,-41.5 978.95,-48.5"/>
</g>
<!-- septs&#45;&gt;frank_hsinchu -->
<g id="edge45" class="edge">
<title>septs&#45;&gt;frank_hsinchu</title>
<path fill="none" stroke="black" d="M929.21,-345.38C943.42,-338.34 959.21,-330.52 974.23,-323.08"/>
<polygon fill="black" stroke="black" points="927.35,-342.39 919.94,-349.97 930.45,-348.67 927.35,-342.39"/>
<polygon fill="black" stroke="black" points="976.05,-326.09 983.46,-318.51 972.95,-319.81 976.05,-326.09"/>
</g>
<!-- lantian -->
<g id="node25" class="node">
<title>lantian</title>
<polygon fill="none" stroke="black" points="345,-116 235,-116 235,-78 345,-78 345,-116"/>
<text text-anchor="middle" x="290" y="-100.8" font-family="Times,serif" font-size="14.00">lantian</text>
<text text-anchor="middle" x="290" y="-85.8" font-family="Times,serif" font-size="14.00">(AS4200002547)</text>
</g>
<!-- lantian&#45;&gt;JerryXiao -->
<g id="edge33" class="edge">
<title>lantian&#45;&gt;JerryXiao</title>
<path fill="none" stroke="black" d="M355.11,-84.18C378.52,-79.5 405.14,-74.17 429.18,-69.36"/>
<polygon fill="black" stroke="black" points="354.2,-80.79 345.08,-86.18 355.57,-87.65 354.2,-80.79"/>
<polygon fill="black" stroke="black" points="430.18,-72.73 439.3,-67.34 428.81,-65.87 430.18,-72.73"/>
</g>
<!-- lantian&#45;&gt;septs -->
<g id="edge32" class="edge">
<title>lantian&#45;&gt;septs</title>
<path fill="none" stroke="black" d="M355.57,-108.28C471.52,-129.45 709.34,-177.33 778,-225 820.53,-254.53 851.2,-307.98 867.09,-340.79"/>
<polygon fill="black" stroke="black" points="355.87,-104.78 345.41,-106.44 354.62,-111.67 355.87,-104.78"/>
<polygon fill="black" stroke="black" points="863.94,-342.31 871.37,-349.87 870.27,-339.33 863.94,-342.31"/>
</g>
<!-- NNPCC -->
<g id="node30" class="node">
<title>NNPCC</title>
<polygon fill="none" stroke="black" points="130.5,-1183 68.5,-1183 68.5,-1147 130.5,-1147 130.5,-1183"/>
<text text-anchor="middle" x="99.5" y="-1161.3" font-family="Times,serif" font-size="14.00">NNPCC</text>
</g>
<!-- NNPCC&#45;&gt;np11 -->
<g id="edge1" class="edge">
<title>NNPCC&#45;&gt;np11</title>
<path fill="none" stroke="black" d="M140.5,-1160.14C159.47,-1156.37 181.71,-1149.72 199,-1138 219.75,-1123.94 214.62,-1110.04 233,-1093 234.09,-1091.99 235.2,-1091 236.35,-1090.01"/>
<polygon fill="black" stroke="black" points="139.86,-1156.7 130.63,-1161.9 141.09,-1163.59 139.86,-1156.7"/>
<polygon fill="black" stroke="black" points="238.59,-1092.7 244.2,-1083.71 234.21,-1087.24 238.59,-1092.7"/>
</g>
<!-- NeoBOX -->
<g id="node31" class="node">
<title>NeoBOX</title>
<polygon fill="none" stroke="black" points="133.5,-1129 65.5,-1129 65.5,-1093 133.5,-1093 133.5,-1129"/>
<text text-anchor="middle" x="99.5" y="-1107.3" font-family="Times,serif" font-size="14.00">NeoBOX</text>
</g>
<!-- NeoBOX&#45;&gt;np11 -->
<g id="edge2" class="edge">
<title>NeoBOX&#45;&gt;np11</title>
<path fill="none" stroke="black" d="M143.63,-1099.42C160.88,-1094.72 180.91,-1089.19 199,-1084 209.56,-1080.97 220.8,-1077.66 231.63,-1074.44"/>
<polygon fill="black" stroke="black" points="142.57,-1096.08 133.84,-1102.07 144.41,-1102.83 142.57,-1096.08"/>
<polygon fill="black" stroke="black" points="232.84,-1077.72 241.42,-1071.51 230.84,-1071.02 232.84,-1077.72"/>
</g>
<!-- cklvax -->
<g id="node32" class="node">
<title>cklvax</title>
<polygon fill="none" stroke="black" points="126.5,-1075 72.5,-1075 72.5,-1039 126.5,-1039 126.5,-1075"/>
<text text-anchor="middle" x="99.5" y="-1053.3" font-family="Times,serif" font-size="14.00">cklvax</text>
</g>
<!-- cklvax&#45;&gt;np11 -->
<g id="edge3" class="edge">
<title>cklvax&#45;&gt;np11</title>
<path fill="none" stroke="black" d="M137.05,-1057C163.72,-1057 200.43,-1057 231.08,-1057"/>
<polygon fill="black" stroke="black" points="136.71,-1053.5 126.71,-1057 136.71,-1060.5 136.71,-1053.5"/>
<polygon fill="black" stroke="black" points="231.22,-1060.5 241.22,-1057 231.22,-1053.5 231.22,-1060.5"/>
</g>
<!-- NeoStorage -->
<g id="node33" class="node">
<title>NeoStorage</title>
<polygon fill="none" stroke="black" points="139.5,-1021 59.5,-1021 59.5,-985 139.5,-985 139.5,-1021"/>
<text text-anchor="middle" x="99.5" y="-999.3" font-family="Times,serif" font-size="14.00">NeoStorage</text>
</g>
<!-- NeoStorage&#45;&gt;np11 -->
<g id="edge4" class="edge">
<title>NeoStorage&#45;&gt;np11</title>
<path fill="none" stroke="black" d="M149.91,-1016.3C165.62,-1020.59 183.06,-1025.43 199,-1030 209.56,-1033.03 220.8,-1036.34 231.63,-1039.56"/>
<polygon fill="black" stroke="black" points="150.43,-1012.81 139.86,-1013.56 148.59,-1019.56 150.43,-1012.81"/>
<polygon fill="black" stroke="black" points="230.84,-1042.98 241.42,-1042.49 232.84,-1036.28 230.84,-1042.98"/>
</g>
</g>
</svg>
