<?xml version="1.0" encoding="UTF-8" standalone="no"?>
<!DOCTYPE svg PUBLIC "-//W3C//DTD SVG 1.1//EN"
 "http://www.w3.org/Graphics/SVG/1.1/DTD/svg11.dtd">
<!-- Generated by graphviz version 2.40.1 (20161225.0304)
 -->
<!-- Title: NeoNetwork Nodes Pages: 1 -->
<svg width="1112pt" height="1253pt"
 viewBox="0.00 0.00 1112.00 1253.00" xmlns="http://www.w3.org/2000/svg" xmlns:xlink="http://www.w3.org/1999/xlink">
<g id="graph0" class="graph" transform="scale(1 1) rotate(0) translate(4 1249)">
<title>NeoNetwork Nodes</title>
<polygon fill="#ffffff" stroke="transparent" points="-4,4 -4,-1249 1108,-1249 1108,4 -4,4"/>
<text text-anchor="middle" x="552" y="-1229.8" font-family="Times,serif" font-size="14.00" fill="#000000">NeoNetwork Nodes</text>
<g id="clust1" class="cluster">
<title>cluster_AS4201048576</title>
<polygon fill="none" stroke="#000000" points="52,-977 52,-1214 950,-1214 950,-977 52,-977"/>
<text text-anchor="middle" x="501" y="-1198.8" font-family="Times,serif" font-size="14.00" fill="#000000">NeoNetwork (AS4201048576)</text>
</g>
<g id="clust2" class="cluster">
<title>cluster_AS4200012450</title>
<polygon fill="none" stroke="#000000" points="234,-306 234,-775 632,-775 632,-306 234,-306"/>
<text text-anchor="middle" x="433" y="-759.8" font-family="Times,serif" font-size="14.00" fill="#000000">MagicNeko Network Internet exchange (AS4200012450)</text>
</g>
<g id="clust3" class="cluster">
<title>cluster_AS4200066666</title>
<polygon fill="none" stroke="#000000" points="432.5,-8 432.5,-105 1096,-105 1096,-8 432.5,-8"/>
<text text-anchor="middle" x="764.25" y="-89.8" font-family="Times,serif" font-size="14.00" fill="#000000">Jerry Network (AS4200066666)</text>
</g>
<!-- c -->
<g id="node1" class="node">
<title>c</title>
<polygon fill="none" stroke="#000000" points="942,-1044 821,-1044 821,-1006 942,-1006 942,-1044"/>
<text text-anchor="middle" x="881.5" y="-1028.8" font-family="Times,serif" font-size="14.00" fill="#000000">caasih.neocloud.tw</text>
<text text-anchor="middle" x="881.5" y="-1013.8" font-family="Times,serif" font-size="14.00" fill="#000000">(10.127.0.1)</text>
</g>
<!-- ucbvax -->
<g id="node2" class="node">
<title>ucbvax</title>
<polygon fill="none" stroke="#000000" points="779,-1023 660,-1023 660,-985 779,-985 779,-1023"/>
<text text-anchor="middle" x="719.5" y="-1007.8" font-family="Times,serif" font-size="14.00" fill="#000000">router.neocloud.tw</text>
<text text-anchor="middle" x="719.5" y="-992.8" font-family="Times,serif" font-size="14.00" fill="#000000">(10.127.255.2)</text>
</g>
<!-- ucbvax&#45;&gt;c -->
<g id="edge8" class="edge">
<title>ucbvax&#45;&gt;c</title>
<path fill="none" stroke="#000000" d="M789.3107,-1013.0495C796.3533,-1013.9625 803.5109,-1014.8903 810.5652,-1015.8047"/>
<polygon fill="#000000" stroke="#000000" points="789.7295,-1009.5746 779.3626,-1011.76 788.8296,-1016.5165 789.7295,-1009.5746"/>
<polygon fill="#000000" stroke="#000000" points="810.4339,-1019.3169 820.8009,-1017.1316 811.3339,-1012.375 810.4339,-1019.3169"/>
</g>
<!-- chenx97 -->
<g id="node19" class="node">
<title>chenx97</title>
<polygon fill="none" stroke="#000000" points="948,-945 815,-945 815,-907 948,-907 948,-945"/>
<text text-anchor="middle" x="881.5" y="-929.8" font-family="Times,serif" font-size="14.00" fill="#000000">chenx97.neocloud.tw</text>
<text text-anchor="middle" x="881.5" y="-914.8" font-family="Times,serif" font-size="14.00" fill="#000000">(AS4201270003)</text>
</g>
<!-- ucbvax&#45;&gt;chenx97 -->
<g id="edge15" class="edge">
<title>ucbvax&#45;&gt;chenx97</title>
<path fill="none" stroke="#000000" d="M768.2655,-980.5203C788.7122,-970.6756 812.4334,-959.2543 832.8661,-949.4163"/>
<polygon fill="#000000" stroke="#000000" points="766.6213,-977.4273 759.1297,-984.9191 769.6581,-983.7344 766.6213,-977.4273"/>
<polygon fill="#000000" stroke="#000000" points="834.5074,-952.5107 841.999,-945.019 831.4706,-946.2037 834.5074,-952.5107"/>
</g>
<!-- septs -->
<g id="node24" class="node">
<title>septs</title>
<polygon fill="none" stroke="#000000" points="936.5,-388 826.5,-388 826.5,-350 936.5,-350 936.5,-388"/>
<text text-anchor="middle" x="881.5" y="-372.8" font-family="Times,serif" font-size="14.00" fill="#000000">bgp.septs.me</text>
<text text-anchor="middle" x="881.5" y="-357.8" font-family="Times,serif" font-size="14.00" fill="#000000">(AS4200055555)</text>
</g>
<!-- ucbvax&#45;&gt;septs -->
<g id="edge36" class="edge">
<title>ucbvax&#45;&gt;septs</title>
<path fill="none" stroke="#000000" d="M761.7822,-978.523C768.4155,-972.8485 774.5408,-966.3117 779,-959 837.8824,-862.4504 870.7102,-503.915 879.2428,-398.3952"/>
<polygon fill="#000000" stroke="#000000" points="759.5233,-975.8468 753.8314,-984.7829 763.8536,-981.3467 759.5233,-975.8468"/>
<polygon fill="#000000" stroke="#000000" points="882.7525,-398.4121 880.0575,-388.1658 875.7746,-397.8563 882.7525,-398.4121"/>
</g>
<!-- np11 -->
<g id="node3" class="node">
<title>np11</title>
<polygon fill="none" stroke="#000000" points="339.5,-1083.5 242.5,-1083.5 242.5,-1030.5 339.5,-1030.5 339.5,-1083.5"/>
<text text-anchor="middle" x="291" y="-1068.3" font-family="Times,serif" font-size="14.00" fill="#000000">NeoPDP&#45;11</text>
<text text-anchor="middle" x="291" y="-1053.3" font-family="Times,serif" font-size="14.00" fill="#000000">(10.127.255.1,</text>
<text text-anchor="middle" x="291" y="-1038.3" font-family="Times,serif" font-size="14.00" fill="#000000">10.127.1.1)</text>
</g>
<!-- np11&#45;&gt;c -->
<g id="edge7" class="edge">
<title>np11&#45;&gt;c</title>
<path fill="none" stroke="#000000" d="M339.5003,-1054.7889C427.2268,-1050.7286 618.1037,-1041.6146 779,-1032 789.2545,-1031.3872 800.0829,-1030.6959 810.7079,-1029.9923"/>
<polygon fill="#000000" stroke="#000000" points="811.0633,-1033.4764 820.8072,-1029.3162 810.5957,-1026.4921 811.0633,-1033.4764"/>
</g>
<!-- np11&#45;&gt;ucbvax -->
<g id="edge5" class="edge">
<title>np11&#45;&gt;ucbvax</title>
<path fill="none" stroke="#000000" d="M339.5505,-1047.863C353.2487,-1045.4486 368.1841,-1042.9698 382,-1041 474.2776,-1027.8436 581.3307,-1016.8231 649.6962,-1010.3197"/>
<polygon fill="#000000" stroke="#000000" points="650.2854,-1013.7797 659.9117,-1009.3542 649.6267,-1006.8107 650.2854,-1013.7797"/>
</g>
<!-- pan -->
<g id="node6" class="node">
<title>pan</title>
<polygon fill="none" stroke="#000000" points="552,-1103 454,-1103 454,-1065 552,-1065 552,-1103"/>
<text text-anchor="middle" x="503" y="-1087.8" font-family="Times,serif" font-size="14.00" fill="#000000">r2.neocloud.tw</text>
<text text-anchor="middle" x="503" y="-1072.8" font-family="Times,serif" font-size="14.00" fill="#000000">(10.127.3.1)</text>
</g>
<!-- np11&#45;&gt;pan -->
<g id="edge6" class="edge">
<title>np11&#45;&gt;pan</title>
<path fill="none" stroke="#000000" d="M339.6371,-1063.1943C370.6569,-1067.145 411.0555,-1072.2901 443.9173,-1076.4753"/>
<polygon fill="#000000" stroke="#000000" points="443.493,-1079.9495 453.8551,-1077.741 444.3774,-1073.0056 443.493,-1079.9495"/>
</g>
<!-- ns -->
<g id="node4" class="node">
<title>ns</title>
<polygon fill="none" stroke="#000000" points="343,-1140 239,-1140 239,-1102 343,-1102 343,-1140"/>
<text text-anchor="middle" x="291" y="-1124.8" font-family="Times,serif" font-size="14.00" fill="#000000">NeoSystem</text>
<text text-anchor="middle" x="291" y="-1109.8" font-family="Times,serif" font-size="14.00" fill="#000000">(10.127.255.80)</text>
</g>
<!-- ns&#45;&gt;ucbvax -->
<g id="edge9" class="edge">
<title>ns&#45;&gt;ucbvax</title>
<path fill="none" stroke="#000000" d="M343.2973,-1132.5258C413.114,-1145.139 538.7831,-1157.9675 632,-1112 666.1182,-1095.1755 691.3967,-1058.119 705.7848,-1032.1273"/>
<polygon fill="#000000" stroke="#000000" points="708.9759,-1033.5813 710.5892,-1023.11 702.798,-1030.2897 708.9759,-1033.5813"/>
</g>
<!-- ns&#45;&gt;pan -->
<g id="edge10" class="edge">
<title>ns&#45;&gt;pan</title>
<path fill="none" stroke="#000000" d="M343.1326,-1111.9014C373.6657,-1106.5725 412.3203,-1099.8262 443.9712,-1094.3022"/>
<polygon fill="#000000" stroke="#000000" points="444.7329,-1097.7223 453.9822,-1092.555 443.5293,-1090.8265 444.7329,-1097.7223"/>
</g>
<!-- megumiLHS -->
<g id="node5" class="node">
<title>megumiLHS</title>
<polygon fill="none" stroke="#000000" points="570,-969 436,-969 436,-931 570,-931 570,-969"/>
<text text-anchor="middle" x="503" y="-953.8" font-family="Times,serif" font-size="14.00" fill="#000000">megumi.yukipedia.cf</text>
<text text-anchor="middle" x="503" y="-938.8" font-family="Times,serif" font-size="14.00" fill="#000000">(AS4203223939)</text>
</g>
<!-- megumiLHS&#45;&gt;ucbvax -->
<g id="edge12" class="edge">
<title>megumiLHS&#45;&gt;ucbvax</title>
<path fill="none" stroke="#000000" d="M580.0886,-961.612C597.2913,-964.7936 615.3615,-968.6012 632,-973 641.2511,-975.4458 650.9179,-978.4247 660.3098,-981.5577"/>
<polygon fill="#000000" stroke="#000000" points="580.5393,-958.1369 570.0776,-959.8113 579.3,-965.0264 580.5393,-958.1369"/>
<polygon fill="#000000" stroke="#000000" points="659.3741,-984.9368 669.9687,-984.8627 661.6404,-978.3137 659.3741,-984.9368"/>
</g>
<!-- megumiLHS&#45;&gt;septs -->
<g id="edge39" class="edge">
<title>megumiLHS&#45;&gt;septs</title>
<path fill="none" stroke="#000000" d="M580.2229,-951.2276C642.613,-947.8648 728.1366,-932.6573 779,-879 845.9228,-808.4011 872.7971,-495.4769 879.635,-398.0543"/>
<polygon fill="#000000" stroke="#000000" points="579.8617,-947.7402 570.0282,-951.6837 580.1746,-954.7332 579.8617,-947.7402"/>
<polygon fill="#000000" stroke="#000000" points="883.1299,-398.2462 880.3206,-388.0306 876.1462,-397.7684 883.1299,-398.2462"/>
</g>
<!-- pan&#45;&gt;ucbvax -->
<g id="edge11" class="edge">
<title>pan&#45;&gt;ucbvax</title>
<path fill="none" stroke="#000000" d="M561.7061,-1062.3072C591.649,-1051.2429 628.0403,-1037.7957 658.3261,-1026.6047"/>
<polygon fill="#000000" stroke="#000000" points="560.2942,-1059.0976 552.1272,-1065.8468 562.7205,-1065.6636 560.2942,-1059.0976"/>
<polygon fill="#000000" stroke="#000000" points="659.7617,-1029.8056 667.9287,-1023.0564 657.3354,-1023.2395 659.7617,-1029.8056"/>
</g>
<!-- icecat_Explosion -->
<g id="node7" class="node">
<title>icecat_Explosion</title>
<polygon fill="none" stroke="#000000" points="624,-547 382,-547 382,-511 624,-511 624,-547"/>
<text text-anchor="middle" x="503" y="-525.3" font-family="Times,serif" font-size="14.00" fill="#000000">MagicNeko P2P network interconnection</text>
</g>
<!-- icecat_Notebook -->
<g id="node8" class="node">
<title>icecat_Notebook</title>
<polygon fill="none" stroke="#000000" points="200,-527.5 0,-527.5 0,-474.5 200,-474.5 200,-527.5"/>
<text text-anchor="middle" x="100" y="-512.3" font-family="Times,serif" font-size="14.00" fill="#000000">NextMoe Group Access Network</text>
<text text-anchor="middle" x="100" y="-497.3" font-family="Times,serif" font-size="14.00" fill="#000000">(AS4200012451)</text>
<text text-anchor="middle" x="100" y="-482.3" font-family="Times,serif" font-size="14.00" fill="#000000">(10.127.233.1)</text>
</g>
<!-- magicneko_HK01 -->
<g id="node9" class="node">
<title>magicneko_HK01</title>
<polygon fill="none" stroke="#000000" points="333,-408 249,-408 249,-370 333,-370 333,-408"/>
<text text-anchor="middle" x="291" y="-392.8" font-family="Times,serif" font-size="14.00" fill="#000000">M&#45;HK1</text>
<text text-anchor="middle" x="291" y="-377.8" font-family="Times,serif" font-size="14.00" fill="#000000">(10.127.4.1)</text>
</g>
<!-- icecat_Notebook&#45;&gt;magicneko_HK01 -->
<g id="edge46" class="edge">
<title>icecat_Notebook&#45;&gt;magicneko_HK01</title>
<path fill="none" stroke="#000000" d="M140.1,-474.3416C166.3884,-457.2468 201.7388,-434.9725 234,-417 236.5283,-415.5915 239.1374,-414.1775 241.7842,-412.7738"/>
<polygon fill="#000000" stroke="#000000" points="243.5992,-415.7753 250.8655,-408.0647 240.3768,-409.5611 243.5992,-415.7753"/>
</g>
<!-- magicneko_JP02 -->
<g id="node13" class="node">
<title>magicneko_JP02</title>
<polygon fill="none" stroke="#000000" points="336.5,-632 245.5,-632 245.5,-594 336.5,-594 336.5,-632"/>
<text text-anchor="middle" x="291" y="-616.8" font-family="Times,serif" font-size="14.00" fill="#000000">M&#45;JP2</text>
<text text-anchor="middle" x="291" y="-601.8" font-family="Times,serif" font-size="14.00" fill="#000000">(10.127.4.13)</text>
</g>
<!-- icecat_Notebook&#45;&gt;magicneko_JP02 -->
<g id="edge50" class="edge">
<title>icecat_Notebook&#45;&gt;magicneko_JP02</title>
<path fill="none" stroke="#000000" d="M140.1,-527.6584C166.3884,-544.7532 201.7388,-567.0275 234,-585 236.5283,-586.4085 239.1374,-587.8225 241.7842,-589.2262"/>
<polygon fill="#000000" stroke="#000000" points="240.3768,-592.4389 250.8655,-593.9353 243.5992,-586.2247 240.3768,-592.4389"/>
</g>
<!-- magicneko_RU01 -->
<g id="node14" class="node">
<title>magicneko_RU01</title>
<polygon fill="none" stroke="#000000" points="336.5,-520 245.5,-520 245.5,-482 336.5,-482 336.5,-520"/>
<text text-anchor="middle" x="291" y="-504.8" font-family="Times,serif" font-size="14.00" fill="#000000">M&#45;RU1</text>
<text text-anchor="middle" x="291" y="-489.8" font-family="Times,serif" font-size="14.00" fill="#000000">(10.127.4.14)</text>
</g>
<!-- icecat_Notebook&#45;&gt;magicneko_RU01 -->
<g id="edge48" class="edge">
<title>icecat_Notebook&#45;&gt;magicneko_RU01</title>
<path fill="none" stroke="#000000" d="M200.2546,-501C212.1306,-501 223.9083,-501 234.8507,-501"/>
<polygon fill="#000000" stroke="#000000" points="235.0619,-504.5001 245.0618,-501 235.0618,-497.5001 235.0619,-504.5001"/>
</g>
<!-- magicneko_JP03 -->
<g id="node15" class="node">
<title>magicneko_JP03</title>
<polygon fill="none" stroke="#000000" points="336.5,-688 245.5,-688 245.5,-650 336.5,-650 336.5,-688"/>
<text text-anchor="middle" x="291" y="-672.8" font-family="Times,serif" font-size="14.00" fill="#000000">M&#45;JP3</text>
<text text-anchor="middle" x="291" y="-657.8" font-family="Times,serif" font-size="14.00" fill="#000000">(10.127.4.15)</text>
</g>
<!-- icecat_Notebook&#45;&gt;magicneko_JP03 -->
<g id="edge47" class="edge">
<title>icecat_Notebook&#45;&gt;magicneko_JP03</title>
<path fill="none" stroke="#000000" d="M120.6678,-527.6907C145.1947,-558.0485 188.5285,-607.7101 234,-641 235.6347,-642.1967 237.3283,-643.3659 239.0641,-644.5054"/>
<polygon fill="#000000" stroke="#000000" points="237.652,-647.7428 248.0156,-649.9444 241.287,-641.7605 237.652,-647.7428"/>
</g>
<!-- magicneko_CN01 -->
<g id="node16" class="node">
<title>magicneko_CN01</title>
<polygon fill="none" stroke="#000000" points="340,-352 242,-352 242,-314 340,-314 340,-352"/>
<text text-anchor="middle" x="291" y="-336.8" font-family="Times,serif" font-size="14.00" fill="#000000">M&#45;CN1</text>
<text text-anchor="middle" x="291" y="-321.8" font-family="Times,serif" font-size="14.00" fill="#000000">(10.127.4.101)</text>
</g>
<!-- icecat_Notebook&#45;&gt;magicneko_CN01 -->
<g id="edge49" class="edge">
<title>icecat_Notebook&#45;&gt;magicneko_CN01</title>
<path fill="none" stroke="#000000" d="M120.6678,-474.3093C145.1947,-443.9515 188.5285,-394.2899 234,-361 235.6347,-359.8033 237.3283,-358.6341 239.0641,-357.4946"/>
<polygon fill="#000000" stroke="#000000" points="241.287,-360.2395 248.0156,-352.0556 237.652,-354.2572 241.287,-360.2395"/>
</g>
<!-- magicneko_HK01&#45;&gt;icecat_Explosion -->
<g id="edge16" class="edge">
<title>magicneko_HK01&#45;&gt;icecat_Explosion</title>
<path fill="none" stroke="#000000" d="M330.1565,-408.0254C335.5492,-410.908 340.9615,-413.9435 346,-417 391.3987,-444.5396 440.801,-480.9403 471.8239,-504.6545"/>
<polygon fill="#000000" stroke="#000000" points="470.0059,-507.6714 480.068,-510.9888 474.2708,-502.1207 470.0059,-507.6714"/>
</g>
<!-- magicneko_HK02 -->
<g id="node10" class="node">
<title>magicneko_HK02</title>
<polygon fill="none" stroke="#000000" points="336.5,-744 245.5,-744 245.5,-706 336.5,-706 336.5,-744"/>
<text text-anchor="middle" x="291" y="-728.8" font-family="Times,serif" font-size="14.00" fill="#000000">M&#45;HK2</text>
<text text-anchor="middle" x="291" y="-713.8" font-family="Times,serif" font-size="14.00" fill="#000000">(10.127.4.10)</text>
</g>
<!-- magicneko_HK02&#45;&gt;ucbvax -->
<g id="edge13" class="edge">
<title>magicneko_HK02&#45;&gt;ucbvax</title>
<path fill="none" stroke="#000000" d="M297.3128,-754.0967C311.0358,-814.4644 345.3133,-950.0409 382,-978 422.5771,-1008.924 563.3596,-1009.8608 649.7589,-1007.2619"/>
<polygon fill="#000000" stroke="#000000" points="300.6693,-753.0686 295.0672,-744.076 293.8387,-754.5993 300.6693,-753.0686"/>
<polygon fill="#000000" stroke="#000000" points="649.8747,-1010.7601 659.7562,-1006.9382 649.6482,-1003.7638 649.8747,-1010.7601"/>
</g>
<!-- magicneko_HK02&#45;&gt;icecat_Explosion -->
<g id="edge17" class="edge">
<title>magicneko_HK02&#45;&gt;icecat_Explosion</title>
<path fill="none" stroke="#000000" d="M332.4975,-705.8765C337.2005,-703.1308 341.8047,-700.1567 346,-697 402.4049,-654.5585 455.7935,-590.5957 483.4223,-555.0904"/>
<polygon fill="#000000" stroke="#000000" points="486.2281,-557.1834 489.5588,-547.1257 480.683,-552.9111 486.2281,-557.1834"/>
</g>
<!-- SUNNET -->
<g id="node27" class="node">
<title>SUNNET</title>
<polygon fill="none" stroke="#000000" points="558,-297.5 448,-297.5 448,-244.5 558,-244.5 558,-297.5"/>
<text text-anchor="middle" x="503" y="-282.3" font-family="Times,serif" font-size="14.00" fill="#000000">SUNNET</text>
<text text-anchor="middle" x="503" y="-267.3" font-family="Times,serif" font-size="14.00" fill="#000000">(10.127.11.0/24)</text>
<text text-anchor="middle" x="503" y="-252.3" font-family="Times,serif" font-size="14.00" fill="#000000">(AS4242423088)</text>
</g>
<!-- magicneko_HK02&#45;&gt;SUNNET -->
<g id="edge40" class="edge">
<title>magicneko_HK02&#45;&gt;SUNNET</title>
<path fill="none" stroke="#000000" d="M343.9892,-699.7073C344.6973,-698.8336 345.369,-697.9315 346,-697 395.433,-624.0252 324.8517,-369.1045 382,-302 395.835,-285.7547 416.9109,-277.4179 437.6175,-273.3101"/>
<polygon fill="#000000" stroke="#000000" points="341.4284,-697.3167 336.7535,-706.8244 346.3371,-702.3072 341.4284,-697.3167"/>
<polygon fill="#000000" stroke="#000000" points="438.4356,-276.7218 447.7196,-271.6171 437.2786,-269.8181 438.4356,-276.7218"/>
</g>
<!-- magicneko_JP01 -->
<g id="node11" class="node">
<title>magicneko_JP01</title>
<polygon fill="none" stroke="#000000" points="336.5,-576 245.5,-576 245.5,-538 336.5,-538 336.5,-576"/>
<text text-anchor="middle" x="291" y="-560.8" font-family="Times,serif" font-size="14.00" fill="#000000">M&#45;JP1</text>
<text text-anchor="middle" x="291" y="-545.8" font-family="Times,serif" font-size="14.00" fill="#000000">(10.127.4.11)</text>
</g>
<!-- magicneko_JP01&#45;&gt;icecat_Explosion -->
<g id="edge18" class="edge">
<title>magicneko_JP01&#45;&gt;icecat_Explosion</title>
<path fill="none" stroke="#000000" d="M336.7398,-550.9589C347.4011,-549.5508 359.2801,-547.9819 371.6484,-546.3483"/>
<polygon fill="#000000" stroke="#000000" points="372.2028,-549.8056 381.6584,-545.0262 371.2862,-542.8659 372.2028,-549.8056"/>
</g>
<!-- magicneko_HK03 -->
<g id="node12" class="node">
<title>magicneko_HK03</title>
<polygon fill="none" stroke="#000000" points="336.5,-464 245.5,-464 245.5,-426 336.5,-426 336.5,-464"/>
<text text-anchor="middle" x="291" y="-448.8" font-family="Times,serif" font-size="14.00" fill="#000000">M&#45;HK3</text>
<text text-anchor="middle" x="291" y="-433.8" font-family="Times,serif" font-size="14.00" fill="#000000">(10.127.4.12)</text>
</g>
<!-- magicneko_HK03&#45;&gt;icecat_Explosion -->
<g id="edge19" class="edge">
<title>magicneko_HK03&#45;&gt;icecat_Explosion</title>
<path fill="none" stroke="#000000" d="M336.7398,-463.1233C369.3397,-476.0403 413.3265,-493.469 447.8676,-507.1551"/>
<polygon fill="#000000" stroke="#000000" points="446.756,-510.4793 457.3421,-510.9091 449.3346,-503.9716 446.756,-510.4793"/>
</g>
<!-- magicneko_JP02&#45;&gt;icecat_Explosion -->
<g id="edge20" class="edge">
<title>magicneko_JP02&#45;&gt;icecat_Explosion</title>
<path fill="none" stroke="#000000" d="M336.7398,-594.8767C369.3397,-581.9597 413.3265,-564.531 447.8676,-550.8449"/>
<polygon fill="#000000" stroke="#000000" points="449.3346,-554.0284 457.3421,-547.0909 446.756,-547.5207 449.3346,-554.0284"/>
</g>
<!-- magicneko_RU01&#45;&gt;icecat_Explosion -->
<g id="edge21" class="edge">
<title>magicneko_RU01&#45;&gt;icecat_Explosion</title>
<path fill="none" stroke="#000000" d="M336.7398,-507.0411C347.4011,-508.4492 359.2801,-510.0181 371.6484,-511.6517"/>
<polygon fill="#000000" stroke="#000000" points="371.2862,-515.1341 381.6584,-512.9738 372.2028,-508.1944 371.2862,-515.1341"/>
</g>
<!-- staph -->
<g id="node17" class="node">
<title>staph</title>
<polygon fill="none" stroke="#000000" points="558,-836.5 448,-836.5 448,-783.5 558,-783.5 558,-836.5"/>
<text text-anchor="middle" x="503" y="-821.3" font-family="Times,serif" font-size="14.00" fill="#000000">s.aureus.ga</text>
<text text-anchor="middle" x="503" y="-806.3" font-family="Times,serif" font-size="14.00" fill="#000000">(10.127.8.185)</text>
<text text-anchor="middle" x="503" y="-791.3" font-family="Times,serif" font-size="14.00" fill="#000000">(AS4200078274)</text>
</g>
<!-- magicneko_RU01&#45;&gt;staph -->
<g id="edge38" class="edge">
<title>magicneko_RU01&#45;&gt;staph</title>
<path fill="none" stroke="#000000" d="M343.9228,-526.3389C344.6511,-527.1985 345.345,-528.0853 346,-529 411.3587,-620.2684 307.0133,-695.4615 382,-779 396.1914,-794.8098 417.2417,-803.0591 437.8228,-807.2192"/>
<polygon fill="#000000" stroke="#000000" points="346.2061,-523.6801 336.5518,-519.3161 341.3775,-528.7481 346.2061,-523.6801"/>
<polygon fill="#000000" stroke="#000000" points="437.4073,-810.6991 447.8565,-808.9482 438.5961,-803.8008 437.4073,-810.6991"/>
</g>
<!-- magicneko_RU01&#45;&gt;septs -->
<g id="edge42" class="edge">
<title>magicneko_RU01&#45;&gt;septs</title>
<path fill="none" stroke="#000000" d="M343.9139,-475.6546C344.6449,-474.797 345.3417,-473.9124 346,-473 408.5954,-386.2431 300.8932,-304.7612 382,-235 523.4691,-113.3204 764.4467,-277.5238 850.1256,-343.6272"/>
<polygon fill="#000000" stroke="#000000" points="341.3707,-473.2428 336.5246,-482.6643 346.1883,-478.3213 341.3707,-473.2428"/>
<polygon fill="#000000" stroke="#000000" points="848.1205,-346.5019 858.1589,-349.8904 852.4245,-340.9815 848.1205,-346.5019"/>
</g>
<!-- magicneko_JP03&#45;&gt;megumiLHS -->
<g id="edge43" class="edge">
<title>magicneko_JP03&#45;&gt;megumiLHS</title>
<path fill="none" stroke="#000000" d="M344.2184,-694.7318C344.8383,-695.4682 345.433,-696.2241 346,-697 404.4555,-776.9966 315.6792,-843.3926 382,-917 393.5138,-929.7788 409.4435,-937.8134 425.9674,-942.8148"/>
<polygon fill="#000000" stroke="#000000" points="346.3797,-691.9557 336.7352,-687.57 341.5397,-697.0128 346.3797,-691.9557"/>
<polygon fill="#000000" stroke="#000000" points="425.1719,-946.2249 435.7362,-945.4221 426.977,-939.4617 425.1719,-946.2249"/>
</g>
<!-- magicneko_JP03&#45;&gt;icecat_Explosion -->
<g id="edge22" class="edge">
<title>magicneko_JP03&#45;&gt;icecat_Explosion</title>
<path fill="none" stroke="#000000" d="M330.1565,-649.9746C335.5492,-647.092 340.9615,-644.0565 346,-641 391.3987,-613.4604 440.801,-577.0597 471.8239,-553.3455"/>
<polygon fill="#000000" stroke="#000000" points="474.2708,-555.8793 480.068,-547.0112 470.0059,-550.3286 474.2708,-555.8793"/>
</g>
<!-- magicneko_JP03&#45;&gt;chenx97 -->
<g id="edge37" class="edge">
<title>magicneko_JP03&#45;&gt;chenx97</title>
<path fill="none" stroke="#000000" d="M344.1828,-694.7583C344.8137,-695.4865 345.4203,-696.2336 346,-697 395.7431,-762.762 320.8131,-823.7264 382,-879 412.6698,-906.7058 672.4425,-919.1645 804.7327,-923.755"/>
<polygon fill="#000000" stroke="#000000" points="346.3013,-691.947 336.6118,-687.6617 341.5142,-697.0541 346.3013,-691.947"/>
<polygon fill="#000000" stroke="#000000" points="804.6928,-927.2556 814.8061,-924.0979 804.931,-920.2597 804.6928,-927.2556"/>
</g>
<!-- JerryXiao -->
<g id="node20" class="node">
<title>JerryXiao</title>
<polygon fill="none" stroke="#000000" points="565.5,-74 440.5,-74 440.5,-36 565.5,-36 565.5,-74"/>
<text text-anchor="middle" x="503" y="-58.8" font-family="Times,serif" font-size="14.00" fill="#000000">jpn.neo.jerryxiao.cc</text>
<text text-anchor="middle" x="503" y="-43.8" font-family="Times,serif" font-size="14.00" fill="#000000">(10.127.8.193)</text>
</g>
<!-- magicneko_JP03&#45;&gt;JerryXiao -->
<g id="edge31" class="edge">
<title>magicneko_JP03&#45;&gt;JerryXiao</title>
<path fill="none" stroke="#000000" d="M343.9505,-643.7777C344.6736,-642.8822 345.3583,-641.9566 346,-641 400.5284,-559.712 345.2161,-292.7085 382,-202 401.8408,-153.0729 444.0272,-107.9744 472.9511,-80.9738"/>
<polygon fill="#000000" stroke="#000000" points="341.2236,-641.5497 336.5356,-651.051 346.1254,-646.547 341.2236,-641.5497"/>
<polygon fill="#000000" stroke="#000000" points="475.3564,-83.5169 480.362,-74.1791 470.6258,-78.3573 475.3564,-83.5169"/>
</g>
<!-- magicneko_JP03&#45;&gt;septs -->
<g id="edge34" class="edge">
<title>magicneko_JP03&#45;&gt;septs</title>
<path fill="none" stroke="#000000" d="M344.1855,-694.8452C344.8133,-695.5461 345.4189,-696.2643 346,-697 388.2254,-750.464 328.4676,-803.8613 382,-846 416.661,-873.2838 744.6883,-873.7218 779,-846 849.6572,-788.913 873.8677,-492.6515 879.862,-398.062"/>
<polygon fill="#000000" stroke="#000000" points="346.4483,-692.1711 336.7179,-687.9794 341.7106,-697.3242 346.4483,-692.1711"/>
<polygon fill="#000000" stroke="#000000" points="883.3572,-398.245 880.4755,-388.0496 876.3703,-397.8168 883.3572,-398.245"/>
</g>
<!-- frank_hsinchu -->
<g id="node29" class="node">
<title>frank_hsinchu</title>
<polygon fill="none" stroke="#000000" points="1094,-318.5 984,-318.5 984,-265.5 1094,-265.5 1094,-318.5"/>
<text text-anchor="middle" x="1039" y="-303.3" font-family="Times,serif" font-size="14.00" fill="#000000">Frank_Hsinchu</text>
<text text-anchor="middle" x="1039" y="-288.3" font-family="Times,serif" font-size="14.00" fill="#000000">(10.127.255.56)</text>
<text text-anchor="middle" x="1039" y="-273.3" font-family="Times,serif" font-size="14.00" fill="#000000">(AS4200005566)</text>
</g>
<!-- magicneko_JP03&#45;&gt;frank_hsinchu -->
<g id="edge44" class="edge">
<title>magicneko_JP03&#45;&gt;frank_hsinchu</title>
<path fill="none" stroke="#000000" d="M343.9418,-643.7718C344.6675,-642.8781 345.3552,-641.9544 346,-641 396.7065,-565.9474 315.1844,-296.1532 382,-235 549.0558,-82.1016 850.1858,-199.5079 978.4714,-260.7937"/>
<polygon fill="#000000" stroke="#000000" points="341.2163,-641.5414 336.5093,-651.0333 346.1081,-646.5485 341.2163,-641.5414"/>
<polygon fill="#000000" stroke="#000000" points="977.2458,-264.0885 987.7729,-265.2841 980.2891,-257.7846 977.2458,-264.0885"/>
</g>
<!-- magicneko_CN01&#45;&gt;icecat_Explosion -->
<g id="edge23" class="edge">
<title>magicneko_CN01&#45;&gt;icecat_Explosion</title>
<path fill="none" stroke="#000000" d="M332.4975,-352.1235C337.2005,-354.8692 341.8047,-357.8433 346,-361 402.4049,-403.4415 455.7935,-467.4043 483.4223,-502.9096"/>
<polygon fill="#000000" stroke="#000000" points="480.683,-505.0889 489.5588,-510.8743 486.2281,-500.8166 480.683,-505.0889"/>
</g>
<!-- staph_CN -->
<g id="node18" class="node">
<title>staph_CN</title>
<polygon fill="none" stroke="#000000" points="777.5,-765.5 661.5,-765.5 661.5,-712.5 777.5,-712.5 777.5,-765.5"/>
<text text-anchor="middle" x="719.5" y="-750.3" font-family="Times,serif" font-size="14.00" fill="#000000">cnhome.aureus.ga</text>
<text text-anchor="middle" x="719.5" y="-735.3" font-family="Times,serif" font-size="14.00" fill="#000000">(10.127.8.187)</text>
<text text-anchor="middle" x="719.5" y="-720.3" font-family="Times,serif" font-size="14.00" fill="#000000">(AS4200078274)</text>
</g>
<!-- staph&#45;&gt;staph_CN -->
<g id="edge14" class="edge">
<title>staph&#45;&gt;staph_CN</title>
<path fill="none" stroke="#000000" d="M558.2797,-799.1759C581.3579,-794.0261 608.2671,-787.1904 632,-779 639.944,-776.2585 648.1451,-773.0496 656.1956,-769.6628"/>
<polygon fill="#000000" stroke="#000000" points="657.7591,-772.8002 665.5524,-765.6228 654.9842,-766.3736 657.7591,-772.8002"/>
</g>
<!-- staph&#45;&gt;septs -->
<g id="edge35" class="edge">
<title>staph&#45;&gt;septs</title>
<path fill="none" stroke="#000000" d="M568.4313,-806.6316C590.8154,-802.5037 614.5772,-794.4253 632,-779 658.64,-755.4143 643.8621,-735.7103 660,-704 721.6866,-582.7887 817.9692,-451.7956 860.3103,-396.3027"/>
<polygon fill="#000000" stroke="#000000" points="567.5903,-803.2217 558.2714,-808.2624 568.6997,-810.1333 567.5903,-803.2217"/>
<polygon fill="#000000" stroke="#000000" points="863.3242,-398.124 866.6291,-388.0578 857.7681,-393.8659 863.3242,-398.124"/>
</g>
<!-- santost12 -->
<g id="node28" class="node">
<title>santost12</title>
<polygon fill="none" stroke="#000000" points="774.5,-836.5 664.5,-836.5 664.5,-783.5 774.5,-783.5 774.5,-836.5"/>
<text text-anchor="middle" x="719.5" y="-821.3" font-family="Times,serif" font-size="14.00" fill="#000000">Santost12</text>
<text text-anchor="middle" x="719.5" y="-806.3" font-family="Times,serif" font-size="14.00" fill="#000000">(10.127.69.1)</text>
<text text-anchor="middle" x="719.5" y="-791.3" font-family="Times,serif" font-size="14.00" fill="#000000">(AS4200006969)</text>
</g>
<!-- staph&#45;&gt;santost12 -->
<g id="edge41" class="edge">
<title>staph&#45;&gt;santost12</title>
<path fill="none" stroke="#000000" d="M568.3625,-810C595.5499,-810 627.0427,-810 654.2213,-810"/>
<polygon fill="#000000" stroke="#000000" points="568.1923,-806.5001 558.1923,-810 568.1922,-813.5001 568.1923,-806.5001"/>
<polygon fill="#000000" stroke="#000000" points="654.4085,-813.5001 664.4085,-810 654.4085,-806.5001 654.4085,-813.5001"/>
</g>
<!-- JerryXiao&#45;&gt;ucbvax -->
<g id="edge28" class="edge">
<title>JerryXiao&#45;&gt;ucbvax</title>
<path fill="none" stroke="#000000" d="M529.7085,-81.4551C560.7957,-114.2174 610.6005,-173.2919 632,-235 676.5335,-363.4176 632.6005,-712.87 660,-846 669.6503,-892.8894 691.2051,-944.2593 705.5467,-975.3075"/>
<polygon fill="#000000" stroke="#000000" points="532.0759,-78.8678 522.617,-74.0951 527.035,-83.7248 532.0759,-78.8678"/>
<polygon fill="#000000" stroke="#000000" points="702.51,-977.0754 709.9254,-984.6426 708.8474,-974.1027 702.51,-977.0754"/>
</g>
<!-- JerryXiao_SH01 -->
<g id="node21" class="node">
<title>JerryXiao_SH01</title>
<polygon fill="none" stroke="#000000" points="768.5,-74 670.5,-74 670.5,-36 768.5,-36 768.5,-74"/>
<text text-anchor="middle" x="719.5" y="-58.8" font-family="Times,serif" font-size="14.00" fill="#000000">jerryxiao&#45;sh01</text>
<text text-anchor="middle" x="719.5" y="-43.8" font-family="Times,serif" font-size="14.00" fill="#000000">(10.127.8.195)</text>
</g>
<!-- JerryXiao&#45;&gt;JerryXiao_SH01 -->
<g id="edge24" class="edge">
<title>JerryXiao&#45;&gt;JerryXiao_SH01</title>
<path fill="none" stroke="#000000" d="M575.9818,-55C603.4333,-55 634.2819,-55 660.324,-55"/>
<polygon fill="#000000" stroke="#000000" points="575.6208,-51.5001 565.6208,-55 575.6207,-58.5001 575.6208,-51.5001"/>
<polygon fill="#000000" stroke="#000000" points="660.4215,-58.5001 670.4214,-55 660.4214,-51.5001 660.4215,-58.5001"/>
</g>
<!-- JerryXiao_HK01 -->
<g id="node22" class="node">
<title>JerryXiao_HK01</title>
<polygon fill="none" stroke="#000000" points="930.5,-64 832.5,-64 832.5,-26 930.5,-26 930.5,-64"/>
<text text-anchor="middle" x="881.5" y="-48.8" font-family="Times,serif" font-size="14.00" fill="#000000">jerryxiao&#45;hk01</text>
<text text-anchor="middle" x="881.5" y="-33.8" font-family="Times,serif" font-size="14.00" fill="#000000">(10.127.8.194)</text>
</g>
<!-- JerryXiao&#45;&gt;JerryXiao_HK01 -->
<g id="edge25" class="edge">
<title>JerryXiao&#45;&gt;JerryXiao_HK01</title>
<path fill="none" stroke="#000000" d="M575.6166,-39.2932C602.0459,-34.3081 632.2435,-29.4557 660,-27 712.6831,-22.3389 726.3108,-22.4088 779,-27 793.1217,-28.2305 808.2149,-30.3975 822.3578,-32.8113"/>
<polygon fill="#000000" stroke="#000000" points="574.8425,-35.8779 565.6847,-41.2056 576.1661,-42.7516 574.8425,-35.8779"/>
<polygon fill="#000000" stroke="#000000" points="822.003,-36.3029 832.4606,-34.6027 823.2253,-29.4104 822.003,-36.3029"/>
</g>
<!-- JerryXiao&#45;&gt;septs -->
<g id="edge29" class="edge">
<title>JerryXiao&#45;&gt;septs</title>
<path fill="none" stroke="#000000" d="M575.8557,-70.2414C652.2782,-86.7778 763.4698,-112.6051 779,-126 813.0166,-155.3394 855.1049,-282.463 872.907,-340.235"/>
<polygon fill="#000000" stroke="#000000" points="576.2969,-66.7563 565.7841,-68.0723 574.823,-73.5994 576.2969,-66.7563"/>
<polygon fill="#000000" stroke="#000000" points="869.5764,-341.3127 875.8439,-349.8549 876.2714,-339.2687 869.5764,-341.3127"/>
</g>
<!-- JerryXiao_SH01&#45;&gt;JerryXiao_HK01 -->
<g id="edge26" class="edge">
<title>JerryXiao_SH01&#45;&gt;JerryXiao_HK01</title>
<path fill="none" stroke="#000000" d="M778.7187,-51.3445C792.8956,-50.4694 808.0341,-49.5349 822.2141,-48.6596"/>
<polygon fill="#000000" stroke="#000000" points="778.3103,-47.863 768.545,-51.9725 778.7416,-54.8497 778.3103,-47.863"/>
<polygon fill="#000000" stroke="#000000" points="822.5771,-52.144 832.3424,-48.0344 822.1457,-45.1573 822.5771,-52.144"/>
</g>
<!-- dfceaef -->
<g id="node26" class="node">
<title>dfceaef</title>
<polygon fill="none" stroke="#000000" points="936.5,-166.5 826.5,-166.5 826.5,-113.5 936.5,-113.5 936.5,-166.5"/>
<text text-anchor="middle" x="881.5" y="-151.3" font-family="Times,serif" font-size="14.00" fill="#000000">dfceaef</text>
<text text-anchor="middle" x="881.5" y="-136.3" font-family="Times,serif" font-size="14.00" fill="#000000">(10.127.8.64/26)</text>
<text text-anchor="middle" x="881.5" y="-121.3" font-family="Times,serif" font-size="14.00" fill="#000000">(AS4242420140)</text>
</g>
<!-- JerryXiao_SH01&#45;&gt;dfceaef -->
<g id="edge30" class="edge">
<title>JerryXiao_SH01&#45;&gt;dfceaef</title>
<path fill="none" stroke="#000000" d="M763.1152,-79.0477C768.4752,-82.0449 773.8696,-85.0814 779,-88 795.1003,-97.1593 798.5883,-100.4111 815,-109 815.6772,-109.3544 816.3591,-109.7092 817.0452,-110.0642"/>
<polygon fill="#000000" stroke="#000000" points="764.6189,-75.8789 754.1799,-74.0685 761.2114,-81.9936 764.6189,-75.8789"/>
<polygon fill="#000000" stroke="#000000" points="815.6496,-113.2805 826.1525,-114.6732 818.8105,-107.0348 815.6496,-113.2805"/>
</g>
<!-- JerryXiao_HK02 -->
<g id="node23" class="node">
<title>JerryXiao_HK02</title>
<polygon fill="none" stroke="#000000" points="1088,-64 990,-64 990,-26 1088,-26 1088,-64"/>
<text text-anchor="middle" x="1039" y="-48.8" font-family="Times,serif" font-size="14.00" fill="#000000">jerryxiao&#45;hk02</text>
<text text-anchor="middle" x="1039" y="-33.8" font-family="Times,serif" font-size="14.00" fill="#000000">(10.127.8.196)</text>
</g>
<!-- JerryXiao_HK01&#45;&gt;JerryXiao_HK02 -->
<g id="edge27" class="edge">
<title>JerryXiao_HK01&#45;&gt;JerryXiao_HK02</title>
<path fill="none" stroke="#000000" d="M941.2382,-45C953.7536,-45 966.9504,-45 979.4586,-45"/>
<polygon fill="#000000" stroke="#000000" points="940.9019,-41.5001 930.9019,-45 940.9018,-48.5001 940.9019,-41.5001"/>
<polygon fill="#000000" stroke="#000000" points="979.7735,-48.5001 989.7734,-45 979.7734,-41.5001 979.7735,-48.5001"/>
</g>
<!-- septs&#45;&gt;frank_hsinchu -->
<g id="edge45" class="edge">
<title>septs&#45;&gt;frank_hsinchu</title>
<path fill="none" stroke="#000000" d="M929.8216,-345.3761C944.2153,-338.3392 960.2118,-330.5187 975.4232,-323.082"/>
<polygon fill="#000000" stroke="#000000" points="927.8792,-342.4298 920.4326,-349.9663 930.9537,-348.7185 927.8792,-342.4298"/>
<polygon fill="#000000" stroke="#000000" points="977.325,-326.0482 984.7716,-318.5117 974.2505,-319.7595 977.325,-326.0482"/>
</g>
<!-- lantian -->
<g id="node25" class="node">
<title>lantian</title>
<polygon fill="none" stroke="#000000" points="346,-116 236,-116 236,-78 346,-78 346,-116"/>
<text text-anchor="middle" x="291" y="-100.8" font-family="Times,serif" font-size="14.00" fill="#000000">lantian</text>
<text text-anchor="middle" x="291" y="-85.8" font-family="Times,serif" font-size="14.00" fill="#000000">(AS4200002547)</text>
</g>
<!-- lantian&#45;&gt;JerryXiao -->
<g id="edge33" class="edge">
<title>lantian&#45;&gt;JerryXiao</title>
<path fill="none" stroke="#000000" d="M356.1807,-84.0868C379.5857,-79.45 406.1245,-74.1923 430.14,-69.4345"/>
<polygon fill="#000000" stroke="#000000" points="355.2762,-80.6979 346.1471,-86.0746 356.6366,-87.5645 355.2762,-80.6979"/>
<polygon fill="#000000" stroke="#000000" points="431.1322,-72.8061 440.2613,-67.4294 429.7718,-65.9395 431.1322,-72.8061"/>
</g>
<!-- lantian&#45;&gt;septs -->
<g id="edge32" class="edge">
<title>lantian&#45;&gt;septs</title>
<path fill="none" stroke="#000000" d="M356.2122,-108.3944C472.5607,-129.644 710.1931,-177.4856 779,-225 821.7473,-254.519 852.7813,-307.968 868.9004,-340.7893"/>
<polygon fill="#000000" stroke="#000000" points="356.8197,-104.9476 346.3553,-106.6049 355.5692,-111.835 356.8197,-104.9476"/>
<polygon fill="#000000" stroke="#000000" points="865.7663,-342.3483 873.2348,-349.863 872.0826,-339.331 865.7663,-342.3483"/>
</g>
<!-- NNPCC -->
<g id="node30" class="node">
<title>NNPCC</title>
<polygon fill="none" stroke="#000000" points="131,-1183 69,-1183 69,-1147 131,-1147 131,-1183"/>
<text text-anchor="middle" x="100" y="-1161.3" font-family="Times,serif" font-size="14.00" fill="#000000">NNPCC</text>
</g>
<!-- NNPCC&#45;&gt;np11 -->
<g id="edge1" class="edge">
<title>NNPCC&#45;&gt;np11</title>
<path fill="none" stroke="#000000" d="M141.017,-1160.1725C160.1834,-1156.4195 182.5644,-1149.7685 200,-1138 220.7769,-1123.9762 215.5488,-1109.9675 234,-1093 235.1038,-1091.9849 236.24,-1090.9813 237.4024,-1089.9905"/>
<polygon fill="#000000" stroke="#000000" points="140.2839,-1156.7477 131.0419,-1161.9281 141.4973,-1163.6417 140.2839,-1156.7477"/>
<polygon fill="#000000" stroke="#000000" points="239.7331,-1092.6091 245.3922,-1083.6523 235.3827,-1087.1251 239.7331,-1092.6091"/>
</g>
<!-- NeoBOX -->
<g id="node31" class="node">
<title>NeoBOX</title>
<polygon fill="none" stroke="#000000" points="134,-1129 66,-1129 66,-1093 134,-1093 134,-1129"/>
<text text-anchor="middle" x="100" y="-1107.3" font-family="Times,serif" font-size="14.00" fill="#000000">NeoBOX</text>
</g>
<!-- NeoBOX&#45;&gt;np11 -->
<g id="edge2" class="edge">
<title>NeoBOX&#45;&gt;np11</title>
<path fill="none" stroke="#000000" d="M144.207,-1099.3161C161.6203,-1094.6479 181.7763,-1089.1629 200,-1084 210.5611,-1081.008 221.7871,-1077.7451 232.617,-1074.5548"/>
<polygon fill="#000000" stroke="#000000" points="143.0641,-1095.9986 134.3066,-1101.9616 144.8712,-1102.7613 143.0641,-1095.9986"/>
<polygon fill="#000000" stroke="#000000" points="233.8243,-1077.8476 242.4211,-1071.6552 231.839,-1071.1351 233.8243,-1077.8476"/>
</g>
<!-- cklvax -->
<g id="node32" class="node">
<title>cklvax</title>
<polygon fill="none" stroke="#000000" points="127,-1075 73,-1075 73,-1039 127,-1039 127,-1075"/>
<text text-anchor="middle" x="100" y="-1053.3" font-family="Times,serif" font-size="14.00" fill="#000000">cklvax</text>
</g>
<!-- cklvax&#45;&gt;np11 -->
<g id="edge3" class="edge">
<title>cklvax&#45;&gt;np11</title>
<path fill="none" stroke="#000000" d="M137.4156,-1057C164.3373,-1057 201.1892,-1057 232.0464,-1057"/>
<polygon fill="#000000" stroke="#000000" points="137.3657,-1053.5001 127.3656,-1057 137.3656,-1060.5001 137.3657,-1053.5001"/>
<polygon fill="#000000" stroke="#000000" points="232.2582,-1060.5001 242.2582,-1057 232.2581,-1053.5001 232.2582,-1060.5001"/>
</g>
<!-- NeoStorage -->
<g id="node33" class="node">
<title>NeoStorage</title>
<polygon fill="none" stroke="#000000" points="140,-1021 60,-1021 60,-985 140,-985 140,-1021"/>
<text text-anchor="middle" x="100" y="-999.3" font-family="Times,serif" font-size="14.00" fill="#000000">NeoStorage</text>
</g>
<!-- NeoStorage&#45;&gt;np11 -->
<g id="edge4" class="edge">
<title>NeoStorage&#45;&gt;np11</title>
<path fill="none" stroke="#000000" d="M150.1306,-1016.2751C166.0933,-1020.5718 183.8092,-1025.4131 200,-1030 210.5611,-1032.992 221.7871,-1036.2549 232.617,-1039.4452"/>
<polygon fill="#000000" stroke="#000000" points="151.0128,-1012.8881 140.4474,-1013.6773 149.1989,-1019.649 151.0128,-1012.8881"/>
<polygon fill="#000000" stroke="#000000" points="231.839,-1042.8649 242.4211,-1042.3448 233.8243,-1036.1524 231.839,-1042.8649"/>
</g>
</g>
</svg>
