<?xml version="1.0" encoding="UTF-8" standalone="no"?>
<!DOCTYPE svg PUBLIC "-//W3C//DTD SVG 1.1//EN"
 "http://www.w3.org/Graphics/SVG/1.1/DTD/svg11.dtd">
<!-- Generated by graphviz version 2.43.0 (0)
 -->
<!-- Title: NeoNetwork Nodes Pages: 1 -->
<svg width="1360pt" height="1253pt"
 viewBox="0.00 0.00 1359.50 1253.00" xmlns="http://www.w3.org/2000/svg" xmlns:xlink="http://www.w3.org/1999/xlink">
<g id="graph0" class="graph" transform="scale(1 1) rotate(0) translate(4 1249)">
<title>NeoNetwork Nodes</title>
<polygon fill="white" stroke="transparent" points="-4,4 -4,-1249 1355.5,-1249 1355.5,4 -4,4"/>
<text text-anchor="middle" x="675.75" y="-1229.8" font-family="Times,serif" font-size="14.00">NeoNetwork Nodes</text>
<g id="clust1" class="cluster">
<title>cluster_AS4201048576</title>
<polygon fill="none" stroke="black" points="68,-977 68,-1214 1170.5,-1214 1170.5,-977 68,-977"/>
<text text-anchor="middle" x="619.25" y="-1198.8" font-family="Times,serif" font-size="14.00">NeoNetwork (AS4201048576)</text>
</g>
<g id="clust2" class="cluster">
<title>cluster_AS4200012450</title>
<polygon fill="none" stroke="black" points="294,-306 294,-775 785,-775 785,-306 294,-306"/>
<text text-anchor="middle" x="539.5" y="-759.8" font-family="Times,serif" font-size="14.00">MagicNeko Network Internet exchange (AS4200012450)</text>
</g>
<g id="clust3" class="cluster">
<title>cluster_AS4200066666</title>
<polygon fill="none" stroke="black" points="533,-8 533,-105 1343.5,-105 1343.5,-8 533,-8"/>
<text text-anchor="middle" x="938.25" y="-89.8" font-family="Times,serif" font-size="14.00">Jerry Network (AS4200066666)</text>
</g>
<!-- c -->
<g id="node1" class="node">
<title>c</title>
<polygon fill="none" stroke="black" points="1162.5,-1044 1008.5,-1044 1008.5,-1006 1162.5,-1006 1162.5,-1044"/>
<text text-anchor="middle" x="1085.5" y="-1028.8" font-family="Times,serif" font-size="14.00">caasih.neocloud.tw</text>
<text text-anchor="middle" x="1085.5" y="-1013.8" font-family="Times,serif" font-size="14.00">(10.127.0.1)</text>
</g>
<!-- ucbvax -->
<g id="node2" class="node">
<title>ucbvax</title>
<polygon fill="none" stroke="black" points="965,-1023 813,-1023 813,-985 965,-985 965,-1023"/>
<text text-anchor="middle" x="889" y="-1007.8" font-family="Times,serif" font-size="14.00">router.neocloud.tw</text>
<text text-anchor="middle" x="889" y="-992.8" font-family="Times,serif" font-size="14.00">(10.127.255.2)</text>
</g>
<!-- ucbvax&#45;&gt;c -->
<g id="edge8" class="edge">
<title>ucbvax&#45;&gt;c</title>
<path fill="none" stroke="black" d="M975.21,-1013.2C982.85,-1014.02 990.59,-1014.86 998.23,-1015.69"/>
<polygon fill="black" stroke="black" points="975.52,-1009.71 965.2,-1012.12 974.77,-1016.67 975.52,-1009.71"/>
<polygon fill="black" stroke="black" points="997.9,-1019.17 1008.22,-1016.76 998.65,-1012.21 997.9,-1019.17"/>
</g>
<!-- chenx97 -->
<g id="node19" class="node">
<title>chenx97</title>
<polygon fill="none" stroke="black" points="1170,-945 1001,-945 1001,-907 1170,-907 1170,-945"/>
<text text-anchor="middle" x="1085.5" y="-929.8" font-family="Times,serif" font-size="14.00">chenx97.neocloud.tw</text>
<text text-anchor="middle" x="1085.5" y="-914.8" font-family="Times,serif" font-size="14.00">(AS4200114514)</text>
</g>
<!-- ucbvax&#45;&gt;chenx97 -->
<g id="edge15" class="edge">
<title>ucbvax&#45;&gt;chenx97</title>
<path fill="none" stroke="black" d="M947.05,-981.12C972.43,-970.94 1002.23,-958.99 1027.59,-948.82"/>
<polygon fill="black" stroke="black" points="945.56,-977.95 937.58,-984.92 948.16,-984.45 945.56,-977.95"/>
<polygon fill="black" stroke="black" points="1029.1,-951.99 1037.07,-945.02 1026.49,-945.49 1029.1,-951.99"/>
</g>
<!-- septs -->
<g id="node24" class="node">
<title>septs</title>
<polygon fill="none" stroke="black" points="1154,-388 1017,-388 1017,-350 1154,-350 1154,-388"/>
<text text-anchor="middle" x="1085.5" y="-372.8" font-family="Times,serif" font-size="14.00">bgp.septs.me</text>
<text text-anchor="middle" x="1085.5" y="-357.8" font-family="Times,serif" font-size="14.00">(AS4200055555)</text>
</g>
<!-- ucbvax&#45;&gt;septs -->
<g id="edge36" class="edge">
<title>ucbvax&#45;&gt;septs</title>
<path fill="none" stroke="black" d="M943.88,-979.38C951.94,-973.68 959.41,-966.92 965,-959 1030.67,-866.05 1071.09,-504.23 1081.7,-398.29"/>
<polygon fill="black" stroke="black" points="941.81,-976.55 935.33,-984.93 945.62,-982.42 941.81,-976.55"/>
<polygon fill="black" stroke="black" points="1085.21,-398.33 1082.71,-388.03 1078.25,-397.64 1085.21,-398.33"/>
</g>
<!-- np11 -->
<g id="node3" class="node">
<title>np11</title>
<polygon fill="none" stroke="black" points="419,-1083.5 298,-1083.5 298,-1030.5 419,-1030.5 419,-1083.5"/>
<text text-anchor="middle" x="358.5" y="-1068.3" font-family="Times,serif" font-size="14.00">NeoPDP&#45;11</text>
<text text-anchor="middle" x="358.5" y="-1053.3" font-family="Times,serif" font-size="14.00">(10.127.255.1,</text>
<text text-anchor="middle" x="358.5" y="-1038.3" font-family="Times,serif" font-size="14.00">10.127.1.1)</text>
</g>
<!-- np11&#45;&gt;c -->
<g id="edge7" class="edge">
<title>np11&#45;&gt;c</title>
<path fill="none" stroke="black" d="M419.25,-1054.88C527.9,-1050.93 765.08,-1041.98 965,-1032 975.73,-1031.46 986.99,-1030.86 998.14,-1030.24"/>
<polygon fill="black" stroke="black" points="998.55,-1033.72 1008.33,-1029.66 998.15,-1026.73 998.55,-1033.72"/>
</g>
<!-- np11&#45;&gt;ucbvax -->
<g id="edge5" class="edge">
<title>np11&#45;&gt;ucbvax</title>
<path fill="none" stroke="black" d="M419.06,-1047.1C433.42,-1044.9 448.74,-1042.72 463,-1041 580.47,-1026.82 716.84,-1015.93 802.77,-1009.75"/>
<polygon fill="black" stroke="black" points="803.27,-1013.22 812.99,-1009.01 802.77,-1006.24 803.27,-1013.22"/>
</g>
<!-- pan -->
<g id="node6" class="node">
<title>pan</title>
<polygon fill="none" stroke="black" points="682,-1103 558,-1103 558,-1065 682,-1065 682,-1103"/>
<text text-anchor="middle" x="620" y="-1087.8" font-family="Times,serif" font-size="14.00">r2.neocloud.tw</text>
<text text-anchor="middle" x="620" y="-1072.8" font-family="Times,serif" font-size="14.00">(10.127.3.1)</text>
</g>
<!-- np11&#45;&gt;pan -->
<g id="edge6" class="edge">
<title>np11&#45;&gt;pan</title>
<path fill="none" stroke="black" d="M419.03,-1063.19C457.38,-1067.18 507.44,-1072.39 547.88,-1076.6"/>
<polygon fill="black" stroke="black" points="547.63,-1080.09 557.94,-1077.65 548.36,-1073.13 547.63,-1080.09"/>
</g>
<!-- ns -->
<g id="node4" class="node">
<title>ns</title>
<polygon fill="none" stroke="black" points="424,-1140 293,-1140 293,-1102 424,-1102 424,-1140"/>
<text text-anchor="middle" x="358.5" y="-1124.8" font-family="Times,serif" font-size="14.00">NeoSystem</text>
<text text-anchor="middle" x="358.5" y="-1109.8" font-family="Times,serif" font-size="14.00">(10.127.255.80)</text>
</g>
<!-- ns&#45;&gt;ucbvax -->
<g id="edge9" class="edge">
<title>ns&#45;&gt;ucbvax</title>
<path fill="none" stroke="black" d="M424.06,-1134.4C510.4,-1149.12 666.34,-1164.3 785,-1112 822.7,-1095.38 853.31,-1057.74 871.09,-1031.6"/>
<polygon fill="black" stroke="black" points="874.03,-1033.5 876.62,-1023.22 868.19,-1029.64 874.03,-1033.5"/>
</g>
<!-- ns&#45;&gt;pan -->
<g id="edge10" class="edge">
<title>ns&#45;&gt;pan</title>
<path fill="none" stroke="black" d="M424.31,-1111.76C461.8,-1106.41 509.02,-1099.68 547.57,-1094.18"/>
<polygon fill="black" stroke="black" points="548.28,-1097.62 557.69,-1092.74 547.29,-1090.69 548.28,-1097.62"/>
</g>
<!-- megumiLHS -->
<g id="node5" class="node">
<title>megumiLHS</title>
<polygon fill="none" stroke="black" points="703.5,-969 536.5,-969 536.5,-931 703.5,-931 703.5,-969"/>
<text text-anchor="middle" x="620" y="-953.8" font-family="Times,serif" font-size="14.00">megumi.yukipedia.cf</text>
<text text-anchor="middle" x="620" y="-938.8" font-family="Times,serif" font-size="14.00">(AS4203223939)</text>
</g>
<!-- megumiLHS&#45;&gt;ucbvax -->
<g id="edge12" class="edge">
<title>megumiLHS&#45;&gt;ucbvax</title>
<path fill="none" stroke="black" d="M713.55,-960.46C736.98,-963.8 762.02,-967.96 785,-973 796.61,-975.55 808.82,-978.74 820.61,-982.11"/>
<polygon fill="black" stroke="black" points="714,-956.99 703.61,-959.08 713.03,-963.92 714,-956.99"/>
<polygon fill="black" stroke="black" points="819.81,-985.52 830.39,-984.97 821.78,-978.8 819.81,-985.52"/>
</g>
<!-- megumiLHS&#45;&gt;septs -->
<g id="edge39" class="edge">
<title>megumiLHS&#45;&gt;septs</title>
<path fill="none" stroke="black" d="M713.89,-956.39C791.24,-956.39 899.04,-943.23 965,-879 1035.18,-810.66 1071.87,-496.19 1081.73,-398.22"/>
<polygon fill="black" stroke="black" points="713.69,-952.88 703.66,-956.31 713.63,-959.88 713.69,-952.88"/>
<polygon fill="black" stroke="black" points="1085.23,-398.44 1082.73,-388.14 1078.26,-397.75 1085.23,-398.44"/>
</g>
<!-- pan&#45;&gt;ucbvax -->
<g id="edge11" class="edge">
<title>pan&#45;&gt;ucbvax</title>
<path fill="none" stroke="black" d="M691.94,-1062.75C729.68,-1051.44 776.05,-1037.54 814.22,-1026.11"/>
<polygon fill="black" stroke="black" points="690.83,-1059.42 682.26,-1065.65 692.84,-1066.13 690.83,-1059.42"/>
<polygon fill="black" stroke="black" points="815.67,-1029.33 824.24,-1023.1 813.66,-1022.62 815.67,-1029.33"/>
</g>
<!-- icecat_Explosion -->
<g id="node7" class="node">
<title>icecat_Explosion</title>
<polygon fill="none" stroke="black" points="777,-547 463,-547 463,-511 777,-511 777,-547"/>
<text text-anchor="middle" x="620" y="-525.3" font-family="Times,serif" font-size="14.00">MagicNeko P2P network interconnection</text>
</g>
<!-- icecat_Notebook -->
<g id="node8" class="node">
<title>icecat_Notebook</title>
<polygon fill="none" stroke="black" points="254,-527.5 0,-527.5 0,-474.5 254,-474.5 254,-527.5"/>
<text text-anchor="middle" x="127" y="-512.3" font-family="Times,serif" font-size="14.00">NextMoe Group Access Network</text>
<text text-anchor="middle" x="127" y="-497.3" font-family="Times,serif" font-size="14.00">(AS4200012451)</text>
<text text-anchor="middle" x="127" y="-482.3" font-family="Times,serif" font-size="14.00">(10.127.233.1)</text>
</g>
<!-- magicneko_HK01 -->
<g id="node9" class="node">
<title>magicneko_HK01</title>
<polygon fill="none" stroke="black" points="410.5,-408 306.5,-408 306.5,-370 410.5,-370 410.5,-408"/>
<text text-anchor="middle" x="358.5" y="-392.8" font-family="Times,serif" font-size="14.00">M&#45;HK1</text>
<text text-anchor="middle" x="358.5" y="-377.8" font-family="Times,serif" font-size="14.00">(10.127.4.1)</text>
</g>
<!-- icecat_Notebook&#45;&gt;magicneko_HK01 -->
<g id="edge46" class="edge">
<title>icecat_Notebook&#45;&gt;magicneko_HK01</title>
<path fill="none" stroke="black" d="M176.73,-474.35C208.62,-457.26 251.37,-434.99 290,-417 293.52,-415.36 297.17,-413.71 300.86,-412.08"/>
<polygon fill="black" stroke="black" points="302.29,-415.27 310.07,-408.08 299.5,-408.85 302.29,-415.27"/>
</g>
<!-- magicneko_JP02 -->
<g id="node13" class="node">
<title>magicneko_JP02</title>
<polygon fill="none" stroke="black" points="415,-632 302,-632 302,-594 415,-594 415,-632"/>
<text text-anchor="middle" x="358.5" y="-616.8" font-family="Times,serif" font-size="14.00">M&#45;JP2</text>
<text text-anchor="middle" x="358.5" y="-601.8" font-family="Times,serif" font-size="14.00">(10.127.4.13)</text>
</g>
<!-- icecat_Notebook&#45;&gt;magicneko_JP02 -->
<g id="edge50" class="edge">
<title>icecat_Notebook&#45;&gt;magicneko_JP02</title>
<path fill="none" stroke="black" d="M176.73,-527.65C208.62,-544.74 251.37,-567.01 290,-585 293.52,-586.64 297.17,-588.29 300.86,-589.92"/>
<polygon fill="black" stroke="black" points="299.5,-593.15 310.07,-593.92 302.29,-586.73 299.5,-593.15"/>
</g>
<!-- magicneko_RU01 -->
<g id="node14" class="node">
<title>magicneko_RU01</title>
<polygon fill="none" stroke="black" points="415,-520 302,-520 302,-482 415,-482 415,-520"/>
<text text-anchor="middle" x="358.5" y="-504.8" font-family="Times,serif" font-size="14.00">M&#45;RU1</text>
<text text-anchor="middle" x="358.5" y="-489.8" font-family="Times,serif" font-size="14.00">(10.127.4.14)</text>
</g>
<!-- icecat_Notebook&#45;&gt;magicneko_RU01 -->
<g id="edge48" class="edge">
<title>icecat_Notebook&#45;&gt;magicneko_RU01</title>
<path fill="none" stroke="black" d="M254.16,-501C267.05,-501 279.75,-501 291.59,-501"/>
<polygon fill="black" stroke="black" points="291.76,-504.5 301.76,-501 291.76,-497.5 291.76,-504.5"/>
</g>
<!-- magicneko_JP03 -->
<g id="node15" class="node">
<title>magicneko_JP03</title>
<polygon fill="none" stroke="black" points="415,-688 302,-688 302,-650 415,-650 415,-688"/>
<text text-anchor="middle" x="358.5" y="-672.8" font-family="Times,serif" font-size="14.00">M&#45;JP3</text>
<text text-anchor="middle" x="358.5" y="-657.8" font-family="Times,serif" font-size="14.00">(10.127.4.15)</text>
</g>
<!-- icecat_Notebook&#45;&gt;magicneko_JP03 -->
<g id="edge47" class="edge">
<title>icecat_Notebook&#45;&gt;magicneko_JP03</title>
<path fill="none" stroke="black" d="M153.43,-527.63C183.7,-558.16 236.86,-608.2 290,-641 292.43,-642.5 294.95,-643.95 297.54,-645.35"/>
<polygon fill="black" stroke="black" points="295.99,-648.5 306.49,-649.92 299.17,-642.26 295.99,-648.5"/>
</g>
<!-- magicneko_CN01 -->
<g id="node16" class="node">
<title>magicneko_CN01</title>
<polygon fill="none" stroke="black" points="415,-352 302,-352 302,-314 415,-314 415,-352"/>
<text text-anchor="middle" x="358.5" y="-336.8" font-family="Times,serif" font-size="14.00">M&#45;JP3</text>
<text text-anchor="middle" x="358.5" y="-321.8" font-family="Times,serif" font-size="14.00">(10.127.4.15)</text>
</g>
<!-- icecat_Notebook&#45;&gt;magicneko_CN01 -->
<g id="edge49" class="edge">
<title>icecat_Notebook&#45;&gt;magicneko_CN01</title>
<path fill="none" stroke="black" d="M153.43,-474.37C183.7,-443.84 236.86,-393.8 290,-361 292.43,-359.5 294.95,-358.05 297.54,-356.65"/>
<polygon fill="black" stroke="black" points="299.17,-359.74 306.49,-352.08 295.99,-353.5 299.17,-359.74"/>
</g>
<!-- magicneko_HK01&#45;&gt;icecat_Explosion -->
<g id="edge16" class="edge">
<title>magicneko_HK01&#45;&gt;icecat_Explosion</title>
<path fill="none" stroke="black" d="M407.79,-408.1C414.31,-410.95 420.86,-413.95 427,-417 482.52,-444.55 543.96,-481.62 582.03,-505.42"/>
<polygon fill="black" stroke="black" points="580.39,-508.52 590.72,-510.87 584.11,-502.59 580.39,-508.52"/>
</g>
<!-- magicneko_HK02 -->
<g id="node10" class="node">
<title>magicneko_HK02</title>
<polygon fill="none" stroke="black" points="415,-744 302,-744 302,-706 415,-706 415,-744"/>
<text text-anchor="middle" x="358.5" y="-728.8" font-family="Times,serif" font-size="14.00">M&#45;HK2</text>
<text text-anchor="middle" x="358.5" y="-713.8" font-family="Times,serif" font-size="14.00">(10.127.4.10)</text>
</g>
<!-- magicneko_HK02&#45;&gt;ucbvax -->
<g id="edge13" class="edge">
<title>magicneko_HK02&#45;&gt;ucbvax</title>
<path fill="none" stroke="black" d="M361.72,-754.02C367.61,-808.36 388.68,-924.74 463,-978 489.83,-997.23 686.1,-1002.28 802.32,-1003.58"/>
<polygon fill="black" stroke="black" points="365.2,-753.63 360.74,-744.02 358.24,-754.31 365.2,-753.63"/>
<polygon fill="black" stroke="black" points="802.58,-1007.08 812.61,-1003.69 802.65,-1000.08 802.58,-1007.08"/>
</g>
<!-- magicneko_HK02&#45;&gt;icecat_Explosion -->
<g id="edge17" class="edge">
<title>magicneko_HK02&#45;&gt;icecat_Explosion</title>
<path fill="none" stroke="black" d="M410.53,-705.95C416.22,-703.21 421.83,-700.21 427,-697 493.98,-655.38 560.66,-590.4 595.06,-554.67"/>
<polygon fill="black" stroke="black" points="597.92,-556.74 602.3,-547.09 592.86,-551.91 597.92,-556.74"/>
</g>
<!-- SUNNET -->
<g id="node27" class="node">
<title>SUNNET</title>
<polygon fill="none" stroke="black" points="688.5,-297.5 551.5,-297.5 551.5,-244.5 688.5,-244.5 688.5,-297.5"/>
<text text-anchor="middle" x="620" y="-282.3" font-family="Times,serif" font-size="14.00">SUNNET</text>
<text text-anchor="middle" x="620" y="-267.3" font-family="Times,serif" font-size="14.00">(10.127.11.0/24)</text>
<text text-anchor="middle" x="620" y="-252.3" font-family="Times,serif" font-size="14.00">(AS4242423088)</text>
</g>
<!-- magicneko_HK02&#45;&gt;SUNNET -->
<g id="edge40" class="edge">
<title>magicneko_HK02&#45;&gt;SUNNET</title>
<path fill="none" stroke="black" d="M423.04,-701.66C424.46,-700.2 425.79,-698.65 427,-697 479.23,-626 404.04,-367.52 463,-302 482.58,-280.24 512.69,-271.19 541.26,-268.05"/>
<polygon fill="black" stroke="black" points="420.62,-699.12 415.21,-708.23 425.12,-704.48 420.62,-699.12"/>
<polygon fill="black" stroke="black" points="541.62,-271.53 551.28,-267.17 541.01,-264.56 541.62,-271.53"/>
</g>
<!-- magicneko_JP01 -->
<g id="node11" class="node">
<title>magicneko_JP01</title>
<polygon fill="none" stroke="black" points="415,-576 302,-576 302,-538 415,-538 415,-576"/>
<text text-anchor="middle" x="358.5" y="-560.8" font-family="Times,serif" font-size="14.00">M&#45;JP1</text>
<text text-anchor="middle" x="358.5" y="-545.8" font-family="Times,serif" font-size="14.00">(10.127.4.11)</text>
</g>
<!-- magicneko_JP01&#45;&gt;icecat_Explosion -->
<g id="edge18" class="edge">
<title>magicneko_JP01&#45;&gt;icecat_Explosion</title>
<path fill="none" stroke="black" d="M415.17,-550.99C426.68,-549.75 439.36,-548.38 452.6,-546.95"/>
<polygon fill="black" stroke="black" points="453.25,-550.4 462.82,-545.85 452.5,-543.45 453.25,-550.4"/>
</g>
<!-- magicneko_HK03 -->
<g id="node12" class="node">
<title>magicneko_HK03</title>
<polygon fill="none" stroke="black" points="415,-464 302,-464 302,-426 415,-426 415,-464"/>
<text text-anchor="middle" x="358.5" y="-448.8" font-family="Times,serif" font-size="14.00">M&#45;HK3</text>
<text text-anchor="middle" x="358.5" y="-433.8" font-family="Times,serif" font-size="14.00">(10.127.4.12)</text>
</g>
<!-- magicneko_HK03&#45;&gt;icecat_Explosion -->
<g id="edge19" class="edge">
<title>magicneko_HK03&#45;&gt;icecat_Explosion</title>
<path fill="none" stroke="black" d="M415.17,-463.02C455.65,-476.12 510.6,-493.91 553.25,-507.72"/>
<polygon fill="black" stroke="black" points="552.38,-511.12 562.98,-510.86 554.54,-504.46 552.38,-511.12"/>
</g>
<!-- magicneko_JP02&#45;&gt;icecat_Explosion -->
<g id="edge20" class="edge">
<title>magicneko_JP02&#45;&gt;icecat_Explosion</title>
<path fill="none" stroke="black" d="M415.17,-594.98C455.65,-581.88 510.6,-564.09 553.25,-550.28"/>
<polygon fill="black" stroke="black" points="554.54,-553.54 562.98,-547.14 552.38,-546.88 554.54,-553.54"/>
</g>
<!-- magicneko_RU01&#45;&gt;icecat_Explosion -->
<g id="edge21" class="edge">
<title>magicneko_RU01&#45;&gt;icecat_Explosion</title>
<path fill="none" stroke="black" d="M415.17,-507.01C426.68,-508.25 439.36,-509.62 452.6,-511.05"/>
<polygon fill="black" stroke="black" points="452.5,-514.55 462.82,-512.15 453.25,-507.6 452.5,-514.55"/>
</g>
<!-- staph -->
<g id="node17" class="node">
<title>staph</title>
<polygon fill="none" stroke="black" points="688.5,-836.5 551.5,-836.5 551.5,-783.5 688.5,-783.5 688.5,-836.5"/>
<text text-anchor="middle" x="620" y="-821.3" font-family="Times,serif" font-size="14.00">s.aureus.ga</text>
<text text-anchor="middle" x="620" y="-806.3" font-family="Times,serif" font-size="14.00">(10.127.8.185)</text>
<text text-anchor="middle" x="620" y="-791.3" font-family="Times,serif" font-size="14.00">(AS4200078274)</text>
</g>
<!-- magicneko_RU01&#45;&gt;staph -->
<g id="edge38" class="edge">
<title>magicneko_RU01&#45;&gt;staph</title>
<path fill="none" stroke="black" d="M423.03,-524.53C424.44,-525.93 425.77,-527.42 427,-529 495.85,-617.66 385.76,-697.54 463,-779 482.97,-800.06 512.83,-809.05 541.1,-812.34"/>
<polygon fill="black" stroke="black" points="425.24,-521.81 415.29,-518.16 420.79,-527.22 425.24,-521.81"/>
<polygon fill="black" stroke="black" points="541.14,-815.85 551.42,-813.3 541.79,-808.88 541.14,-815.85"/>
</g>
<!-- magicneko_RU01&#45;&gt;septs -->
<g id="edge42" class="edge">
<title>magicneko_RU01&#45;&gt;septs</title>
<path fill="none" stroke="black" d="M423.01,-477.46C424.43,-476.06 425.77,-474.57 427,-473 492.92,-388.74 381.89,-304.76 463,-235 639.65,-83.06 947.57,-272.81 1050.15,-344.05"/>
<polygon fill="black" stroke="black" points="420.78,-474.77 415.26,-483.81 425.22,-480.18 420.78,-474.77"/>
<polygon fill="black" stroke="black" points="1048.39,-347.1 1058.59,-349.97 1052.41,-341.36 1048.39,-347.1"/>
</g>
<!-- magicneko_JP03&#45;&gt;megumiLHS -->
<g id="edge43" class="edge">
<title>magicneko_JP03&#45;&gt;megumiLHS</title>
<path fill="none" stroke="black" d="M422.99,-692.56C424.42,-693.95 425.76,-695.43 427,-697 488.52,-774.67 394.58,-845.34 463,-917 479.56,-934.34 502.77,-943.73 526.24,-948.56"/>
<polygon fill="black" stroke="black" points="425.18,-689.83 415.21,-686.23 420.76,-695.26 425.18,-689.83"/>
<polygon fill="black" stroke="black" points="525.84,-952.04 536.3,-950.35 527.07,-945.15 525.84,-952.04"/>
</g>
<!-- magicneko_JP03&#45;&gt;icecat_Explosion -->
<g id="edge22" class="edge">
<title>magicneko_JP03&#45;&gt;icecat_Explosion</title>
<path fill="none" stroke="black" d="M407.79,-649.9C414.31,-647.05 420.86,-644.05 427,-641 482.52,-613.45 543.96,-576.38 582.03,-552.58"/>
<polygon fill="black" stroke="black" points="584.11,-555.41 590.72,-547.13 580.39,-549.48 584.11,-555.41"/>
</g>
<!-- magicneko_JP03&#45;&gt;chenx97 -->
<g id="edge37" class="edge">
<title>magicneko_JP03&#45;&gt;chenx97</title>
<path fill="none" stroke="black" d="M422.92,-692.61C424.37,-693.99 425.73,-695.45 427,-697 479.26,-760.78 401.31,-824.29 463,-879 501.56,-913.2 826.92,-922.52 990.86,-925.06"/>
<polygon fill="black" stroke="black" points="425.07,-689.85 415.07,-686.35 420.7,-695.32 425.07,-689.85"/>
<polygon fill="black" stroke="black" points="990.89,-928.56 1000.94,-925.21 991,-921.56 990.89,-928.56"/>
</g>
<!-- JerryXiao -->
<g id="node20" class="node">
<title>JerryXiao</title>
<polygon fill="none" stroke="black" points="699,-74 541,-74 541,-36 699,-36 699,-74"/>
<text text-anchor="middle" x="620" y="-58.8" font-family="Times,serif" font-size="14.00">jpn.neo.jerryxiao.cc</text>
<text text-anchor="middle" x="620" y="-43.8" font-family="Times,serif" font-size="14.00">(10.127.8.193)</text>
</g>
<!-- magicneko_JP03&#45;&gt;JerryXiao -->
<g id="edge31" class="edge">
<title>magicneko_JP03&#45;&gt;JerryXiao</title>
<path fill="none" stroke="black" d="M423.06,-645.67C424.47,-644.21 425.8,-642.65 427,-641 484.64,-561.89 420.56,-290.2 463,-202 488.47,-149.07 541.84,-105.52 579.02,-79.92"/>
<polygon fill="black" stroke="black" points="420.64,-643.14 415.25,-652.26 425.15,-648.49 420.64,-643.14"/>
<polygon fill="black" stroke="black" points="581.29,-82.6 587.63,-74.11 577.38,-76.8 581.29,-82.6"/>
</g>
<!-- magicneko_JP03&#45;&gt;septs -->
<g id="edge34" class="edge">
<title>magicneko_JP03&#45;&gt;septs</title>
<path fill="none" stroke="black" d="M423.3,-693.11C424.6,-694.35 425.84,-695.64 427,-697 471.27,-748.78 409.47,-803.86 463,-846 506.83,-880.5 921.03,-880.32 965,-846 1037.18,-789.67 1072.29,-492.9 1081.79,-398.12"/>
<polygon fill="black" stroke="black" points="425.22,-690.17 415.21,-686.71 420.88,-695.66 425.22,-690.17"/>
<polygon fill="black" stroke="black" points="1085.28,-398.38 1082.77,-388.09 1078.31,-397.7 1085.28,-398.38"/>
</g>
<!-- frank_hsinchu -->
<g id="node29" class="node">
<title>frank_hsinchu</title>
<polygon fill="none" stroke="black" points="1343,-318.5 1206,-318.5 1206,-265.5 1343,-265.5 1343,-318.5"/>
<text text-anchor="middle" x="1274.5" y="-303.3" font-family="Times,serif" font-size="14.00">Frank_Hsinchu</text>
<text text-anchor="middle" x="1274.5" y="-288.3" font-family="Times,serif" font-size="14.00">(10.127.255.56)</text>
<text text-anchor="middle" x="1274.5" y="-273.3" font-family="Times,serif" font-size="14.00">(AS4200005566)</text>
</g>
<!-- magicneko_JP03&#45;&gt;frank_hsinchu -->
<g id="edge44" class="edge">
<title>magicneko_JP03&#45;&gt;frank_hsinchu</title>
<path fill="none" stroke="black" d="M423.04,-645.66C424.46,-644.2 425.79,-642.65 427,-641 480.58,-567.97 396.18,-296.15 463,-235 674.62,-41.32 1061.5,-191.33 1211.64,-261.2"/>
<polygon fill="black" stroke="black" points="420.62,-643.12 415.22,-652.24 425.13,-648.48 420.62,-643.12"/>
<polygon fill="black" stroke="black" points="1210.22,-264.4 1220.76,-265.48 1213.19,-258.06 1210.22,-264.4"/>
</g>
<!-- magicneko_CN01&#45;&gt;icecat_Explosion -->
<g id="edge23" class="edge">
<title>magicneko_CN01&#45;&gt;icecat_Explosion</title>
<path fill="none" stroke="black" d="M410.53,-352.05C416.22,-354.79 421.83,-357.79 427,-361 493.98,-402.62 560.66,-467.6 595.06,-503.33"/>
<polygon fill="black" stroke="black" points="592.86,-506.09 602.3,-510.91 597.92,-501.26 592.86,-506.09"/>
</g>
<!-- staph_CN -->
<g id="node18" class="node">
<title>staph_CN</title>
<polygon fill="none" stroke="black" points="963,-765.5 815,-765.5 815,-712.5 963,-712.5 963,-765.5"/>
<text text-anchor="middle" x="889" y="-750.3" font-family="Times,serif" font-size="14.00">cnhome.aureus.ga</text>
<text text-anchor="middle" x="889" y="-735.3" font-family="Times,serif" font-size="14.00">(10.127.8.187)</text>
<text text-anchor="middle" x="889" y="-720.3" font-family="Times,serif" font-size="14.00">(AS4200078274)</text>
</g>
<!-- staph&#45;&gt;staph_CN -->
<g id="edge14" class="edge">
<title>staph&#45;&gt;staph_CN</title>
<path fill="none" stroke="black" d="M688.68,-800.08C718.51,-794.98 753.8,-787.93 785,-779 794.99,-776.14 805.37,-772.7 815.52,-769.05"/>
<polygon fill="black" stroke="black" points="816.99,-772.24 825.16,-765.5 814.57,-765.67 816.99,-772.24"/>
</g>
<!-- staph&#45;&gt;septs -->
<g id="edge35" class="edge">
<title>staph&#45;&gt;septs</title>
<path fill="none" stroke="black" d="M698.6,-811.06C728.53,-807.73 761.21,-799.05 785,-779 812.21,-756.07 795.35,-734.89 813,-704 885.4,-577.31 1004.94,-449.34 1057.87,-395.48"/>
<polygon fill="black" stroke="black" points="698.2,-807.58 688.57,-811.99 698.85,-814.55 698.2,-807.58"/>
<polygon fill="black" stroke="black" points="1060.64,-397.65 1065.18,-388.08 1055.66,-392.73 1060.64,-397.65"/>
</g>
<!-- santost12 -->
<g id="node28" class="node">
<title>santost12</title>
<polygon fill="none" stroke="black" points="957.5,-836.5 820.5,-836.5 820.5,-783.5 957.5,-783.5 957.5,-836.5"/>
<text text-anchor="middle" x="889" y="-821.3" font-family="Times,serif" font-size="14.00">Santost12</text>
<text text-anchor="middle" x="889" y="-806.3" font-family="Times,serif" font-size="14.00">(10.127.69.1)</text>
<text text-anchor="middle" x="889" y="-791.3" font-family="Times,serif" font-size="14.00">(AS4200006969)</text>
</g>
<!-- staph&#45;&gt;santost12 -->
<g id="edge41" class="edge">
<title>staph&#45;&gt;santost12</title>
<path fill="none" stroke="black" d="M698.85,-810C733.88,-810 775.14,-810 810.17,-810"/>
<polygon fill="black" stroke="black" points="698.72,-806.5 688.72,-810 698.72,-813.5 698.72,-806.5"/>
<polygon fill="black" stroke="black" points="810.35,-813.5 820.35,-810 810.35,-806.5 810.35,-813.5"/>
</g>
<!-- JerryXiao&#45;&gt;ucbvax -->
<g id="edge28" class="edge">
<title>JerryXiao&#45;&gt;ucbvax</title>
<path fill="none" stroke="black" d="M655.5,-80.37C694.97,-111.7 757.68,-168.99 785,-235 836.97,-360.59 780.1,-714.12 813,-846 825.06,-894.33 852.45,-945.59 870.58,-976.19"/>
<polygon fill="black" stroke="black" points="657.48,-77.48 647.45,-74.09 653.18,-83 657.48,-77.48"/>
<polygon fill="black" stroke="black" points="867.73,-978.23 875.89,-984.99 873.73,-974.62 867.73,-978.23"/>
</g>
<!-- JerryXiao_SH01 -->
<g id="node21" class="node">
<title>JerryXiao_SH01</title>
<polygon fill="none" stroke="black" points="950,-74 828,-74 828,-36 950,-36 950,-74"/>
<text text-anchor="middle" x="889" y="-58.8" font-family="Times,serif" font-size="14.00">jerryxiao&#45;sh01</text>
<text text-anchor="middle" x="889" y="-43.8" font-family="Times,serif" font-size="14.00">(10.127.8.195)</text>
</g>
<!-- JerryXiao&#45;&gt;JerryXiao_SH01 -->
<g id="edge24" class="edge">
<title>JerryXiao&#45;&gt;JerryXiao_SH01</title>
<path fill="none" stroke="black" d="M709.58,-55C744.8,-55 784.74,-55 817.89,-55"/>
<polygon fill="black" stroke="black" points="709.3,-51.5 699.3,-55 709.3,-58.5 709.3,-51.5"/>
<polygon fill="black" stroke="black" points="817.95,-58.5 827.95,-55 817.95,-51.5 817.95,-58.5"/>
</g>
<!-- JerryXiao_HK01 -->
<g id="node22" class="node">
<title>JerryXiao_HK01</title>
<polygon fill="none" stroke="black" points="1146.5,-64 1024.5,-64 1024.5,-26 1146.5,-26 1146.5,-64"/>
<text text-anchor="middle" x="1085.5" y="-48.8" font-family="Times,serif" font-size="14.00">jerryxiao&#45;hk01</text>
<text text-anchor="middle" x="1085.5" y="-33.8" font-family="Times,serif" font-size="14.00">(10.127.8.194)</text>
</g>
<!-- JerryXiao&#45;&gt;JerryXiao_HK01 -->
<g id="edge25" class="edge">
<title>JerryXiao&#45;&gt;JerryXiao_HK01</title>
<path fill="none" stroke="black" d="M709.12,-39.42C741.66,-34.39 778.9,-29.47 813,-27 880.38,-22.11 897.63,-21.95 965,-27 981.03,-28.2 998.16,-30.29 1014.31,-32.64"/>
<polygon fill="black" stroke="black" points="708.52,-35.97 699.19,-40.98 709.61,-42.88 708.52,-35.97"/>
<polygon fill="black" stroke="black" points="1013.8,-36.1 1024.21,-34.13 1014.84,-29.18 1013.8,-36.1"/>
</g>
<!-- JerryXiao&#45;&gt;septs -->
<g id="edge29" class="edge">
<title>JerryXiao&#45;&gt;septs</title>
<path fill="none" stroke="black" d="M708.96,-69.03C804.06,-84.85 944.83,-110.39 965,-126 983.49,-140.31 1045.4,-279.11 1072.09,-340.28"/>
<polygon fill="black" stroke="black" points="709.48,-65.57 699.05,-67.39 708.34,-72.48 709.48,-65.57"/>
<polygon fill="black" stroke="black" points="1069,-341.97 1076.2,-349.75 1075.42,-339.18 1069,-341.97"/>
</g>
<!-- JerryXiao_SH01&#45;&gt;JerryXiao_HK01 -->
<g id="edge26" class="edge">
<title>JerryXiao_SH01&#45;&gt;JerryXiao_HK01</title>
<path fill="none" stroke="black" d="M960.32,-51.38C977.83,-50.48 996.59,-49.52 1014.1,-48.62"/>
<polygon fill="black" stroke="black" points="960.02,-47.9 950.21,-51.9 960.38,-54.89 960.02,-47.9"/>
<polygon fill="black" stroke="black" points="1014.43,-52.11 1024.24,-48.1 1014.07,-45.12 1014.43,-52.11"/>
</g>
<!-- dfceaef -->
<g id="node26" class="node">
<title>dfceaef</title>
<polygon fill="none" stroke="black" points="1157.5,-166.5 1013.5,-166.5 1013.5,-113.5 1157.5,-113.5 1157.5,-166.5"/>
<text text-anchor="middle" x="1085.5" y="-151.3" font-family="Times,serif" font-size="14.00">dfceaef</text>
<text text-anchor="middle" x="1085.5" y="-136.3" font-family="Times,serif" font-size="14.00">(10.127.9.192/26)</text>
<text text-anchor="middle" x="1085.5" y="-121.3" font-family="Times,serif" font-size="14.00">(AS4242420140)</text>
</g>
<!-- JerryXiao_SH01&#45;&gt;dfceaef -->
<g id="edge30" class="edge">
<title>JerryXiao_SH01&#45;&gt;dfceaef</title>
<path fill="none" stroke="black" d="M944.87,-78.28C951.7,-81.43 958.55,-84.71 965,-88 981.5,-96.41 984.26,-101.08 1001,-109 1001.86,-109.4 1002.72,-109.81 1003.59,-110.21"/>
<polygon fill="black" stroke="black" points="946.15,-75.02 935.6,-74.07 943.26,-81.39 946.15,-75.02"/>
<polygon fill="black" stroke="black" points="1002.53,-113.57 1013.09,-114.44 1005.38,-107.17 1002.53,-113.57"/>
</g>
<!-- JerryXiao_HK02 -->
<g id="node23" class="node">
<title>JerryXiao_HK02</title>
<polygon fill="none" stroke="black" points="1335.5,-64 1213.5,-64 1213.5,-26 1335.5,-26 1335.5,-64"/>
<text text-anchor="middle" x="1274.5" y="-48.8" font-family="Times,serif" font-size="14.00">jerryxiao&#45;hk02</text>
<text text-anchor="middle" x="1274.5" y="-33.8" font-family="Times,serif" font-size="14.00">(10.127.8.196)</text>
</g>
<!-- JerryXiao_HK01&#45;&gt;JerryXiao_HK02 -->
<g id="edge27" class="edge">
<title>JerryXiao_HK01&#45;&gt;JerryXiao_HK02</title>
<path fill="none" stroke="black" d="M1156.88,-45C1172,-45 1187.98,-45 1203.11,-45"/>
<polygon fill="black" stroke="black" points="1156.7,-41.5 1146.7,-45 1156.7,-48.5 1156.7,-41.5"/>
<polygon fill="black" stroke="black" points="1203.42,-48.5 1213.42,-45 1203.42,-41.5 1203.42,-48.5"/>
</g>
<!-- septs&#45;&gt;frank_hsinchu -->
<g id="edge45" class="edge">
<title>septs&#45;&gt;frank_hsinchu</title>
<path fill="none" stroke="black" d="M1142.16,-346.08C1160.25,-338.63 1180.61,-330.25 1199.8,-322.35"/>
<polygon fill="black" stroke="black" points="1140.64,-342.92 1132.72,-349.97 1143.3,-349.4 1140.64,-342.92"/>
<polygon fill="black" stroke="black" points="1201.2,-325.56 1209.11,-318.51 1198.54,-319.08 1201.2,-325.56"/>
</g>
<!-- lantian -->
<g id="node25" class="node">
<title>lantian</title>
<polygon fill="none" stroke="black" points="427,-116 290,-116 290,-78 427,-78 427,-116"/>
<text text-anchor="middle" x="358.5" y="-100.8" font-family="Times,serif" font-size="14.00">lantian</text>
<text text-anchor="middle" x="358.5" y="-85.8" font-family="Times,serif" font-size="14.00">(AS4200002547)</text>
</g>
<!-- lantian&#45;&gt;JerryXiao -->
<g id="edge33" class="edge">
<title>lantian&#45;&gt;JerryXiao</title>
<path fill="none" stroke="black" d="M437,-84.46C466.46,-79.69 500.24,-74.22 530.63,-69.3"/>
<polygon fill="black" stroke="black" points="436.32,-81.02 427,-86.07 437.43,-87.93 436.32,-81.02"/>
<polygon fill="black" stroke="black" points="531.49,-72.71 540.8,-67.66 530.37,-65.8 531.49,-72.71"/>
</g>
<!-- lantian&#45;&gt;septs -->
<g id="edge32" class="edge">
<title>lantian&#45;&gt;septs</title>
<path fill="none" stroke="black" d="M437.55,-108.94C590.99,-132.88 920.86,-186.87 965,-215 1014.3,-246.42 1051.48,-305.57 1070.45,-340.71"/>
<polygon fill="black" stroke="black" points="437.68,-105.42 427.26,-107.34 436.61,-112.33 437.68,-105.42"/>
<polygon fill="black" stroke="black" points="1067.56,-342.72 1075.31,-349.94 1073.75,-339.46 1067.56,-342.72"/>
</g>
<!-- NNPCC -->
<g id="node30" class="node">
<title>NNPCC</title>
<polygon fill="none" stroke="black" points="164,-1183 90,-1183 90,-1147 164,-1147 164,-1183"/>
<text text-anchor="middle" x="127" y="-1161.3" font-family="Times,serif" font-size="14.00">NNPCC</text>
</g>
<!-- NNPCC&#45;&gt;np11 -->
<g id="edge1" class="edge">
<title>NNPCC&#45;&gt;np11</title>
<path fill="none" stroke="black" d="M174.12,-1162.63C199.28,-1159.56 230.08,-1152.78 254,-1138 275.79,-1124.53 270.3,-1109.36 290,-1093 291.37,-1091.86 292.78,-1090.75 294.23,-1089.65"/>
<polygon fill="black" stroke="black" points="173.64,-1159.16 164.07,-1163.69 174.38,-1166.12 173.64,-1159.16"/>
<polygon fill="black" stroke="black" points="296.64,-1092.23 302.81,-1083.62 292.62,-1086.5 296.64,-1092.23"/>
</g>
<!-- NeoBOX -->
<g id="node31" class="node">
<title>NeoBOX</title>
<polygon fill="none" stroke="black" points="166.5,-1129 87.5,-1129 87.5,-1093 166.5,-1093 166.5,-1129"/>
<text text-anchor="middle" x="127" y="-1107.3" font-family="Times,serif" font-size="14.00">NeoBOX</text>
</g>
<!-- NeoBOX&#45;&gt;np11 -->
<g id="edge2" class="edge">
<title>NeoBOX&#45;&gt;np11</title>
<path fill="none" stroke="black" d="M176.74,-1101.08C200.16,-1096.18 228.59,-1090.03 254,-1084 265.04,-1081.38 276.71,-1078.47 288.07,-1075.56"/>
<polygon fill="black" stroke="black" points="175.78,-1097.7 166.7,-1103.17 177.2,-1104.56 175.78,-1097.7"/>
<polygon fill="black" stroke="black" points="289.15,-1078.9 297.96,-1073.01 287.4,-1072.12 289.15,-1078.9"/>
</g>
<!-- cklvax -->
<g id="node32" class="node">
<title>cklvax</title>
<polygon fill="none" stroke="black" points="158.5,-1075 95.5,-1075 95.5,-1039 158.5,-1039 158.5,-1075"/>
<text text-anchor="middle" x="127" y="-1053.3" font-family="Times,serif" font-size="14.00">cklvax</text>
</g>
<!-- cklvax&#45;&gt;np11 -->
<g id="edge3" class="edge">
<title>cklvax&#45;&gt;np11</title>
<path fill="none" stroke="black" d="M169.06,-1057C201.97,-1057 248.91,-1057 287.71,-1057"/>
<polygon fill="black" stroke="black" points="168.95,-1053.5 158.95,-1057 168.95,-1060.5 168.95,-1053.5"/>
<polygon fill="black" stroke="black" points="287.9,-1060.5 297.9,-1057 287.9,-1053.5 287.9,-1060.5"/>
</g>
<!-- NeoStorage -->
<g id="node33" class="node">
<title>NeoStorage</title>
<polygon fill="none" stroke="black" points="178,-1021 76,-1021 76,-985 178,-985 178,-1021"/>
<text text-anchor="middle" x="127" y="-999.3" font-family="Times,serif" font-size="14.00">NeoStorage</text>
</g>
<!-- NeoStorage&#45;&gt;np11 -->
<g id="edge4" class="edge">
<title>NeoStorage&#45;&gt;np11</title>
<path fill="none" stroke="black" d="M188.11,-1015.32C209.01,-1019.75 232.58,-1024.91 254,-1030 265.04,-1032.62 276.71,-1035.53 288.07,-1038.44"/>
<polygon fill="black" stroke="black" points="188.59,-1011.84 178.09,-1013.2 187.15,-1018.69 188.59,-1011.84"/>
<polygon fill="black" stroke="black" points="287.4,-1041.88 297.96,-1040.99 289.15,-1035.1 287.4,-1041.88"/>
</g>
</g>
</svg>
