<?xml version="1.0" encoding="UTF-8" standalone="no"?>
<!DOCTYPE svg PUBLIC "-//W3C//DTD SVG 1.1//EN"
 "http://www.w3.org/Graphics/SVG/1.1/DTD/svg11.dtd">
<!-- Generated by graphviz version 2.43.0 (0)
 -->
<!-- Title: NeoNetwork Nodes Pages: 1 -->
<svg width="1347pt" height="1253pt"
 viewBox="0.00 0.00 1346.50 1253.00" xmlns="http://www.w3.org/2000/svg" xmlns:xlink="http://www.w3.org/1999/xlink">
<g id="graph0" class="graph" transform="scale(1 1) rotate(0) translate(4 1249)">
<title>NeoNetwork Nodes</title>
<polygon fill="white" stroke="transparent" points="-4,4 -4,-1249 1342.5,-1249 1342.5,4 -4,4"/>
<text text-anchor="middle" x="669.25" y="-1229.8" font-family="Times,serif" font-size="14.00">NeoNetwork Nodes</text>
<g id="clust1" class="cluster">
<title>cluster_AS4201048576</title>
<polygon fill="none" stroke="black" points="66,-977 66,-1214 1157.5,-1214 1157.5,-977 66,-977"/>
<text text-anchor="middle" x="611.75" y="-1198.8" font-family="Times,serif" font-size="14.00">NeoNetwork (AS4201048576)</text>
</g>
<g id="clust2" class="cluster">
<title>cluster_AS4200012450</title>
<polygon fill="none" stroke="black" points="284.5,-306 284.5,-775 775,-775 775,-306 284.5,-306"/>
<text text-anchor="middle" x="529.75" y="-759.8" font-family="Times,serif" font-size="14.00">MagicNeko Network Internet exchange (AS4200012450)</text>
</g>
<g id="clust3" class="cluster">
<title>cluster_AS4200066666</title>
<polygon fill="none" stroke="black" points="526,-8 526,-105 1330.5,-105 1330.5,-8 526,-8"/>
<text text-anchor="middle" x="928.25" y="-89.8" font-family="Times,serif" font-size="14.00">Jerry Network (AS4200066666)</text>
</g>
<!-- c -->
<g id="node1" class="node">
<title>c</title>
<polygon fill="none" stroke="black" points="1149.5,-1044 997.5,-1044 997.5,-1006 1149.5,-1006 1149.5,-1044"/>
<text text-anchor="middle" x="1073.5" y="-1028.8" font-family="Times,serif" font-size="14.00">caasih.neocloud.tw</text>
<text text-anchor="middle" x="1073.5" y="-1013.8" font-family="Times,serif" font-size="14.00">(10.127.0.1)</text>
</g>
<!-- ucbvax -->
<g id="node2" class="node">
<title>ucbvax</title>
<polygon fill="none" stroke="black" points="954,-1023 803,-1023 803,-985 954,-985 954,-1023"/>
<text text-anchor="middle" x="878.5" y="-1007.8" font-family="Times,serif" font-size="14.00">router.neocloud.tw</text>
<text text-anchor="middle" x="878.5" y="-992.8" font-family="Times,serif" font-size="14.00">(10.127.255.2)</text>
</g>
<!-- ucbvax&#45;&gt;c -->
<g id="edge8" class="edge">
<title>ucbvax&#45;&gt;c</title>
<path fill="none" stroke="black" d="M964.21,-1013.22C971.9,-1014.05 979.7,-1014.9 987.4,-1015.74"/>
<polygon fill="black" stroke="black" points="964.44,-1009.72 954.12,-1012.12 963.68,-1016.68 964.44,-1009.72"/>
<polygon fill="black" stroke="black" points="987.12,-1019.23 997.44,-1016.83 987.88,-1012.27 987.12,-1019.23"/>
</g>
<!-- chenx97 -->
<g id="node19" class="node">
<title>chenx97</title>
<polygon fill="none" stroke="black" points="1157,-945 990,-945 990,-907 1157,-907 1157,-945"/>
<text text-anchor="middle" x="1073.5" y="-929.8" font-family="Times,serif" font-size="14.00">chenx97.neocloud.tw</text>
<text text-anchor="middle" x="1073.5" y="-914.8" font-family="Times,serif" font-size="14.00">(AS4200114514)</text>
</g>
<!-- ucbvax&#45;&gt;chenx97 -->
<g id="edge15" class="edge">
<title>ucbvax&#45;&gt;chenx97</title>
<path fill="none" stroke="black" d="M936.11,-981.12C961.29,-970.94 990.87,-958.99 1016.03,-948.82"/>
<polygon fill="black" stroke="black" points="934.67,-977.93 926.71,-984.92 937.3,-984.42 934.67,-977.93"/>
<polygon fill="black" stroke="black" points="1017.48,-952.01 1025.44,-945.02 1014.86,-945.52 1017.48,-952.01"/>
</g>
<!-- septs -->
<g id="node24" class="node">
<title>septs</title>
<polygon fill="none" stroke="black" points="1142,-388 1005,-388 1005,-350 1142,-350 1142,-388"/>
<text text-anchor="middle" x="1073.5" y="-372.8" font-family="Times,serif" font-size="14.00">bgp.septs.me</text>
<text text-anchor="middle" x="1073.5" y="-357.8" font-family="Times,serif" font-size="14.00">(AS4200055555)</text>
</g>
<!-- ucbvax&#45;&gt;septs -->
<g id="edge36" class="edge">
<title>ucbvax&#45;&gt;septs</title>
<path fill="none" stroke="black" d="M933.04,-979.33C941.04,-973.64 948.45,-966.89 954,-959 1019.44,-865.93 1059.3,-504.19 1069.74,-398.28"/>
<polygon fill="black" stroke="black" points="931,-976.49 924.54,-984.89 934.82,-982.35 931,-976.49"/>
<polygon fill="black" stroke="black" points="1073.26,-398.32 1070.74,-388.03 1066.29,-397.64 1073.26,-398.32"/>
</g>
<!-- np11 -->
<g id="node3" class="node">
<title>np11</title>
<polygon fill="none" stroke="black" points="414,-1083.5 293,-1083.5 293,-1030.5 414,-1030.5 414,-1083.5"/>
<text text-anchor="middle" x="353.5" y="-1068.3" font-family="Times,serif" font-size="14.00">NeoPDP&#45;11</text>
<text text-anchor="middle" x="353.5" y="-1053.3" font-family="Times,serif" font-size="14.00">(10.127.255.1,</text>
<text text-anchor="middle" x="353.5" y="-1038.3" font-family="Times,serif" font-size="14.00">10.127.1.1)</text>
</g>
<!-- np11&#45;&gt;c -->
<g id="edge7" class="edge">
<title>np11&#45;&gt;c</title>
<path fill="none" stroke="black" d="M414.08,-1054.86C521.84,-1050.91 756.33,-1041.96 954,-1032 964.72,-1031.46 975.97,-1030.85 987.11,-1030.22"/>
<polygon fill="black" stroke="black" points="987.5,-1033.7 997.29,-1029.64 987.1,-1026.72 987.5,-1033.7"/>
</g>
<!-- np11&#45;&gt;ucbvax -->
<g id="edge5" class="edge">
<title>np11&#45;&gt;ucbvax</title>
<path fill="none" stroke="black" d="M414.06,-1047.11C428.43,-1044.91 443.74,-1042.73 458,-1041 573.6,-1026.98 707.74,-1016.08 792.6,-1009.85"/>
<polygon fill="black" stroke="black" points="792.99,-1013.33 802.7,-1009.11 792.48,-1006.35 792.99,-1013.33"/>
</g>
<!-- pan -->
<g id="node6" class="node">
<title>pan</title>
<polygon fill="none" stroke="black" points="674,-1103 551,-1103 551,-1065 674,-1065 674,-1103"/>
<text text-anchor="middle" x="612.5" y="-1087.8" font-family="Times,serif" font-size="14.00">r2.neocloud.tw</text>
<text text-anchor="middle" x="612.5" y="-1072.8" font-family="Times,serif" font-size="14.00">(10.127.3.1)</text>
</g>
<!-- np11&#45;&gt;pan -->
<g id="edge6" class="edge">
<title>np11&#45;&gt;pan</title>
<path fill="none" stroke="black" d="M414.11,-1063.26C451.89,-1067.23 500.96,-1072.39 540.72,-1076.56"/>
<polygon fill="black" stroke="black" points="540.57,-1080.07 550.88,-1077.63 541.3,-1073.11 540.57,-1080.07"/>
</g>
<!-- ns -->
<g id="node4" class="node">
<title>ns</title>
<polygon fill="none" stroke="black" points="419,-1140 288,-1140 288,-1102 419,-1102 419,-1140"/>
<text text-anchor="middle" x="353.5" y="-1124.8" font-family="Times,serif" font-size="14.00">NeoSystem</text>
<text text-anchor="middle" x="353.5" y="-1109.8" font-family="Times,serif" font-size="14.00">(10.127.255.80)</text>
</g>
<!-- ns&#45;&gt;ucbvax -->
<g id="edge9" class="edge">
<title>ns&#45;&gt;ucbvax</title>
<path fill="none" stroke="black" d="M419.05,-1134.39C504.55,-1148.92 658.14,-1163.69 775,-1112 812.59,-1095.37 843.03,-1057.73 860.7,-1031.59"/>
<polygon fill="black" stroke="black" points="863.64,-1033.5 866.2,-1023.22 857.78,-1029.66 863.64,-1033.5"/>
</g>
<!-- ns&#45;&gt;pan -->
<g id="edge10" class="edge">
<title>ns&#45;&gt;pan</title>
<path fill="none" stroke="black" d="M419.02,-1111.71C456.15,-1106.37 502.84,-1099.64 540.94,-1094.16"/>
<polygon fill="black" stroke="black" points="541.53,-1097.61 550.93,-1092.72 540.53,-1090.68 541.53,-1097.61"/>
</g>
<!-- megumiLHS -->
<g id="node5" class="node">
<title>megumiLHS</title>
<polygon fill="none" stroke="black" points="695,-969 530,-969 530,-931 695,-931 695,-969"/>
<text text-anchor="middle" x="612.5" y="-953.8" font-family="Times,serif" font-size="14.00">megumi.yukipedia.cf</text>
<text text-anchor="middle" x="612.5" y="-938.8" font-family="Times,serif" font-size="14.00">(AS4203223939)</text>
</g>
<!-- megumiLHS&#45;&gt;ucbvax -->
<g id="edge12" class="edge">
<title>megumiLHS&#45;&gt;ucbvax</title>
<path fill="none" stroke="black" d="M705.32,-960.61C728.2,-963.93 752.6,-968.05 775,-973 786.56,-975.56 798.71,-978.76 810.44,-982.13"/>
<polygon fill="black" stroke="black" points="705.66,-957.12 695.27,-959.18 704.68,-964.05 705.66,-957.12"/>
<polygon fill="black" stroke="black" points="809.59,-985.52 820.17,-984.98 811.56,-978.81 809.59,-985.52"/>
</g>
<!-- megumiLHS&#45;&gt;septs -->
<g id="edge39" class="edge">
<title>megumiLHS&#45;&gt;septs</title>
<path fill="none" stroke="black" d="M705.49,-956.13C782.09,-955.98 888.81,-942.73 954,-879 1024.02,-810.56 1060.11,-496.16 1069.79,-398.22"/>
<polygon fill="black" stroke="black" points="705.38,-952.63 695.36,-956.08 705.34,-959.63 705.38,-952.63"/>
<polygon fill="black" stroke="black" points="1073.29,-398.43 1070.77,-388.14 1066.32,-397.75 1073.29,-398.43"/>
</g>
<!-- pan&#45;&gt;ucbvax -->
<g id="edge11" class="edge">
<title>pan&#45;&gt;ucbvax</title>
<path fill="none" stroke="black" d="M683.64,-1062.75C720.96,-1051.44 766.81,-1037.54 804.55,-1026.11"/>
<polygon fill="black" stroke="black" points="682.62,-1059.4 674.07,-1065.65 684.65,-1066.1 682.62,-1059.4"/>
<polygon fill="black" stroke="black" points="805.9,-1029.35 814.46,-1023.1 803.87,-1022.65 805.9,-1029.35"/>
</g>
<!-- icecat_Explosion -->
<g id="node7" class="node">
<title>icecat_Explosion</title>
<polygon fill="none" stroke="black" points="767,-547 458,-547 458,-511 767,-511 767,-547"/>
<text text-anchor="middle" x="612.5" y="-525.3" font-family="Times,serif" font-size="14.00">MagicNeko P2P network interconnection</text>
</g>
<!-- icecat_Notebook -->
<g id="node8" class="node">
<title>icecat_Notebook</title>
<polygon fill="none" stroke="black" points="249,-527.5 0,-527.5 0,-474.5 249,-474.5 249,-527.5"/>
<text text-anchor="middle" x="124.5" y="-512.3" font-family="Times,serif" font-size="14.00">NextMoe Group Access Network</text>
<text text-anchor="middle" x="124.5" y="-497.3" font-family="Times,serif" font-size="14.00">(AS4200012451)</text>
<text text-anchor="middle" x="124.5" y="-482.3" font-family="Times,serif" font-size="14.00">(10.127.233.1)</text>
</g>
<!-- magicneko_HK01 -->
<g id="node9" class="node">
<title>magicneko_HK01</title>
<polygon fill="none" stroke="black" points="405.5,-408 301.5,-408 301.5,-370 405.5,-370 405.5,-408"/>
<text text-anchor="middle" x="353.5" y="-392.8" font-family="Times,serif" font-size="14.00">M&#45;HK1</text>
<text text-anchor="middle" x="353.5" y="-377.8" font-family="Times,serif" font-size="14.00">(10.127.4.1)</text>
</g>
<!-- icecat_Notebook&#45;&gt;magicneko_HK01 -->
<g id="edge46" class="edge">
<title>icecat_Notebook&#45;&gt;magicneko_HK01</title>
<path fill="none" stroke="black" d="M172.91,-474.43C204.21,-457.27 246.34,-434.89 284.5,-417 288.04,-415.34 291.71,-413.68 295.42,-412.04"/>
<polygon fill="black" stroke="black" points="296.91,-415.2 304.69,-408.01 294.13,-408.78 296.91,-415.2"/>
</g>
<!-- magicneko_JP02 -->
<g id="node13" class="node">
<title>magicneko_JP02</title>
<polygon fill="none" stroke="black" points="410,-632 297,-632 297,-594 410,-594 410,-632"/>
<text text-anchor="middle" x="353.5" y="-616.8" font-family="Times,serif" font-size="14.00">M&#45;JP2</text>
<text text-anchor="middle" x="353.5" y="-601.8" font-family="Times,serif" font-size="14.00">(10.127.4.13)</text>
</g>
<!-- icecat_Notebook&#45;&gt;magicneko_JP02 -->
<g id="edge50" class="edge">
<title>icecat_Notebook&#45;&gt;magicneko_JP02</title>
<path fill="none" stroke="black" d="M172.91,-527.57C204.21,-544.73 246.34,-567.11 284.5,-585 288.04,-586.66 291.71,-588.32 295.42,-589.96"/>
<polygon fill="black" stroke="black" points="294.13,-593.22 304.69,-593.99 296.91,-586.8 294.13,-593.22"/>
</g>
<!-- magicneko_RU01 -->
<g id="node14" class="node">
<title>magicneko_RU01</title>
<polygon fill="none" stroke="black" points="410,-520 297,-520 297,-482 410,-482 410,-520"/>
<text text-anchor="middle" x="353.5" y="-504.8" font-family="Times,serif" font-size="14.00">M&#45;RU1</text>
<text text-anchor="middle" x="353.5" y="-489.8" font-family="Times,serif" font-size="14.00">(10.127.4.14)</text>
</g>
<!-- icecat_Notebook&#45;&gt;magicneko_RU01 -->
<g id="edge48" class="edge">
<title>icecat_Notebook&#45;&gt;magicneko_RU01</title>
<path fill="none" stroke="black" d="M249.3,-501C262.13,-501 274.8,-501 286.62,-501"/>
<polygon fill="black" stroke="black" points="286.77,-504.5 296.77,-501 286.77,-497.5 286.77,-504.5"/>
</g>
<!-- magicneko_JP03 -->
<g id="node15" class="node">
<title>magicneko_JP03</title>
<polygon fill="none" stroke="black" points="410,-688 297,-688 297,-650 410,-650 410,-688"/>
<text text-anchor="middle" x="353.5" y="-672.8" font-family="Times,serif" font-size="14.00">M&#45;JP3</text>
<text text-anchor="middle" x="353.5" y="-657.8" font-family="Times,serif" font-size="14.00">(10.127.4.15)</text>
</g>
<!-- icecat_Notebook&#45;&gt;magicneko_JP03 -->
<g id="edge47" class="edge">
<title>icecat_Notebook&#45;&gt;magicneko_JP03</title>
<path fill="none" stroke="black" d="M150.35,-527.69C179.95,-558.28 232.03,-608.37 284.5,-641 286.94,-642.52 289.48,-643.98 292.07,-645.4"/>
<polygon fill="black" stroke="black" points="290.58,-648.57 301.08,-649.99 293.76,-642.33 290.58,-648.57"/>
</g>
<!-- magicneko_CN01 -->
<g id="node16" class="node">
<title>magicneko_CN01</title>
<polygon fill="none" stroke="black" points="414.5,-352 292.5,-352 292.5,-314 414.5,-314 414.5,-352"/>
<text text-anchor="middle" x="353.5" y="-336.8" font-family="Times,serif" font-size="14.00">M&#45;CN1</text>
<text text-anchor="middle" x="353.5" y="-321.8" font-family="Times,serif" font-size="14.00">(10.127.4.101)</text>
</g>
<!-- icecat_Notebook&#45;&gt;magicneko_CN01 -->
<g id="edge49" class="edge">
<title>icecat_Notebook&#45;&gt;magicneko_CN01</title>
<path fill="none" stroke="black" d="M150.35,-474.31C179.95,-443.72 232.03,-393.63 284.5,-361 286.94,-359.48 289.48,-358.02 292.07,-356.6"/>
<polygon fill="black" stroke="black" points="293.76,-359.67 301.08,-352.01 290.58,-353.43 293.76,-359.67"/>
</g>
<!-- magicneko_HK01&#45;&gt;icecat_Explosion -->
<g id="edge16" class="edge">
<title>magicneko_HK01&#45;&gt;icecat_Explosion</title>
<path fill="none" stroke="black" d="M402.81,-408.07C409.33,-410.92 415.87,-413.94 422,-417 476.91,-444.44 537.51,-481.54 575.05,-505.37"/>
<polygon fill="black" stroke="black" points="573.31,-508.41 583.62,-510.84 577.07,-502.51 573.31,-508.41"/>
</g>
<!-- magicneko_HK02 -->
<g id="node10" class="node">
<title>magicneko_HK02</title>
<polygon fill="none" stroke="black" points="410,-744 297,-744 297,-706 410,-706 410,-744"/>
<text text-anchor="middle" x="353.5" y="-728.8" font-family="Times,serif" font-size="14.00">M&#45;HK2</text>
<text text-anchor="middle" x="353.5" y="-713.8" font-family="Times,serif" font-size="14.00">(10.127.4.10)</text>
</g>
<!-- magicneko_HK02&#45;&gt;ucbvax -->
<g id="edge13" class="edge">
<title>magicneko_HK02&#45;&gt;ucbvax</title>
<path fill="none" stroke="black" d="M356.73,-754.02C362.62,-808.34 383.7,-924.71 458,-978 484.44,-996.96 677.68,-1002.12 792.46,-1003.51"/>
<polygon fill="black" stroke="black" points="360.21,-753.62 355.74,-744.02 353.24,-754.31 360.21,-753.62"/>
<polygon fill="black" stroke="black" points="792.59,-1007.01 802.63,-1003.62 792.67,-1000.01 792.59,-1007.01"/>
</g>
<!-- magicneko_HK02&#45;&gt;icecat_Explosion -->
<g id="edge17" class="edge">
<title>magicneko_HK02&#45;&gt;icecat_Explosion</title>
<path fill="none" stroke="black" d="M405.55,-705.98C411.24,-703.23 416.84,-700.23 422,-697 488.35,-655.47 554.07,-590.45 587.94,-554.7"/>
<polygon fill="black" stroke="black" points="590.77,-556.8 595.06,-547.11 585.67,-552.01 590.77,-556.8"/>
</g>
<!-- SUNNET -->
<g id="node27" class="node">
<title>SUNNET</title>
<polygon fill="none" stroke="black" points="681,-297.5 544,-297.5 544,-244.5 681,-244.5 681,-297.5"/>
<text text-anchor="middle" x="612.5" y="-282.3" font-family="Times,serif" font-size="14.00">SUNNET</text>
<text text-anchor="middle" x="612.5" y="-267.3" font-family="Times,serif" font-size="14.00">(10.127.11.0/24)</text>
<text text-anchor="middle" x="612.5" y="-252.3" font-family="Times,serif" font-size="14.00">(AS4242423088)</text>
</g>
<!-- magicneko_HK02&#45;&gt;SUNNET -->
<g id="edge40" class="edge">
<title>magicneko_HK02&#45;&gt;SUNNET</title>
<path fill="none" stroke="black" d="M418.04,-701.66C419.46,-700.2 420.79,-698.65 422,-697 474.23,-626 399.14,-367.61 458,-302 476.92,-280.91 505.87,-271.86 533.55,-268.53"/>
<polygon fill="black" stroke="black" points="415.62,-699.12 410.21,-708.23 420.12,-704.48 415.62,-699.12"/>
<polygon fill="black" stroke="black" points="534.05,-272 543.67,-267.55 533.38,-265.03 534.05,-272"/>
</g>
<!-- magicneko_JP01 -->
<g id="node11" class="node">
<title>magicneko_JP01</title>
<polygon fill="none" stroke="black" points="410,-576 297,-576 297,-538 410,-538 410,-576"/>
<text text-anchor="middle" x="353.5" y="-560.8" font-family="Times,serif" font-size="14.00">M&#45;JP1</text>
<text text-anchor="middle" x="353.5" y="-545.8" font-family="Times,serif" font-size="14.00">(10.127.4.11)</text>
</g>
<!-- magicneko_JP01&#45;&gt;icecat_Explosion -->
<g id="edge18" class="edge">
<title>magicneko_JP01&#45;&gt;icecat_Explosion</title>
<path fill="none" stroke="black" d="M410.27,-550.92C421.79,-549.67 434.49,-548.29 447.72,-546.84"/>
<polygon fill="black" stroke="black" points="448.38,-550.29 457.94,-545.73 447.62,-543.33 448.38,-550.29"/>
</g>
<!-- magicneko_HK03 -->
<g id="node12" class="node">
<title>magicneko_HK03</title>
<polygon fill="none" stroke="black" points="410,-464 297,-464 297,-426 410,-426 410,-464"/>
<text text-anchor="middle" x="353.5" y="-448.8" font-family="Times,serif" font-size="14.00">M&#45;HK3</text>
<text text-anchor="middle" x="353.5" y="-433.8" font-family="Times,serif" font-size="14.00">(10.127.4.12)</text>
</g>
<!-- magicneko_HK03&#45;&gt;icecat_Explosion -->
<g id="edge19" class="edge">
<title>magicneko_HK03&#45;&gt;icecat_Explosion</title>
<path fill="none" stroke="black" d="M410.27,-463.23C450.39,-476.34 504.63,-494.07 546.69,-507.82"/>
<polygon fill="black" stroke="black" points="545.69,-511.17 556.29,-510.95 547.87,-504.52 545.69,-511.17"/>
</g>
<!-- magicneko_JP02&#45;&gt;icecat_Explosion -->
<g id="edge20" class="edge">
<title>magicneko_JP02&#45;&gt;icecat_Explosion</title>
<path fill="none" stroke="black" d="M410.27,-594.77C450.39,-581.66 504.63,-563.93 546.69,-550.18"/>
<polygon fill="black" stroke="black" points="547.87,-553.48 556.29,-547.05 545.69,-546.83 547.87,-553.48"/>
</g>
<!-- magicneko_RU01&#45;&gt;icecat_Explosion -->
<g id="edge21" class="edge">
<title>magicneko_RU01&#45;&gt;icecat_Explosion</title>
<path fill="none" stroke="black" d="M410.27,-507.08C421.79,-508.33 434.49,-509.71 447.72,-511.16"/>
<polygon fill="black" stroke="black" points="447.62,-514.67 457.94,-512.27 448.38,-507.71 447.62,-514.67"/>
</g>
<!-- staph -->
<g id="node17" class="node">
<title>staph</title>
<polygon fill="none" stroke="black" points="681,-836.5 544,-836.5 544,-783.5 681,-783.5 681,-836.5"/>
<text text-anchor="middle" x="612.5" y="-821.3" font-family="Times,serif" font-size="14.00">s.aureus.ga</text>
<text text-anchor="middle" x="612.5" y="-806.3" font-family="Times,serif" font-size="14.00">(10.127.8.185)</text>
<text text-anchor="middle" x="612.5" y="-791.3" font-family="Times,serif" font-size="14.00">(AS4200078274)</text>
</g>
<!-- magicneko_RU01&#45;&gt;staph -->
<g id="edge38" class="edge">
<title>magicneko_RU01&#45;&gt;staph</title>
<path fill="none" stroke="black" d="M418.03,-524.53C419.44,-525.93 420.77,-527.42 422,-529 490.85,-617.66 380.89,-697.42 458,-779 477.38,-799.5 506.26,-808.47 533.77,-811.9"/>
<polygon fill="black" stroke="black" points="420.24,-521.81 410.29,-518.16 415.79,-527.22 420.24,-521.81"/>
<polygon fill="black" stroke="black" points="533.51,-815.39 543.82,-812.92 534.22,-808.43 533.51,-815.39"/>
</g>
<!-- magicneko_RU01&#45;&gt;septs -->
<g id="edge42" class="edge">
<title>magicneko_RU01&#45;&gt;septs</title>
<path fill="none" stroke="black" d="M418.01,-477.46C419.43,-476.06 420.77,-474.57 422,-473 487.92,-388.74 376.89,-304.76 458,-235 632.55,-84.87 936.44,-272.95 1038.19,-343.96"/>
<polygon fill="black" stroke="black" points="415.78,-474.77 410.26,-483.81 420.22,-480.18 415.78,-474.77"/>
<polygon fill="black" stroke="black" points="1036.38,-346.96 1046.57,-349.86 1040.41,-341.24 1036.38,-346.96"/>
</g>
<!-- magicneko_JP03&#45;&gt;megumiLHS -->
<g id="edge43" class="edge">
<title>magicneko_JP03&#45;&gt;megumiLHS</title>
<path fill="none" stroke="black" d="M417.99,-692.56C419.42,-693.95 420.76,-695.43 422,-697 483.52,-774.67 389.7,-845.23 458,-917 474.2,-934.02 496.88,-943.32 519.86,-948.17"/>
<polygon fill="black" stroke="black" points="420.18,-689.83 410.21,-686.23 415.76,-695.26 420.18,-689.83"/>
<polygon fill="black" stroke="black" points="519.24,-951.61 529.7,-949.98 520.51,-944.73 519.24,-951.61"/>
</g>
<!-- magicneko_JP03&#45;&gt;icecat_Explosion -->
<g id="edge22" class="edge">
<title>magicneko_JP03&#45;&gt;icecat_Explosion</title>
<path fill="none" stroke="black" d="M402.81,-649.93C409.33,-647.08 415.87,-644.06 422,-641 476.91,-613.56 537.51,-576.46 575.05,-552.63"/>
<polygon fill="black" stroke="black" points="577.07,-555.49 583.62,-547.16 573.31,-549.59 577.07,-555.49"/>
</g>
<!-- magicneko_JP03&#45;&gt;chenx97 -->
<g id="edge37" class="edge">
<title>magicneko_JP03&#45;&gt;chenx97</title>
<path fill="none" stroke="black" d="M417.92,-692.61C419.37,-693.99 420.73,-695.45 422,-697 474.26,-760.78 396.33,-824.26 458,-879 496.07,-912.79 817.17,-922.32 979.43,-924.98"/>
<polygon fill="black" stroke="black" points="420.07,-689.85 410.07,-686.35 415.7,-695.32 420.07,-689.85"/>
<polygon fill="black" stroke="black" points="979.83,-928.49 989.88,-925.15 979.94,-921.49 979.83,-928.49"/>
</g>
<!-- JerryXiao -->
<g id="node20" class="node">
<title>JerryXiao</title>
<polygon fill="none" stroke="black" points="691,-74 534,-74 534,-36 691,-36 691,-74"/>
<text text-anchor="middle" x="612.5" y="-58.8" font-family="Times,serif" font-size="14.00">jpn.neo.jerryxiao.cc</text>
<text text-anchor="middle" x="612.5" y="-43.8" font-family="Times,serif" font-size="14.00">(10.127.8.193)</text>
</g>
<!-- magicneko_JP03&#45;&gt;JerryXiao -->
<g id="edge31" class="edge">
<title>magicneko_JP03&#45;&gt;JerryXiao</title>
<path fill="none" stroke="black" d="M418.06,-645.67C419.47,-644.21 420.8,-642.65 422,-641 479.64,-561.89 415.92,-290.37 458,-202 483.11,-149.26 535.87,-105.53 572.47,-79.84"/>
<polygon fill="black" stroke="black" points="415.64,-643.14 410.25,-652.26 420.15,-648.49 415.64,-643.14"/>
<polygon fill="black" stroke="black" points="574.69,-82.57 580.94,-74.02 570.72,-76.8 574.69,-82.57"/>
</g>
<!-- magicneko_JP03&#45;&gt;septs -->
<g id="edge34" class="edge">
<title>magicneko_JP03&#45;&gt;septs</title>
<path fill="none" stroke="black" d="M418.3,-693.11C419.6,-694.35 420.84,-695.64 422,-697 466.27,-748.78 404.47,-803.86 458,-846 501.3,-880.09 910.59,-879.95 954,-846 1026.09,-789.63 1060.56,-492.88 1069.85,-398.12"/>
<polygon fill="black" stroke="black" points="420.22,-690.17 410.21,-686.71 415.88,-695.66 420.22,-690.17"/>
<polygon fill="black" stroke="black" points="1073.34,-398.38 1070.81,-388.09 1066.37,-397.71 1073.34,-398.38"/>
</g>
<!-- frank_hsinchu -->
<g id="node29" class="node">
<title>frank_hsinchu</title>
<polygon fill="none" stroke="black" points="1330,-318.5 1193,-318.5 1193,-265.5 1330,-265.5 1330,-318.5"/>
<text text-anchor="middle" x="1261.5" y="-303.3" font-family="Times,serif" font-size="14.00">Frank_Hsinchu</text>
<text text-anchor="middle" x="1261.5" y="-288.3" font-family="Times,serif" font-size="14.00">(10.127.255.56)</text>
<text text-anchor="middle" x="1261.5" y="-273.3" font-family="Times,serif" font-size="14.00">(AS4200005566)</text>
</g>
<!-- magicneko_JP03&#45;&gt;frank_hsinchu -->
<g id="edge44" class="edge">
<title>magicneko_JP03&#45;&gt;frank_hsinchu</title>
<path fill="none" stroke="black" d="M418.04,-645.66C419.46,-644.2 420.79,-642.65 422,-641 475.58,-567.97 391.18,-296.15 458,-235 667.28,-43.45 1049.68,-191.75 1198.72,-261.19"/>
<polygon fill="black" stroke="black" points="415.62,-643.12 410.22,-652.24 420.13,-648.48 415.62,-643.12"/>
<polygon fill="black" stroke="black" points="1197.23,-264.36 1207.77,-265.45 1200.21,-258.02 1197.23,-264.36"/>
</g>
<!-- magicneko_CN01&#45;&gt;icecat_Explosion -->
<g id="edge23" class="edge">
<title>magicneko_CN01&#45;&gt;icecat_Explosion</title>
<path fill="none" stroke="black" d="M405.55,-352.02C411.24,-354.77 416.84,-357.77 422,-361 488.35,-402.53 554.07,-467.55 587.94,-503.3"/>
<polygon fill="black" stroke="black" points="585.67,-505.99 595.06,-510.89 590.77,-501.2 585.67,-505.99"/>
</g>
<!-- staph_CN -->
<g id="node18" class="node">
<title>staph_CN</title>
<polygon fill="none" stroke="black" points="952,-765.5 805,-765.5 805,-712.5 952,-712.5 952,-765.5"/>
<text text-anchor="middle" x="878.5" y="-750.3" font-family="Times,serif" font-size="14.00">cnhome.aureus.ga</text>
<text text-anchor="middle" x="878.5" y="-735.3" font-family="Times,serif" font-size="14.00">(10.127.8.187)</text>
<text text-anchor="middle" x="878.5" y="-720.3" font-family="Times,serif" font-size="14.00">(AS4200078274)</text>
</g>
<!-- staph&#45;&gt;staph_CN -->
<g id="edge14" class="edge">
<title>staph&#45;&gt;staph_CN</title>
<path fill="none" stroke="black" d="M681.33,-799.82C710.45,-794.72 744.69,-787.74 775,-779 784.88,-776.15 795.13,-772.73 805.16,-769.11"/>
<polygon fill="black" stroke="black" points="806.53,-772.34 814.7,-765.59 804.1,-765.77 806.53,-772.34"/>
</g>
<!-- staph&#45;&gt;septs -->
<g id="edge35" class="edge">
<title>staph&#45;&gt;septs</title>
<path fill="none" stroke="black" d="M691.42,-810.62C720.49,-807.13 751.98,-798.45 775,-779 802.18,-756.04 785.4,-734.92 803,-704 874.96,-577.55 993.57,-449.45 1046.08,-395.52"/>
<polygon fill="black" stroke="black" points="690.86,-807.16 681.26,-811.64 691.56,-814.12 690.86,-807.16"/>
<polygon fill="black" stroke="black" points="1048.84,-397.7 1053.33,-388.11 1043.84,-392.81 1048.84,-397.7"/>
</g>
<!-- santost12 -->
<g id="node28" class="node">
<title>santost12</title>
<polygon fill="none" stroke="black" points="947,-836.5 810,-836.5 810,-783.5 947,-783.5 947,-836.5"/>
<text text-anchor="middle" x="878.5" y="-821.3" font-family="Times,serif" font-size="14.00">Santost12</text>
<text text-anchor="middle" x="878.5" y="-806.3" font-family="Times,serif" font-size="14.00">(10.127.69.1)</text>
<text text-anchor="middle" x="878.5" y="-791.3" font-family="Times,serif" font-size="14.00">(AS4200006969)</text>
</g>
<!-- staph&#45;&gt;santost12 -->
<g id="edge41" class="edge">
<title>staph&#45;&gt;santost12</title>
<path fill="none" stroke="black" d="M691.52,-810C725.49,-810 765.22,-810 799.22,-810"/>
<polygon fill="black" stroke="black" points="691.14,-806.5 681.14,-810 691.14,-813.5 691.14,-806.5"/>
<polygon fill="black" stroke="black" points="799.57,-813.5 809.57,-810 799.57,-806.5 799.57,-813.5"/>
</g>
<!-- JerryXiao&#45;&gt;ucbvax -->
<g id="edge28" class="edge">
<title>JerryXiao&#45;&gt;ucbvax</title>
<path fill="none" stroke="black" d="M647.48,-80.5C686.36,-111.94 748.12,-169.34 775,-235 826.49,-360.79 770.27,-714.08 803,-846 814.98,-894.28 842.19,-945.56 860.2,-976.17"/>
<polygon fill="black" stroke="black" points="649.55,-77.67 639.55,-74.19 645.2,-83.15 649.55,-77.67"/>
<polygon fill="black" stroke="black" points="857.33,-978.19 865.47,-984.98 863.34,-974.6 857.33,-978.19"/>
</g>
<!-- JerryXiao_SH01 -->
<g id="node21" class="node">
<title>JerryXiao_SH01</title>
<polygon fill="none" stroke="black" points="939.5,-74 817.5,-74 817.5,-36 939.5,-36 939.5,-74"/>
<text text-anchor="middle" x="878.5" y="-58.8" font-family="Times,serif" font-size="14.00">jerryxiao&#45;sh01</text>
<text text-anchor="middle" x="878.5" y="-43.8" font-family="Times,serif" font-size="14.00">(10.127.8.195)</text>
</g>
<!-- JerryXiao&#45;&gt;JerryXiao_SH01 -->
<g id="edge24" class="edge">
<title>JerryXiao&#45;&gt;JerryXiao_SH01</title>
<path fill="none" stroke="black" d="M701.35,-55C735.74,-55 774.65,-55 807.13,-55"/>
<polygon fill="black" stroke="black" points="701.28,-51.5 691.28,-55 701.28,-58.5 701.28,-51.5"/>
<polygon fill="black" stroke="black" points="807.44,-58.5 817.44,-55 807.44,-51.5 807.44,-58.5"/>
</g>
<!-- JerryXiao_HK01 -->
<g id="node22" class="node">
<title>JerryXiao_HK01</title>
<polygon fill="none" stroke="black" points="1134.5,-64 1012.5,-64 1012.5,-26 1134.5,-26 1134.5,-64"/>
<text text-anchor="middle" x="1073.5" y="-48.8" font-family="Times,serif" font-size="14.00">jerryxiao&#45;hk01</text>
<text text-anchor="middle" x="1073.5" y="-33.8" font-family="Times,serif" font-size="14.00">(10.127.8.194)</text>
</g>
<!-- JerryXiao&#45;&gt;JerryXiao_HK01 -->
<g id="edge25" class="edge">
<title>JerryXiao&#45;&gt;JerryXiao_HK01</title>
<path fill="none" stroke="black" d="M701.31,-39.29C733.22,-34.3 769.63,-29.45 803,-27 869.93,-22.08 887.08,-21.95 954,-27 969.66,-28.18 986.38,-30.23 1002.19,-32.53"/>
<polygon fill="black" stroke="black" points="700.45,-35.88 691.12,-40.91 701.55,-42.79 700.45,-35.88"/>
<polygon fill="black" stroke="black" points="1002.01,-36.05 1012.42,-34.08 1003.05,-29.13 1002.01,-36.05"/>
</g>
<!-- JerryXiao&#45;&gt;septs -->
<g id="edge29" class="edge">
<title>JerryXiao&#45;&gt;septs</title>
<path fill="none" stroke="black" d="M701.27,-69.19C795.4,-85.04 934.11,-110.52 954,-126 972.42,-140.34 1033.77,-279.12 1060.2,-340.29"/>
<polygon fill="black" stroke="black" points="701.61,-65.69 691.17,-67.49 700.45,-72.6 701.61,-65.69"/>
<polygon fill="black" stroke="black" points="1057.11,-341.95 1064.28,-349.75 1063.54,-339.18 1057.11,-341.95"/>
</g>
<!-- JerryXiao_SH01&#45;&gt;JerryXiao_HK01 -->
<g id="edge26" class="edge">
<title>JerryXiao_SH01&#45;&gt;JerryXiao_HK01</title>
<path fill="none" stroke="black" d="M949.72,-51.36C966.68,-50.48 984.81,-49.54 1001.79,-48.66"/>
<polygon fill="black" stroke="black" points="949.31,-47.88 939.51,-51.89 949.68,-54.87 949.31,-47.88"/>
<polygon fill="black" stroke="black" points="1002.39,-52.14 1012.2,-48.12 1002.03,-45.15 1002.39,-52.14"/>
</g>
<!-- dfceaef -->
<g id="node26" class="node">
<title>dfceaef</title>
<polygon fill="none" stroke="black" points="1142,-166.5 1005,-166.5 1005,-113.5 1142,-113.5 1142,-166.5"/>
<text text-anchor="middle" x="1073.5" y="-151.3" font-family="Times,serif" font-size="14.00">dfceaef</text>
<text text-anchor="middle" x="1073.5" y="-136.3" font-family="Times,serif" font-size="14.00">(10.127.8.64/26)</text>
<text text-anchor="middle" x="1073.5" y="-121.3" font-family="Times,serif" font-size="14.00">(AS4242420140)</text>
</g>
<!-- JerryXiao_SH01&#45;&gt;dfceaef -->
<g id="edge30" class="edge">
<title>JerryXiao_SH01&#45;&gt;dfceaef</title>
<path fill="none" stroke="black" d="M934,-78.3C940.79,-81.45 947.59,-84.72 954,-88 970.49,-96.43 973.27,-101.05 990,-109 991.76,-109.84 993.55,-110.67 995.37,-111.49"/>
<polygon fill="black" stroke="black" points="935.34,-75.06 924.79,-74.1 932.44,-81.43 935.34,-75.06"/>
<polygon fill="black" stroke="black" points="994.02,-114.72 1004.58,-115.53 996.83,-108.31 994.02,-114.72"/>
</g>
<!-- JerryXiao_HK02 -->
<g id="node23" class="node">
<title>JerryXiao_HK02</title>
<polygon fill="none" stroke="black" points="1322.5,-64 1200.5,-64 1200.5,-26 1322.5,-26 1322.5,-64"/>
<text text-anchor="middle" x="1261.5" y="-48.8" font-family="Times,serif" font-size="14.00">jerryxiao&#45;hk02</text>
<text text-anchor="middle" x="1261.5" y="-33.8" font-family="Times,serif" font-size="14.00">(10.127.8.196)</text>
</g>
<!-- JerryXiao_HK01&#45;&gt;JerryXiao_HK02 -->
<g id="edge27" class="edge">
<title>JerryXiao_HK01&#45;&gt;JerryXiao_HK02</title>
<path fill="none" stroke="black" d="M1144.65,-45C1159.52,-45 1175.23,-45 1190.11,-45"/>
<polygon fill="black" stroke="black" points="1144.63,-41.5 1134.63,-45 1144.63,-48.5 1144.63,-41.5"/>
<polygon fill="black" stroke="black" points="1190.26,-48.5 1200.26,-45 1190.26,-41.5 1190.26,-48.5"/>
</g>
<!-- septs&#45;&gt;frank_hsinchu -->
<g id="edge45" class="edge">
<title>septs&#45;&gt;frank_hsinchu</title>
<path fill="none" stroke="black" d="M1129.86,-346.08C1147.85,-338.63 1168.1,-330.25 1187.2,-322.35"/>
<polygon fill="black" stroke="black" points="1128.38,-342.91 1120.48,-349.97 1131.06,-349.38 1128.38,-342.91"/>
<polygon fill="black" stroke="black" points="1188.56,-325.57 1196.46,-318.51 1185.88,-319.1 1188.56,-325.57"/>
</g>
<!-- lantian -->
<g id="node25" class="node">
<title>lantian</title>
<polygon fill="none" stroke="black" points="422,-116 285,-116 285,-78 422,-78 422,-116"/>
<text text-anchor="middle" x="353.5" y="-100.8" font-family="Times,serif" font-size="14.00">lantian</text>
<text text-anchor="middle" x="353.5" y="-85.8" font-family="Times,serif" font-size="14.00">(AS4200002547)</text>
</g>
<!-- lantian&#45;&gt;JerryXiao -->
<g id="edge33" class="edge">
<title>lantian&#45;&gt;JerryXiao</title>
<path fill="none" stroke="black" d="M432.29,-84.29C461.23,-79.56 494.27,-74.16 524.02,-69.3"/>
<polygon fill="black" stroke="black" points="431.33,-80.9 422.02,-85.96 432.46,-87.81 431.33,-80.9"/>
<polygon fill="black" stroke="black" points="524.67,-72.74 533.97,-67.67 523.54,-65.83 524.67,-72.74"/>
</g>
<!-- lantian&#45;&gt;septs -->
<g id="edge32" class="edge">
<title>lantian&#45;&gt;septs</title>
<path fill="none" stroke="black" d="M432.35,-109.21C584.51,-133.54 910.35,-188.11 954,-216 1002.78,-247.16 1039.58,-305.69 1058.43,-340.62"/>
<polygon fill="black" stroke="black" points="432.57,-105.7 422.14,-107.58 431.47,-112.61 432.57,-105.7"/>
<polygon fill="black" stroke="black" points="1055.51,-342.59 1063.26,-349.81 1061.7,-339.33 1055.51,-342.59"/>
</g>
<!-- NNPCC -->
<g id="node30" class="node">
<title>NNPCC</title>
<polygon fill="none" stroke="black" points="160,-1183 89,-1183 89,-1147 160,-1147 160,-1183"/>
<text text-anchor="middle" x="124.5" y="-1161.3" font-family="Times,serif" font-size="14.00">NNPCC</text>
</g>
<!-- NNPCC&#45;&gt;np11 -->
<g id="edge1" class="edge">
<title>NNPCC&#45;&gt;np11</title>
<path fill="none" stroke="black" d="M170.3,-1162.56C195.06,-1159.48 225.47,-1152.72 249,-1138 270.6,-1124.49 264.93,-1109.31 284.5,-1093 286,-1091.75 287.55,-1090.52 289.14,-1089.32"/>
<polygon fill="black" stroke="black" points="169.64,-1159.11 160.08,-1163.67 170.39,-1166.07 169.64,-1159.11"/>
<polygon fill="black" stroke="black" points="291.2,-1092.16 297.38,-1083.56 287.18,-1086.43 291.2,-1092.16"/>
</g>
<!-- NeoBOX -->
<g id="node31" class="node">
<title>NeoBOX</title>
<polygon fill="none" stroke="black" points="163,-1129 86,-1129 86,-1093 163,-1093 163,-1129"/>
<text text-anchor="middle" x="124.5" y="-1107.3" font-family="Times,serif" font-size="14.00">NeoBOX</text>
</g>
<!-- NeoBOX&#45;&gt;np11 -->
<g id="edge2" class="edge">
<title>NeoBOX&#45;&gt;np11</title>
<path fill="none" stroke="black" d="M173.01,-1101.08C196.01,-1096.16 223.99,-1089.99 249,-1084 260.03,-1081.36 271.7,-1078.44 283.06,-1075.52"/>
<polygon fill="black" stroke="black" points="172.2,-1097.67 163.15,-1103.18 173.66,-1104.52 172.2,-1097.67"/>
<polygon fill="black" stroke="black" points="284.14,-1078.86 292.95,-1072.97 282.39,-1072.08 284.14,-1078.86"/>
</g>
<!-- cklvax -->
<g id="node32" class="node">
<title>cklvax</title>
<polygon fill="none" stroke="black" points="155.5,-1075 93.5,-1075 93.5,-1039 155.5,-1039 155.5,-1075"/>
<text text-anchor="middle" x="124.5" y="-1053.3" font-family="Times,serif" font-size="14.00">cklvax</text>
</g>
<!-- cklvax&#45;&gt;np11 -->
<g id="edge3" class="edge">
<title>cklvax&#45;&gt;np11</title>
<path fill="none" stroke="black" d="M166.03,-1057C198.4,-1057 244.51,-1057 282.78,-1057"/>
<polygon fill="black" stroke="black" points="165.64,-1053.5 155.64,-1057 165.64,-1060.5 165.64,-1053.5"/>
<polygon fill="black" stroke="black" points="282.83,-1060.5 292.83,-1057 282.83,-1053.5 282.83,-1060.5"/>
</g>
<!-- NeoStorage -->
<g id="node33" class="node">
<title>NeoStorage</title>
<polygon fill="none" stroke="black" points="175,-1021 74,-1021 74,-985 175,-985 175,-1021"/>
<text text-anchor="middle" x="124.5" y="-999.3" font-family="Times,serif" font-size="14.00">NeoStorage</text>
</g>
<!-- NeoStorage&#45;&gt;np11 -->
<g id="edge4" class="edge">
<title>NeoStorage&#45;&gt;np11</title>
<path fill="none" stroke="black" d="M185.23,-1015.55C205.51,-1019.95 228.28,-1025.03 249,-1030 260.03,-1032.64 271.7,-1035.56 283.06,-1038.48"/>
<polygon fill="black" stroke="black" points="185.69,-1012.07 175.18,-1013.39 184.22,-1018.92 185.69,-1012.07"/>
<polygon fill="black" stroke="black" points="282.39,-1041.92 292.95,-1041.03 284.14,-1035.14 282.39,-1041.92"/>
</g>
</g>
</svg>
