<?xml version="1.0" encoding="UTF-8" standalone="no"?>
<!DOCTYPE svg PUBLIC "-//W3C//DTD SVG 1.1//EN"
 "http://www.w3.org/Graphics/SVG/1.1/DTD/svg11.dtd">
<!-- Generated by graphviz version 2.42.3 (0)
 -->
<!-- Title: NeoNetwork Nodes Pages: 1 -->
<svg width="1310pt" height="992pt"
 viewBox="0.00 0.00 1310.00 992.37" xmlns="http://www.w3.org/2000/svg" xmlns:xlink="http://www.w3.org/1999/xlink">
<g id="graph0" class="graph" transform="scale(1 1) rotate(0) translate(4 988.37)">
<title>NeoNetwork Nodes</title>
<polygon fill="white" stroke="transparent" points="-4,4 -4,-988.37 1306,-988.37 1306,4 -4,4"/>
<text text-anchor="middle" x="651" y="-969.17" font-family="Times,serif" font-size="14.00">NeoNetwork Nodes</text>
<g id="clust1" class="cluster">
<title>cluster_AS4201048576</title>
<polygon fill="none" stroke="black" points="8,-657.29 8,-894.29 946.5,-894.29 946.5,-657.29 8,-657.29"/>
<text text-anchor="middle" x="477.25" y="-879.09" font-family="Times,serif" font-size="14.00">NeoNetwork (AS4201048576)</text>
</g>
<g id="clust2" class="cluster">
<title>cluster_AS4200012450</title>
<polygon fill="none" stroke="black" points="146.5,-164.29 146.5,-649.29 564,-649.29 564,-164.29 146.5,-164.29"/>
<text text-anchor="middle" x="355.25" y="-634.09" font-family="Times,serif" font-size="14.00">MagicNeko Network (AS4200012450)</text>
</g>
<g id="clust3" class="cluster">
<title>cluster_AS4200066666</title>
<polygon fill="none" stroke="black" points="354.5,-59.29 354.5,-156.29 1119.5,-156.29 1119.5,-59.29 354.5,-59.29"/>
<text text-anchor="middle" x="737" y="-141.09" font-family="Times,serif" font-size="14.00">Jerry Network (AS4200066666)</text>
</g>
<!-- c -->
<g id="node1" class="node">
<title>c</title>
<polygon fill="none" stroke="black" points="938.5,-703.29 786.5,-703.29 786.5,-665.29 938.5,-665.29 938.5,-703.29"/>
<text text-anchor="middle" x="862.5" y="-688.09" font-family="Times,serif" font-size="14.00">caasih.neocloud.tw</text>
<text text-anchor="middle" x="862.5" y="-673.09" font-family="Times,serif" font-size="14.00">(10.127.0.1)</text>
</g>
<!-- staph -->
<g id="node16" class="node">
<title>staph</title>
<polygon fill="none" stroke="black" points="1119,-325.29 982,-325.29 982,-287.29 1119,-287.29 1119,-325.29"/>
<text text-anchor="middle" x="1050.5" y="-310.09" font-family="Times,serif" font-size="14.00">s.aureus.ga</text>
<text text-anchor="middle" x="1050.5" y="-295.09" font-family="Times,serif" font-size="14.00">(AS4200078274)</text>
</g>
<!-- c&#45;&gt;staph -->
<g id="edge14" class="edge">
<title>c&#45;&gt;staph</title>
<path fill="none" stroke="black" d="M873.28,-664.9C888.88,-633.96 920.29,-571.46 946.5,-518.29 978.91,-452.54 1016.4,-375 1035.99,-334.36"/>
<polygon fill="black" stroke="black" points="1039.15,-335.85 1040.34,-325.33 1032.85,-332.82 1039.15,-335.85"/>
</g>
<!-- ucbvax -->
<g id="node2" class="node">
<title>ucbvax</title>
<polygon fill="none" stroke="black" points="743,-741.29 592,-741.29 592,-703.29 743,-703.29 743,-741.29"/>
<text text-anchor="middle" x="667.5" y="-726.09" font-family="Times,serif" font-size="14.00">router.neocloud.tw</text>
<text text-anchor="middle" x="667.5" y="-711.09" font-family="Times,serif" font-size="14.00">(10.127.255.2)</text>
</g>
<!-- ucbvax&#45;&gt;c -->
<g id="edge8" class="edge">
<title>ucbvax&#45;&gt;c</title>
<path fill="none" stroke="black" d="M753.21,-705.61C760.9,-704.09 768.7,-702.56 776.4,-701.04"/>
<polygon fill="black" stroke="black" points="752.25,-702.23 743.12,-707.6 753.61,-709.1 752.25,-702.23"/>
<polygon fill="black" stroke="black" points="777.31,-704.43 786.44,-699.06 775.96,-697.56 777.31,-704.43"/>
</g>
<!-- chenx97 -->
<g id="node18" class="node">
<title>chenx97</title>
<polygon fill="none" stroke="black" points="946,-509.29 779,-509.29 779,-471.29 946,-471.29 946,-509.29"/>
<text text-anchor="middle" x="862.5" y="-494.09" font-family="Times,serif" font-size="14.00">chenx97.neocloud.tw</text>
<text text-anchor="middle" x="862.5" y="-479.09" font-family="Times,serif" font-size="14.00">(AS4200114514)</text>
</g>
<!-- ucbvax&#45;&gt;chenx97 -->
<g id="edge16" class="edge">
<title>ucbvax&#45;&gt;chenx97</title>
<path fill="none" stroke="black" d="M691.05,-695.18C728.23,-650.49 801.97,-561.84 839.07,-517.24"/>
<polygon fill="black" stroke="black" points="688.33,-692.98 684.62,-702.91 693.71,-697.46 688.33,-692.98"/>
<polygon fill="black" stroke="black" points="841.85,-519.38 845.56,-509.45 836.47,-514.9 841.85,-519.38"/>
</g>
<!-- septs -->
<g id="node23" class="node">
<title>septs</title>
<polygon fill="none" stroke="black" points="1297,-255.29 1160,-255.29 1160,-217.29 1297,-217.29 1297,-255.29"/>
<text text-anchor="middle" x="1228.5" y="-240.09" font-family="Times,serif" font-size="14.00">bgp.septs.me</text>
<text text-anchor="middle" x="1228.5" y="-225.09" font-family="Times,serif" font-size="14.00">(AS4200055555)</text>
</g>
<!-- ucbvax&#45;&gt;septs -->
<g id="edge37" class="edge">
<title>ucbvax&#45;&gt;septs</title>
<path fill="none" stroke="black" d="M753.05,-740.88C812.03,-748.99 889.98,-749.52 946.5,-712.29 991.76,-682.47 1116.83,-309.77 1155,-271.29 1158.88,-267.38 1163.27,-263.85 1167.94,-260.66"/>
<polygon fill="black" stroke="black" points="753.42,-737.39 743.01,-739.4 752.4,-744.32 753.42,-737.39"/>
<polygon fill="black" stroke="black" points="1169.93,-263.55 1176.58,-255.31 1166.24,-257.6 1169.93,-263.55"/>
</g>
<!-- np11 -->
<g id="node3" class="node">
<title>np11</title>
<polygon fill="none" stroke="black" points="282,-751.79 161,-751.79 161,-698.79 282,-698.79 282,-751.79"/>
<text text-anchor="middle" x="221.5" y="-736.59" font-family="Times,serif" font-size="14.00">NeoPDP&#45;11</text>
<text text-anchor="middle" x="221.5" y="-721.59" font-family="Times,serif" font-size="14.00">(10.127.255.1,</text>
<text text-anchor="middle" x="221.5" y="-706.59" font-family="Times,serif" font-size="14.00">10.127.1.1)</text>
</g>
<!-- np11&#45;&gt;c -->
<g id="edge7" class="edge">
<title>np11&#45;&gt;c</title>
<path fill="none" stroke="black" d="M282.28,-719.41C355.29,-712.43 482.6,-700.9 592,-694.29 653.58,-690.56 723.16,-688.02 776.19,-686.44"/>
<polygon fill="black" stroke="black" points="776.34,-689.93 786.24,-686.14 776.14,-682.94 776.34,-689.93"/>
</g>
<!-- np11&#45;&gt;ucbvax -->
<g id="edge5" class="edge">
<title>np11&#45;&gt;ucbvax</title>
<path fill="none" stroke="black" d="M282.15,-723.97C296.51,-723.7 311.8,-723.44 326,-723.29 413.01,-722.32 512.53,-722.13 581.41,-722.15"/>
<polygon fill="black" stroke="black" points="581.77,-725.65 591.77,-722.15 581.77,-718.65 581.77,-725.65"/>
</g>
<!-- pan -->
<g id="node6" class="node">
<title>pan</title>
<polygon fill="none" stroke="black" points="502.5,-770.29 379.5,-770.29 379.5,-732.29 502.5,-732.29 502.5,-770.29"/>
<text text-anchor="middle" x="441" y="-755.09" font-family="Times,serif" font-size="14.00">r2.neocloud.tw</text>
<text text-anchor="middle" x="441" y="-740.09" font-family="Times,serif" font-size="14.00">(10.127.3.1)</text>
</g>
<!-- np11&#45;&gt;pan -->
<g id="edge6" class="edge">
<title>np11&#45;&gt;pan</title>
<path fill="none" stroke="black" d="M282.22,-732.43C309.1,-735.64 341.04,-739.46 369.12,-742.81"/>
<polygon fill="black" stroke="black" points="368.93,-746.32 379.28,-744.03 369.76,-739.37 368.93,-746.32"/>
</g>
<!-- ns -->
<g id="node4" class="node">
<title>ns</title>
<polygon fill="none" stroke="black" points="287,-808.29 156,-808.29 156,-770.29 287,-770.29 287,-808.29"/>
<text text-anchor="middle" x="221.5" y="-793.09" font-family="Times,serif" font-size="14.00">NeoSystem</text>
<text text-anchor="middle" x="221.5" y="-778.09" font-family="Times,serif" font-size="14.00">(10.127.255.80)</text>
</g>
<!-- ns&#45;&gt;ucbvax -->
<g id="edge9" class="edge">
<title>ns&#45;&gt;ucbvax</title>
<path fill="none" stroke="black" d="M287.09,-796.36C356.78,-801.94 470.35,-805.04 564,-779.29 588.07,-772.67 612.59,-759.32 631.61,-747.2"/>
<polygon fill="black" stroke="black" points="633.76,-749.98 640.21,-741.57 629.93,-744.12 633.76,-749.98"/>
</g>
<!-- ns&#45;&gt;pan -->
<g id="edge10" class="edge">
<title>ns&#45;&gt;pan</title>
<path fill="none" stroke="black" d="M287.17,-777.99C313.04,-773.47 342.92,-768.25 369.36,-763.63"/>
<polygon fill="black" stroke="black" points="370.06,-767.06 379.3,-761.89 368.85,-760.16 370.06,-767.06"/>
</g>
<!-- megumiLHS -->
<g id="node5" class="node">
<title>megumiLHS</title>
<polygon fill="none" stroke="black" points="523.5,-940.29 358.5,-940.29 358.5,-902.29 523.5,-902.29 523.5,-940.29"/>
<text text-anchor="middle" x="441" y="-925.09" font-family="Times,serif" font-size="14.00">megumi.yukipedia.cf</text>
<text text-anchor="middle" x="441" y="-910.09" font-family="Times,serif" font-size="14.00">(AS4203223939)</text>
</g>
<!-- megumiLHS&#45;&gt;ucbvax -->
<g id="edge12" class="edge">
<title>megumiLHS&#45;&gt;ucbvax</title>
<path fill="none" stroke="black" d="M533.37,-913.11C544.29,-909.58 554.81,-904.78 564,-898.29 615.55,-861.88 645.04,-790.7 658.17,-750.92"/>
<polygon fill="black" stroke="black" points="532.34,-909.76 523.7,-915.89 534.28,-916.49 532.34,-909.76"/>
<polygon fill="black" stroke="black" points="661.54,-751.88 661.24,-741.29 654.87,-749.76 661.54,-751.88"/>
</g>
<!-- megumiLHS&#45;&gt;septs -->
<g id="edge40" class="edge">
<title>megumiLHS&#45;&gt;septs</title>
<path fill="none" stroke="black" d="M526.11,-942.33C633.59,-964.07 820.76,-984.03 946.5,-898.29 1102.49,-791.92 1066.7,-691.56 1119.5,-510.29 1149.53,-407.18 1091.37,-357.79 1155,-271.29 1157.68,-267.64 1160.84,-264.36 1164.32,-261.41"/>
<polygon fill="black" stroke="black" points="526.78,-938.9 516.28,-940.29 525.36,-945.75 526.78,-938.9"/>
<polygon fill="black" stroke="black" points="1166.42,-264.21 1172.38,-255.45 1162.26,-258.58 1166.42,-264.21"/>
</g>
<!-- pan&#45;&gt;ucbvax -->
<g id="edge11" class="edge">
<title>pan&#45;&gt;ucbvax</title>
<path fill="none" stroke="black" d="M512.92,-742.13C534.77,-739.3 559.04,-736.17 581.72,-733.24"/>
<polygon fill="black" stroke="black" points="512.22,-738.69 502.75,-743.44 513.12,-745.63 512.22,-738.69"/>
<polygon fill="black" stroke="black" points="582.2,-736.71 591.67,-731.95 581.3,-729.76 582.2,-736.71"/>
</g>
<!-- icecat_Explosion -->
<g id="node7" class="node">
<title>icecat_Explosion</title>
<polygon fill="none" stroke="black" points="556,-441.79 326,-441.79 326,-388.79 556,-388.79 556,-441.79"/>
<text text-anchor="middle" x="441" y="-426.59" font-family="Times,serif" font-size="14.00">hk&#45;01.nextmoe.cloud.imiku.cn</text>
<text text-anchor="middle" x="441" y="-411.59" font-family="Times,serif" font-size="14.00">(10.127.0.58,</text>
<text text-anchor="middle" x="441" y="-396.59" font-family="Times,serif" font-size="14.00">10.127.4.10)</text>
</g>
<!-- icecat_Explosion&#45;&gt;ucbvax -->
<g id="edge13" class="edge">
<title>icecat_Explosion&#45;&gt;ucbvax</title>
<path fill="none" stroke="black" d="M467.61,-450.3C512.75,-512.04 605.59,-638.99 646.45,-694.87"/>
<polygon fill="black" stroke="black" points="470.26,-448 461.53,-441.99 464.61,-452.13 470.26,-448"/>
<polygon fill="black" stroke="black" points="643.82,-697.2 652.54,-703.2 649.47,-693.06 643.82,-697.2"/>
</g>
<!-- SUNNET -->
<g id="node26" class="node">
<title>SUNNET</title>
<polygon fill="none" stroke="black" points="736,-441.79 599,-441.79 599,-388.79 736,-388.79 736,-441.79"/>
<text text-anchor="middle" x="667.5" y="-426.59" font-family="Times,serif" font-size="14.00">SUNNET</text>
<text text-anchor="middle" x="667.5" y="-411.59" font-family="Times,serif" font-size="14.00">(10.127.11.0/24)</text>
<text text-anchor="middle" x="667.5" y="-396.59" font-family="Times,serif" font-size="14.00">(AS4242423088)</text>
</g>
<!-- icecat_Explosion&#45;&gt;SUNNET -->
<g id="edge41" class="edge">
<title>icecat_Explosion&#45;&gt;SUNNET</title>
<path fill="none" stroke="black" d="M566.48,-415.29C574.06,-415.29 581.55,-415.29 588.83,-415.29"/>
<polygon fill="black" stroke="black" points="566.22,-411.79 556.22,-415.29 566.22,-418.79 566.22,-411.79"/>
<polygon fill="black" stroke="black" points="588.97,-418.79 598.97,-415.29 588.97,-411.79 588.97,-418.79"/>
</g>
<!-- icecat_Notebook -->
<g id="node8" class="node">
<title>icecat_Notebook</title>
<polygon fill="none" stroke="black" points="288.5,-505.79 154.5,-505.79 154.5,-452.79 288.5,-452.79 288.5,-505.79"/>
<text text-anchor="middle" x="221.5" y="-490.59" font-family="Times,serif" font-size="14.00">Notebook</text>
<text text-anchor="middle" x="221.5" y="-475.59" font-family="Times,serif" font-size="14.00">(10.127.0.64/30,</text>
<text text-anchor="middle" x="221.5" y="-460.59" font-family="Times,serif" font-size="14.00">10.127.4.100)</text>
</g>
<!-- icecat_Notebook&#45;&gt;icecat_Explosion -->
<g id="edge24" class="edge">
<title>icecat_Notebook&#45;&gt;icecat_Explosion</title>
<path fill="none" stroke="black" d="M288.64,-459.82C304.88,-455.05 322.63,-449.82 340.07,-444.69"/>
<polygon fill="black" stroke="black" points="341.11,-448.03 349.72,-441.85 339.13,-441.32 341.11,-448.03"/>
</g>
<!-- magicneko_HK01 -->
<g id="node9" class="node">
<title>magicneko_HK01</title>
<polygon fill="none" stroke="black" points="273.5,-434.29 169.5,-434.29 169.5,-396.29 273.5,-396.29 273.5,-434.29"/>
<text text-anchor="middle" x="221.5" y="-419.09" font-family="Times,serif" font-size="14.00">M&#45;HK1</text>
<text text-anchor="middle" x="221.5" y="-404.09" font-family="Times,serif" font-size="14.00">(10.127.4.1)</text>
</g>
<!-- magicneko_HK01&#45;&gt;icecat_Explosion -->
<g id="edge17" class="edge">
<title>magicneko_HK01&#45;&gt;icecat_Explosion</title>
<path fill="none" stroke="black" d="M273.77,-415.29C286.63,-415.29 300.99,-415.29 315.74,-415.29"/>
<polygon fill="black" stroke="black" points="316,-418.79 326,-415.29 316,-411.79 316,-418.79"/>
</g>
<!-- magicneko_HK02 -->
<g id="node10" class="node">
<title>magicneko_HK02</title>
<polygon fill="none" stroke="black" points="278,-378.29 165,-378.29 165,-340.29 278,-340.29 278,-378.29"/>
<text text-anchor="middle" x="221.5" y="-363.09" font-family="Times,serif" font-size="14.00">M&#45;HK2</text>
<text text-anchor="middle" x="221.5" y="-348.09" font-family="Times,serif" font-size="14.00">(10.127.4.10)</text>
</g>
<!-- magicneko_HK02&#45;&gt;icecat_Explosion -->
<g id="edge18" class="edge">
<title>magicneko_HK02&#45;&gt;icecat_Explosion</title>
<path fill="none" stroke="black" d="M278.23,-373.64C293.17,-377.48 309.88,-381.78 326.73,-386.12"/>
<polygon fill="black" stroke="black" points="326.1,-389.58 336.66,-388.68 327.85,-382.8 326.1,-389.58"/>
</g>
<!-- magicneko_JP01 -->
<g id="node11" class="node">
<title>magicneko_JP01</title>
<polygon fill="none" stroke="black" points="278,-322.29 165,-322.29 165,-284.29 278,-284.29 278,-322.29"/>
<text text-anchor="middle" x="221.5" y="-307.09" font-family="Times,serif" font-size="14.00">M&#45;JP1</text>
<text text-anchor="middle" x="221.5" y="-292.09" font-family="Times,serif" font-size="14.00">(10.127.4.11)</text>
</g>
<!-- magicneko_JP01&#45;&gt;icecat_Explosion -->
<g id="edge19" class="edge">
<title>magicneko_JP01&#45;&gt;icecat_Explosion</title>
<path fill="none" stroke="black" d="M270.38,-322.33C277.03,-325.21 283.72,-328.24 290,-331.29 322.83,-347.22 358.52,-367.1 386.84,-383.51"/>
<polygon fill="black" stroke="black" points="385.37,-386.7 395.77,-388.71 388.89,-380.65 385.37,-386.7"/>
</g>
<!-- magicneko_HK03 -->
<g id="node12" class="node">
<title>magicneko_HK03</title>
<polygon fill="none" stroke="black" points="278,-618.29 165,-618.29 165,-580.29 278,-580.29 278,-618.29"/>
<text text-anchor="middle" x="221.5" y="-603.09" font-family="Times,serif" font-size="14.00">M&#45;HK3</text>
<text text-anchor="middle" x="221.5" y="-588.09" font-family="Times,serif" font-size="14.00">(10.127.4.12)</text>
</g>
<!-- magicneko_HK03&#45;&gt;icecat_Explosion -->
<g id="edge20" class="edge">
<title>magicneko_HK03&#45;&gt;icecat_Explosion</title>
<path fill="none" stroke="black" d="M274.87,-580.14C280.14,-577.46 285.29,-574.51 290,-571.29 339.84,-537.26 386.19,-484.52 413.81,-449.94"/>
<polygon fill="black" stroke="black" points="416.63,-452.01 420.08,-442 411.14,-447.68 416.63,-452.01"/>
</g>
<!-- magicneko_JP02 -->
<g id="node13" class="node">
<title>magicneko_JP02</title>
<polygon fill="none" stroke="black" points="278,-562.29 165,-562.29 165,-524.29 278,-524.29 278,-562.29"/>
<text text-anchor="middle" x="221.5" y="-547.09" font-family="Times,serif" font-size="14.00">M&#45;JP2</text>
<text text-anchor="middle" x="221.5" y="-532.09" font-family="Times,serif" font-size="14.00">(10.127.4.13)</text>
</g>
<!-- magicneko_JP02&#45;&gt;icecat_Explosion -->
<g id="edge21" class="edge">
<title>magicneko_JP02&#45;&gt;icecat_Explosion</title>
<path fill="none" stroke="black" d="M271.69,-524.2C277.94,-521.4 284.18,-518.4 290,-515.29 327.31,-495.36 367.04,-468.6 396.23,-447.77"/>
<polygon fill="black" stroke="black" points="398.47,-450.47 404.55,-441.79 394.39,-444.79 398.47,-450.47"/>
</g>
<!-- magicneko_RU01 -->
<g id="node14" class="node">
<title>magicneko_RU01</title>
<polygon fill="none" stroke="black" points="278,-266.29 165,-266.29 165,-228.29 278,-228.29 278,-266.29"/>
<text text-anchor="middle" x="221.5" y="-251.09" font-family="Times,serif" font-size="14.00">M&#45;RU1</text>
<text text-anchor="middle" x="221.5" y="-236.09" font-family="Times,serif" font-size="14.00">(10.127.4.14)</text>
</g>
<!-- magicneko_RU01&#45;&gt;icecat_Explosion -->
<g id="edge22" class="edge">
<title>magicneko_RU01&#45;&gt;icecat_Explosion</title>
<path fill="none" stroke="black" d="M275.87,-266.37C280.84,-269.04 285.64,-272.01 290,-275.29 310.47,-290.68 308.07,-302 326,-320.29 347.84,-342.57 374.54,-365.04 396.6,-382.52"/>
<polygon fill="black" stroke="black" points="394.48,-385.3 404.5,-388.73 398.8,-379.8 394.48,-385.3"/>
</g>
<!-- magicneko_RU01&#45;&gt;staph -->
<g id="edge39" class="edge">
<title>magicneko_RU01&#45;&gt;staph</title>
<path fill="none" stroke="black" d="M288.3,-251.98C439.14,-262.74 809.28,-289.15 971.35,-300.71"/>
<polygon fill="black" stroke="black" points="288.27,-248.47 278.05,-251.25 287.77,-255.45 288.27,-248.47"/>
<polygon fill="black" stroke="black" points="971.5,-304.23 981.72,-301.45 972,-297.25 971.5,-304.23"/>
</g>
<!-- magicneko_JP03 -->
<g id="node15" class="node">
<title>magicneko_JP03</title>
<polygon fill="none" stroke="black" points="278,-210.29 165,-210.29 165,-172.29 278,-172.29 278,-210.29"/>
<text text-anchor="middle" x="221.5" y="-195.09" font-family="Times,serif" font-size="14.00">M&#45;JP3</text>
<text text-anchor="middle" x="221.5" y="-180.09" font-family="Times,serif" font-size="14.00">(10.127.4.15)</text>
</g>
<!-- magicneko_JP03&#45;&gt;icecat_Explosion -->
<g id="edge23" class="edge">
<title>magicneko_JP03&#45;&gt;icecat_Explosion</title>
<path fill="none" stroke="black" d="M277.78,-210.48C282.14,-213.09 286.29,-216.02 290,-219.29 314.19,-240.61 307.42,-255.93 326,-282.29 351.03,-317.81 383.64,-355.11 407.56,-381.14"/>
<polygon fill="black" stroke="black" points="405.02,-383.55 414.38,-388.51 410.16,-378.79 405.02,-383.55"/>
</g>
<!-- magicneko_JP03&#45;&gt;chenx97 -->
<g id="edge38" class="edge">
<title>magicneko_JP03&#45;&gt;chenx97</title>
<path fill="none" stroke="black" d="M281.22,-214.74C284.22,-216.22 287.16,-217.74 290,-219.29 307.09,-228.63 308.55,-235.62 326,-244.29 500.58,-331.03 574.98,-281.45 743,-380.29 780.99,-402.63 816.95,-438.95 839.09,-463.69"/>
<polygon fill="black" stroke="black" points="282.64,-211.54 272.11,-210.43 279.65,-217.87 282.64,-211.54"/>
<polygon fill="black" stroke="black" points="836.54,-466.09 845.77,-471.28 841.79,-461.46 836.54,-466.09"/>
</g>
<!-- JerryXiao -->
<g id="node19" class="node">
<title>JerryXiao</title>
<polygon fill="none" stroke="black" points="519.5,-115.29 362.5,-115.29 362.5,-77.29 519.5,-77.29 519.5,-115.29"/>
<text text-anchor="middle" x="441" y="-100.09" font-family="Times,serif" font-size="14.00">jpn.neo.jerryxiao.cc</text>
<text text-anchor="middle" x="441" y="-85.09" font-family="Times,serif" font-size="14.00">(10.127.8.193)</text>
</g>
<!-- magicneko_JP03&#45;&gt;JerryXiao -->
<g id="edge32" class="edge">
<title>magicneko_JP03&#45;&gt;JerryXiao</title>
<path fill="none" stroke="black" d="M275.88,-167.97C309.72,-153.19 353.32,-134.15 387.07,-119.4"/>
<polygon fill="black" stroke="black" points="274.02,-164.97 266.25,-172.18 276.82,-171.38 274.02,-164.97"/>
<polygon fill="black" stroke="black" points="388.55,-122.58 396.32,-115.37 385.75,-116.16 388.55,-122.58"/>
</g>
<!-- magicneko_JP03&#45;&gt;septs -->
<g id="edge35" class="edge">
<title>magicneko_JP03&#45;&gt;septs</title>
<path fill="none" stroke="black" d="M288.02,-200.66C374.5,-212.2 531.59,-230.29 666.5,-230.29 666.5,-230.29 666.5,-230.29 863.5,-230.29 962.19,-230.29 1075.92,-232.52 1149.62,-234.26"/>
<polygon fill="black" stroke="black" points="288.46,-197.19 278.09,-199.32 287.53,-204.12 288.46,-197.19"/>
<polygon fill="black" stroke="black" points="1149.67,-237.76 1159.75,-234.5 1149.83,-230.76 1149.67,-237.76"/>
</g>
<!-- staph_CN -->
<g id="node17" class="node">
<title>staph_CN</title>
<polygon fill="none" stroke="black" points="1302,-332.79 1155,-332.79 1155,-279.79 1302,-279.79 1302,-332.79"/>
<text text-anchor="middle" x="1228.5" y="-317.59" font-family="Times,serif" font-size="14.00">cnhome.aureus.ga</text>
<text text-anchor="middle" x="1228.5" y="-302.59" font-family="Times,serif" font-size="14.00">(10.127.8.187)</text>
<text text-anchor="middle" x="1228.5" y="-287.59" font-family="Times,serif" font-size="14.00">(AS4200078274)</text>
</g>
<!-- staph&#45;&gt;staph_CN -->
<g id="edge15" class="edge">
<title>staph&#45;&gt;staph_CN</title>
<path fill="none" stroke="black" d="M1119.04,-306.29C1127.47,-306.29 1136.17,-306.29 1144.8,-306.29"/>
<polygon fill="black" stroke="black" points="1144.87,-309.79 1154.87,-306.29 1144.87,-302.79 1144.87,-309.79"/>
</g>
<!-- staph&#45;&gt;septs -->
<g id="edge36" class="edge">
<title>staph&#45;&gt;septs</title>
<path fill="none" stroke="black" d="M1109.14,-283.36C1128.7,-275.58 1150.53,-266.9 1170.08,-259.13"/>
<polygon fill="black" stroke="black" points="1107.59,-280.21 1099.59,-287.16 1110.18,-286.72 1107.59,-280.21"/>
<polygon fill="black" stroke="black" points="1171.47,-262.34 1179.47,-255.39 1168.88,-255.84 1171.47,-262.34"/>
</g>
<!-- JerryXiao&#45;&gt;ucbvax -->
<g id="edge29" class="edge">
<title>JerryXiao&#45;&gt;ucbvax</title>
<path fill="none" stroke="black" d="M514.36,-119.65C533.44,-129.27 552.02,-142.46 564,-160.29 600.24,-214.2 580.23,-387.4 592,-451.29 608.54,-541.11 640.72,-644.47 656.83,-693.54"/>
<polygon fill="black" stroke="black" points="515.81,-116.47 505.28,-115.35 512.81,-122.79 515.81,-116.47"/>
<polygon fill="black" stroke="black" points="653.55,-694.77 660.01,-703.16 660.2,-692.57 653.55,-694.77"/>
</g>
<!-- JerryXiao_SH01 -->
<g id="node20" class="node">
<title>JerryXiao_SH01</title>
<polygon fill="none" stroke="black" points="728.5,-125.29 606.5,-125.29 606.5,-87.29 728.5,-87.29 728.5,-125.29"/>
<text text-anchor="middle" x="667.5" y="-110.09" font-family="Times,serif" font-size="14.00">jerryxiao&#45;sh01</text>
<text text-anchor="middle" x="667.5" y="-95.09" font-family="Times,serif" font-size="14.00">(10.127.8.195)</text>
</g>
<!-- JerryXiao&#45;&gt;JerryXiao_SH01 -->
<g id="edge25" class="edge">
<title>JerryXiao&#45;&gt;JerryXiao_SH01</title>
<path fill="none" stroke="black" d="M529.68,-100.19C551.71,-101.17 575.08,-102.21 596.14,-103.15"/>
<polygon fill="black" stroke="black" points="529.72,-96.69 519.57,-99.74 529.41,-103.68 529.72,-96.69"/>
<polygon fill="black" stroke="black" points="596.14,-106.66 606.28,-103.6 596.45,-99.66 596.14,-106.66"/>
</g>
<!-- JerryXiao_HK01 -->
<g id="node21" class="node">
<title>JerryXiao_HK01</title>
<polygon fill="none" stroke="black" points="923.5,-115.29 801.5,-115.29 801.5,-77.29 923.5,-77.29 923.5,-115.29"/>
<text text-anchor="middle" x="862.5" y="-100.09" font-family="Times,serif" font-size="14.00">jerryxiao&#45;hk01</text>
<text text-anchor="middle" x="862.5" y="-85.09" font-family="Times,serif" font-size="14.00">(10.127.8.194)</text>
</g>
<!-- JerryXiao&#45;&gt;JerryXiao_HK01 -->
<g id="edge26" class="edge">
<title>JerryXiao&#45;&gt;JerryXiao_HK01</title>
<path fill="none" stroke="black" d="M529.89,-83.96C550.24,-81.6 571.84,-79.49 592,-78.29 658.99,-74.28 676.08,-73.23 743,-78.29 758.66,-79.47 775.38,-81.52 791.19,-83.82"/>
<polygon fill="black" stroke="black" points="529.21,-80.52 519.69,-85.17 530.04,-87.47 529.21,-80.52"/>
<polygon fill="black" stroke="black" points="791.01,-87.33 801.42,-85.36 792.05,-80.41 791.01,-87.33"/>
</g>
<!-- JerryXiao&#45;&gt;septs -->
<g id="edge30" class="edge">
<title>JerryXiao&#45;&gt;septs</title>
<path fill="none" stroke="black" d="M529.45,-78.69C549.89,-75.26 571.64,-72.15 592,-70.29 689.23,-61.4 1104.15,-59.91 1119.5,-68.29 1173.81,-97.94 1204.89,-167.89 1218.73,-207.55"/>
<polygon fill="black" stroke="black" points="528.8,-75.25 519.54,-80.4 529.99,-82.15 528.8,-75.25"/>
<polygon fill="black" stroke="black" points="1215.46,-208.8 1221.95,-217.17 1222.09,-206.58 1215.46,-208.8"/>
</g>
<!-- JerryXiao_SH01&#45;&gt;JerryXiao_HK01 -->
<g id="edge27" class="edge">
<title>JerryXiao_SH01&#45;&gt;JerryXiao_HK01</title>
<path fill="none" stroke="black" d="M738.72,-102.65C755.68,-101.77 773.81,-100.83 790.79,-99.95"/>
<polygon fill="black" stroke="black" points="738.31,-99.16 728.51,-103.18 738.68,-106.16 738.31,-99.16"/>
<polygon fill="black" stroke="black" points="791.39,-103.42 801.2,-99.41 791.03,-96.43 791.39,-103.42"/>
</g>
<!-- dfceaef -->
<g id="node25" class="node">
<title>dfceaef</title>
<polygon fill="none" stroke="black" points="931,-202.29 794,-202.29 794,-164.29 931,-164.29 931,-202.29"/>
<text text-anchor="middle" x="862.5" y="-187.09" font-family="Times,serif" font-size="14.00">dfceaef</text>
<text text-anchor="middle" x="862.5" y="-172.09" font-family="Times,serif" font-size="14.00">(AS4242420140)</text>
</g>
<!-- JerryXiao_SH01&#45;&gt;dfceaef -->
<g id="edge31" class="edge">
<title>JerryXiao_SH01&#45;&gt;dfceaef</title>
<path fill="none" stroke="black" d="M712.72,-130.2C732.6,-140.35 756.6,-151.77 779,-160.29 780.62,-160.9 782.27,-161.51 783.94,-162.11"/>
<polygon fill="black" stroke="black" points="714.09,-126.97 703.6,-125.49 710.88,-133.19 714.09,-126.97"/>
<polygon fill="black" stroke="black" points="783.05,-165.51 793.64,-165.45 785.32,-158.89 783.05,-165.51"/>
</g>
<!-- JerryXiao_HK02 -->
<g id="node22" class="node">
<title>JerryXiao_HK02</title>
<polygon fill="none" stroke="black" points="1111.5,-115.29 989.5,-115.29 989.5,-77.29 1111.5,-77.29 1111.5,-115.29"/>
<text text-anchor="middle" x="1050.5" y="-100.09" font-family="Times,serif" font-size="14.00">jerryxiao&#45;hk02</text>
<text text-anchor="middle" x="1050.5" y="-85.09" font-family="Times,serif" font-size="14.00">(10.127.8.196)</text>
</g>
<!-- JerryXiao_HK01&#45;&gt;JerryXiao_HK02 -->
<g id="edge28" class="edge">
<title>JerryXiao_HK01&#45;&gt;JerryXiao_HK02</title>
<path fill="none" stroke="black" d="M933.65,-96.29C948.52,-96.29 964.23,-96.29 979.11,-96.29"/>
<polygon fill="black" stroke="black" points="933.63,-92.79 923.63,-96.29 933.63,-99.79 933.63,-92.79"/>
<polygon fill="black" stroke="black" points="979.26,-99.79 989.26,-96.29 979.26,-92.79 979.26,-99.79"/>
</g>
<!-- lantian -->
<g id="node24" class="node">
<title>lantian</title>
<polygon fill="none" stroke="black" points="290,-62.29 153,-62.29 153,-24.29 290,-24.29 290,-62.29"/>
<text text-anchor="middle" x="221.5" y="-47.09" font-family="Times,serif" font-size="14.00">lantian</text>
<text text-anchor="middle" x="221.5" y="-32.09" font-family="Times,serif" font-size="14.00">(AS4200002547)</text>
</g>
<!-- lantian&#45;&gt;JerryXiao -->
<g id="edge34" class="edge">
<title>lantian&#45;&gt;JerryXiao</title>
<path fill="none" stroke="black" d="M299.91,-62.15C316.8,-66.27 334.8,-70.65 352.08,-74.86"/>
<polygon fill="black" stroke="black" points="300.67,-58.73 290.13,-59.77 299.01,-65.53 300.67,-58.73"/>
<polygon fill="black" stroke="black" points="351.6,-78.35 362.15,-77.32 353.26,-71.55 351.6,-78.35"/>
</g>
<!-- lantian&#45;&gt;septs -->
<g id="edge33" class="edge">
<title>lantian&#45;&gt;septs</title>
<path fill="none" stroke="black" d="M299.96,-31.49C388.4,-19.07 537.52,-1.29 666.5,-1.29 666.5,-1.29 666.5,-1.29 863.5,-1.29 979.78,-1.29 1024.88,12.31 1119.5,-55.29 1172.89,-93.43 1204.47,-166.93 1218.6,-207.55"/>
<polygon fill="black" stroke="black" points="299.42,-28.04 290.01,-32.9 300.4,-34.97 299.42,-28.04"/>
<polygon fill="black" stroke="black" points="1215.32,-208.77 1221.82,-217.13 1221.95,-206.54 1215.32,-208.77"/>
</g>
<!-- NNPCC -->
<g id="node27" class="node">
<title>NNPCC</title>
<polygon fill="none" stroke="black" points="102,-863.29 31,-863.29 31,-827.29 102,-827.29 102,-863.29"/>
<text text-anchor="middle" x="66.5" y="-841.59" font-family="Times,serif" font-size="14.00">NNPCC</text>
</g>
<!-- NNPCC&#45;&gt;np11 -->
<g id="edge1" class="edge">
<title>NNPCC&#45;&gt;np11</title>
<path fill="none" stroke="black" d="M110.43,-824.13C112.76,-822.3 114.98,-820.35 117,-818.29 136.95,-797.9 126.08,-781.21 146.5,-761.29 148.38,-759.45 150.37,-757.7 152.45,-756.02"/>
<polygon fill="black" stroke="black" points="108.34,-821.32 102.13,-829.9 112.34,-827.07 108.34,-821.32"/>
<polygon fill="black" stroke="black" points="154.8,-758.63 160.83,-749.91 150.68,-752.97 154.8,-758.63"/>
</g>
<!-- NeoBOX -->
<g id="node28" class="node">
<title>NeoBOX</title>
<polygon fill="none" stroke="black" points="105,-809.29 28,-809.29 28,-773.29 105,-773.29 105,-809.29"/>
<text text-anchor="middle" x="66.5" y="-787.59" font-family="Times,serif" font-size="14.00">NeoBOX</text>
</g>
<!-- NeoBOX&#45;&gt;np11 -->
<g id="edge2" class="edge">
<title>NeoBOX&#45;&gt;np11</title>
<path fill="none" stroke="black" d="M114.63,-770.96C126.25,-765.94 138.94,-760.47 151.36,-755.11"/>
<polygon fill="black" stroke="black" points="113.12,-767.8 105.32,-774.97 115.89,-774.23 113.12,-767.8"/>
<polygon fill="black" stroke="black" points="152.99,-758.22 160.79,-751.05 150.22,-751.79 152.99,-758.22"/>
</g>
<!-- cklvax -->
<g id="node29" class="node">
<title>cklvax</title>
<polygon fill="none" stroke="black" points="97.5,-755.29 35.5,-755.29 35.5,-719.29 97.5,-719.29 97.5,-755.29"/>
<text text-anchor="middle" x="66.5" y="-733.59" font-family="Times,serif" font-size="14.00">cklvax</text>
</g>
<!-- cklvax&#45;&gt;np11 -->
<g id="edge3" class="edge">
<title>cklvax&#45;&gt;np11</title>
<path fill="none" stroke="black" d="M107.93,-734.12C121.11,-733.08 136.13,-731.9 150.81,-730.75"/>
<polygon fill="black" stroke="black" points="107.42,-730.64 97.73,-734.92 107.97,-737.62 107.42,-730.64"/>
<polygon fill="black" stroke="black" points="151.2,-734.23 160.9,-729.96 150.65,-727.25 151.2,-734.23"/>
</g>
<!-- NeoStorage -->
<g id="node30" class="node">
<title>NeoStorage</title>
<polygon fill="none" stroke="black" points="117,-701.29 16,-701.29 16,-665.29 117,-665.29 117,-701.29"/>
<text text-anchor="middle" x="66.5" y="-679.59" font-family="Times,serif" font-size="14.00">NeoStorage</text>
</g>
<!-- NeoStorage&#45;&gt;np11 -->
<g id="edge4" class="edge">
<title>NeoStorage&#45;&gt;np11</title>
<path fill="none" stroke="black" d="M126.85,-699.58C134.8,-701.76 143.02,-704.02 151.12,-706.24"/>
<polygon fill="black" stroke="black" points="127.74,-696.2 117.17,-696.92 125.89,-702.95 127.74,-696.2"/>
<polygon fill="black" stroke="black" points="150.37,-709.66 160.94,-708.94 152.22,-702.91 150.37,-709.66"/>
</g>
</g>
</svg>
