<?xml version="1.0" encoding="UTF-8" standalone="no"?>
<!DOCTYPE svg PUBLIC "-//W3C//DTD SVG 1.1//EN"
 "http://www.w3.org/Graphics/SVG/1.1/DTD/svg11.dtd">
<!-- Generated by graphviz version 2.43.0 (0)
 -->
<!-- Title: NeoNetwork Nodes Pages: 1 -->
<svg width="1135pt" height="1153pt"
 viewBox="0.00 0.00 1135.00 1153.00" xmlns="http://www.w3.org/2000/svg" xmlns:xlink="http://www.w3.org/1999/xlink">
<g id="graph0" class="graph" transform="scale(1 1) rotate(0) translate(4 1149)">
<title>NeoNetwork Nodes</title>
<polygon fill="white" stroke="transparent" points="-4,4 -4,-1149 1131,-1149 1131,4 -4,4"/>
<text text-anchor="middle" x="563.5" y="-1129.8" font-family="Times,serif" font-size="14.00">NeoNetwork Nodes</text>
<g id="clust1" class="cluster">
<title>cluster_AS4201048576</title>
<polygon fill="none" stroke="black" points="8,-877 8,-1114 953.5,-1114 953.5,-877 8,-877"/>
<text text-anchor="middle" x="480.75" y="-1098.8" font-family="Times,serif" font-size="14.00">NeoNetwork (AS4201048576)</text>
</g>
<g id="clust2" class="cluster">
<title>cluster_AS4200012450</title>
<polygon fill="none" stroke="black" points="147.5,-384 147.5,-869 568,-869 568,-384 147.5,-384"/>
<text text-anchor="middle" x="357.75" y="-853.8" font-family="Times,serif" font-size="14.00">MagicNeko Network (AS4200012450)</text>
</g>
<g id="clust3" class="cluster">
<title>cluster_AS4200066666</title>
<polygon fill="none" stroke="black" points="356.5,-8 356.5,-105 1119,-105 1119,-8 356.5,-8"/>
<text text-anchor="middle" x="737.75" y="-89.8" font-family="Times,serif" font-size="14.00">Jerry Network (AS4200066666)</text>
</g>
<!-- c -->
<g id="node1" class="node">
<title>c</title>
<polygon fill="none" stroke="black" points="945.5,-962 791.5,-962 791.5,-924 945.5,-924 945.5,-962"/>
<text text-anchor="middle" x="868.5" y="-946.8" font-family="Times,serif" font-size="14.00">caasih.neocloud.tw</text>
<text text-anchor="middle" x="868.5" y="-931.8" font-family="Times,serif" font-size="14.00">(10.127.0.1)</text>
</g>
<!-- ucbvax -->
<g id="node2" class="node">
<title>ucbvax</title>
<polygon fill="none" stroke="black" points="748,-923 596,-923 596,-885 748,-885 748,-923"/>
<text text-anchor="middle" x="672" y="-907.8" font-family="Times,serif" font-size="14.00">router.neocloud.tw</text>
<text text-anchor="middle" x="672" y="-892.8" font-family="Times,serif" font-size="14.00">(10.127.255.2)</text>
</g>
<!-- ucbvax&#45;&gt;c -->
<g id="edge8" class="edge">
<title>ucbvax&#45;&gt;c</title>
<path fill="none" stroke="black" d="M758.21,-921.09C765.85,-922.62 773.59,-924.17 781.23,-925.7"/>
<polygon fill="black" stroke="black" points="758.69,-917.61 748.2,-919.08 757.32,-924.48 758.69,-917.61"/>
<polygon fill="black" stroke="black" points="780.72,-929.17 791.22,-927.7 782.1,-922.31 780.72,-929.17"/>
</g>
<!-- chenx97 -->
<g id="node18" class="node">
<title>chenx97</title>
<polygon fill="none" stroke="black" points="953,-579 784,-579 784,-541 953,-541 953,-579"/>
<text text-anchor="middle" x="868.5" y="-563.8" font-family="Times,serif" font-size="14.00">chenx97.neocloud.tw</text>
<text text-anchor="middle" x="868.5" y="-548.8" font-family="Times,serif" font-size="14.00">(AS4200114514)</text>
</g>
<!-- ucbvax&#45;&gt;chenx97 -->
<g id="edge15" class="edge">
<title>ucbvax&#45;&gt;chenx97</title>
<path fill="none" stroke="black" d="M689.04,-875.63C725.67,-810.84 815.14,-652.61 851.62,-588.08"/>
<polygon fill="black" stroke="black" points="685.89,-874.09 684.01,-884.52 691.98,-877.54 685.89,-874.09"/>
<polygon fill="black" stroke="black" points="854.73,-589.69 856.61,-579.27 848.64,-586.25 854.73,-589.69"/>
</g>
<!-- septs -->
<g id="node23" class="node">
<title>septs</title>
<polygon fill="none" stroke="black" points="937,-235 800,-235 800,-197 937,-197 937,-235"/>
<text text-anchor="middle" x="868.5" y="-219.8" font-family="Times,serif" font-size="14.00">bgp.septs.me</text>
<text text-anchor="middle" x="868.5" y="-204.8" font-family="Times,serif" font-size="14.00">(AS4200055555)</text>
</g>
<!-- ucbvax&#45;&gt;septs -->
<g id="edge36" class="edge">
<title>ucbvax&#45;&gt;septs</title>
<path fill="none" stroke="black" d="M682.91,-875.07C697.81,-831.19 726.51,-745.05 748,-671 765.78,-609.71 767.85,-593.74 784,-532 811.66,-426.28 844.96,-300.78 859.76,-245.1"/>
<polygon fill="black" stroke="black" points="679.51,-874.19 679.6,-884.78 686.14,-876.45 679.51,-874.19"/>
<polygon fill="black" stroke="black" points="863.2,-245.79 862.38,-235.23 856.43,-243.99 863.2,-245.79"/>
</g>
<!-- np11 -->
<g id="node3" class="node">
<title>np11</title>
<polygon fill="none" stroke="black" points="283,-994.5 162,-994.5 162,-941.5 283,-941.5 283,-994.5"/>
<text text-anchor="middle" x="222.5" y="-979.3" font-family="Times,serif" font-size="14.00">NeoPDP&#45;11</text>
<text text-anchor="middle" x="222.5" y="-964.3" font-family="Times,serif" font-size="14.00">(10.127.255.1,</text>
<text text-anchor="middle" x="222.5" y="-949.3" font-family="Times,serif" font-size="14.00">10.127.1.1)</text>
</g>
<!-- np11&#45;&gt;c -->
<g id="edge7" class="edge">
<title>np11&#45;&gt;c</title>
<path fill="none" stroke="black" d="M283.28,-969.22C352.01,-970.3 468.2,-971.14 568,-967 639.93,-964.02 721.35,-957.28 781.13,-951.69"/>
<polygon fill="black" stroke="black" points="781.65,-955.16 791.28,-950.74 780.99,-948.19 781.65,-955.16"/>
</g>
<!-- np11&#45;&gt;ucbvax -->
<g id="edge5" class="edge">
<title>np11&#45;&gt;ucbvax</title>
<path fill="none" stroke="black" d="M283.01,-972.15C352.49,-975.41 470.33,-976.03 568,-952 589.14,-946.8 611.2,-937.16 629.45,-927.88"/>
<polygon fill="black" stroke="black" points="631.11,-930.96 638.35,-923.23 627.87,-924.76 631.11,-930.96"/>
</g>
<!-- pan -->
<g id="node6" class="node">
<title>pan</title>
<polygon fill="none" stroke="black" points="505.5,-943 381.5,-943 381.5,-905 505.5,-905 505.5,-943"/>
<text text-anchor="middle" x="443.5" y="-927.8" font-family="Times,serif" font-size="14.00">r2.neocloud.tw</text>
<text text-anchor="middle" x="443.5" y="-912.8" font-family="Times,serif" font-size="14.00">(10.127.3.1)</text>
</g>
<!-- np11&#45;&gt;pan -->
<g id="edge6" class="edge">
<title>np11&#45;&gt;pan</title>
<path fill="none" stroke="black" d="M283.05,-956.03C310.36,-950.55 342.94,-944 371.51,-938.26"/>
<polygon fill="black" stroke="black" points="372.32,-941.67 381.43,-936.27 370.94,-934.81 372.32,-941.67"/>
</g>
<!-- ns -->
<g id="node4" class="node">
<title>ns</title>
<polygon fill="none" stroke="black" points="288,-923 157,-923 157,-885 288,-885 288,-923"/>
<text text-anchor="middle" x="222.5" y="-907.8" font-family="Times,serif" font-size="14.00">NeoSystem</text>
<text text-anchor="middle" x="222.5" y="-892.8" font-family="Times,serif" font-size="14.00">(10.127.255.80)</text>
</g>
<!-- ns&#45;&gt;ucbvax -->
<g id="edge9" class="edge">
<title>ns&#45;&gt;ucbvax</title>
<path fill="none" stroke="black" d="M288.05,-898.24C300.94,-897.31 314.39,-896.49 327,-896 434.03,-891.87 460.97,-891.85 568,-896 573.8,-896.22 579.78,-896.52 585.79,-896.87"/>
<polygon fill="black" stroke="black" points="585.74,-900.37 595.94,-897.49 586.17,-893.38 585.74,-900.37"/>
</g>
<!-- ns&#45;&gt;pan -->
<g id="edge10" class="edge">
<title>ns&#45;&gt;pan</title>
<path fill="none" stroke="black" d="M288.02,-909.89C314.2,-912.28 344.53,-915.05 371.35,-917.5"/>
<polygon fill="black" stroke="black" points="371.16,-921 381.44,-918.42 371.8,-914.03 371.16,-921"/>
</g>
<!-- megumiLHS -->
<g id="node5" class="node">
<title>megumiLHS</title>
<polygon fill="none" stroke="black" points="527,-376 360,-376 360,-338 527,-338 527,-376"/>
<text text-anchor="middle" x="443.5" y="-360.8" font-family="Times,serif" font-size="14.00">megumi.yukipedia.cf</text>
<text text-anchor="middle" x="443.5" y="-345.8" font-family="Times,serif" font-size="14.00">(AS4203223939)</text>
</g>
<!-- megumiLHS&#45;&gt;ucbvax -->
<g id="edge12" class="edge">
<title>megumiLHS&#45;&gt;ucbvax</title>
<path fill="none" stroke="black" d="M536.77,-360.33C548.6,-364.47 559.52,-370.73 568,-380 611.87,-427.92 582.86,-607.38 596,-671 611.59,-746.48 642.74,-831.96 659.57,-875.39"/>
<polygon fill="black" stroke="black" points="537.7,-356.96 527.12,-357.45 535.7,-363.67 537.7,-356.96"/>
<polygon fill="black" stroke="black" points="656.33,-876.7 663.23,-884.74 662.85,-874.16 656.33,-876.7"/>
</g>
<!-- megumiLHS&#45;&gt;septs -->
<g id="edge39" class="edge">
<title>megumiLHS&#45;&gt;septs</title>
<path fill="none" stroke="black" d="M536.63,-363.75C547.96,-367.48 558.77,-372.71 568,-380 592.05,-398.99 570.31,-426.3 596,-443 652.64,-479.81 690.17,-477.91 748,-443 820.26,-399.38 851.02,-295.93 862.13,-245.15"/>
<polygon fill="black" stroke="black" points="537.59,-360.39 527.01,-360.96 535.64,-367.11 537.59,-360.39"/>
<polygon fill="black" stroke="black" points="865.6,-245.66 864.21,-235.15 858.74,-244.23 865.6,-245.66"/>
</g>
<!-- pan&#45;&gt;ucbvax -->
<g id="edge11" class="edge">
<title>pan&#45;&gt;ucbvax</title>
<path fill="none" stroke="black" d="M515.76,-917.71C537.99,-915.75 562.72,-913.56 585.8,-911.52"/>
<polygon fill="black" stroke="black" points="515.45,-914.22 505.79,-918.59 516.06,-921.19 515.45,-914.22"/>
<polygon fill="black" stroke="black" points="586.26,-915 595.92,-910.63 585.65,-908.02 586.26,-915"/>
</g>
<!-- icecat_Explosion -->
<g id="node7" class="node">
<title>icecat_Explosion</title>
<polygon fill="none" stroke="black" points="560,-661.5 327,-661.5 327,-608.5 560,-608.5 560,-661.5"/>
<text text-anchor="middle" x="443.5" y="-646.3" font-family="Times,serif" font-size="14.00">hk&#45;01.nextmoe.cloud.imiku.cn</text>
<text text-anchor="middle" x="443.5" y="-631.3" font-family="Times,serif" font-size="14.00">(10.127.0.58,</text>
<text text-anchor="middle" x="443.5" y="-616.3" font-family="Times,serif" font-size="14.00">10.127.4.10)</text>
</g>
<!-- icecat_Explosion&#45;&gt;ucbvax -->
<g id="edge13" class="edge">
<title>icecat_Explosion&#45;&gt;ucbvax</title>
<path fill="none" stroke="black" d="M473.53,-669.48C519.23,-723.75 606.99,-827.98 648.36,-877.11"/>
<polygon fill="black" stroke="black" points="476.16,-667.17 467.05,-661.78 470.81,-671.68 476.16,-667.17"/>
<polygon fill="black" stroke="black" points="645.71,-879.39 654.82,-884.79 651.06,-874.89 645.71,-879.39"/>
</g>
<!-- SUNNET -->
<g id="node26" class="node">
<title>SUNNET</title>
<polygon fill="none" stroke="black" points="740.5,-661.5 603.5,-661.5 603.5,-608.5 740.5,-608.5 740.5,-661.5"/>
<text text-anchor="middle" x="672" y="-646.3" font-family="Times,serif" font-size="14.00">SUNNET</text>
<text text-anchor="middle" x="672" y="-631.3" font-family="Times,serif" font-size="14.00">(10.127.11.0/24)</text>
<text text-anchor="middle" x="672" y="-616.3" font-family="Times,serif" font-size="14.00">(AS4242423088)</text>
</g>
<!-- icecat_Explosion&#45;&gt;SUNNET -->
<g id="edge40" class="edge">
<title>icecat_Explosion&#45;&gt;SUNNET</title>
<path fill="none" stroke="black" d="M570.13,-635C577.98,-635 585.75,-635 593.28,-635"/>
<polygon fill="black" stroke="black" points="570.07,-631.5 560.07,-635 570.07,-638.5 570.07,-631.5"/>
<polygon fill="black" stroke="black" points="593.39,-638.5 603.39,-635 593.39,-631.5 593.39,-638.5"/>
</g>
<!-- icecat_Notebook -->
<g id="node8" class="node">
<title>icecat_Notebook</title>
<polygon fill="none" stroke="black" points="289.5,-781.5 155.5,-781.5 155.5,-728.5 289.5,-728.5 289.5,-781.5"/>
<text text-anchor="middle" x="222.5" y="-766.3" font-family="Times,serif" font-size="14.00">Notebook</text>
<text text-anchor="middle" x="222.5" y="-751.3" font-family="Times,serif" font-size="14.00">(10.127.0.64/30,</text>
<text text-anchor="middle" x="222.5" y="-736.3" font-family="Times,serif" font-size="14.00">10.127.4.100)</text>
</g>
<!-- icecat_Notebook&#45;&gt;icecat_Explosion -->
<g id="edge23" class="edge">
<title>icecat_Notebook&#45;&gt;icecat_Explosion</title>
<path fill="none" stroke="black" d="M273.68,-728.35C279.53,-725.21 285.4,-722.05 291,-719 322.47,-701.89 357.45,-682.51 385.86,-666.69"/>
<polygon fill="black" stroke="black" points="387.82,-669.61 394.85,-661.68 384.41,-663.49 387.82,-669.61"/>
</g>
<!-- magicneko_HK01 -->
<g id="node9" class="node">
<title>magicneko_HK01</title>
<polygon fill="none" stroke="black" points="274.5,-710 170.5,-710 170.5,-672 274.5,-672 274.5,-710"/>
<text text-anchor="middle" x="222.5" y="-694.8" font-family="Times,serif" font-size="14.00">M&#45;HK1</text>
<text text-anchor="middle" x="222.5" y="-679.8" font-family="Times,serif" font-size="14.00">(10.127.4.1)</text>
</g>
<!-- magicneko_HK01&#45;&gt;icecat_Explosion -->
<g id="edge16" class="edge">
<title>magicneko_HK01&#45;&gt;icecat_Explosion</title>
<path fill="none" stroke="black" d="M274.57,-677.94C290.93,-673.76 309.75,-668.95 328.74,-664.09"/>
<polygon fill="black" stroke="black" points="329.86,-667.42 338.68,-661.55 328.12,-660.63 329.86,-667.42"/>
</g>
<!-- magicneko_HK02 -->
<g id="node10" class="node">
<title>magicneko_HK02</title>
<polygon fill="none" stroke="black" points="279,-654 166,-654 166,-616 279,-616 279,-654"/>
<text text-anchor="middle" x="222.5" y="-638.8" font-family="Times,serif" font-size="14.00">M&#45;HK2</text>
<text text-anchor="middle" x="222.5" y="-623.8" font-family="Times,serif" font-size="14.00">(10.127.4.10)</text>
</g>
<!-- magicneko_HK02&#45;&gt;icecat_Explosion -->
<g id="edge17" class="edge">
<title>magicneko_HK02&#45;&gt;icecat_Explosion</title>
<path fill="none" stroke="black" d="M279.05,-635C290.76,-635 303.57,-635 316.7,-635"/>
<polygon fill="black" stroke="black" points="316.79,-638.5 326.79,-635 316.79,-631.5 316.79,-638.5"/>
</g>
<!-- magicneko_JP01 -->
<g id="node11" class="node">
<title>magicneko_JP01</title>
<polygon fill="none" stroke="black" points="279,-598 166,-598 166,-560 279,-560 279,-598"/>
<text text-anchor="middle" x="222.5" y="-582.8" font-family="Times,serif" font-size="14.00">M&#45;JP1</text>
<text text-anchor="middle" x="222.5" y="-567.8" font-family="Times,serif" font-size="14.00">(10.127.4.11)</text>
</g>
<!-- magicneko_JP01&#45;&gt;icecat_Explosion -->
<g id="edge18" class="edge">
<title>magicneko_JP01&#45;&gt;icecat_Explosion</title>
<path fill="none" stroke="black" d="M279.05,-593.2C294.3,-597.1 311.42,-601.48 328.68,-605.89"/>
<polygon fill="black" stroke="black" points="328.29,-609.41 338.84,-608.49 330.02,-602.63 328.29,-609.41"/>
</g>
<!-- magicneko_HK03 -->
<g id="node12" class="node">
<title>magicneko_HK03</title>
<polygon fill="none" stroke="black" points="279,-542 166,-542 166,-504 279,-504 279,-542"/>
<text text-anchor="middle" x="222.5" y="-526.8" font-family="Times,serif" font-size="14.00">M&#45;HK3</text>
<text text-anchor="middle" x="222.5" y="-511.8" font-family="Times,serif" font-size="14.00">(10.127.4.12)</text>
</g>
<!-- magicneko_HK03&#45;&gt;icecat_Explosion -->
<g id="edge19" class="edge">
<title>magicneko_HK03&#45;&gt;icecat_Explosion</title>
<path fill="none" stroke="black" d="M271.37,-542.07C278.02,-544.94 284.72,-547.97 291,-551 324.11,-566.99 360.16,-586.86 388.78,-603.27"/>
<polygon fill="black" stroke="black" points="387.38,-606.5 397.79,-608.46 390.88,-600.44 387.38,-606.5"/>
</g>
<!-- magicneko_JP02 -->
<g id="node13" class="node">
<title>magicneko_JP02</title>
<polygon fill="none" stroke="black" points="279,-838 166,-838 166,-800 279,-800 279,-838"/>
<text text-anchor="middle" x="222.5" y="-822.8" font-family="Times,serif" font-size="14.00">M&#45;JP2</text>
<text text-anchor="middle" x="222.5" y="-807.8" font-family="Times,serif" font-size="14.00">(10.127.4.13)</text>
</g>
<!-- magicneko_JP02&#45;&gt;icecat_Explosion -->
<g id="edge20" class="edge">
<title>magicneko_JP02&#45;&gt;icecat_Explosion</title>
<path fill="none" stroke="black" d="M275.85,-799.83C281.13,-797.15 286.28,-794.21 291,-791 341.16,-756.93 388.02,-704.2 415.97,-669.64"/>
<polygon fill="black" stroke="black" points="418.81,-671.69 422.32,-661.7 413.34,-667.32 418.81,-671.69"/>
</g>
<!-- magicneko_RU01 -->
<g id="node14" class="node">
<title>magicneko_RU01</title>
<polygon fill="none" stroke="black" points="279,-486 166,-486 166,-448 279,-448 279,-486"/>
<text text-anchor="middle" x="222.5" y="-470.8" font-family="Times,serif" font-size="14.00">M&#45;RU1</text>
<text text-anchor="middle" x="222.5" y="-455.8" font-family="Times,serif" font-size="14.00">(10.127.4.14)</text>
</g>
<!-- magicneko_RU01&#45;&gt;icecat_Explosion -->
<g id="edge21" class="edge">
<title>magicneko_RU01&#45;&gt;icecat_Explosion</title>
<path fill="none" stroke="black" d="M274.97,-486.09C280.53,-488.81 285.98,-491.78 291,-495 337.71,-524.91 383.35,-569.87 412.12,-600.72"/>
<polygon fill="black" stroke="black" points="409.71,-603.27 419.06,-608.25 414.85,-598.52 409.71,-603.27"/>
</g>
<!-- staph -->
<g id="node16" class="node">
<title>staph</title>
<polygon fill="none" stroke="black" points="512,-320 375,-320 375,-282 512,-282 512,-320"/>
<text text-anchor="middle" x="443.5" y="-304.8" font-family="Times,serif" font-size="14.00">s.aureus.ga</text>
<text text-anchor="middle" x="443.5" y="-289.8" font-family="Times,serif" font-size="14.00">(AS4200078274)</text>
</g>
<!-- magicneko_RU01&#45;&gt;staph -->
<g id="edge38" class="edge">
<title>magicneko_RU01&#45;&gt;staph</title>
<path fill="none" stroke="black" d="M287.25,-442.67C288.56,-441.5 289.81,-440.28 291,-439 325.95,-401.25 289.23,-363.92 327,-329 337.65,-319.16 351.15,-312.61 365.15,-308.29"/>
<polygon fill="black" stroke="black" points="285.05,-439.95 279.21,-448.79 289.29,-445.52 285.05,-439.95"/>
<polygon fill="black" stroke="black" points="366.15,-311.64 374.88,-305.64 364.32,-304.88 366.15,-311.64"/>
</g>
<!-- magicneko_RU01&#45;&gt;septs -->
<g id="edge42" class="edge">
<title>magicneko_RU01&#45;&gt;septs</title>
<path fill="none" stroke="black" d="M287.34,-442.92C288.63,-441.68 289.85,-440.37 291,-439 339.38,-381.05 270.8,-323.41 327,-273 393.4,-213.44 656.56,-210.76 789.61,-213.44"/>
<polygon fill="black" stroke="black" points="284.91,-440.38 279.31,-449.37 289.3,-445.84 284.91,-440.38"/>
<polygon fill="black" stroke="black" points="789.66,-216.94 799.74,-213.66 789.81,-209.94 789.66,-216.94"/>
</g>
<!-- magicneko_JP03 -->
<g id="node15" class="node">
<title>magicneko_JP03</title>
<polygon fill="none" stroke="black" points="279,-430 166,-430 166,-392 279,-392 279,-430"/>
<text text-anchor="middle" x="222.5" y="-414.8" font-family="Times,serif" font-size="14.00">M&#45;JP3</text>
<text text-anchor="middle" x="222.5" y="-399.8" font-family="Times,serif" font-size="14.00">(10.127.4.15)</text>
</g>
<!-- magicneko_JP03&#45;&gt;icecat_Explosion -->
<g id="edge22" class="edge">
<title>magicneko_JP03&#45;&gt;icecat_Explosion</title>
<path fill="none" stroke="black" d="M276.93,-430.01C281.89,-432.69 286.67,-435.69 291,-439 349.52,-483.76 397.56,-556.39 422.94,-599.54"/>
<polygon fill="black" stroke="black" points="419.97,-601.39 428.01,-608.28 426.02,-597.87 419.97,-601.39"/>
</g>
<!-- magicneko_JP03&#45;&gt;chenx97 -->
<g id="edge37" class="edge">
<title>magicneko_JP03&#45;&gt;chenx97</title>
<path fill="none" stroke="black" d="M235.22,-382.57C250.69,-349.28 281.41,-295.79 327,-273 494.36,-189.32 592.55,-169.85 748,-274 836.14,-333.05 859.4,-470.79 865.43,-530.98"/>
<polygon fill="black" stroke="black" points="231.99,-381.23 231.09,-391.79 238.37,-384.09 231.99,-381.23"/>
<polygon fill="black" stroke="black" points="861.95,-531.31 866.34,-540.95 868.92,-530.67 861.95,-531.31"/>
</g>
<!-- JerryXiao -->
<g id="node19" class="node">
<title>JerryXiao</title>
<polygon fill="none" stroke="black" points="522.5,-74 364.5,-74 364.5,-36 522.5,-36 522.5,-74"/>
<text text-anchor="middle" x="443.5" y="-58.8" font-family="Times,serif" font-size="14.00">jpn.neo.jerryxiao.cc</text>
<text text-anchor="middle" x="443.5" y="-43.8" font-family="Times,serif" font-size="14.00">(10.127.8.193)</text>
</g>
<!-- magicneko_JP03&#45;&gt;JerryXiao -->
<g id="edge31" class="edge">
<title>magicneko_JP03&#45;&gt;JerryXiao</title>
<path fill="none" stroke="black" d="M231.37,-381.9C245.33,-333.62 277.69,-235.23 327,-164 349.66,-131.27 383.5,-100.79 408.7,-80.43"/>
<polygon fill="black" stroke="black" points="227.95,-381.11 228.59,-391.69 234.69,-383.02 227.95,-381.11"/>
<polygon fill="black" stroke="black" points="410.9,-83.15 416.55,-74.19 406.54,-77.67 410.9,-83.15"/>
</g>
<!-- magicneko_JP03&#45;&gt;septs -->
<g id="edge34" class="edge">
<title>magicneko_JP03&#45;&gt;septs</title>
<path fill="none" stroke="black" d="M227.82,-381.71C236.68,-333.51 261.88,-238.76 327,-198 401.95,-151.09 659.18,-182.95 789.9,-203.06"/>
<polygon fill="black" stroke="black" points="224.33,-381.35 226.08,-391.8 231.23,-382.54 224.33,-381.35"/>
<polygon fill="black" stroke="black" points="789.44,-206.53 799.86,-204.61 790.51,-199.62 789.44,-206.53"/>
</g>
<!-- staph_CN -->
<g id="node17" class="node">
<title>staph_CN</title>
<polygon fill="none" stroke="black" points="746,-406.5 598,-406.5 598,-353.5 746,-353.5 746,-406.5"/>
<text text-anchor="middle" x="672" y="-391.3" font-family="Times,serif" font-size="14.00">cnhome.aureus.ga</text>
<text text-anchor="middle" x="672" y="-376.3" font-family="Times,serif" font-size="14.00">(10.127.8.187)</text>
<text text-anchor="middle" x="672" y="-361.3" font-family="Times,serif" font-size="14.00">(AS4200078274)</text>
</g>
<!-- staph&#45;&gt;staph_CN -->
<g id="edge14" class="edge">
<title>staph&#45;&gt;staph_CN</title>
<path fill="none" stroke="black" d="M512.24,-312.57C530.66,-316.73 550.38,-322.14 568,-329 581.36,-334.2 583.27,-338.41 596,-345 598.43,-346.26 600.91,-347.52 603.42,-348.78"/>
<polygon fill="black" stroke="black" points="602.11,-352.04 612.63,-353.34 605.22,-345.77 602.11,-352.04"/>
</g>
<!-- staph&#45;&gt;septs -->
<g id="edge35" class="edge">
<title>staph&#45;&gt;septs</title>
<path fill="none" stroke="black" d="M522.14,-305.97C538.88,-310.27 555.32,-317.4 568,-329 597.96,-356.43 563.17,-392.08 596,-416 650.6,-455.78 689.24,-449.34 748,-416 813.25,-378.98 846.68,-290.62 860.14,-244.75"/>
<polygon fill="black" stroke="black" points="522.81,-302.53 512.28,-303.75 521.27,-309.36 522.81,-302.53"/>
<polygon fill="black" stroke="black" points="863.52,-245.68 862.86,-235.11 856.78,-243.78 863.52,-245.68"/>
</g>
<!-- santost12 -->
<g id="node27" class="node">
<title>santost12</title>
<polygon fill="none" stroke="black" points="740.5,-335.5 603.5,-335.5 603.5,-282.5 740.5,-282.5 740.5,-335.5"/>
<text text-anchor="middle" x="672" y="-320.3" font-family="Times,serif" font-size="14.00">Santost12</text>
<text text-anchor="middle" x="672" y="-305.3" font-family="Times,serif" font-size="14.00">(10.127.69.1)</text>
<text text-anchor="middle" x="672" y="-290.3" font-family="Times,serif" font-size="14.00">(AS4200006969)</text>
</g>
<!-- staph&#45;&gt;santost12 -->
<g id="edge41" class="edge">
<title>staph&#45;&gt;santost12</title>
<path fill="none" stroke="black" d="M522.46,-303.75C545.36,-304.56 570.41,-305.45 593.3,-306.26"/>
<polygon fill="black" stroke="black" points="522.27,-300.24 512.15,-303.39 522.02,-307.24 522.27,-300.24"/>
<polygon fill="black" stroke="black" points="593.19,-309.75 603.31,-306.61 593.44,-302.76 593.19,-309.75"/>
</g>
<!-- JerryXiao&#45;&gt;ucbvax -->
<g id="edge28" class="edge">
<title>JerryXiao&#45;&gt;ucbvax</title>
<path fill="none" stroke="black" d="M465.44,-82.4C494.39,-122 545.59,-198.66 568,-273 619.19,-442.78 562.37,-496.89 596,-671 610.62,-746.68 642.17,-832.08 659.32,-875.44"/>
<polygon fill="black" stroke="black" points="468.04,-80.03 459.28,-74.07 462.41,-84.19 468.04,-80.03"/>
<polygon fill="black" stroke="black" points="656.09,-876.79 663.05,-884.78 662.59,-874.19 656.09,-876.79"/>
</g>
<!-- JerryXiao_SH01 -->
<g id="node20" class="node">
<title>JerryXiao_SH01</title>
<polygon fill="none" stroke="black" points="733,-74 611,-74 611,-36 733,-36 733,-74"/>
<text text-anchor="middle" x="672" y="-58.8" font-family="Times,serif" font-size="14.00">jerryxiao&#45;sh01</text>
<text text-anchor="middle" x="672" y="-43.8" font-family="Times,serif" font-size="14.00">(10.127.8.195)</text>
</g>
<!-- JerryXiao&#45;&gt;JerryXiao_SH01 -->
<g id="edge24" class="edge">
<title>JerryXiao&#45;&gt;JerryXiao_SH01</title>
<path fill="none" stroke="black" d="M533.05,-55C555.59,-55 579.49,-55 600.96,-55"/>
<polygon fill="black" stroke="black" points="532.77,-51.5 522.77,-55 532.77,-58.5 532.77,-51.5"/>
<polygon fill="black" stroke="black" points="600.97,-58.5 610.97,-55 600.97,-51.5 600.97,-58.5"/>
</g>
<!-- JerryXiao_HK01 -->
<g id="node21" class="node">
<title>JerryXiao_HK01</title>
<polygon fill="none" stroke="black" points="929.5,-64 807.5,-64 807.5,-26 929.5,-26 929.5,-64"/>
<text text-anchor="middle" x="868.5" y="-48.8" font-family="Times,serif" font-size="14.00">jerryxiao&#45;hk01</text>
<text text-anchor="middle" x="868.5" y="-33.8" font-family="Times,serif" font-size="14.00">(10.127.8.194)</text>
</g>
<!-- JerryXiao&#45;&gt;JerryXiao_HK01 -->
<g id="edge25" class="edge">
<title>JerryXiao&#45;&gt;JerryXiao_HK01</title>
<path fill="none" stroke="black" d="M532.77,-35.88C553.42,-32.19 575.4,-28.89 596,-27 663.27,-20.84 680.63,-21.95 748,-27 764.03,-28.2 781.16,-30.29 797.31,-32.64"/>
<polygon fill="black" stroke="black" points="531.96,-32.47 522.75,-37.72 533.22,-39.36 531.96,-32.47"/>
<polygon fill="black" stroke="black" points="796.8,-36.1 807.21,-34.13 797.84,-29.18 796.8,-36.1"/>
</g>
<!-- JerryXiao&#45;&gt;septs -->
<g id="edge29" class="edge">
<title>JerryXiao&#45;&gt;septs</title>
<path fill="none" stroke="black" d="M532.49,-73.14C615.15,-90.58 728.94,-115.75 748,-126 767.38,-136.42 766.8,-146.27 784,-160 797.78,-171 813.69,-182.04 827.9,-191.38"/>
<polygon fill="black" stroke="black" points="533.08,-69.69 522.57,-71.06 531.64,-76.54 533.08,-69.69"/>
<polygon fill="black" stroke="black" points="826.2,-194.45 836.49,-196.95 830.01,-188.58 826.2,-194.45"/>
</g>
<!-- JerryXiao_SH01&#45;&gt;JerryXiao_HK01 -->
<g id="edge26" class="edge">
<title>JerryXiao_SH01&#45;&gt;JerryXiao_HK01</title>
<path fill="none" stroke="black" d="M743.32,-51.38C760.83,-50.48 779.59,-49.52 797.1,-48.62"/>
<polygon fill="black" stroke="black" points="743.02,-47.9 733.21,-51.9 743.38,-54.89 743.02,-47.9"/>
<polygon fill="black" stroke="black" points="797.43,-52.11 807.24,-48.1 797.07,-45.12 797.43,-52.11"/>
</g>
<!-- dfceaef -->
<g id="node25" class="node">
<title>dfceaef</title>
<polygon fill="none" stroke="black" points="937,-151 800,-151 800,-113 937,-113 937,-151"/>
<text text-anchor="middle" x="868.5" y="-135.8" font-family="Times,serif" font-size="14.00">dfceaef</text>
<text text-anchor="middle" x="868.5" y="-120.8" font-family="Times,serif" font-size="14.00">(AS4242420140)</text>
</g>
<!-- JerryXiao_SH01&#45;&gt;dfceaef -->
<g id="edge30" class="edge">
<title>JerryXiao_SH01&#45;&gt;dfceaef</title>
<path fill="none" stroke="black" d="M727.87,-78.28C734.7,-81.43 741.55,-84.71 748,-88 764.5,-96.41 766.93,-101.81 784,-109 786.08,-109.88 788.21,-110.73 790.37,-111.56"/>
<polygon fill="black" stroke="black" points="729.15,-75.02 718.6,-74.07 726.26,-81.39 729.15,-75.02"/>
<polygon fill="black" stroke="black" points="789.39,-114.93 799.99,-115.04 791.77,-108.35 789.39,-114.93"/>
</g>
<!-- JerryXiao_HK02 -->
<g id="node22" class="node">
<title>JerryXiao_HK02</title>
<polygon fill="none" stroke="black" points="1111,-64 989,-64 989,-26 1111,-26 1111,-64"/>
<text text-anchor="middle" x="1050" y="-48.8" font-family="Times,serif" font-size="14.00">jerryxiao&#45;hk02</text>
<text text-anchor="middle" x="1050" y="-33.8" font-family="Times,serif" font-size="14.00">(10.127.8.196)</text>
</g>
<!-- JerryXiao_HK01&#45;&gt;JerryXiao_HK02 -->
<g id="edge27" class="edge">
<title>JerryXiao_HK01&#45;&gt;JerryXiao_HK02</title>
<path fill="none" stroke="black" d="M940.21,-45C952.91,-45 966.16,-45 978.85,-45"/>
<polygon fill="black" stroke="black" points="939.77,-41.5 929.77,-45 939.77,-48.5 939.77,-41.5"/>
<polygon fill="black" stroke="black" points="978.89,-48.5 988.89,-45 978.89,-41.5 978.89,-48.5"/>
</g>
<!-- lantian -->
<g id="node24" class="node">
<title>lantian</title>
<polygon fill="none" stroke="black" points="291,-116 154,-116 154,-78 291,-78 291,-116"/>
<text text-anchor="middle" x="222.5" y="-100.8" font-family="Times,serif" font-size="14.00">lantian</text>
<text text-anchor="middle" x="222.5" y="-85.8" font-family="Times,serif" font-size="14.00">(AS4200002547)</text>
</g>
<!-- lantian&#45;&gt;JerryXiao -->
<g id="edge33" class="edge">
<title>lantian&#45;&gt;JerryXiao</title>
<path fill="none" stroke="black" d="M301.2,-82.1C318.33,-78.81 336.58,-75.31 354.09,-71.95"/>
<polygon fill="black" stroke="black" points="300.45,-78.68 291.29,-84 301.77,-85.55 300.45,-78.68"/>
<polygon fill="black" stroke="black" points="355.14,-75.32 364.3,-70 353.82,-68.44 355.14,-75.32"/>
</g>
<!-- lantian&#45;&gt;septs -->
<g id="edge32" class="edge">
<title>lantian&#45;&gt;septs</title>
<path fill="none" stroke="black" d="M301.32,-106.35C442.15,-123.36 726.75,-158.15 748,-164 773.29,-170.97 800.18,-182.29 822.04,-192.59"/>
<polygon fill="black" stroke="black" points="301.37,-102.83 291.02,-105.11 300.53,-109.78 301.37,-102.83"/>
<polygon fill="black" stroke="black" points="820.55,-195.76 831.08,-196.93 823.58,-189.45 820.55,-195.76"/>
</g>
<!-- NNPCC -->
<g id="node28" class="node">
<title>NNPCC</title>
<polygon fill="none" stroke="black" points="104,-1083 30,-1083 30,-1047 104,-1047 104,-1083"/>
<text text-anchor="middle" x="67" y="-1061.3" font-family="Times,serif" font-size="14.00">NNPCC</text>
</g>
<!-- NNPCC&#45;&gt;np11 -->
<g id="edge1" class="edge">
<title>NNPCC&#45;&gt;np11</title>
<path fill="none" stroke="black" d="M111.41,-1041.9C113.65,-1040.6 115.86,-1039.3 118,-1038 137.29,-1026.31 157.99,-1012.57 175.76,-1000.37"/>
<polygon fill="black" stroke="black" points="109.65,-1038.88 102.68,-1046.85 113.11,-1044.96 109.65,-1038.88"/>
<polygon fill="black" stroke="black" points="177.99,-1003.08 184.24,-994.52 174.02,-997.32 177.99,-1003.08"/>
</g>
<!-- NeoBOX -->
<g id="node29" class="node">
<title>NeoBOX</title>
<polygon fill="none" stroke="black" points="106.5,-1029 27.5,-1029 27.5,-993 106.5,-993 106.5,-1029"/>
<text text-anchor="middle" x="67" y="-1007.3" font-family="Times,serif" font-size="14.00">NeoBOX</text>
</g>
<!-- NeoBOX&#45;&gt;np11 -->
<g id="edge2" class="edge">
<title>NeoBOX&#45;&gt;np11</title>
<path fill="none" stroke="black" d="M116.44,-997.43C127.7,-994.28 139.9,-990.86 151.87,-987.5"/>
<polygon fill="black" stroke="black" points="115.42,-994.08 106.73,-1000.15 117.31,-1000.82 115.42,-994.08"/>
<polygon fill="black" stroke="black" points="153.17,-990.78 161.85,-984.71 151.28,-984.04 153.17,-990.78"/>
</g>
<!-- cklvax -->
<g id="node30" class="node">
<title>cklvax</title>
<polygon fill="none" stroke="black" points="98.5,-975 35.5,-975 35.5,-939 98.5,-939 98.5,-975"/>
<text text-anchor="middle" x="67" y="-953.3" font-family="Times,serif" font-size="14.00">cklvax</text>
</g>
<!-- cklvax&#45;&gt;np11 -->
<g id="edge3" class="edge">
<title>cklvax&#45;&gt;np11</title>
<path fill="none" stroke="black" d="M108.94,-959.93C122.15,-960.88 137.19,-961.96 151.88,-963.01"/>
<polygon fill="black" stroke="black" points="108.92,-956.42 98.69,-959.2 108.42,-963.41 108.92,-956.42"/>
<polygon fill="black" stroke="black" points="151.74,-966.51 161.96,-963.73 152.24,-959.53 151.74,-966.51"/>
</g>
<!-- NeoStorage -->
<g id="node31" class="node">
<title>NeoStorage</title>
<polygon fill="none" stroke="black" points="118,-921 16,-921 16,-885 118,-885 118,-921"/>
<text text-anchor="middle" x="67" y="-899.3" font-family="Times,serif" font-size="14.00">NeoStorage</text>
</g>
<!-- NeoStorage&#45;&gt;np11 -->
<g id="edge4" class="edge">
<title>NeoStorage&#45;&gt;np11</title>
<path fill="none" stroke="black" d="M120.26,-925.13C130.59,-929.5 141.57,-934.16 152.36,-938.72"/>
<polygon fill="black" stroke="black" points="121.33,-921.78 110.76,-921.11 118.6,-928.23 121.33,-921.78"/>
<polygon fill="black" stroke="black" points="151.19,-942.03 161.76,-942.71 153.92,-935.58 151.19,-942.03"/>
</g>
</g>
</svg>
