<?xml version="1.0" encoding="UTF-8" standalone="no"?>
<!DOCTYPE svg PUBLIC "-//W3C//DTD SVG 1.1//EN"
 "http://www.w3.org/Graphics/SVG/1.1/DTD/svg11.dtd">
<!-- Generated by graphviz version 2.40.1 (20161225.0304)
 -->
<!-- Title: NeoNetwork Nodes Pages: 1 -->
<svg width="951pt" height="1121pt"
 viewBox="0.00 0.00 951.00 1121.00" xmlns="http://www.w3.org/2000/svg" xmlns:xlink="http://www.w3.org/1999/xlink">
<g id="graph0" class="graph" transform="scale(1 1) rotate(0) translate(4 1117)">
<title>NeoNetwork Nodes</title>
<polygon fill="#ffffff" stroke="transparent" points="-4,4 -4,-1117 947,-1117 947,4 -4,4"/>
<text text-anchor="middle" x="471.5" y="-1097.8" font-family="Times,serif" font-size="14.00" fill="#000000">NeoNetwork Nodes</text>
<g id="clust1" class="cluster">
<title>cluster_AS4201048576</title>
<polygon fill="none" stroke="#000000" points="8,-845 8,-1082 789,-1082 789,-845 8,-845"/>
<text text-anchor="middle" x="398.5" y="-1066.8" font-family="Times,serif" font-size="14.00" fill="#000000">NeoNetwork (AS4201048576)</text>
</g>
<g id="clust2" class="cluster">
<title>cluster_AS4200012450</title>
<polygon fill="none" stroke="#000000" points="125.5,-252 125.5,-737 471,-737 471,-252 125.5,-252"/>
<text text-anchor="middle" x="298.25" y="-721.8" font-family="Times,serif" font-size="14.00" fill="#000000">MagicNeko Network (AS4200012450)</text>
</g>
<g id="clust3" class="cluster">
<title>cluster_AS4200066666</title>
<polygon fill="none" stroke="#000000" points="300,-8 300,-105 935,-105 935,-8 300,-8"/>
<text text-anchor="middle" x="617.5" y="-89.8" font-family="Times,serif" font-size="14.00" fill="#000000">Jerry Network (AS4200066666)</text>
</g>
<!-- c -->
<g id="node1" class="node">
<title>c</title>
<polygon fill="none" stroke="#000000" points="781,-926 660,-926 660,-888 781,-888 781,-926"/>
<text text-anchor="middle" x="720.5" y="-910.8" font-family="Times,serif" font-size="14.00" fill="#000000">caasih.neocloud.tw</text>
<text text-anchor="middle" x="720.5" y="-895.8" font-family="Times,serif" font-size="14.00" fill="#000000">(10.127.0.1)</text>
</g>
<!-- ucbvax -->
<g id="node2" class="node">
<title>ucbvax</title>
<polygon fill="none" stroke="#000000" points="618,-893 499,-893 499,-855 618,-855 618,-893"/>
<text text-anchor="middle" x="558.5" y="-877.8" font-family="Times,serif" font-size="14.00" fill="#000000">router.neocloud.tw</text>
<text text-anchor="middle" x="558.5" y="-862.8" font-family="Times,serif" font-size="14.00" fill="#000000">(10.127.255.2)</text>
</g>
<!-- ucbvax&#45;&gt;c -->
<g id="edge8" class="edge">
<title>ucbvax&#45;&gt;c</title>
<path fill="none" stroke="#000000" d="M628.3107,-888.2207C635.3533,-889.6553 642.5109,-891.1133 649.5652,-892.5503"/>
<polygon fill="#000000" stroke="#000000" points="628.86,-884.7608 618.3626,-886.1942 627.4627,-891.6199 628.86,-884.7608"/>
<polygon fill="#000000" stroke="#000000" points="649.3035,-896.0688 659.8009,-894.6354 650.7008,-889.2097 649.3035,-896.0688"/>
</g>
<!-- chenx97 -->
<g id="node18" class="node">
<title>chenx97</title>
<polygon fill="none" stroke="#000000" points="787,-642 654,-642 654,-604 787,-604 787,-642"/>
<text text-anchor="middle" x="720.5" y="-626.8" font-family="Times,serif" font-size="14.00" fill="#000000">chenx97.neocloud.tw</text>
<text text-anchor="middle" x="720.5" y="-611.8" font-family="Times,serif" font-size="14.00" fill="#000000">(AS4200114514)</text>
</g>
<!-- ucbvax&#45;&gt;chenx97 -->
<g id="edge15" class="edge">
<title>ucbvax&#45;&gt;chenx97</title>
<path fill="none" stroke="#000000" d="M609.1247,-849.0653C612.3079,-846.5662 615.3084,-843.8779 618,-841 670.476,-784.892 700.4184,-697.0623 713.1467,-651.9227"/>
<polygon fill="#000000" stroke="#000000" points="607.0432,-846.2506 600.9079,-854.8883 611.0906,-851.9619 607.0432,-846.2506"/>
<polygon fill="#000000" stroke="#000000" points="716.5473,-652.7557 715.8102,-642.1865 709.7954,-650.9085 716.5473,-652.7557"/>
</g>
<!-- septs -->
<g id="node23" class="node">
<title>septs</title>
<polygon fill="none" stroke="#000000" points="775.5,-391 665.5,-391 665.5,-353 775.5,-353 775.5,-391"/>
<text text-anchor="middle" x="720.5" y="-375.8" font-family="Times,serif" font-size="14.00" fill="#000000">bgp.septs.me</text>
<text text-anchor="middle" x="720.5" y="-360.8" font-family="Times,serif" font-size="14.00" fill="#000000">(AS4200055555)</text>
</g>
<!-- ucbvax&#45;&gt;septs -->
<g id="edge36" class="edge">
<title>ucbvax&#45;&gt;septs</title>
<path fill="none" stroke="#000000" d="M612.1097,-848.0143C614.2819,-845.8402 616.2683,-843.505 618,-841 680.8343,-750.1065 630.1493,-702.8931 654,-595 669.669,-524.1186 696.1035,-442.8777 710.4717,-400.7399"/>
<polygon fill="#000000" stroke="#000000" points="609.4723,-845.6618 604.1085,-854.7986 613.9994,-851.0009 609.4723,-845.6618"/>
<polygon fill="#000000" stroke="#000000" points="713.83,-401.7366 713.7669,-391.142 707.2093,-399.4636 713.83,-401.7366"/>
</g>
<!-- np11 -->
<g id="node3" class="node">
<title>np11</title>
<polygon fill="none" stroke="#000000" points="235.5,-929.5 138.5,-929.5 138.5,-876.5 235.5,-876.5 235.5,-929.5"/>
<text text-anchor="middle" x="187" y="-914.3" font-family="Times,serif" font-size="14.00" fill="#000000">NeoPDP&#45;11</text>
<text text-anchor="middle" x="187" y="-899.3" font-family="Times,serif" font-size="14.00" fill="#000000">(10.127.255.1,</text>
<text text-anchor="middle" x="187" y="-884.3" font-family="Times,serif" font-size="14.00" fill="#000000">10.127.1.1)</text>
</g>
<!-- np11&#45;&gt;c -->
<g id="edge7" class="edge">
<title>np11&#45;&gt;c</title>
<path fill="none" stroke="#000000" d="M235.9676,-920.9928C249.4063,-925.1221 264.1061,-928.9108 278,-931 408.0827,-950.5602 561.7931,-933.2863 649.5426,-919.6553"/>
<polygon fill="#000000" stroke="#000000" points="650.3198,-923.0759 659.6498,-918.0558 649.2256,-916.162 650.3198,-923.0759"/>
</g>
<!-- np11&#45;&gt;ucbvax -->
<g id="edge5" class="edge">
<title>np11&#45;&gt;ucbvax</title>
<path fill="none" stroke="#000000" d="M235.9726,-885.0403C249.4113,-880.911 264.1098,-877.114 278,-875 349.1911,-864.1654 431.7274,-865.5138 488.7495,-868.5857"/>
<polygon fill="#000000" stroke="#000000" points="488.5536,-872.0802 498.7367,-869.1555 488.9523,-865.0915 488.5536,-872.0802"/>
</g>
<!-- pan -->
<g id="node6" class="node">
<title>pan</title>
<polygon fill="none" stroke="#000000" points="419.5,-922 321.5,-922 321.5,-884 419.5,-884 419.5,-922"/>
<text text-anchor="middle" x="370.5" y="-906.8" font-family="Times,serif" font-size="14.00" fill="#000000">r2.neocloud.tw</text>
<text text-anchor="middle" x="370.5" y="-891.8" font-family="Times,serif" font-size="14.00" fill="#000000">(10.127.3.1)</text>
</g>
<!-- np11&#45;&gt;pan -->
<g id="edge6" class="edge">
<title>np11&#45;&gt;pan</title>
<path fill="none" stroke="#000000" d="M235.6929,-903C258.8262,-903 286.6825,-903 311.0531,-903"/>
<polygon fill="#000000" stroke="#000000" points="311.2604,-906.5001 321.2603,-903 311.2603,-899.5001 311.2604,-906.5001"/>
</g>
<!-- ns -->
<g id="node4" class="node">
<title>ns</title>
<polygon fill="none" stroke="#000000" points="239,-986 135,-986 135,-948 239,-948 239,-986"/>
<text text-anchor="middle" x="187" y="-970.8" font-family="Times,serif" font-size="14.00" fill="#000000">NeoSystem</text>
<text text-anchor="middle" x="187" y="-955.8" font-family="Times,serif" font-size="14.00" fill="#000000">(10.127.255.80)</text>
</g>
<!-- ns&#45;&gt;ucbvax -->
<g id="edge9" class="edge">
<title>ns&#45;&gt;ucbvax</title>
<path fill="none" stroke="#000000" d="M239.1687,-967.314C297.4187,-966.1024 393.6655,-959.3813 471,-931 491.1048,-923.6217 511.2858,-910.9163 527.1921,-899.371"/>
<polygon fill="#000000" stroke="#000000" points="529.6457,-901.9069 535.5615,-893.1175 525.4557,-896.2993 529.6457,-901.9069"/>
</g>
<!-- ns&#45;&gt;pan -->
<g id="edge10" class="edge">
<title>ns&#45;&gt;pan</title>
<path fill="none" stroke="#000000" d="M239.0929,-948.8314C261.816,-940.9061 288.5576,-931.5794 311.965,-923.4155"/>
<polygon fill="#000000" stroke="#000000" points="313.1413,-926.7121 321.4309,-920.114 310.836,-920.1025 313.1413,-926.7121"/>
</g>
<!-- megumiLHS -->
<g id="node5" class="node">
<title>megumiLHS</title>
<polygon fill="none" stroke="#000000" points="437.5,-244 303.5,-244 303.5,-206 437.5,-206 437.5,-244"/>
<text text-anchor="middle" x="370.5" y="-228.8" font-family="Times,serif" font-size="14.00" fill="#000000">megumi.yukipedia.cf</text>
<text text-anchor="middle" x="370.5" y="-213.8" font-family="Times,serif" font-size="14.00" fill="#000000">(AS4203223939)</text>
</g>
<!-- megumiLHS&#45;&gt;ucbvax -->
<g id="edge12" class="edge">
<title>megumiLHS&#45;&gt;ucbvax</title>
<path fill="none" stroke="#000000" d="M447.4158,-231.3376C456.4507,-235.109 464.6829,-240.4679 471,-248 511.0339,-295.7343 475.2103,-750.4211 499,-808 505.1745,-822.9443 516.2669,-836.715 527.2151,-847.7679"/>
<polygon fill="#000000" stroke="#000000" points="448.3514,-227.9569 437.7565,-227.9574 446.0392,-234.564 448.3514,-227.9569"/>
<polygon fill="#000000" stroke="#000000" points="525.073,-850.5634 534.7095,-854.9668 529.9223,-845.5151 525.073,-850.5634"/>
</g>
<!-- megumiLHS&#45;&gt;septs -->
<g id="edge39" class="edge">
<title>megumiLHS&#45;&gt;septs</title>
<path fill="none" stroke="#000000" d="M447.4299,-240.6292C455.4656,-242.8477 463.4501,-245.3042 471,-248 547.6043,-275.3525 631.2266,-320.2756 679.5924,-347.8832"/>
<polygon fill="#000000" stroke="#000000" points="448.1905,-237.2102 437.6283,-238.0412 446.4034,-243.9782 448.1905,-237.2102"/>
<polygon fill="#000000" stroke="#000000" points="678.0786,-351.05 688.4932,-352.996 681.5653,-344.9801 678.0786,-351.05"/>
</g>
<!-- pan&#45;&gt;ucbvax -->
<g id="edge11" class="edge">
<title>pan&#45;&gt;ucbvax</title>
<path fill="none" stroke="#000000" d="M430.0646,-893.8118C448.7241,-890.9335 469.4843,-887.7311 488.7793,-884.7548"/>
<polygon fill="#000000" stroke="#000000" points="429.2443,-890.3969 419.8948,-895.3806 430.3115,-897.3151 429.2443,-890.3969"/>
<polygon fill="#000000" stroke="#000000" points="489.3674,-888.2056 498.7169,-883.2219 488.3002,-881.2874 489.3674,-888.2056"/>
</g>
<!-- icecat_Explosion -->
<g id="node7" class="node">
<title>icecat_Explosion</title>
<polygon fill="none" stroke="#000000" points="463,-473.5 278,-473.5 278,-420.5 463,-420.5 463,-473.5"/>
<text text-anchor="middle" x="370.5" y="-458.3" font-family="Times,serif" font-size="14.00" fill="#000000">hk&#45;01.nextmoe.cloud.imiku.cn</text>
<text text-anchor="middle" x="370.5" y="-443.3" font-family="Times,serif" font-size="14.00" fill="#000000">(10.127.0.58,</text>
<text text-anchor="middle" x="370.5" y="-428.3" font-family="Times,serif" font-size="14.00" fill="#000000">10.127.4.10)</text>
</g>
<!-- icecat_Explosion&#45;&gt;ucbvax -->
<g id="edge13" class="edge">
<title>icecat_Explosion&#45;&gt;ucbvax</title>
<path fill="none" stroke="#000000" d="M383.008,-483.3423C413.5908,-572.0342 490.2941,-793.404 499,-808 507.4757,-822.21 519.2928,-836.0976 530.164,-847.4388"/>
<polygon fill="#000000" stroke="#000000" points="386.2516,-482.0122 379.6841,-473.6985 379.6337,-484.2932 386.2516,-482.0122"/>
<polygon fill="#000000" stroke="#000000" points="527.9703,-850.1986 537.4864,-854.8563 532.9519,-845.2809 527.9703,-850.1986"/>
</g>
<!-- SUNNET -->
<g id="node26" class="node">
<title>SUNNET</title>
<polygon fill="none" stroke="#000000" points="613.5,-473.5 503.5,-473.5 503.5,-420.5 613.5,-420.5 613.5,-473.5"/>
<text text-anchor="middle" x="558.5" y="-458.3" font-family="Times,serif" font-size="14.00" fill="#000000">SUNNET</text>
<text text-anchor="middle" x="558.5" y="-443.3" font-family="Times,serif" font-size="14.00" fill="#000000">(10.127.11.0/24)</text>
<text text-anchor="middle" x="558.5" y="-428.3" font-family="Times,serif" font-size="14.00" fill="#000000">(AS4242423088)</text>
</g>
<!-- icecat_Explosion&#45;&gt;SUNNET -->
<g id="edge40" class="edge">
<title>icecat_Explosion&#45;&gt;SUNNET</title>
<path fill="none" stroke="#000000" d="M473.1469,-447C479.9896,-447 486.7706,-447 493.3433,-447"/>
<polygon fill="#000000" stroke="#000000" points="473.1231,-443.5001 463.1231,-447 473.1231,-450.5001 473.1231,-443.5001"/>
<polygon fill="#000000" stroke="#000000" points="493.4794,-450.5001 503.4793,-447 493.4793,-443.5001 493.4794,-450.5001"/>
</g>
<!-- icecat_Notebook -->
<g id="node8" class="node">
<title>icecat_Notebook</title>
<polygon fill="none" stroke="#000000" points="240.5,-537.5 133.5,-537.5 133.5,-484.5 240.5,-484.5 240.5,-537.5"/>
<text text-anchor="middle" x="187" y="-522.3" font-family="Times,serif" font-size="14.00" fill="#000000">Notebook</text>
<text text-anchor="middle" x="187" y="-507.3" font-family="Times,serif" font-size="14.00" fill="#000000">(10.127.0.64/30,</text>
<text text-anchor="middle" x="187" y="-492.3" font-family="Times,serif" font-size="14.00" fill="#000000">10.127.4.100)</text>
</g>
<!-- icecat_Notebook&#45;&gt;icecat_Explosion -->
<g id="edge23" class="edge">
<title>icecat_Notebook&#45;&gt;icecat_Explosion</title>
<path fill="none" stroke="#000000" d="M240.5691,-492.3165C254.3667,-487.5042 269.5665,-482.203 284.5587,-476.9741"/>
<polygon fill="#000000" stroke="#000000" points="286.0743,-480.1523 294.3638,-473.5543 283.769,-473.5428 286.0743,-480.1523"/>
</g>
<!-- magicneko_HK01 -->
<g id="node9" class="node">
<title>magicneko_HK01</title>
<polygon fill="none" stroke="#000000" points="229,-466 145,-466 145,-428 229,-428 229,-466"/>
<text text-anchor="middle" x="187" y="-450.8" font-family="Times,serif" font-size="14.00" fill="#000000">M&#45;HK1</text>
<text text-anchor="middle" x="187" y="-435.8" font-family="Times,serif" font-size="14.00" fill="#000000">(10.127.4.1)</text>
</g>
<!-- magicneko_HK01&#45;&gt;icecat_Explosion -->
<g id="edge16" class="edge">
<title>magicneko_HK01&#45;&gt;icecat_Explosion</title>
<path fill="none" stroke="#000000" d="M229.0986,-447C240.7346,-447 253.8952,-447 267.3888,-447"/>
<polygon fill="#000000" stroke="#000000" points="267.7526,-450.5001 277.7525,-447 267.7525,-443.5001 267.7526,-450.5001"/>
</g>
<!-- magicneko_HK02 -->
<g id="node10" class="node">
<title>magicneko_HK02</title>
<polygon fill="none" stroke="#000000" points="232.5,-410 141.5,-410 141.5,-372 232.5,-372 232.5,-410"/>
<text text-anchor="middle" x="187" y="-394.8" font-family="Times,serif" font-size="14.00" fill="#000000">M&#45;HK2</text>
<text text-anchor="middle" x="187" y="-379.8" font-family="Times,serif" font-size="14.00" fill="#000000">(10.127.4.10)</text>
</g>
<!-- magicneko_HK02&#45;&gt;icecat_Explosion -->
<g id="edge17" class="edge">
<title>magicneko_HK02&#45;&gt;icecat_Explosion</title>
<path fill="none" stroke="#000000" d="M232.8314,-404.9867C245.3378,-408.8034 259.3779,-413.0881 273.5836,-417.4233"/>
<polygon fill="#000000" stroke="#000000" points="272.8419,-420.8563 283.428,-420.4276 274.8851,-414.1611 272.8419,-420.8563"/>
</g>
<!-- magicneko_JP01 -->
<g id="node11" class="node">
<title>magicneko_JP01</title>
<polygon fill="none" stroke="#000000" points="232.5,-354 141.5,-354 141.5,-316 232.5,-316 232.5,-354"/>
<text text-anchor="middle" x="187" y="-338.8" font-family="Times,serif" font-size="14.00" fill="#000000">M&#45;JP1</text>
<text text-anchor="middle" x="187" y="-323.8" font-family="Times,serif" font-size="14.00" fill="#000000">(10.127.4.11)</text>
</g>
<!-- magicneko_JP01&#45;&gt;icecat_Explosion -->
<g id="edge18" class="edge">
<title>magicneko_JP01&#45;&gt;icecat_Explosion</title>
<path fill="none" stroke="#000000" d="M225.7484,-354.0606C231.2551,-356.9616 236.8076,-359.9929 242,-363 269.6283,-379.0003 299.5363,-398.4189 323.5412,-414.5534"/>
<polygon fill="#000000" stroke="#000000" points="321.8571,-417.6395 332.1028,-420.3367 325.7753,-411.8389 321.8571,-417.6395"/>
</g>
<!-- magicneko_HK03 -->
<g id="node12" class="node">
<title>magicneko_HK03</title>
<polygon fill="none" stroke="#000000" points="232.5,-650 141.5,-650 141.5,-612 232.5,-612 232.5,-650"/>
<text text-anchor="middle" x="187" y="-634.8" font-family="Times,serif" font-size="14.00" fill="#000000">M&#45;HK3</text>
<text text-anchor="middle" x="187" y="-619.8" font-family="Times,serif" font-size="14.00" fill="#000000">(10.127.4.12)</text>
</g>
<!-- magicneko_HK03&#45;&gt;icecat_Explosion -->
<g id="edge19" class="edge">
<title>magicneko_HK03&#45;&gt;icecat_Explosion</title>
<path fill="none" stroke="#000000" d="M228.9807,-611.9596C233.5486,-609.2156 237.989,-606.2192 242,-603 285.4575,-568.1209 324.4482,-516.4826 347.7903,-482.3007"/>
<polygon fill="#000000" stroke="#000000" points="350.9809,-483.8288 353.6651,-473.5796 345.1753,-479.9179 350.9809,-483.8288"/>
</g>
<!-- magicneko_JP02 -->
<g id="node13" class="node">
<title>magicneko_JP02</title>
<polygon fill="none" stroke="#000000" points="232.5,-594 141.5,-594 141.5,-556 232.5,-556 232.5,-594"/>
<text text-anchor="middle" x="187" y="-578.8" font-family="Times,serif" font-size="14.00" fill="#000000">M&#45;JP2</text>
<text text-anchor="middle" x="187" y="-563.8" font-family="Times,serif" font-size="14.00" fill="#000000">(10.127.4.13)</text>
</g>
<!-- magicneko_JP02&#45;&gt;icecat_Explosion -->
<g id="edge20" class="edge">
<title>magicneko_JP02&#45;&gt;icecat_Explosion</title>
<path fill="none" stroke="#000000" d="M226.8625,-555.8491C232.0413,-553.0306 237.2071,-550.0458 242,-547 273.7546,-526.8205 307.2241,-500.5937 332.0421,-480.0622"/>
<polygon fill="#000000" stroke="#000000" points="334.3415,-482.702 339.7828,-473.6112 329.86,-477.3246 334.3415,-482.702"/>
</g>
<!-- magicneko_RU01 -->
<g id="node14" class="node">
<title>magicneko_RU01</title>
<polygon fill="none" stroke="#000000" points="232.5,-706 141.5,-706 141.5,-668 232.5,-668 232.5,-706"/>
<text text-anchor="middle" x="187" y="-690.8" font-family="Times,serif" font-size="14.00" fill="#000000">M&#45;RU1</text>
<text text-anchor="middle" x="187" y="-675.8" font-family="Times,serif" font-size="14.00" fill="#000000">(10.127.4.14)</text>
</g>
<!-- magicneko_RU01&#45;&gt;icecat_Explosion -->
<g id="edge21" class="edge">
<title>magicneko_RU01&#45;&gt;icecat_Explosion</title>
<path fill="none" stroke="#000000" d="M230.2983,-667.9779C234.4762,-665.2736 238.4668,-662.2809 242,-659 296.7658,-608.1451 336.3589,-528.7381 356.1647,-482.9124"/>
<polygon fill="#000000" stroke="#000000" points="359.4041,-484.2384 360.0891,-473.6657 352.9604,-481.5036 359.4041,-484.2384"/>
</g>
<!-- staph -->
<g id="node16" class="node">
<title>staph</title>
<polygon fill="none" stroke="#000000" points="425.5,-798.5 315.5,-798.5 315.5,-745.5 425.5,-745.5 425.5,-798.5"/>
<text text-anchor="middle" x="370.5" y="-783.3" font-family="Times,serif" font-size="14.00" fill="#000000">s.aureus.ga</text>
<text text-anchor="middle" x="370.5" y="-768.3" font-family="Times,serif" font-size="14.00" fill="#000000">(10.127.8.185)</text>
<text text-anchor="middle" x="370.5" y="-753.3" font-family="Times,serif" font-size="14.00" fill="#000000">(AS4200078274)</text>
</g>
<!-- magicneko_RU01&#45;&gt;staph -->
<g id="edge38" class="edge">
<title>magicneko_RU01&#45;&gt;staph</title>
<path fill="none" stroke="#000000" d="M224.2444,-711.5325C240.3522,-721.4958 259.6794,-732.6097 278,-741 286.8928,-745.0727 296.4807,-748.8854 305.9975,-752.3483"/>
<polygon fill="#000000" stroke="#000000" points="225.9842,-708.4922 215.6536,-706.1404 222.2628,-714.4211 225.9842,-708.4922"/>
<polygon fill="#000000" stroke="#000000" points="304.8674,-755.661 315.4622,-755.6912 307.1986,-749.0606 304.8674,-755.661"/>
</g>
<!-- magicneko_RU01&#45;&gt;septs -->
<g id="edge42" class="edge">
<title>magicneko_RU01&#45;&gt;septs</title>
<path fill="none" stroke="#000000" d="M198.9922,-715.4502C213.0889,-744.7649 239.5451,-788.8043 278,-808 345.6012,-841.7448 560.2939,-856.7714 618,-808 654.6639,-777.0128 643.1205,-641.7555 654,-595 670.452,-524.2962 696.5704,-442.9837 710.6805,-400.7872"/>
<polygon fill="#000000" stroke="#000000" points="202.0577,-713.7402 194.686,-706.1304 195.7032,-716.6763 202.0577,-713.7402"/>
<polygon fill="#000000" stroke="#000000" points="714.0428,-401.7693 713.9137,-391.1753 707.4081,-399.5376 714.0428,-401.7693"/>
</g>
<!-- magicneko_JP03 -->
<g id="node15" class="node">
<title>magicneko_JP03</title>
<polygon fill="none" stroke="#000000" points="232.5,-298 141.5,-298 141.5,-260 232.5,-260 232.5,-298"/>
<text text-anchor="middle" x="187" y="-282.8" font-family="Times,serif" font-size="14.00" fill="#000000">M&#45;JP3</text>
<text text-anchor="middle" x="187" y="-267.8" font-family="Times,serif" font-size="14.00" fill="#000000">(10.127.4.15)</text>
</g>
<!-- magicneko_JP03&#45;&gt;megumiLHS -->
<g id="edge43" class="edge">
<title>magicneko_JP03&#45;&gt;megumiLHS</title>
<path fill="none" stroke="#000000" d="M242.2688,-259.3383C254.006,-255.3976 266.3662,-251.4213 278,-248 282.9339,-246.549 288.0331,-245.1114 293.1847,-243.7052"/>
<polygon fill="#000000" stroke="#000000" points="240.9288,-256.097 232.5858,-262.6272 243.1801,-262.7251 240.9288,-256.097"/>
<polygon fill="#000000" stroke="#000000" points="294.3714,-247.0109 303.1266,-241.0446 292.5617,-240.2488 294.3714,-247.0109"/>
</g>
<!-- magicneko_JP03&#45;&gt;icecat_Explosion -->
<g id="edge22" class="edge">
<title>magicneko_JP03&#45;&gt;icecat_Explosion</title>
<path fill="none" stroke="#000000" d="M228.9186,-298.1185C233.4976,-300.8485 237.9577,-303.8202 242,-307 261.3234,-322.2003 261.5575,-330.7219 278,-349 297.3044,-370.4594 319.4859,-393.9963 337.2878,-412.6241"/>
<polygon fill="#000000" stroke="#000000" points="335.1829,-415.4863 344.6279,-420.2865 340.2378,-410.644 335.1829,-415.4863"/>
</g>
<!-- magicneko_JP03&#45;&gt;chenx97 -->
<g id="edge37" class="edge">
<title>magicneko_JP03&#45;&gt;chenx97</title>
<path fill="none" stroke="#000000" d="M242.7972,-282.2614C332.0601,-290.2488 508.08,-317.721 618,-412 674.927,-460.8266 702.9934,-548.5927 714.2632,-594.0091"/>
<polygon fill="#000000" stroke="#000000" points="242.871,-278.7553 232.6119,-281.4014 242.2819,-285.7305 242.871,-278.7553"/>
<polygon fill="#000000" stroke="#000000" points="710.8762,-594.8951 716.5967,-603.8128 717.686,-593.2742 710.8762,-594.8951"/>
</g>
<!-- JerryXiao -->
<g id="node19" class="node">
<title>JerryXiao</title>
<polygon fill="none" stroke="#000000" points="433,-74 308,-74 308,-36 433,-36 433,-74"/>
<text text-anchor="middle" x="370.5" y="-58.8" font-family="Times,serif" font-size="14.00" fill="#000000">jpn.neo.jerryxiao.cc</text>
<text text-anchor="middle" x="370.5" y="-43.8" font-family="Times,serif" font-size="14.00" fill="#000000">(10.127.8.193)</text>
</g>
<!-- magicneko_JP03&#45;&gt;JerryXiao -->
<g id="edge31" class="edge">
<title>magicneko_JP03&#45;&gt;JerryXiao</title>
<path fill="none" stroke="#000000" d="M208.2458,-251.6118C226.5244,-228.1793 253.7091,-193.6389 278,-164 301.2593,-135.6198 328.5043,-103.6656 347.3739,-81.7308"/>
<polygon fill="#000000" stroke="#000000" points="205.3199,-249.6725 201.9364,-259.7126 210.8425,-253.9739 205.3199,-249.6725"/>
<polygon fill="#000000" stroke="#000000" points="350.0485,-83.9887 353.924,-74.1281 344.7452,-79.4197 350.0485,-83.9887"/>
</g>
<!-- magicneko_JP03&#45;&gt;septs -->
<g id="edge34" class="edge">
<title>magicneko_JP03&#45;&gt;septs</title>
<path fill="none" stroke="#000000" d="M240.1758,-304.7636C240.8089,-305.4901 241.4178,-306.2355 242,-307 290.3721,-370.5205 216.1446,-432.5161 278,-483 395.0695,-578.5474 479.5696,-543.5937 618,-483 656.4279,-466.1793 686.8444,-427.0572 704.2626,-400.061"/>
<polygon fill="#000000" stroke="#000000" points="242.286,-301.9455 232.5878,-297.6799 237.5093,-307.0624 242.286,-301.9455"/>
<polygon fill="#000000" stroke="#000000" points="707.3311,-401.7551 709.6641,-391.4203 701.3954,-398.0445 707.3311,-401.7551"/>
</g>
<!-- frank_hsinchu -->
<g id="node28" class="node">
<title>frank_hsinchu</title>
<polygon fill="none" stroke="#000000" points="933,-309.5 823,-309.5 823,-256.5 933,-256.5 933,-309.5"/>
<text text-anchor="middle" x="878" y="-294.3" font-family="Times,serif" font-size="14.00" fill="#000000">Frank_Hsinchu</text>
<text text-anchor="middle" x="878" y="-279.3" font-family="Times,serif" font-size="14.00" fill="#000000">(10.127.255.56)</text>
<text text-anchor="middle" x="878" y="-264.3" font-family="Times,serif" font-size="14.00" fill="#000000">(AS4200005566)</text>
</g>
<!-- magicneko_JP03&#45;&gt;frank_hsinchu -->
<g id="edge44" class="edge">
<title>magicneko_JP03&#45;&gt;frank_hsinchu</title>
<path fill="none" stroke="#000000" d="M207.7708,-251.7501C224.3681,-232.3824 249.5117,-207.9419 278,-197 462.9393,-125.9677 700.3589,-205.9202 813.0523,-253.2039"/>
<polygon fill="#000000" stroke="#000000" points="204.8808,-249.7524 201.1961,-259.6859 210.2712,-254.2183 204.8808,-249.7524"/>
<polygon fill="#000000" stroke="#000000" points="812.0111,-256.5641 822.5837,-257.2504 814.7467,-250.1208 812.0111,-256.5641"/>
</g>
<!-- staph_CN -->
<g id="node17" class="node">
<title>staph_CN</title>
<polygon fill="none" stroke="#000000" points="616.5,-798.5 500.5,-798.5 500.5,-745.5 616.5,-745.5 616.5,-798.5"/>
<text text-anchor="middle" x="558.5" y="-783.3" font-family="Times,serif" font-size="14.00" fill="#000000">cnhome.aureus.ga</text>
<text text-anchor="middle" x="558.5" y="-768.3" font-family="Times,serif" font-size="14.00" fill="#000000">(10.127.8.187)</text>
<text text-anchor="middle" x="558.5" y="-753.3" font-family="Times,serif" font-size="14.00" fill="#000000">(AS4200078274)</text>
</g>
<!-- staph&#45;&gt;staph_CN -->
<g id="edge14" class="edge">
<title>staph&#45;&gt;staph_CN</title>
<path fill="none" stroke="#000000" d="M425.6359,-772C445.8408,-772 468.9534,-772 490.175,-772"/>
<polygon fill="#000000" stroke="#000000" points="490.42,-775.5001 500.42,-772 490.4199,-768.5001 490.42,-775.5001"/>
</g>
<!-- staph&#45;&gt;septs -->
<g id="edge35" class="edge">
<title>staph&#45;&gt;septs</title>
<path fill="none" stroke="#000000" d="M435.3316,-754.2402C506.386,-734.5333 611.2803,-704.6256 618,-698 623.5088,-692.5684 688.1169,-479.4676 711.837,-400.7942"/>
<polygon fill="#000000" stroke="#000000" points="434.2476,-750.9085 425.5439,-756.9497 436.1152,-757.6548 434.2476,-750.9085"/>
<polygon fill="#000000" stroke="#000000" points="715.2418,-401.6259 714.7756,-391.0413 708.5394,-399.6064 715.2418,-401.6259"/>
</g>
<!-- santost12 -->
<g id="node27" class="node">
<title>santost12</title>
<polygon fill="none" stroke="#000000" points="613.5,-688.5 503.5,-688.5 503.5,-635.5 613.5,-635.5 613.5,-688.5"/>
<text text-anchor="middle" x="558.5" y="-673.3" font-family="Times,serif" font-size="14.00" fill="#000000">Santost12</text>
<text text-anchor="middle" x="558.5" y="-658.3" font-family="Times,serif" font-size="14.00" fill="#000000">(10.127.69.1)</text>
<text text-anchor="middle" x="558.5" y="-643.3" font-family="Times,serif" font-size="14.00" fill="#000000">(AS4200006969)</text>
</g>
<!-- staph&#45;&gt;santost12 -->
<g id="edge41" class="edge">
<title>staph&#45;&gt;santost12</title>
<path fill="none" stroke="#000000" d="M435.1584,-758.7223C447.7406,-754.3487 460.323,-748.5819 471,-741 488.1046,-728.8537 483.9329,-717.5973 499,-703 501.8578,-700.2313 504.9209,-697.5192 508.0945,-694.8924"/>
<polygon fill="#000000" stroke="#000000" points="434.0192,-755.4121 425.5684,-761.8023 436.1596,-762.0768 434.0192,-755.4121"/>
<polygon fill="#000000" stroke="#000000" points="510.4583,-697.4861 516.1568,-688.5542 506.1321,-691.983 510.4583,-697.4861"/>
</g>
<!-- JerryXiao&#45;&gt;ucbvax -->
<g id="edge28" class="edge">
<title>JerryXiao&#45;&gt;ucbvax</title>
<path fill="none" stroke="#000000" d="M396.4234,-81.4686C420.6879,-108.153 455.4623,-151.7632 471,-197 515.1533,-325.5488 447.3595,-682.2718 499,-808 505.1434,-822.9572 516.2301,-836.7301 527.1826,-847.7813"/>
<polygon fill="#000000" stroke="#000000" points="398.9376,-79.0324 389.5736,-74.0759 393.8029,-83.79 398.9376,-79.0324"/>
<polygon fill="#000000" stroke="#000000" points="525.0429,-850.579 534.6812,-854.9784 529.8901,-845.5288 525.0429,-850.579"/>
</g>
<!-- JerryXiao_SH01 -->
<g id="node20" class="node">
<title>JerryXiao_SH01</title>
<polygon fill="none" stroke="#000000" points="607.5,-74 509.5,-74 509.5,-36 607.5,-36 607.5,-74"/>
<text text-anchor="middle" x="558.5" y="-58.8" font-family="Times,serif" font-size="14.00" fill="#000000">jerryxiao&#45;sh01</text>
<text text-anchor="middle" x="558.5" y="-43.8" font-family="Times,serif" font-size="14.00" fill="#000000">(10.127.8.195)</text>
</g>
<!-- JerryXiao&#45;&gt;JerryXiao_SH01 -->
<g id="edge24" class="edge">
<title>JerryXiao&#45;&gt;JerryXiao_SH01</title>
<path fill="none" stroke="#000000" d="M443.1302,-55C461.6245,-55 481.2842,-55 499.0355,-55"/>
<polygon fill="#000000" stroke="#000000" points="443.1013,-51.5001 433.1013,-55 443.1012,-58.5001 443.1013,-51.5001"/>
<polygon fill="#000000" stroke="#000000" points="499.2434,-58.5001 509.2434,-55 499.2434,-51.5001 499.2434,-58.5001"/>
</g>
<!-- JerryXiao_HK01 -->
<g id="node21" class="node">
<title>JerryXiao_HK01</title>
<polygon fill="none" stroke="#000000" points="769.5,-64 671.5,-64 671.5,-26 769.5,-26 769.5,-64"/>
<text text-anchor="middle" x="720.5" y="-48.8" font-family="Times,serif" font-size="14.00" fill="#000000">jerryxiao&#45;hk01</text>
<text text-anchor="middle" x="720.5" y="-33.8" font-family="Times,serif" font-size="14.00" fill="#000000">(10.127.8.194)</text>
</g>
<!-- JerryXiao&#45;&gt;JerryXiao_HK01 -->
<g id="edge25" class="edge">
<title>JerryXiao&#45;&gt;JerryXiao_HK01</title>
<path fill="none" stroke="#000000" d="M443.054,-36.3506C461.1999,-32.4736 480.7078,-28.9698 499,-27 551.5849,-21.3373 565.3108,-22.4088 618,-27 632.1217,-28.2305 647.2149,-30.3975 661.3578,-32.8113"/>
<polygon fill="#000000" stroke="#000000" points="442.143,-32.9673 433.1294,-38.5355 443.6481,-39.8036 442.143,-32.9673"/>
<polygon fill="#000000" stroke="#000000" points="661.003,-36.3029 671.4606,-34.6027 662.2253,-29.4104 661.003,-36.3029"/>
</g>
<!-- JerryXiao&#45;&gt;septs -->
<g id="edge29" class="edge">
<title>JerryXiao&#45;&gt;septs</title>
<path fill="none" stroke="#000000" d="M443.0181,-72.4078C511.1606,-89.307 604.6377,-114.0975 618,-126 651.8954,-156.1926 694.0483,-284.6239 711.8871,-342.9602"/>
<polygon fill="#000000" stroke="#000000" points="443.7081,-68.9731 433.1607,-69.9742 442.0303,-75.7691 443.7081,-68.9731"/>
<polygon fill="#000000" stroke="#000000" points="708.5808,-344.1181 714.8303,-352.6734 715.28,-342.0881 708.5808,-344.1181"/>
</g>
<!-- JerryXiao_SH01&#45;&gt;JerryXiao_HK01 -->
<g id="edge26" class="edge">
<title>JerryXiao_SH01&#45;&gt;JerryXiao_HK01</title>
<path fill="none" stroke="#000000" d="M617.7187,-51.3445C631.8956,-50.4694 647.0341,-49.5349 661.2141,-48.6596"/>
<polygon fill="#000000" stroke="#000000" points="617.3103,-47.863 607.545,-51.9725 617.7416,-54.8497 617.3103,-47.863"/>
<polygon fill="#000000" stroke="#000000" points="661.5771,-52.144 671.3424,-48.0344 661.1457,-45.1573 661.5771,-52.144"/>
</g>
<!-- dfceaef -->
<g id="node25" class="node">
<title>dfceaef</title>
<polygon fill="none" stroke="#000000" points="778,-166.5 663,-166.5 663,-113.5 778,-113.5 778,-166.5"/>
<text text-anchor="middle" x="720.5" y="-151.3" font-family="Times,serif" font-size="14.00" fill="#000000">dfceaef</text>
<text text-anchor="middle" x="720.5" y="-136.3" font-family="Times,serif" font-size="14.00" fill="#000000">(10.127.9.192/26)</text>
<text text-anchor="middle" x="720.5" y="-121.3" font-family="Times,serif" font-size="14.00" fill="#000000">(AS4242420140)</text>
</g>
<!-- JerryXiao_SH01&#45;&gt;dfceaef -->
<g id="edge30" class="edge">
<title>JerryXiao_SH01&#45;&gt;dfceaef</title>
<path fill="none" stroke="#000000" d="M602.1152,-79.0477C607.4752,-82.0449 612.8696,-85.0814 618,-88 631.962,-95.9428 636.4394,-99.4431 653.7395,-108.7268"/>
<polygon fill="#000000" stroke="#000000" points="603.6189,-75.8789 593.1799,-74.0685 600.2114,-81.9936 603.6189,-75.8789"/>
<polygon fill="#000000" stroke="#000000" points="652.1925,-111.8678 662.6706,-113.436 655.4574,-105.6758 652.1925,-111.8678"/>
</g>
<!-- JerryXiao_HK02 -->
<g id="node22" class="node">
<title>JerryXiao_HK02</title>
<polygon fill="none" stroke="#000000" points="927,-64 829,-64 829,-26 927,-26 927,-64"/>
<text text-anchor="middle" x="878" y="-48.8" font-family="Times,serif" font-size="14.00" fill="#000000">jerryxiao&#45;hk02</text>
<text text-anchor="middle" x="878" y="-33.8" font-family="Times,serif" font-size="14.00" fill="#000000">(10.127.8.196)</text>
</g>
<!-- JerryXiao_HK01&#45;&gt;JerryXiao_HK02 -->
<g id="edge27" class="edge">
<title>JerryXiao_HK01&#45;&gt;JerryXiao_HK02</title>
<path fill="none" stroke="#000000" d="M780.2382,-45C792.7536,-45 805.9504,-45 818.4586,-45"/>
<polygon fill="#000000" stroke="#000000" points="779.9019,-41.5001 769.9019,-45 779.9018,-48.5001 779.9019,-41.5001"/>
<polygon fill="#000000" stroke="#000000" points="818.7735,-48.5001 828.7734,-45 818.7734,-41.5001 818.7735,-48.5001"/>
</g>
<!-- septs&#45;&gt;frank_hsinchu -->
<g id="edge45" class="edge">
<title>septs&#45;&gt;frank_hsinchu</title>
<path fill="none" stroke="#000000" d="M763.2569,-347.839C781.3809,-337.5975 802.7456,-325.5247 822.0957,-314.5904"/>
<polygon fill="#000000" stroke="#000000" points="761.272,-344.9404 754.2877,-352.9073 764.7158,-351.0347 761.272,-344.9404"/>
<polygon fill="#000000" stroke="#000000" points="823.8414,-317.6241 830.8257,-309.6572 820.3976,-311.5298 823.8414,-317.6241"/>
</g>
<!-- lantian -->
<g id="node24" class="node">
<title>lantian</title>
<polygon fill="none" stroke="#000000" points="242,-116 132,-116 132,-78 242,-78 242,-116"/>
<text text-anchor="middle" x="187" y="-100.8" font-family="Times,serif" font-size="14.00" fill="#000000">lantian</text>
<text text-anchor="middle" x="187" y="-85.8" font-family="Times,serif" font-size="14.00" fill="#000000">(AS4200002547)</text>
</g>
<!-- lantian&#45;&gt;JerryXiao -->
<g id="edge33" class="edge">
<title>lantian&#45;&gt;JerryXiao</title>
<path fill="none" stroke="#000000" d="M251.9532,-82.1333C266.8295,-78.7284 282.7361,-75.0877 297.9107,-71.6144"/>
<polygon fill="#000000" stroke="#000000" points="251.0231,-78.7556 242.0561,-84.3986 252.5849,-85.5792 251.0231,-78.7556"/>
<polygon fill="#000000" stroke="#000000" points="298.7918,-75.0034 307.7588,-69.3604 297.2299,-68.1798 298.7918,-75.0034"/>
</g>
<!-- lantian&#45;&gt;septs -->
<g id="edge32" class="edge">
<title>lantian&#45;&gt;septs</title>
<path fill="none" stroke="#000000" d="M251.9607,-109.4888C340.9201,-128.9489 502.7323,-172.9659 618,-254 653.1022,-278.6771 683.947,-317.8891 702.4015,-344.2654"/>
<polygon fill="#000000" stroke="#000000" points="252.5192,-106.0289 242.0068,-107.3475 251.0471,-112.8724 252.5192,-106.0289"/>
<polygon fill="#000000" stroke="#000000" points="699.63,-346.4125 708.1732,-352.6787 705.4023,-342.4526 699.63,-346.4125"/>
</g>
<!-- NNPCC -->
<g id="node29" class="node">
<title>NNPCC</title>
<polygon fill="none" stroke="#000000" points="87,-1051 25,-1051 25,-1015 87,-1015 87,-1051"/>
<text text-anchor="middle" x="56" y="-1029.3" font-family="Times,serif" font-size="14.00" fill="#000000">NNPCC</text>
</g>
<!-- NNPCC&#45;&gt;np11 -->
<g id="edge1" class="edge">
<title>NNPCC&#45;&gt;np11</title>
<path fill="none" stroke="#000000" d="M94.1721,-1008.0771C94.8022,-1007.3958 95.4125,-1006.7033 96,-1006 116.8584,-981.0291 103.8514,-963.289 125.5,-939 127.0383,-937.2741 128.6798,-935.6083 130.4011,-934.003"/>
<polygon fill="#000000" stroke="#000000" points="91.7398,-1005.5596 86.8014,-1014.9332 96.5073,-1010.6851 91.7398,-1005.5596"/>
<polygon fill="#000000" stroke="#000000" points="132.9417,-936.4421 138.3877,-927.3541 128.463,-931.0624 132.9417,-936.4421"/>
</g>
<!-- NeoBOX -->
<g id="node30" class="node">
<title>NeoBOX</title>
<polygon fill="none" stroke="#000000" points="90,-997 22,-997 22,-961 90,-961 90,-997"/>
<text text-anchor="middle" x="56" y="-975.3" font-family="Times,serif" font-size="14.00" fill="#000000">NeoBOX</text>
</g>
<!-- NeoBOX&#45;&gt;np11 -->
<g id="edge2" class="edge">
<title>NeoBOX&#45;&gt;np11</title>
<path fill="none" stroke="#000000" d="M95.7109,-955.9616C107.2798,-949.2499 120.1261,-941.7971 132.4412,-934.6524"/>
<polygon fill="#000000" stroke="#000000" points="93.9385,-952.9434 87.0452,-960.9891 97.4513,-958.9983 93.9385,-952.9434"/>
<polygon fill="#000000" stroke="#000000" points="134.3955,-937.5651 141.2889,-929.5194 130.8828,-931.5102 134.3955,-937.5651"/>
</g>
<!-- cklvax -->
<g id="node31" class="node">
<title>cklvax</title>
<polygon fill="none" stroke="#000000" points="83,-943 29,-943 29,-907 83,-907 83,-943"/>
<text text-anchor="middle" x="56" y="-921.3" font-family="Times,serif" font-size="14.00" fill="#000000">cklvax</text>
</g>
<!-- cklvax&#45;&gt;np11 -->
<g id="edge3" class="edge">
<title>cklvax&#45;&gt;np11</title>
<path fill="none" stroke="#000000" d="M93.3956,-918.7198C104.349,-916.8803 116.5964,-914.8235 128.5289,-912.8196"/>
<polygon fill="#000000" stroke="#000000" points="92.4255,-915.3336 83.1433,-920.4416 93.5849,-922.237 92.4255,-915.3336"/>
<polygon fill="#000000" stroke="#000000" points="129.1607,-916.2626 138.4429,-911.1546 128.0013,-909.3592 129.1607,-916.2626"/>
</g>
<!-- NeoStorage -->
<g id="node32" class="node">
<title>NeoStorage</title>
<polygon fill="none" stroke="#000000" points="96,-889 16,-889 16,-853 96,-853 96,-889"/>
<text text-anchor="middle" x="56" y="-867.3" font-family="Times,serif" font-size="14.00" fill="#000000">NeoStorage</text>
</g>
<!-- NeoStorage&#45;&gt;np11 -->
<g id="edge4" class="edge">
<title>NeoStorage&#45;&gt;np11</title>
<path fill="none" stroke="#000000" d="M106.004,-883.2147C113.4048,-885.0225 121.0856,-886.8988 128.6383,-888.7437"/>
<polygon fill="#000000" stroke="#000000" points="106.5611,-879.748 96.0161,-880.7749 104.8999,-886.548 106.5611,-879.748"/>
<polygon fill="#000000" stroke="#000000" points="127.914,-892.1696 138.4589,-891.1426 129.5751,-885.3696 127.914,-892.1696"/>
</g>
</g>
</svg>
