<?xml version="1.0" encoding="UTF-8" standalone="no"?>
<!DOCTYPE svg PUBLIC "-//W3C//DTD SVG 1.1//EN"
 "http://www.w3.org/Graphics/SVG/1.1/DTD/svg11.dtd">
<!-- Generated by graphviz version 2.43.0 (0)
 -->
<!-- Title: NeoNetwork Nodes Pages: 1 -->
<svg width="1175pt" height="1049pt"
 viewBox="0.00 0.00 1174.50 1049.00" xmlns="http://www.w3.org/2000/svg" xmlns:xlink="http://www.w3.org/1999/xlink">
<g id="graph0" class="graph" transform="scale(1 1) rotate(0) translate(4 1045)">
<title>NeoNetwork Nodes</title>
<polygon fill="white" stroke="transparent" points="-4,4 -4,-1045 1170.5,-1045 1170.5,4 -4,4"/>
<text text-anchor="middle" x="583.25" y="-1025.8" font-family="Times,serif" font-size="14.00">NeoNetwork Nodes</text>
<g id="clust1" class="cluster">
<title>cluster_AS4201048576</title>
<polygon fill="none" stroke="black" points="9.5,-773 9.5,-1010 985.5,-1010 985.5,-773 9.5,-773"/>
<text text-anchor="middle" x="497.5" y="-994.8" font-family="Times,serif" font-size="14.00">NeoNetwork (AS4201048576)</text>
</g>
<g id="clust2" class="cluster">
<title>cluster_AS4200012450</title>
<polygon fill="none" stroke="black" points="172.5,-252 172.5,-665 600,-665 600,-252 172.5,-252"/>
<text text-anchor="middle" x="386.25" y="-649.8" font-family="Times,serif" font-size="14.00">MagicNeko Network Internet exchange (AS4200012450)</text>
</g>
<g id="clust3" class="cluster">
<title>cluster_AS4200066666</title>
<polygon fill="none" stroke="black" points="381.5,-8 381.5,-105 1158.5,-105 1158.5,-8 381.5,-8"/>
<text text-anchor="middle" x="770" y="-89.8" font-family="Times,serif" font-size="14.00">Jerry Network (AS4200066666)</text>
</g>
<!-- c -->
<g id="node1" class="node">
<title>c</title>
<polygon fill="none" stroke="black" points="977.5,-854 823.5,-854 823.5,-816 977.5,-816 977.5,-854"/>
<text text-anchor="middle" x="900.5" y="-838.8" font-family="Times,serif" font-size="14.00">caasih.neocloud.tw</text>
<text text-anchor="middle" x="900.5" y="-823.8" font-family="Times,serif" font-size="14.00">(10.127.0.1)</text>
</g>
<!-- ucbvax -->
<g id="node2" class="node">
<title>ucbvax</title>
<polygon fill="none" stroke="black" points="780,-821 628,-821 628,-783 780,-783 780,-821"/>
<text text-anchor="middle" x="704" y="-805.8" font-family="Times,serif" font-size="14.00">router.neocloud.tw</text>
<text text-anchor="middle" x="704" y="-790.8" font-family="Times,serif" font-size="14.00">(10.127.255.2)</text>
</g>
<!-- ucbvax&#45;&gt;c -->
<g id="edge8" class="edge">
<title>ucbvax&#45;&gt;c</title>
<path fill="none" stroke="black" d="M790.21,-816.46C797.85,-817.75 805.59,-819.07 813.23,-820.36"/>
<polygon fill="black" stroke="black" points="790.64,-812.98 780.2,-814.76 789.47,-819.88 790.64,-812.98"/>
<polygon fill="black" stroke="black" points="812.77,-823.84 823.22,-822.06 813.94,-816.93 812.77,-823.84"/>
</g>
<!-- chenx97 -->
<g id="node18" class="node">
<title>chenx97</title>
<polygon fill="none" stroke="black" points="985,-592 816,-592 816,-554 985,-554 985,-592"/>
<text text-anchor="middle" x="900.5" y="-576.8" font-family="Times,serif" font-size="14.00">chenx97.neocloud.tw</text>
<text text-anchor="middle" x="900.5" y="-561.8" font-family="Times,serif" font-size="14.00">(AS4200114514)</text>
</g>
<!-- ucbvax&#45;&gt;chenx97 -->
<g id="edge15" class="edge">
<title>ucbvax&#45;&gt;chenx97</title>
<path fill="none" stroke="black" d="M768.23,-777.74C772.4,-775.08 776.38,-772.17 780,-769 834.28,-721.5 871.54,-643.19 888.71,-601.39"/>
<polygon fill="black" stroke="black" points="766.32,-774.8 759.44,-782.86 769.84,-780.85 766.32,-774.8"/>
<polygon fill="black" stroke="black" points="891.98,-602.65 892.46,-592.07 885.48,-600.04 891.98,-602.65"/>
</g>
<!-- septs -->
<g id="node23" class="node">
<title>septs</title>
<polygon fill="none" stroke="black" points="969,-363 832,-363 832,-325 969,-325 969,-363"/>
<text text-anchor="middle" x="900.5" y="-347.8" font-family="Times,serif" font-size="14.00">bgp.septs.me</text>
<text text-anchor="middle" x="900.5" y="-332.8" font-family="Times,serif" font-size="14.00">(AS4200055555)</text>
</g>
<!-- ucbvax&#45;&gt;septs -->
<g id="edge35" class="edge">
<title>ucbvax&#45;&gt;septs</title>
<path fill="none" stroke="black" d="M772.84,-776.61C775.46,-774.29 777.87,-771.76 780,-769 841.65,-689.21 788.47,-642 816,-545 834.12,-481.16 866.67,-410.32 885.33,-372.12"/>
<polygon fill="black" stroke="black" points="770.3,-774.15 764.45,-782.98 774.53,-779.73 770.3,-774.15"/>
<polygon fill="black" stroke="black" points="888.48,-373.66 889.76,-363.14 882.2,-370.56 888.48,-373.66"/>
</g>
<!-- np11 -->
<g id="node3" class="node">
<title>np11</title>
<polygon fill="none" stroke="black" points="304.5,-857.5 183.5,-857.5 183.5,-804.5 304.5,-804.5 304.5,-857.5"/>
<text text-anchor="middle" x="244" y="-842.3" font-family="Times,serif" font-size="14.00">NeoPDP&#45;11</text>
<text text-anchor="middle" x="244" y="-827.3" font-family="Times,serif" font-size="14.00">(10.127.255.1,</text>
<text text-anchor="middle" x="244" y="-812.3" font-family="Times,serif" font-size="14.00">10.127.1.1)</text>
</g>
<!-- np11&#45;&gt;c -->
<g id="edge7" class="edge">
<title>np11&#45;&gt;c</title>
<path fill="none" stroke="black" d="M304.74,-849.51C319.99,-853.44 336.48,-857 352,-859 514.04,-879.85 705.02,-861.93 813.22,-847.87"/>
<polygon fill="black" stroke="black" points="813.97,-851.3 823.43,-846.53 813.06,-844.36 813.97,-851.3"/>
</g>
<!-- np11&#45;&gt;ucbvax -->
<g id="edge5" class="edge">
<title>np11&#45;&gt;ucbvax</title>
<path fill="none" stroke="black" d="M304.74,-812.52C320,-808.59 336.48,-805.02 352,-803 441.99,-791.29 546.07,-792.87 617.38,-796.23"/>
<polygon fill="black" stroke="black" points="617.5,-799.74 627.66,-796.74 617.85,-792.75 617.5,-799.74"/>
</g>
<!-- pan -->
<g id="node6" class="node">
<title>pan</title>
<polygon fill="none" stroke="black" points="530.5,-850 406.5,-850 406.5,-812 530.5,-812 530.5,-850"/>
<text text-anchor="middle" x="468.5" y="-834.8" font-family="Times,serif" font-size="14.00">r2.neocloud.tw</text>
<text text-anchor="middle" x="468.5" y="-819.8" font-family="Times,serif" font-size="14.00">(10.127.3.1)</text>
</g>
<!-- np11&#45;&gt;pan -->
<g id="edge6" class="edge">
<title>np11&#45;&gt;pan</title>
<path fill="none" stroke="black" d="M304.63,-831C332.72,-831 366.46,-831 395.93,-831"/>
<polygon fill="black" stroke="black" points="396.16,-834.5 406.16,-831 396.16,-827.5 396.16,-834.5"/>
</g>
<!-- ns -->
<g id="node4" class="node">
<title>ns</title>
<polygon fill="none" stroke="black" points="309.5,-914 178.5,-914 178.5,-876 309.5,-876 309.5,-914"/>
<text text-anchor="middle" x="244" y="-898.8" font-family="Times,serif" font-size="14.00">NeoSystem</text>
<text text-anchor="middle" x="244" y="-883.8" font-family="Times,serif" font-size="14.00">(10.127.255.80)</text>
</g>
<!-- ns&#45;&gt;ucbvax -->
<g id="edge9" class="edge">
<title>ns&#45;&gt;ucbvax</title>
<path fill="none" stroke="black" d="M309.72,-896.16C382.09,-895.71 502.01,-889.66 600,-859 623.57,-851.62 647.85,-838.51 666.9,-826.72"/>
<polygon fill="black" stroke="black" points="668.97,-829.55 675.54,-821.24 665.22,-823.64 668.97,-829.55"/>
</g>
<!-- ns&#45;&gt;pan -->
<g id="edge10" class="edge">
<title>ns&#45;&gt;pan</title>
<path fill="none" stroke="black" d="M309.66,-876.4C336.86,-868.58 368.59,-859.45 396.45,-851.44"/>
<polygon fill="black" stroke="black" points="397.48,-854.78 406.13,-848.65 395.55,-848.05 397.48,-854.78"/>
</g>
<!-- megumiLHS -->
<g id="node5" class="node">
<title>megumiLHS</title>
<polygon fill="none" stroke="black" points="552,-244 385,-244 385,-206 552,-206 552,-244"/>
<text text-anchor="middle" x="468.5" y="-228.8" font-family="Times,serif" font-size="14.00">megumi.yukipedia.cf</text>
<text text-anchor="middle" x="468.5" y="-213.8" font-family="Times,serif" font-size="14.00">(AS4203223939)</text>
</g>
<!-- megumiLHS&#45;&gt;ucbvax -->
<g id="edge12" class="edge">
<title>megumiLHS&#45;&gt;ucbvax</title>
<path fill="none" stroke="black" d="M562.17,-225.57C576.59,-229.76 590,-236.76 600,-248 636.09,-288.59 604.22,-687.17 628,-736 635.8,-752.01 649.41,-765.8 662.91,-776.57"/>
<polygon fill="black" stroke="black" points="562.6,-222.07 552.05,-223.1 560.94,-228.87 562.6,-222.07"/>
<polygon fill="black" stroke="black" points="661.17,-779.64 671.25,-782.88 665.39,-774.05 661.17,-779.64"/>
</g>
<!-- megumiLHS&#45;&gt;septs -->
<g id="edge38" class="edge">
<title>megumiLHS&#45;&gt;septs</title>
<path fill="none" stroke="black" d="M562.19,-239.73C574.95,-242.23 587.84,-244.99 600,-248 683.48,-268.63 777.59,-300.21 837.66,-321.46"/>
<polygon fill="black" stroke="black" points="562.48,-236.22 552,-237.79 561.17,-243.1 562.48,-236.22"/>
<polygon fill="black" stroke="black" points="836.78,-324.86 847.37,-324.91 839.12,-318.26 836.78,-324.86"/>
</g>
<!-- pan&#45;&gt;ucbvax -->
<g id="edge11" class="edge">
<title>pan&#45;&gt;ucbvax</title>
<path fill="none" stroke="black" d="M540.51,-822.18C564.86,-819.16 592.37,-815.74 617.74,-812.59"/>
<polygon fill="black" stroke="black" points="540.04,-818.71 530.54,-823.42 540.9,-825.66 540.04,-818.71"/>
<polygon fill="black" stroke="black" points="618.22,-816.06 627.71,-811.35 617.36,-809.11 618.22,-816.06"/>
</g>
<!-- icecat_Explosion -->
<g id="node7" class="node">
<title>icecat_Explosion</title>
<polygon fill="none" stroke="black" points="585,-445.5 352,-445.5 352,-392.5 585,-392.5 585,-445.5"/>
<text text-anchor="middle" x="468.5" y="-430.3" font-family="Times,serif" font-size="14.00">hk&#45;01.nextmoe.cloud.imiku.cn</text>
<text text-anchor="middle" x="468.5" y="-415.3" font-family="Times,serif" font-size="14.00">(10.127.0.58,</text>
<text text-anchor="middle" x="468.5" y="-400.3" font-family="Times,serif" font-size="14.00">10.127.4.10)</text>
</g>
<!-- icecat_Explosion&#45;&gt;ucbvax -->
<g id="edge13" class="edge">
<title>icecat_Explosion&#45;&gt;ucbvax</title>
<path fill="none" stroke="black" d="M490.08,-454.73C516.96,-502.04 564.73,-588.43 600,-665 614.19,-695.81 608.5,-708.24 628,-736 638.75,-751.3 653.75,-765.43 667.52,-776.65"/>
<polygon fill="black" stroke="black" points="492.99,-452.76 485,-445.8 486.91,-456.22 492.99,-452.76"/>
<polygon fill="black" stroke="black" points="665.42,-779.45 675.44,-782.9 669.76,-773.96 665.42,-779.45"/>
</g>
<!-- SUNNET -->
<g id="node26" class="node">
<title>SUNNET</title>
<polygon fill="none" stroke="black" points="772.5,-445.5 635.5,-445.5 635.5,-392.5 772.5,-392.5 772.5,-445.5"/>
<text text-anchor="middle" x="704" y="-430.3" font-family="Times,serif" font-size="14.00">SUNNET</text>
<text text-anchor="middle" x="704" y="-415.3" font-family="Times,serif" font-size="14.00">(10.127.11.0/24)</text>
<text text-anchor="middle" x="704" y="-400.3" font-family="Times,serif" font-size="14.00">(AS4242423088)</text>
</g>
<!-- icecat_Explosion&#45;&gt;SUNNET -->
<g id="edge39" class="edge">
<title>icecat_Explosion&#45;&gt;SUNNET</title>
<path fill="none" stroke="black" d="M595.3,-419C605.43,-419 615.48,-419 625.13,-419"/>
<polygon fill="black" stroke="black" points="595.22,-415.5 585.22,-419 595.22,-422.5 595.22,-415.5"/>
<polygon fill="black" stroke="black" points="625.42,-422.5 635.42,-419 625.42,-415.5 625.42,-422.5"/>
</g>
<!-- icecat_Notebook -->
<g id="node8" class="node">
<title>icecat_Notebook</title>
<polygon fill="none" stroke="black" points="137,-585.5 0,-585.5 0,-532.5 137,-532.5 137,-585.5"/>
<text text-anchor="middle" x="68.5" y="-570.3" font-family="Times,serif" font-size="14.00">Notebook</text>
<text text-anchor="middle" x="68.5" y="-555.3" font-family="Times,serif" font-size="14.00">(AS4200012451)</text>
<text text-anchor="middle" x="68.5" y="-540.3" font-family="Times,serif" font-size="14.00">(10.127.233.1)</text>
</g>
<!-- magicneko_HK01 -->
<g id="node9" class="node">
<title>magicneko_HK01</title>
<polygon fill="none" stroke="black" points="296,-578 192,-578 192,-540 296,-540 296,-578"/>
<text text-anchor="middle" x="244" y="-562.8" font-family="Times,serif" font-size="14.00">M&#45;HK1</text>
<text text-anchor="middle" x="244" y="-547.8" font-family="Times,serif" font-size="14.00">(10.127.4.1)</text>
</g>
<!-- icecat_Notebook&#45;&gt;magicneko_HK01 -->
<g id="edge45" class="edge">
<title>icecat_Notebook&#45;&gt;magicneko_HK01</title>
<path fill="none" stroke="black" d="M137.08,-559C151.78,-559 167.25,-559 181.69,-559"/>
<polygon fill="black" stroke="black" points="182,-562.5 192,-559 182,-555.5 182,-562.5"/>
</g>
<!-- magicneko_RU01 -->
<g id="node14" class="node">
<title>magicneko_RU01</title>
<polygon fill="none" stroke="black" points="300.5,-634 187.5,-634 187.5,-596 300.5,-596 300.5,-634"/>
<text text-anchor="middle" x="244" y="-618.8" font-family="Times,serif" font-size="14.00">M&#45;RU1</text>
<text text-anchor="middle" x="244" y="-603.8" font-family="Times,serif" font-size="14.00">(10.127.4.14)</text>
</g>
<!-- icecat_Notebook&#45;&gt;magicneko_RU01 -->
<g id="edge47" class="edge">
<title>icecat_Notebook&#45;&gt;magicneko_RU01</title>
<path fill="none" stroke="black" d="M137.08,-580.81C150.48,-585.14 164.52,-589.67 177.83,-593.97"/>
<polygon fill="black" stroke="black" points="176.79,-597.31 187.38,-597.05 178.94,-590.65 176.79,-597.31"/>
</g>
<!-- magicneko_JP03 -->
<g id="node15" class="node">
<title>magicneko_JP03</title>
<polygon fill="none" stroke="black" points="300.5,-298 187.5,-298 187.5,-260 300.5,-260 300.5,-298"/>
<text text-anchor="middle" x="244" y="-282.8" font-family="Times,serif" font-size="14.00">M&#45;JP3</text>
<text text-anchor="middle" x="244" y="-267.8" font-family="Times,serif" font-size="14.00">(10.127.4.15)</text>
</g>
<!-- icecat_Notebook&#45;&gt;magicneko_JP03 -->
<g id="edge46" class="edge">
<title>icecat_Notebook&#45;&gt;magicneko_JP03</title>
<path fill="none" stroke="black" d="M73.29,-532.37C81.85,-481.79 107.2,-371.11 172,-307 174.08,-304.95 176.32,-303.04 178.69,-301.27"/>
<polygon fill="black" stroke="black" points="180.68,-304.15 187.15,-295.76 176.86,-298.28 180.68,-304.15"/>
</g>
<!-- magicneko_HK01&#45;&gt;icecat_Explosion -->
<g id="edge16" class="edge">
<title>magicneko_HK01&#45;&gt;icecat_Explosion</title>
<path fill="none" stroke="black" d="M296.17,-540.69C302.96,-537.72 309.74,-534.47 316,-531 356.79,-508.39 399.15,-476.22 428.67,-452.15"/>
<polygon fill="black" stroke="black" points="431.14,-454.65 436.64,-445.59 426.69,-449.24 431.14,-454.65"/>
</g>
<!-- magicneko_HK02 -->
<g id="node10" class="node">
<title>magicneko_HK02</title>
<polygon fill="none" stroke="black" points="300.5,-466 187.5,-466 187.5,-428 300.5,-428 300.5,-466"/>
<text text-anchor="middle" x="244" y="-450.8" font-family="Times,serif" font-size="14.00">M&#45;HK2</text>
<text text-anchor="middle" x="244" y="-435.8" font-family="Times,serif" font-size="14.00">(10.127.4.10)</text>
</g>
<!-- magicneko_HK02&#45;&gt;icecat_Explosion -->
<g id="edge17" class="edge">
<title>magicneko_HK02&#45;&gt;icecat_Explosion</title>
<path fill="none" stroke="black" d="M300.57,-440.01C313.33,-438.4 327.41,-436.63 341.81,-434.82"/>
<polygon fill="black" stroke="black" points="342.34,-438.28 351.82,-433.56 341.46,-431.33 342.34,-438.28"/>
</g>
<!-- magicneko_JP01 -->
<g id="node11" class="node">
<title>magicneko_JP01</title>
<polygon fill="none" stroke="black" points="300.5,-410 187.5,-410 187.5,-372 300.5,-372 300.5,-410"/>
<text text-anchor="middle" x="244" y="-394.8" font-family="Times,serif" font-size="14.00">M&#45;JP1</text>
<text text-anchor="middle" x="244" y="-379.8" font-family="Times,serif" font-size="14.00">(10.127.4.11)</text>
</g>
<!-- magicneko_JP01&#45;&gt;icecat_Explosion -->
<g id="edge18" class="edge">
<title>magicneko_JP01&#45;&gt;icecat_Explosion</title>
<path fill="none" stroke="black" d="M300.57,-397.99C313.33,-399.6 327.41,-401.37 341.81,-403.18"/>
<polygon fill="black" stroke="black" points="341.46,-406.67 351.82,-404.44 342.34,-399.72 341.46,-406.67"/>
</g>
<!-- magicneko_HK03 -->
<g id="node12" class="node">
<title>magicneko_HK03</title>
<polygon fill="none" stroke="black" points="300.5,-354 187.5,-354 187.5,-316 300.5,-316 300.5,-354"/>
<text text-anchor="middle" x="244" y="-338.8" font-family="Times,serif" font-size="14.00">M&#45;HK3</text>
<text text-anchor="middle" x="244" y="-323.8" font-family="Times,serif" font-size="14.00">(10.127.4.12)</text>
</g>
<!-- magicneko_HK03&#45;&gt;icecat_Explosion -->
<g id="edge19" class="edge">
<title>magicneko_HK03&#45;&gt;icecat_Explosion</title>
<path fill="none" stroke="black" d="M295.49,-354.06C322.68,-364.33 356.85,-377.23 387.56,-388.82"/>
<polygon fill="black" stroke="black" points="386.38,-392.12 396.97,-392.37 388.85,-385.57 386.38,-392.12"/>
</g>
<!-- magicneko_JP02 -->
<g id="node13" class="node">
<title>magicneko_JP02</title>
<polygon fill="none" stroke="black" points="300.5,-522 187.5,-522 187.5,-484 300.5,-484 300.5,-522"/>
<text text-anchor="middle" x="244" y="-506.8" font-family="Times,serif" font-size="14.00">M&#45;JP2</text>
<text text-anchor="middle" x="244" y="-491.8" font-family="Times,serif" font-size="14.00">(10.127.4.13)</text>
</g>
<!-- magicneko_JP02&#45;&gt;icecat_Explosion -->
<g id="edge20" class="edge">
<title>magicneko_JP02&#45;&gt;icecat_Explosion</title>
<path fill="none" stroke="black" d="M295.49,-483.94C322.68,-473.67 356.85,-460.77 387.56,-449.18"/>
<polygon fill="black" stroke="black" points="388.85,-452.43 396.97,-445.63 386.38,-445.88 388.85,-452.43"/>
</g>
<!-- magicneko_RU01&#45;&gt;icecat_Explosion -->
<g id="edge21" class="edge">
<title>magicneko_RU01&#45;&gt;icecat_Explosion</title>
<path fill="none" stroke="black" d="M300.57,-596.03C305.97,-593.33 311.21,-590.32 316,-587 368.89,-550.33 416.14,-491.77 443.3,-454.37"/>
<polygon fill="black" stroke="black" points="446.46,-455.97 449.44,-445.8 440.77,-451.89 446.46,-455.97"/>
</g>
<!-- staph -->
<g id="node16" class="node">
<title>staph</title>
<polygon fill="none" stroke="black" points="537,-726.5 400,-726.5 400,-673.5 537,-673.5 537,-726.5"/>
<text text-anchor="middle" x="468.5" y="-711.3" font-family="Times,serif" font-size="14.00">s.aureus.ga</text>
<text text-anchor="middle" x="468.5" y="-696.3" font-family="Times,serif" font-size="14.00">(10.127.8.185)</text>
<text text-anchor="middle" x="468.5" y="-681.3" font-family="Times,serif" font-size="14.00">(AS4200078274)</text>
</g>
<!-- magicneko_RU01&#45;&gt;staph -->
<g id="edge37" class="edge">
<title>magicneko_RU01&#45;&gt;staph</title>
<path fill="none" stroke="black" d="M287.25,-638.85C306.58,-649.09 330.02,-660.6 352,-669 364.13,-673.63 377.23,-677.85 390.1,-681.59"/>
<polygon fill="black" stroke="black" points="288.87,-635.74 278.41,-634.1 285.56,-641.91 288.87,-635.74"/>
<polygon fill="black" stroke="black" points="389.3,-685 399.88,-684.34 391.2,-678.26 389.3,-685"/>
</g>
<!-- magicneko_RU01&#45;&gt;septs -->
<g id="edge41" class="edge">
<title>magicneko_RU01&#45;&gt;septs</title>
<path fill="none" stroke="black" d="M260.21,-643.21C277.86,-672.64 310.01,-717.08 352,-736 395.36,-755.54 743.39,-766.35 780,-736 846.5,-680.86 791.3,-627.78 816,-545 834.98,-481.41 867.21,-410.48 885.59,-372.2"/>
<polygon fill="black" stroke="black" points="263.04,-641.12 254.99,-634.23 256.99,-644.63 263.04,-641.12"/>
<polygon fill="black" stroke="black" points="888.74,-373.72 889.94,-363.19 882.44,-370.67 888.74,-373.72"/>
</g>
<!-- magicneko_JP03&#45;&gt;megumiLHS -->
<g id="edge42" class="edge">
<title>magicneko_JP03&#45;&gt;megumiLHS</title>
<path fill="none" stroke="black" d="M310.39,-259.1C324.08,-255.2 338.47,-251.3 352,-248 359.47,-246.18 367.24,-244.39 375.06,-242.68"/>
<polygon fill="black" stroke="black" points="309.21,-255.79 300.57,-261.92 311.15,-262.52 309.21,-255.79"/>
<polygon fill="black" stroke="black" points="375.93,-246.07 384.97,-240.54 374.46,-239.23 375.93,-246.07"/>
</g>
<!-- magicneko_JP03&#45;&gt;icecat_Explosion -->
<g id="edge22" class="edge">
<title>magicneko_JP03&#45;&gt;icecat_Explosion</title>
<path fill="none" stroke="black" d="M298.13,-298.01C304.28,-300.77 310.36,-303.78 316,-307 333.61,-317.04 335.8,-322.82 352,-335 374.91,-352.24 400.7,-371.04 422.08,-386.48"/>
<polygon fill="black" stroke="black" points="420.19,-389.43 430.35,-392.44 424.28,-383.75 420.19,-389.43"/>
</g>
<!-- magicneko_JP03&#45;&gt;chenx97 -->
<g id="edge36" class="edge">
<title>magicneko_JP03&#45;&gt;chenx97</title>
<path fill="none" stroke="black" d="M310.96,-275.94C418.7,-274.2 634.92,-284.66 780,-384 838.12,-423.8 873.89,-502.13 889.79,-544.38"/>
<polygon fill="black" stroke="black" points="310.81,-272.44 300.88,-276.14 310.95,-279.44 310.81,-272.44"/>
<polygon fill="black" stroke="black" points="886.51,-545.61 893.23,-553.8 893.09,-543.21 886.51,-545.61"/>
</g>
<!-- JerryXiao -->
<g id="node19" class="node">
<title>JerryXiao</title>
<polygon fill="none" stroke="black" points="547.5,-74 389.5,-74 389.5,-36 547.5,-36 547.5,-74"/>
<text text-anchor="middle" x="468.5" y="-58.8" font-family="Times,serif" font-size="14.00">jpn.neo.jerryxiao.cc</text>
<text text-anchor="middle" x="468.5" y="-43.8" font-family="Times,serif" font-size="14.00">(10.127.8.193)</text>
</g>
<!-- magicneko_JP03&#45;&gt;JerryXiao -->
<g id="edge30" class="edge">
<title>magicneko_JP03&#45;&gt;JerryXiao</title>
<path fill="none" stroke="black" d="M268.86,-252.39C290.24,-228.78 322.65,-193.56 352,-164 380.8,-135 414.97,-103.03 438.64,-81.26"/>
<polygon fill="black" stroke="black" points="266.16,-250.16 262.05,-259.92 271.35,-254.85 266.16,-250.16"/>
<polygon fill="black" stroke="black" points="441.24,-83.63 446.24,-74.29 436.51,-78.47 441.24,-83.63"/>
</g>
<!-- magicneko_JP03&#45;&gt;septs -->
<g id="edge33" class="edge">
<title>magicneko_JP03&#45;&gt;septs</title>
<path fill="none" stroke="black" d="M309.42,-300.66C311.79,-302.6 314,-304.71 316,-307 360.48,-358.03 298.77,-413.17 352,-455 501.56,-572.54 602.95,-524.54 780,-455 822.57,-438.28 858.99,-398.47 880.08,-371.37"/>
<polygon fill="black" stroke="black" points="311.04,-297.53 300.82,-294.71 307.06,-303.28 311.04,-297.53"/>
<polygon fill="black" stroke="black" points="883.12,-373.14 886.37,-363.06 877.55,-368.91 883.12,-373.14"/>
</g>
<!-- frank_hsinchu -->
<g id="node28" class="node">
<title>frank_hsinchu</title>
<polygon fill="none" stroke="black" points="1158,-295.5 1021,-295.5 1021,-242.5 1158,-242.5 1158,-295.5"/>
<text text-anchor="middle" x="1089.5" y="-280.3" font-family="Times,serif" font-size="14.00">Frank_Hsinchu</text>
<text text-anchor="middle" x="1089.5" y="-265.3" font-family="Times,serif" font-size="14.00">(10.127.255.56)</text>
<text text-anchor="middle" x="1089.5" y="-250.3" font-family="Times,serif" font-size="14.00">(AS4200005566)</text>
</g>
<!-- magicneko_JP03&#45;&gt;frank_hsinchu -->
<g id="edge43" class="edge">
<title>magicneko_JP03&#45;&gt;frank_hsinchu</title>
<path fill="none" stroke="black" d="M269.24,-252.79C289.26,-233.21 319.57,-208 352,-197 582.21,-118.93 874.45,-195.6 1011.27,-240.91"/>
<polygon fill="black" stroke="black" points="266.66,-250.43 262.09,-259.98 271.62,-255.36 266.66,-250.43"/>
<polygon fill="black" stroke="black" points="1010.26,-244.26 1020.85,-244.12 1012.48,-237.63 1010.26,-244.26"/>
</g>
<!-- staph_CN -->
<g id="node17" class="node">
<title>staph_CN</title>
<polygon fill="none" stroke="black" points="778,-726.5 630,-726.5 630,-673.5 778,-673.5 778,-726.5"/>
<text text-anchor="middle" x="704" y="-711.3" font-family="Times,serif" font-size="14.00">cnhome.aureus.ga</text>
<text text-anchor="middle" x="704" y="-696.3" font-family="Times,serif" font-size="14.00">(10.127.8.187)</text>
<text text-anchor="middle" x="704" y="-681.3" font-family="Times,serif" font-size="14.00">(AS4200078274)</text>
</g>
<!-- staph&#45;&gt;staph_CN -->
<g id="edge14" class="edge">
<title>staph&#45;&gt;staph_CN</title>
<path fill="none" stroke="black" d="M537.04,-700C562.84,-700 592.56,-700 619.66,-700"/>
<polygon fill="black" stroke="black" points="619.9,-703.5 629.9,-700 619.9,-696.5 619.9,-703.5"/>
</g>
<!-- staph&#45;&gt;septs -->
<g id="edge34" class="edge">
<title>staph&#45;&gt;septs</title>
<path fill="none" stroke="black" d="M547.07,-682.41C637.55,-661.77 775.46,-629.84 780,-626 782.6,-623.8 857.92,-443.69 887.62,-372.5"/>
<polygon fill="black" stroke="black" points="546.07,-679.05 537.1,-684.69 547.63,-685.88 546.07,-679.05"/>
<polygon fill="black" stroke="black" points="890.88,-373.78 891.5,-363.21 884.42,-371.09 890.88,-373.78"/>
</g>
<!-- santost12 -->
<g id="node27" class="node">
<title>santost12</title>
<polygon fill="none" stroke="black" points="772.5,-616.5 635.5,-616.5 635.5,-563.5 772.5,-563.5 772.5,-616.5"/>
<text text-anchor="middle" x="704" y="-601.3" font-family="Times,serif" font-size="14.00">Santost12</text>
<text text-anchor="middle" x="704" y="-586.3" font-family="Times,serif" font-size="14.00">(10.127.69.1)</text>
<text text-anchor="middle" x="704" y="-571.3" font-family="Times,serif" font-size="14.00">(AS4200006969)</text>
</g>
<!-- staph&#45;&gt;santost12 -->
<g id="edge40" class="edge">
<title>staph&#45;&gt;santost12</title>
<path fill="none" stroke="black" d="M547.05,-690.93C565.45,-686.32 584.28,-679.4 600,-669 617.5,-657.42 612.2,-644.8 628,-631 631.42,-628.01 635.1,-625.15 638.93,-622.42"/>
<polygon fill="black" stroke="black" points="546.16,-687.54 537.2,-693.19 547.73,-694.37 546.16,-687.54"/>
<polygon fill="black" stroke="black" points="641.12,-625.17 647.49,-616.69 637.23,-619.35 641.12,-625.17"/>
</g>
<!-- JerryXiao&#45;&gt;ucbvax -->
<g id="edge27" class="edge">
<title>JerryXiao&#45;&gt;ucbvax</title>
<path fill="none" stroke="black" d="M503.84,-80.55C535.19,-106.12 579.65,-148.54 600,-197 646.44,-307.58 575.77,-628.03 628,-736 635.76,-752.03 649.36,-765.82 662.87,-776.59"/>
<polygon fill="black" stroke="black" points="505.77,-77.62 495.78,-74.11 501.4,-83.09 505.77,-77.62"/>
<polygon fill="black" stroke="black" points="661.12,-779.66 671.21,-782.9 665.34,-774.08 661.12,-779.66"/>
</g>
<!-- JerryXiao_SH01 -->
<g id="node20" class="node">
<title>JerryXiao_SH01</title>
<polygon fill="none" stroke="black" points="765,-74 643,-74 643,-36 765,-36 765,-74"/>
<text text-anchor="middle" x="704" y="-58.8" font-family="Times,serif" font-size="14.00">jerryxiao&#45;sh01</text>
<text text-anchor="middle" x="704" y="-43.8" font-family="Times,serif" font-size="14.00">(10.127.8.195)</text>
</g>
<!-- JerryXiao&#45;&gt;JerryXiao_SH01 -->
<g id="edge23" class="edge">
<title>JerryXiao&#45;&gt;JerryXiao_SH01</title>
<path fill="none" stroke="black" d="M557.89,-55C582.56,-55 609.03,-55 632.52,-55"/>
<polygon fill="black" stroke="black" points="557.58,-51.5 547.58,-55 557.58,-58.5 557.58,-51.5"/>
<polygon fill="black" stroke="black" points="632.73,-58.5 642.73,-55 632.73,-51.5 632.73,-58.5"/>
</g>
<!-- JerryXiao_HK01 -->
<g id="node21" class="node">
<title>JerryXiao_HK01</title>
<polygon fill="none" stroke="black" points="961.5,-64 839.5,-64 839.5,-26 961.5,-26 961.5,-64"/>
<text text-anchor="middle" x="900.5" y="-48.8" font-family="Times,serif" font-size="14.00">jerryxiao&#45;hk01</text>
<text text-anchor="middle" x="900.5" y="-33.8" font-family="Times,serif" font-size="14.00">(10.127.8.194)</text>
</g>
<!-- JerryXiao&#45;&gt;JerryXiao_HK01 -->
<g id="edge24" class="edge">
<title>JerryXiao&#45;&gt;JerryXiao_HK01</title>
<path fill="none" stroke="black" d="M557.73,-36.6C580.52,-32.62 605.09,-29.01 628,-27 695.3,-21.1 712.63,-21.95 780,-27 796.03,-28.2 813.16,-30.29 829.31,-32.64"/>
<polygon fill="black" stroke="black" points="556.97,-33.18 547.74,-38.38 558.2,-40.07 556.97,-33.18"/>
<polygon fill="black" stroke="black" points="828.8,-36.1 839.21,-34.13 829.84,-29.18 828.8,-36.1"/>
</g>
<!-- JerryXiao&#45;&gt;septs -->
<g id="edge28" class="edge">
<title>JerryXiao&#45;&gt;septs</title>
<path fill="none" stroke="black" d="M557.75,-71.35C643.13,-87.78 762.18,-112.53 780,-126 796.89,-138.76 858.05,-259.95 885.73,-315.92"/>
<polygon fill="black" stroke="black" points="558.26,-67.88 547.78,-69.44 556.94,-74.76 558.26,-67.88"/>
<polygon fill="black" stroke="black" points="882.62,-317.52 890.18,-324.94 888.9,-314.43 882.62,-317.52"/>
</g>
<!-- JerryXiao_SH01&#45;&gt;JerryXiao_HK01 -->
<g id="edge25" class="edge">
<title>JerryXiao_SH01&#45;&gt;JerryXiao_HK01</title>
<path fill="none" stroke="black" d="M775.32,-51.38C792.83,-50.48 811.59,-49.52 829.1,-48.62"/>
<polygon fill="black" stroke="black" points="775.02,-47.9 765.21,-51.9 775.38,-54.89 775.02,-47.9"/>
<polygon fill="black" stroke="black" points="829.43,-52.11 839.24,-48.1 829.07,-45.12 829.43,-52.11"/>
</g>
<!-- dfceaef -->
<g id="node25" class="node">
<title>dfceaef</title>
<polygon fill="none" stroke="black" points="972.5,-166.5 828.5,-166.5 828.5,-113.5 972.5,-113.5 972.5,-166.5"/>
<text text-anchor="middle" x="900.5" y="-151.3" font-family="Times,serif" font-size="14.00">dfceaef</text>
<text text-anchor="middle" x="900.5" y="-136.3" font-family="Times,serif" font-size="14.00">(10.127.9.192/26)</text>
<text text-anchor="middle" x="900.5" y="-121.3" font-family="Times,serif" font-size="14.00">(AS4242420140)</text>
</g>
<!-- JerryXiao_SH01&#45;&gt;dfceaef -->
<g id="edge29" class="edge">
<title>JerryXiao_SH01&#45;&gt;dfceaef</title>
<path fill="none" stroke="black" d="M759.87,-78.28C766.7,-81.43 773.55,-84.71 780,-88 796.5,-96.41 799.26,-101.08 816,-109 816.86,-109.4 817.72,-109.81 818.59,-110.21"/>
<polygon fill="black" stroke="black" points="761.15,-75.02 750.6,-74.07 758.26,-81.39 761.15,-75.02"/>
<polygon fill="black" stroke="black" points="817.53,-113.57 828.09,-114.44 820.38,-107.17 817.53,-113.57"/>
</g>
<!-- JerryXiao_HK02 -->
<g id="node22" class="node">
<title>JerryXiao_HK02</title>
<polygon fill="none" stroke="black" points="1150.5,-64 1028.5,-64 1028.5,-26 1150.5,-26 1150.5,-64"/>
<text text-anchor="middle" x="1089.5" y="-48.8" font-family="Times,serif" font-size="14.00">jerryxiao&#45;hk02</text>
<text text-anchor="middle" x="1089.5" y="-33.8" font-family="Times,serif" font-size="14.00">(10.127.8.196)</text>
</g>
<!-- JerryXiao_HK01&#45;&gt;JerryXiao_HK02 -->
<g id="edge26" class="edge">
<title>JerryXiao_HK01&#45;&gt;JerryXiao_HK02</title>
<path fill="none" stroke="black" d="M971.88,-45C987,-45 1002.98,-45 1018.11,-45"/>
<polygon fill="black" stroke="black" points="971.7,-41.5 961.7,-45 971.7,-48.5 971.7,-41.5"/>
<polygon fill="black" stroke="black" points="1018.42,-48.5 1028.42,-45 1018.42,-41.5 1018.42,-48.5"/>
</g>
<!-- septs&#45;&gt;frank_hsinchu -->
<g id="edge44" class="edge">
<title>septs&#45;&gt;frank_hsinchu</title>
<path fill="none" stroke="black" d="M958.51,-321.14C975.64,-314.27 994.7,-306.62 1012.84,-299.35"/>
<polygon fill="black" stroke="black" points="957.15,-317.91 949.17,-324.88 959.76,-324.41 957.15,-317.91"/>
<polygon fill="black" stroke="black" points="1014.24,-302.55 1022.22,-295.58 1011.64,-296.06 1014.24,-302.55"/>
</g>
<!-- lantian -->
<g id="node24" class="node">
<title>lantian</title>
<polygon fill="none" stroke="black" points="312.5,-159 175.5,-159 175.5,-121 312.5,-121 312.5,-159"/>
<text text-anchor="middle" x="244" y="-143.8" font-family="Times,serif" font-size="14.00">lantian</text>
<text text-anchor="middle" x="244" y="-128.8" font-family="Times,serif" font-size="14.00">(AS4200002547)</text>
</g>
<!-- lantian&#45;&gt;JerryXiao -->
<g id="edge32" class="edge">
<title>lantian&#45;&gt;JerryXiao</title>
<path fill="none" stroke="black" d="M304.65,-117.21C336.68,-104.97 376.05,-89.94 408.05,-77.71"/>
<polygon fill="black" stroke="black" points="303.03,-114.09 294.93,-120.92 305.52,-120.63 303.03,-114.09"/>
<polygon fill="black" stroke="black" points="409.64,-80.85 417.73,-74.01 407.14,-74.31 409.64,-80.85"/>
</g>
<!-- lantian&#45;&gt;septs -->
<g id="edge31" class="edge">
<title>lantian&#45;&gt;septs</title>
<path fill="none" stroke="black" d="M322.8,-143.35C430.95,-150.79 630.29,-174.76 780,-252 814.34,-269.72 848.81,-297.59 871.84,-318.01"/>
<polygon fill="black" stroke="black" points="322.83,-139.84 312.62,-142.68 322.37,-146.83 322.83,-139.84"/>
<polygon fill="black" stroke="black" points="869.71,-320.81 879.49,-324.9 874.4,-315.61 869.71,-320.81"/>
</g>
<!-- NNPCC -->
<g id="node29" class="node">
<title>NNPCC</title>
<polygon fill="none" stroke="black" points="105.5,-979 31.5,-979 31.5,-943 105.5,-943 105.5,-979"/>
<text text-anchor="middle" x="68.5" y="-957.3" font-family="Times,serif" font-size="14.00">NNPCC</text>
</g>
<!-- NNPCC&#45;&gt;np11 -->
<g id="edge1" class="edge">
<title>NNPCC&#45;&gt;np11</title>
<path fill="none" stroke="black" d="M115.09,-947.94C122.99,-944.3 130.67,-939.72 137,-934 161.92,-911.47 148.1,-890.61 172,-867 173.08,-865.94 174.19,-864.9 175.33,-863.89"/>
<polygon fill="black" stroke="black" points="113.7,-944.73 105.81,-951.81 116.38,-951.2 113.7,-944.73"/>
<polygon fill="black" stroke="black" points="177.65,-866.52 183.31,-857.56 173.3,-861.03 177.65,-866.52"/>
</g>
<!-- NeoBOX -->
<g id="node30" class="node">
<title>NeoBOX</title>
<polygon fill="none" stroke="black" points="108,-925 29,-925 29,-889 108,-889 108,-925"/>
<text text-anchor="middle" x="68.5" y="-903.3" font-family="Times,serif" font-size="14.00">NeoBOX</text>
</g>
<!-- NeoBOX&#45;&gt;np11 -->
<g id="edge2" class="edge">
<title>NeoBOX&#45;&gt;np11</title>
<path fill="none" stroke="black" d="M117.66,-888.1C124.18,-885.43 130.77,-882.68 137,-880 150.24,-874.3 164.3,-867.98 177.7,-861.84"/>
<polygon fill="black" stroke="black" points="116.15,-884.93 108.2,-891.93 118.78,-891.42 116.15,-884.93"/>
<polygon fill="black" stroke="black" points="179.24,-864.98 186.86,-857.62 176.31,-858.62 179.24,-864.98"/>
</g>
<!-- cklvax -->
<g id="node31" class="node">
<title>cklvax</title>
<polygon fill="none" stroke="black" points="100,-871 37,-871 37,-835 100,-835 100,-871"/>
<text text-anchor="middle" x="68.5" y="-849.3" font-family="Times,serif" font-size="14.00">cklvax</text>
</g>
<!-- cklvax&#45;&gt;np11 -->
<g id="edge3" class="edge">
<title>cklvax&#45;&gt;np11</title>
<path fill="none" stroke="black" d="M110.31,-847.82C129.07,-845.45 151.85,-842.56 173.2,-839.85"/>
<polygon fill="black" stroke="black" points="109.6,-844.39 100.12,-849.12 110.48,-851.33 109.6,-844.39"/>
<polygon fill="black" stroke="black" points="173.74,-843.31 183.22,-838.58 172.86,-836.37 173.74,-843.31"/>
</g>
<!-- NeoStorage -->
<g id="node32" class="node">
<title>NeoStorage</title>
<polygon fill="none" stroke="black" points="119.5,-817 17.5,-817 17.5,-781 119.5,-781 119.5,-817"/>
<text text-anchor="middle" x="68.5" y="-795.3" font-family="Times,serif" font-size="14.00">NeoStorage</text>
</g>
<!-- NeoStorage&#45;&gt;np11 -->
<g id="edge4" class="edge">
<title>NeoStorage&#45;&gt;np11</title>
<path fill="none" stroke="black" d="M129.72,-810.11C143.84,-812.71 159.01,-815.51 173.51,-818.18"/>
<polygon fill="black" stroke="black" points="130.15,-806.63 119.68,-808.26 128.88,-813.51 130.15,-806.63"/>
<polygon fill="black" stroke="black" points="172.95,-821.64 183.42,-820.01 174.22,-814.76 172.95,-821.64"/>
</g>
<!-- icecat_Noteboot -->
<g id="node33" class="node">
<title>icecat_Noteboot</title>
<polygon fill="none" stroke="black" points="135.5,-309 1.5,-309 1.5,-273 135.5,-273 135.5,-309"/>
<text text-anchor="middle" x="68.5" y="-287.3" font-family="Times,serif" font-size="14.00">icecat_Noteboot</text>
</g>
<!-- icecat_Noteboot&#45;&gt;magicneko_JP02 -->
<g id="edge49" class="edge">
<title>icecat_Noteboot&#45;&gt;magicneko_JP02</title>
<path fill="none" stroke="black" d="M74.96,-309.08C86.8,-345.44 118.21,-427.91 172,-475 174.01,-476.76 176.14,-478.41 178.36,-479.97"/>
<polygon fill="black" stroke="black" points="176.96,-483.22 187.31,-485.49 180.64,-477.26 176.96,-483.22"/>
</g>
<!-- magicneko_CN01 -->
<g id="node34" class="node">
<title>magicneko_CN01</title>
<polygon fill="none" stroke="black" points="316,-103 172,-103 172,-67 316,-67 316,-103"/>
<text text-anchor="middle" x="244" y="-81.3" font-family="Times,serif" font-size="14.00">magicneko_CN01</text>
</g>
<!-- icecat_Noteboot&#45;&gt;magicneko_CN01 -->
<g id="edge48" class="edge">
<title>icecat_Noteboot&#45;&gt;magicneko_CN01</title>
<path fill="none" stroke="black" d="M75.24,-272.81C87.39,-237.07 119.05,-157.25 172,-112 173.34,-110.85 174.74,-109.75 176.18,-108.69"/>
<polygon fill="black" stroke="black" points="178.35,-111.46 184.87,-103.11 174.57,-105.57 178.35,-111.46"/>
</g>
</g>
</svg>
