<?xml version="1.0" encoding="UTF-8" standalone="no"?>
<!DOCTYPE svg PUBLIC "-//W3C//DTD SVG 1.1//EN"
 "http://www.w3.org/Graphics/SVG/1.1/DTD/svg11.dtd">
<!-- Generated by graphviz version 2.40.1 (20161225.0304)
 -->
<!-- Title: NeoNetwork Nodes Pages: 1 -->
<svg width="1385pt" height="1371pt"
 viewBox="0.00 0.00 1385.00 1371.00" xmlns="http://www.w3.org/2000/svg" xmlns:xlink="http://www.w3.org/1999/xlink">
<g id="graph0" class="graph" transform="scale(1 1) rotate(0) translate(4 1367)">
<title>NeoNetwork Nodes</title>
<polygon fill="#ffffff" stroke="transparent" points="-4,4 -4,-1367 1381,-1367 1381,4 -4,4"/>
<text text-anchor="middle" x="688.5" y="-1347.8" font-family="Times,serif" font-size="14.00" fill="#000000">NeoNetwork Nodes</text>
<g id="clust1" class="cluster">
<title>cluster_AS4201270000</title>
<polygon fill="none" stroke="#000000" points="8,-1095 8,-1332 1071,-1332 1071,-1095 8,-1095"/>
<text text-anchor="middle" x="539.5" y="-1316.8" font-family="Times,serif" font-size="14.00" fill="#000000">NeoNetwork (AS4201270000)</text>
</g>
<g id="clust2" class="cluster">
<title>cluster_4201270008</title>
<polygon fill="none" stroke="#000000" points="360,-383 360,-973 896,-973 896,-383 360,-383"/>
<text text-anchor="middle" x="628" y="-957.8" font-family="Times,serif" font-size="14.00" fill="#000000">MagicNeko Network Internet exchange (AS4201270008)</text>
</g>
<g id="clust3" class="cluster">
<title>cluster_4201270006</title>
<polygon fill="none" stroke="#000000" points="696.5,-8 696.5,-105 1369,-105 1369,-8 696.5,-8"/>
<text text-anchor="middle" x="1032.75" y="-89.8" font-family="Times,serif" font-size="14.00" fill="#000000">Jerry Network (4201270006)</text>
</g>
<!-- c -->
<g id="node1" class="node">
<title>c</title>
<polygon fill="none" stroke="#000000" points="1063,-1143 942,-1143 942,-1105 1063,-1105 1063,-1143"/>
<text text-anchor="middle" x="1002.5" y="-1127.8" font-family="Times,serif" font-size="14.00" fill="#000000">caasih.neocloud.tw</text>
<text text-anchor="middle" x="1002.5" y="-1112.8" font-family="Times,serif" font-size="14.00" fill="#000000">(10.127.0.1)</text>
</g>
<!-- staph -->
<g id="node17" class="node">
<title>staph</title>
<polygon fill="none" stroke="#000000" points="822,-1049 712,-1049 712,-981 822,-981 822,-1049"/>
<text text-anchor="middle" x="767" y="-1033.8" font-family="Times,serif" font-size="14.00" fill="#000000">s.aureus.ga</text>
<text text-anchor="middle" x="767" y="-1018.8" font-family="Times,serif" font-size="14.00" fill="#000000">(10.127.8.185</text>
<text text-anchor="middle" x="767" y="-1003.8" font-family="Times,serif" font-size="14.00" fill="#000000">fd10:127:7::1)</text>
<text text-anchor="middle" x="767" y="-988.8" font-family="Times,serif" font-size="14.00" fill="#000000">(AS4201270007)</text>
</g>
<!-- c&#45;&gt;staph -->
<g id="edge14" class="edge">
<title>c&#45;&gt;staph</title>
<path fill="none" stroke="#000000" d="M936.5597,-1101.2108C932.2851,-1099.5087 928.067,-1097.7651 924,-1096 892.7731,-1082.4477 859.1126,-1065.4215 830.9981,-1050.4809"/>
<polygon fill="#000000" stroke="#000000" points="935.3825,-1104.5082 945.9714,-1104.8628 937.9148,-1097.9823 935.3825,-1104.5082"/>
<polygon fill="#000000" stroke="#000000" points="832.5441,-1047.3387 822.0751,-1045.7104 829.2437,-1053.5118 832.5441,-1047.3387"/>
</g>
<!-- ucbvax -->
<g id="node2" class="node">
<title>ucbvax</title>
<polygon fill="none" stroke="#000000" points="826.5,-1143 707.5,-1143 707.5,-1105 826.5,-1105 826.5,-1143"/>
<text text-anchor="middle" x="767" y="-1127.8" font-family="Times,serif" font-size="14.00" fill="#000000">router.neocloud.tw</text>
<text text-anchor="middle" x="767" y="-1112.8" font-family="Times,serif" font-size="14.00" fill="#000000">(10.127.255.2)</text>
</g>
<!-- ucbvax&#45;&gt;c -->
<g id="edge8" class="edge">
<title>ucbvax&#45;&gt;c</title>
<path fill="none" stroke="#000000" d="M836.8466,-1124C866.6161,-1124 901.3103,-1124 931.2335,-1124"/>
<polygon fill="#000000" stroke="#000000" points="836.7311,-1120.5001 826.731,-1124 836.731,-1127.5001 836.7311,-1120.5001"/>
<polygon fill="#000000" stroke="#000000" points="931.6029,-1127.5001 941.6029,-1124 931.6029,-1120.5001 931.6029,-1127.5001"/>
</g>
<!-- chenx97 -->
<g id="node19" class="node">
<title>chenx97</title>
<polygon fill="none" stroke="#000000" points="1081,-1087 924,-1087 924,-1019 1081,-1019 1081,-1087"/>
<text text-anchor="middle" x="1002.5" y="-1071.8" font-family="Times,serif" font-size="14.00" fill="#000000">chenx97.neocloud.tw</text>
<text text-anchor="middle" x="1002.5" y="-1056.8" font-family="Times,serif" font-size="14.00" fill="#000000">(10.127.89.3)</text>
<text text-anchor="middle" x="1002.5" y="-1041.8" font-family="Times,serif" font-size="14.00" fill="#000000">(fd10:127:1919:810::893)</text>
<text text-anchor="middle" x="1002.5" y="-1026.8" font-family="Times,serif" font-size="14.00" fill="#000000">(AS4201270003)</text>
</g>
<!-- ucbvax&#45;&gt;chenx97 -->
<g id="edge16" class="edge">
<title>ucbvax&#45;&gt;chenx97</title>
<path fill="none" stroke="#000000" d="M836.6634,-1107.4312C855.9809,-1102.4977 876.8915,-1096.8395 896,-1091 901.9755,-1089.1739 908.1113,-1087.2145 914.2754,-1085.1831"/>
<polygon fill="#000000" stroke="#000000" points="835.5627,-1104.0993 826.7248,-1109.9422 837.2775,-1110.886 835.5627,-1104.0993"/>
<polygon fill="#000000" stroke="#000000" points="915.5932,-1088.433 923.9658,-1081.9406 913.372,-1081.7947 915.5932,-1088.433"/>
</g>
<!-- septs -->
<g id="node24" class="node">
<title>septs</title>
<polygon fill="none" stroke="#000000" points="1057.5,-256 947.5,-256 947.5,-218 1057.5,-218 1057.5,-256"/>
<text text-anchor="middle" x="1002.5" y="-240.8" font-family="Times,serif" font-size="14.00" fill="#000000">bgp.septs.me</text>
<text text-anchor="middle" x="1002.5" y="-225.8" font-family="Times,serif" font-size="14.00" fill="#000000">(AS4201270001)</text>
</g>
<!-- ucbvax&#45;&gt;septs -->
<g id="edge37" class="edge">
<title>ucbvax&#45;&gt;septs</title>
<path fill="none" stroke="#000000" d="M835.8667,-1103.5234C858.4871,-1093.4036 881.5178,-1078.7651 896,-1058 925.7062,-1015.4062 917.4586,-877.516 924,-826 951.3227,-610.8239 986.7173,-351.7862 998.4938,-266.0853"/>
<polygon fill="#000000" stroke="#000000" points="834.4137,-1100.3376 826.5638,-1107.4531 837.1376,-1106.7859 834.4137,-1100.3376"/>
<polygon fill="#000000" stroke="#000000" points="1001.9777,-266.4409 999.8727,-256.0573 995.043,-265.4873 1001.9777,-266.4409"/>
</g>
<!-- np11 -->
<g id="node3" class="node">
<title>np11</title>
<polygon fill="none" stroke="#000000" points="280.5,-1212.5 183.5,-1212.5 183.5,-1159.5 280.5,-1159.5 280.5,-1212.5"/>
<text text-anchor="middle" x="232" y="-1197.3" font-family="Times,serif" font-size="14.00" fill="#000000">NeoPDP&#45;11</text>
<text text-anchor="middle" x="232" y="-1182.3" font-family="Times,serif" font-size="14.00" fill="#000000">(10.127.255.1,</text>
<text text-anchor="middle" x="232" y="-1167.3" font-family="Times,serif" font-size="14.00" fill="#000000">10.127.1.1)</text>
</g>
<!-- np11&#45;&gt;c -->
<g id="edge7" class="edge">
<title>np11&#45;&gt;c</title>
<path fill="none" stroke="#000000" d="M280.8397,-1187.9029C391.4361,-1191.257 669.0503,-1194.2972 896,-1152 907.673,-1149.8245 919.9507,-1147.0564 931.8527,-1144.1115"/>
<polygon fill="#000000" stroke="#000000" points="932.9069,-1147.455 941.7403,-1141.6052 931.1869,-1140.6696 932.9069,-1147.455"/>
</g>
<!-- np11&#45;&gt;ucbvax -->
<g id="edge5" class="edge">
<title>np11&#45;&gt;ucbvax</title>
<path fill="none" stroke="#000000" d="M280.7181,-1187.6864C353.086,-1189.3481 493.025,-1189.3169 610,-1170 641.5853,-1164.7841 675.7915,-1155.2443 704.1882,-1146.199"/>
<polygon fill="#000000" stroke="#000000" points="705.5417,-1149.4397 713.9763,-1143.0281 703.3844,-1142.7804 705.5417,-1149.4397"/>
</g>
<!-- pan -->
<g id="node6" class="node">
<title>pan</title>
<polygon fill="none" stroke="#000000" points="538,-1161 440,-1161 440,-1123 538,-1123 538,-1161"/>
<text text-anchor="middle" x="489" y="-1145.8" font-family="Times,serif" font-size="14.00" fill="#000000">r2.neocloud.tw</text>
<text text-anchor="middle" x="489" y="-1130.8" font-family="Times,serif" font-size="14.00" fill="#000000">(10.127.3.1)</text>
</g>
<!-- np11&#45;&gt;pan -->
<g id="edge6" class="edge">
<title>np11&#45;&gt;pan</title>
<path fill="none" stroke="#000000" d="M280.6419,-1177.6722C322.9875,-1170.4224 384.5021,-1159.8907 429.7183,-1152.1494"/>
<polygon fill="#000000" stroke="#000000" points="430.4165,-1155.5809 439.6825,-1150.4435 429.2352,-1148.6813 430.4165,-1155.5809"/>
</g>
<!-- ns -->
<g id="node4" class="node">
<title>ns</title>
<polygon fill="none" stroke="#000000" points="284,-1141 180,-1141 180,-1103 284,-1103 284,-1141"/>
<text text-anchor="middle" x="232" y="-1125.8" font-family="Times,serif" font-size="14.00" fill="#000000">NeoSystem</text>
<text text-anchor="middle" x="232" y="-1110.8" font-family="Times,serif" font-size="14.00" fill="#000000">(10.127.255.80)</text>
</g>
<!-- ns&#45;&gt;ucbvax -->
<g id="edge9" class="edge">
<title>ns&#45;&gt;ucbvax</title>
<path fill="none" stroke="#000000" d="M284.2779,-1117.9925C307.459,-1116.4067 335.0747,-1114.7782 360,-1114 471.057,-1110.5329 498.9451,-1110.4668 610,-1114 638.563,-1114.9087 670.0048,-1116.7452 697.2006,-1118.5991"/>
<polygon fill="#000000" stroke="#000000" points="697.1821,-1122.1062 707.4009,-1119.3087 697.6679,-1115.1231 697.1821,-1122.1062"/>
</g>
<!-- ns&#45;&gt;pan -->
<g id="edge10" class="edge">
<title>ns&#45;&gt;pan</title>
<path fill="none" stroke="#000000" d="M284.0078,-1126.0473C326.1904,-1129.33 385.6636,-1133.9583 429.693,-1137.3847"/>
<polygon fill="#000000" stroke="#000000" points="429.444,-1140.8758 439.6854,-1138.1623 429.9872,-1133.8969 429.444,-1140.8758"/>
</g>
<!-- megumiLHS -->
<g id="node5" class="node">
<title>megumiLHS</title>
<polygon fill="none" stroke="#000000" points="834,-265 700,-265 700,-227 834,-227 834,-265"/>
<text text-anchor="middle" x="767" y="-249.8" font-family="Times,serif" font-size="14.00" fill="#000000">megumi.yukipedia.cf</text>
<text text-anchor="middle" x="767" y="-234.8" font-family="Times,serif" font-size="14.00" fill="#000000">(AS4242421037)</text>
</g>
<!-- megumiLHS&#45;&gt;ucbvax -->
<g id="edge12" class="edge">
<title>megumiLHS&#45;&gt;ucbvax</title>
<path fill="none" stroke="#000000" d="M691.1818,-269.1559C666.6467,-280.6449 642.1411,-297.3016 628,-321 606.3361,-357.3054 605.7733,-1046.0364 628,-1082 642.5726,-1105.5789 670.269,-1116.6512 697.1276,-1121.6105"/>
<polygon fill="#000000" stroke="#000000" points="692.838,-272.2504 700.5651,-265.0018 690.0042,-265.8497 692.838,-272.2504"/>
<polygon fill="#000000" stroke="#000000" points="696.9277,-1125.1223 707.3513,-1123.2253 698.0198,-1118.208 696.9277,-1125.1223"/>
</g>
<!-- megumiLHS&#45;&gt;septs -->
<g id="edge40" class="edge">
<title>megumiLHS&#45;&gt;septs</title>
<path fill="none" stroke="#000000" d="M844.4142,-243.0415C874.3131,-241.8989 908.1585,-240.6054 936.8398,-239.5093"/>
<polygon fill="#000000" stroke="#000000" points="844.0287,-239.5536 834.1697,-243.433 844.2961,-246.5485 844.0287,-239.5536"/>
<polygon fill="#000000" stroke="#000000" points="937.2971,-242.9945 947.1561,-239.1151 937.0297,-235.9996 937.2971,-242.9945"/>
</g>
<!-- pan&#45;&gt;ucbvax -->
<g id="edge11" class="edge">
<title>pan&#45;&gt;ucbvax</title>
<path fill="none" stroke="#000000" d="M548.0727,-1138.1751C591.6722,-1135.3522 651.1632,-1131.5002 697.1263,-1128.5242"/>
<polygon fill="#000000" stroke="#000000" points="547.8138,-1134.6845 538.0609,-1138.8234 548.2662,-1141.6699 547.8138,-1134.6845"/>
<polygon fill="#000000" stroke="#000000" points="697.5571,-1132.0037 707.31,-1127.8648 697.1047,-1125.0184 697.5571,-1132.0037"/>
</g>
<!-- magicneko_JP03 -->
<g id="node15" class="node">
<title>magicneko_JP03</title>
<polygon fill="none" stroke="#000000" points="606.5,-444.5 371.5,-444.5 371.5,-391.5 606.5,-391.5 606.5,-444.5"/>
<text text-anchor="middle" x="489" y="-429.3" font-family="Times,serif" font-size="14.00" fill="#000000">M&#45;JP3</text>
<text text-anchor="middle" x="489" y="-414.3" font-family="Times,serif" font-size="14.00" fill="#000000">(10.127.4.15,</text>
<text text-anchor="middle" x="489" y="-399.3" font-family="Times,serif" font-size="14.00" fill="#000000">fd10:127:0233:7170:2021::10.127.4.15)</text>
</g>
<!-- pan&#45;&gt;magicneko_JP03 -->
<g id="edge53" class="edge">
<title>pan&#45;&gt;magicneko_JP03</title>
<path fill="none" stroke="#000000" d="M457.6576,-1116.2705C422.6897,-1085.3253 368.1264,-1029.7717 346,-968 336.5392,-941.5877 332.5561,-487.6247 346,-463 350.3475,-455.0368 356.1626,-448.4078 362.9649,-442.8975"/>
<polygon fill="#000000" stroke="#000000" points="455.3912,-1118.9379 465.2328,-1122.8614 459.986,-1113.657 455.3912,-1118.9379"/>
<polygon fill="#000000" stroke="#000000" points="365.245,-445.5712 371.3749,-436.9297 361.1941,-439.8624 365.245,-445.5712"/>
</g>
<!-- icecat_Explosion -->
<g id="node7" class="node">
<title>icecat_Explosion</title>
<polygon fill="none" stroke="#000000" points="888,-675 646,-675 646,-639 888,-639 888,-675"/>
<text text-anchor="middle" x="767" y="-653.3" font-family="Times,serif" font-size="14.00" fill="#000000">MagicNeko P2P network interconnection</text>
</g>
<!-- icecat_Notebook -->
<g id="node8" class="node">
<title>icecat_Notebook</title>
<polygon fill="none" stroke="#000000" points="332,-736 132,-736 132,-668 332,-668 332,-736"/>
<text text-anchor="middle" x="232" y="-720.8" font-family="Times,serif" font-size="14.00" fill="#000000">NextMoe Group Access Network</text>
<text text-anchor="middle" x="232" y="-705.8" font-family="Times,serif" font-size="14.00" fill="#000000">(4201270005)</text>
<text text-anchor="middle" x="232" y="-690.8" font-family="Times,serif" font-size="14.00" fill="#000000">(10.127.233.1,</text>
<text text-anchor="middle" x="232" y="-675.8" font-family="Times,serif" font-size="14.00" fill="#000000">fd10:127:0233:1c3c::1)</text>
</g>
<!-- magicneko_HK01 -->
<g id="node9" class="node">
<title>magicneko_HK01</title>
<polygon fill="none" stroke="#000000" points="603,-728.5 375,-728.5 375,-675.5 603,-675.5 603,-728.5"/>
<text text-anchor="middle" x="489" y="-713.3" font-family="Times,serif" font-size="14.00" fill="#000000">M&#45;HK1</text>
<text text-anchor="middle" x="489" y="-698.3" font-family="Times,serif" font-size="14.00" fill="#000000">(10.127.4.1,</text>
<text text-anchor="middle" x="489" y="-683.3" font-family="Times,serif" font-size="14.00" fill="#000000">fd10:127:0233:7170:2021::10.127.4.1)</text>
</g>
<!-- icecat_Notebook&#45;&gt;magicneko_HK01 -->
<g id="edge47" class="edge">
<title>icecat_Notebook&#45;&gt;magicneko_HK01</title>
<path fill="none" stroke="#000000" d="M332.0988,-702C342.7816,-702 353.7401,-702 364.6585,-702"/>
<polygon fill="#000000" stroke="#000000" points="364.6654,-705.5001 374.6653,-702 364.6653,-698.5001 364.6654,-705.5001"/>
</g>
<!-- magicneko_JP02 -->
<g id="node13" class="node">
<title>magicneko_JP02</title>
<polygon fill="none" stroke="#000000" points="606.5,-941.5 371.5,-941.5 371.5,-888.5 606.5,-888.5 606.5,-941.5"/>
<text text-anchor="middle" x="489" y="-926.3" font-family="Times,serif" font-size="14.00" fill="#000000">M&#45;JP2</text>
<text text-anchor="middle" x="489" y="-911.3" font-family="Times,serif" font-size="14.00" fill="#000000">(10.127.4.13,</text>
<text text-anchor="middle" x="489" y="-896.3" font-family="Times,serif" font-size="14.00" fill="#000000">fd10:127:0233:7170:2021::10.127.4.13)</text>
</g>
<!-- icecat_Notebook&#45;&gt;magicneko_JP02 -->
<g id="edge51" class="edge">
<title>icecat_Notebook&#45;&gt;magicneko_JP02</title>
<path fill="none" stroke="#000000" d="M247.6259,-736.2865C267.8247,-776.7374 306.8204,-843.1355 360,-880 361.6449,-881.1403 363.3254,-882.2434 365.0372,-883.3107"/>
<polygon fill="#000000" stroke="#000000" points="363.421,-886.4184 373.8376,-888.3534 366.9012,-880.3448 363.421,-886.4184"/>
</g>
<!-- magicneko_RU01 -->
<g id="node14" class="node">
<title>magicneko_RU01</title>
<polygon fill="none" stroke="#000000" points="606.5,-586.5 371.5,-586.5 371.5,-533.5 606.5,-533.5 606.5,-586.5"/>
<text text-anchor="middle" x="489" y="-571.3" font-family="Times,serif" font-size="14.00" fill="#000000">M&#45;RU1</text>
<text text-anchor="middle" x="489" y="-556.3" font-family="Times,serif" font-size="14.00" fill="#000000">(10.127.4.14,</text>
<text text-anchor="middle" x="489" y="-541.3" font-family="Times,serif" font-size="14.00" fill="#000000">fd10:127:0233:7170:2021::10.127.4.14)</text>
</g>
<!-- icecat_Notebook&#45;&gt;magicneko_RU01 -->
<g id="edge49" class="edge">
<title>icecat_Notebook&#45;&gt;magicneko_RU01</title>
<path fill="none" stroke="#000000" d="M264.9786,-667.9629C289.2806,-644.6678 324.2062,-614.7212 360,-596 363.7086,-594.0603 367.5335,-592.2153 371.4399,-590.4615"/>
<polygon fill="#000000" stroke="#000000" points="372.8517,-593.6645 380.6866,-586.5326 370.1142,-587.222 372.8517,-593.6645"/>
</g>
<!-- icecat_Notebook&#45;&gt;magicneko_JP03 -->
<g id="edge48" class="edge">
<title>icecat_Notebook&#45;&gt;magicneko_JP03</title>
<path fill="none" stroke="#000000" d="M240.1529,-667.9763C254.7889,-614.3388 290.6719,-510.4352 360,-454 361.5891,-452.7064 363.2217,-451.4592 364.8928,-450.2568"/>
<polygon fill="#000000" stroke="#000000" points="367.0852,-453.0055 373.5475,-444.6097 363.26,-447.1431 367.0852,-453.0055"/>
</g>
<!-- magicneko_CN01 -->
<g id="node16" class="node">
<title>magicneko_CN01</title>
<polygon fill="none" stroke="#000000" points="610,-799.5 368,-799.5 368,-746.5 610,-746.5 610,-799.5"/>
<text text-anchor="middle" x="489" y="-784.3" font-family="Times,serif" font-size="14.00" fill="#000000">M&#45;CN1</text>
<text text-anchor="middle" x="489" y="-769.3" font-family="Times,serif" font-size="14.00" fill="#000000">(10.127.4.101,</text>
<text text-anchor="middle" x="489" y="-754.3" font-family="Times,serif" font-size="14.00" fill="#000000">fd10:127:0233:7170:2021::10.127.4.101)</text>
</g>
<!-- icecat_Notebook&#45;&gt;magicneko_CN01 -->
<g id="edge50" class="edge">
<title>icecat_Notebook&#45;&gt;magicneko_CN01</title>
<path fill="none" stroke="#000000" d="M332.2454,-730.2893C341.6245,-732.9073 350.9884,-735.5103 360,-738 366.8431,-739.8906 373.8929,-741.8292 381.0024,-743.7773"/>
<polygon fill="#000000" stroke="#000000" points="380.1511,-747.1729 390.7203,-746.436 381.9984,-740.4211 380.1511,-747.1729"/>
</g>
<!-- magicneko_HK01&#45;&gt;icecat_Explosion -->
<g id="edge17" class="edge">
<title>magicneko_HK01&#45;&gt;icecat_Explosion</title>
<path fill="none" stroke="#000000" d="M603.2767,-683.502C617.1352,-681.2587 631.3325,-678.9606 645.2934,-676.7007"/>
<polygon fill="#000000" stroke="#000000" points="646.0968,-680.1163 655.409,-675.0633 644.9782,-673.2062 646.0968,-680.1163"/>
</g>
<!-- magicneko_HK02 -->
<g id="node10" class="node">
<title>magicneko_HK02</title>
<polygon fill="none" stroke="#000000" points="606.5,-657.5 371.5,-657.5 371.5,-604.5 606.5,-604.5 606.5,-657.5"/>
<text text-anchor="middle" x="489" y="-642.3" font-family="Times,serif" font-size="14.00" fill="#000000">M&#45;HK2</text>
<text text-anchor="middle" x="489" y="-627.3" font-family="Times,serif" font-size="14.00" fill="#000000">(10.127.4.10,</text>
<text text-anchor="middle" x="489" y="-612.3" font-family="Times,serif" font-size="14.00" fill="#000000">fd10:127:0233:7170:2021::10.127.4.10)</text>
</g>
<!-- magicneko_HK02&#45;&gt;ucbvax -->
<g id="edge13" class="edge">
<title>magicneko_HK02&#45;&gt;ucbvax</title>
<path fill="none" stroke="#000000" d="M608.1409,-664.8134C608.7748,-665.5275 609.3947,-666.2563 610,-667 669.6914,-740.34 585.4717,-1018.3491 646,-1091 658.8174,-1106.3845 678.0406,-1114.9743 697.4132,-1119.6659"/>
<polygon fill="#000000" stroke="#000000" points="610.4509,-662.1775 600.8452,-657.7074 605.5668,-667.192 610.4509,-662.1775"/>
<polygon fill="#000000" stroke="#000000" points="696.7091,-1123.0943 707.2149,-1121.724 698.1476,-1116.2437 696.7091,-1123.0943"/>
</g>
<!-- magicneko_HK02&#45;&gt;icecat_Explosion -->
<g id="edge18" class="edge">
<title>magicneko_HK02&#45;&gt;icecat_Explosion</title>
<path fill="none" stroke="#000000" d="M606.897,-642.0263C616.4525,-642.92 626.1443,-643.8264 635.7859,-644.7282"/>
<polygon fill="#000000" stroke="#000000" points="635.525,-648.219 645.8075,-645.6655 636.1769,-641.2494 635.525,-648.219"/>
</g>
<!-- SUNNET -->
<g id="node27" class="node">
<title>SUNNET</title>
<polygon fill="none" stroke="#000000" points="822,-374.5 712,-374.5 712,-321.5 822,-321.5 822,-374.5"/>
<text text-anchor="middle" x="767" y="-359.3" font-family="Times,serif" font-size="14.00" fill="#000000">SUNNET</text>
<text text-anchor="middle" x="767" y="-344.3" font-family="Times,serif" font-size="14.00" fill="#000000">(10.127.11.0/24)</text>
<text text-anchor="middle" x="767" y="-329.3" font-family="Times,serif" font-size="14.00" fill="#000000">(AS4242423088)</text>
</g>
<!-- magicneko_HK02&#45;&gt;SUNNET -->
<g id="edge41" class="edge">
<title>magicneko_HK02&#45;&gt;SUNNET</title>
<path fill="none" stroke="#000000" d="M608.7222,-597.3986C609.154,-596.9386 609.58,-596.4724 610,-596 674.9624,-522.9424 579.9214,-451.0496 646,-379 660.2966,-363.4115 681.2645,-355.2015 701.7445,-351.0104"/>
<polygon fill="#000000" stroke="#000000" points="606.204,-594.9606 601.2543,-604.3282 610.9654,-600.0919 606.204,-594.9606"/>
<polygon fill="#000000" stroke="#000000" points="702.4819,-354.4346 711.7277,-349.2611 701.2737,-347.5397 702.4819,-354.4346"/>
</g>
<!-- magicneko_JP01 -->
<g id="node11" class="node">
<title>magicneko_JP01</title>
<polygon fill="none" stroke="#000000" points="606.5,-515.5 371.5,-515.5 371.5,-462.5 606.5,-462.5 606.5,-515.5"/>
<text text-anchor="middle" x="489" y="-500.3" font-family="Times,serif" font-size="14.00" fill="#000000">M&#45;JP1</text>
<text text-anchor="middle" x="489" y="-485.3" font-family="Times,serif" font-size="14.00" fill="#000000">(10.127.4.11,</text>
<text text-anchor="middle" x="489" y="-470.3" font-family="Times,serif" font-size="14.00" fill="#000000">fd10:127:0233:7170:2021::10.127.4.11)</text>
</g>
<!-- magicneko_JP01&#45;&gt;icecat_Explosion -->
<g id="edge19" class="edge">
<title>magicneko_JP01&#45;&gt;icecat_Explosion</title>
<path fill="none" stroke="#000000" d="M589.9916,-515.5509C596.8962,-518.4256 603.6326,-521.5697 610,-525 662.9533,-553.5271 714.3761,-601.8731 743.2363,-631.4668"/>
<polygon fill="#000000" stroke="#000000" points="740.96,-634.1487 750.4178,-638.9236 746.002,-629.2929 740.96,-634.1487"/>
</g>
<!-- magicneko_HK03 -->
<g id="node12" class="node">
<title>magicneko_HK03</title>
<polygon fill="none" stroke="#000000" points="606.5,-870.5 371.5,-870.5 371.5,-817.5 606.5,-817.5 606.5,-870.5"/>
<text text-anchor="middle" x="489" y="-855.3" font-family="Times,serif" font-size="14.00" fill="#000000">M&#45;HK3</text>
<text text-anchor="middle" x="489" y="-840.3" font-family="Times,serif" font-size="14.00" fill="#000000">(10.127.4.12,</text>
<text text-anchor="middle" x="489" y="-825.3" font-family="Times,serif" font-size="14.00" fill="#000000">fd10:127:0233:7170:2021::10.127.4.12)</text>
</g>
<!-- magicneko_HK03&#45;&gt;icecat_Explosion -->
<g id="edge20" class="edge">
<title>magicneko_HK03&#45;&gt;icecat_Explosion</title>
<path fill="none" stroke="#000000" d="M593.3686,-817.4725C599.1168,-814.889 604.7028,-812.0711 610,-809 667.3375,-775.7588 719.5313,-717.1029 746.9009,-683.198"/>
<polygon fill="#000000" stroke="#000000" points="749.8238,-685.1459 753.3125,-675.1419 744.3467,-680.7869 749.8238,-685.1459"/>
</g>
<!-- magicneko_JP02&#45;&gt;icecat_Explosion -->
<g id="edge21" class="edge">
<title>magicneko_JP02&#45;&gt;icecat_Explosion</title>
<path fill="none" stroke="#000000" d="M596.4805,-888.3731C601.1915,-885.8307 605.7269,-883.0472 610,-880 682.6998,-828.1572 733.4887,-731.6796 755.1964,-684.4626"/>
<polygon fill="#000000" stroke="#000000" points="758.4671,-685.7236 759.3846,-675.1685 752.0852,-682.8476 758.4671,-685.7236"/>
</g>
<!-- magicneko_RU01&#45;&gt;icecat_Explosion -->
<g id="edge22" class="edge">
<title>magicneko_RU01&#45;&gt;icecat_Explosion</title>
<path fill="none" stroke="#000000" d="M581.0817,-586.5429C590.8799,-589.6212 600.6691,-592.8052 610,-596 644.949,-607.9663 683.6369,-622.9768 713.8631,-635.1132"/>
<polygon fill="#000000" stroke="#000000" points="712.7807,-638.4505 723.364,-638.9451 715.399,-631.9586 712.7807,-638.4505"/>
</g>
<!-- magicneko_RU01&#45;&gt;staph -->
<g id="edge39" class="edge">
<title>magicneko_RU01&#45;&gt;staph</title>
<path fill="none" stroke="#000000" d="M607.8017,-593.4571C608.5537,-594.2847 609.2868,-595.1322 610,-596 663.9965,-661.7026 592.5016,-910.8912 646,-977 659.7511,-993.9924 681.034,-1003.5203 701.939,-1008.8176"/>
<polygon fill="#000000" stroke="#000000" points="610.2022,-590.9099 600.5542,-586.532 605.3663,-595.9709 610.2022,-590.9099"/>
<polygon fill="#000000" stroke="#000000" points="701.2882,-1012.2585 711.8114,-1011.029 702.8183,-1005.4277 701.2882,-1012.2585"/>
</g>
<!-- magicneko_RU01&#45;&gt;septs -->
<g id="edge43" class="edge">
<title>magicneko_RU01&#45;&gt;septs</title>
<path fill="none" stroke="#000000" d="M608.7201,-526.3967C609.1526,-525.9373 609.5792,-525.4717 610,-525 673.906,-453.3494 577.5505,-379.3235 646,-312 686.0631,-272.596 841.452,-287.4997 896,-274 911.8921,-270.067 928.7681,-264.7543 944.2887,-259.3834"/>
<polygon fill="#000000" stroke="#000000" points="606.2041,-523.9564 601.2425,-533.3177 610.9589,-529.0937 606.2041,-523.9564"/>
<polygon fill="#000000" stroke="#000000" points="945.4904,-262.671 953.7564,-256.0435 943.1616,-256.0697 945.4904,-262.671"/>
</g>
<!-- magicneko_JP03&#45;&gt;megumiLHS -->
<g id="edge44" class="edge">
<title>magicneko_JP03&#45;&gt;megumiLHS</title>
<path fill="none" stroke="#000000" d="M518.8772,-383.7365C548.2306,-352.1316 595.8077,-306.1248 646,-279 659.5924,-271.6544 674.9459,-265.8456 690.0399,-261.2859"/>
<polygon fill="#000000" stroke="#000000" points="515.9925,-381.7039 511.8166,-391.4411 521.1533,-386.4333 515.9925,-381.7039"/>
<polygon fill="#000000" stroke="#000000" points="691.2478,-264.5809 699.9002,-258.4664 689.3233,-257.8506 691.2478,-264.5809"/>
</g>
<!-- magicneko_JP03&#45;&gt;icecat_Explosion -->
<g id="edge23" class="edge">
<title>magicneko_JP03&#45;&gt;icecat_Explosion</title>
<path fill="none" stroke="#000000" d="M593.9284,-444.5465C599.5358,-447.3897 604.938,-450.5307 610,-454 678.1343,-500.6967 729.9244,-586.2254 753.3089,-629.8503"/>
<polygon fill="#000000" stroke="#000000" points="750.2363,-631.5274 757.9928,-638.7446 756.43,-628.2656 750.2363,-631.5274"/>
</g>
<!-- magicneko_JP03&#45;&gt;chenx97 -->
<g id="edge38" class="edge">
<title>magicneko_JP03&#45;&gt;chenx97</title>
<path fill="none" stroke="#000000" d="M608.1681,-451.7915C608.7933,-452.5127 609.4041,-453.2488 610,-454 693.5585,-559.345 548.1346,-965.7939 646,-1058 683.2196,-1093.0673 820.9038,-1080.7849 913.8624,-1067.6662"/>
<polygon fill="#000000" stroke="#000000" points="610.5139,-449.1882 600.9548,-444.6194 605.5784,-454.1521 610.5139,-449.1882"/>
<polygon fill="#000000" stroke="#000000" points="914.439,-1071.1194 923.8387,-1066.2311 913.4422,-1064.1907 914.439,-1071.1194"/>
</g>
<!-- JerryXiao -->
<g id="node20" class="node">
<title>JerryXiao</title>
<polygon fill="none" stroke="#000000" points="829.5,-74 704.5,-74 704.5,-36 829.5,-36 829.5,-74"/>
<text text-anchor="middle" x="767" y="-58.8" font-family="Times,serif" font-size="14.00" fill="#000000">jpn.neo.jerryxiao.cc</text>
<text text-anchor="middle" x="767" y="-43.8" font-family="Times,serif" font-size="14.00" fill="#000000">(10.127.8.193)</text>
</g>
<!-- magicneko_JP03&#45;&gt;JerryXiao -->
<g id="edge32" class="edge">
<title>magicneko_JP03&#45;&gt;JerryXiao</title>
<path fill="none" stroke="#000000" d="M504.3327,-381.8231C528.7593,-326.9538 580.5069,-221.2372 646,-147 669.3474,-120.5355 701.3219,-96.6144 726.5387,-79.8015"/>
<polygon fill="#000000" stroke="#000000" points="501.0575,-380.5761 500.2313,-391.1387 507.4641,-383.3968 501.0575,-380.5761"/>
<polygon fill="#000000" stroke="#000000" points="728.7049,-82.5666 735.1512,-74.1585 724.8685,-76.7115 728.7049,-82.5666"/>
</g>
<!-- magicneko_JP03&#45;&gt;septs -->
<g id="edge35" class="edge">
<title>magicneko_JP03&#45;&gt;septs</title>
<path fill="none" stroke="#000000" d="M504.6618,-382.1514C527.7341,-334.4358 575.8472,-252.1159 646,-218 739.3514,-172.6024 863.1416,-194.737 937.5884,-215.4722"/>
<polygon fill="#000000" stroke="#000000" points="501.4899,-380.6719 500.3822,-391.2086 507.819,-383.6625 501.4899,-380.6719"/>
<polygon fill="#000000" stroke="#000000" points="936.7335,-218.868 947.3103,-218.2504 938.6569,-212.1374 936.7335,-218.868"/>
</g>
<!-- frank_hsinchu -->
<g id="node29" class="node">
<title>frank_hsinchu</title>
<polygon fill="none" stroke="#000000" points="1227,-254.5 1117,-254.5 1117,-201.5 1227,-201.5 1227,-254.5"/>
<text text-anchor="middle" x="1172" y="-239.3" font-family="Times,serif" font-size="14.00" fill="#000000">Frank_Hsinchu</text>
<text text-anchor="middle" x="1172" y="-224.3" font-family="Times,serif" font-size="14.00" fill="#000000">(10.127.255.56)</text>
<text text-anchor="middle" x="1172" y="-209.3" font-family="Times,serif" font-size="14.00" fill="#000000">(AS4201270004)</text>
</g>
<!-- magicneko_JP03&#45;&gt;frank_hsinchu -->
<g id="edge45" class="edge">
<title>magicneko_JP03&#45;&gt;frank_hsinchu</title>
<path fill="none" stroke="#000000" d="M501.2132,-381.9006C521.583,-328.1828 568.1252,-229.1301 646,-188 795.6004,-108.9874 1003.1951,-164.8368 1107.1845,-202.0558"/>
<polygon fill="#000000" stroke="#000000" points="497.8939,-380.7858 497.7127,-391.3791 504.4604,-383.2109 497.8939,-380.7858"/>
<polygon fill="#000000" stroke="#000000" points="1106.0218,-205.3571 1116.6159,-205.4824 1108.4122,-198.7779 1106.0218,-205.3571"/>
</g>
<!-- magicneko_CN01&#45;&gt;icecat_Explosion -->
<g id="edge24" class="edge">
<title>magicneko_CN01&#45;&gt;icecat_Explosion</title>
<path fill="none" stroke="#000000" d="M586.9669,-746.444C594.8236,-743.775 602.5844,-740.9528 610,-738 651.366,-721.5288 696.3034,-697.6912 727.4598,-680.1384"/>
<polygon fill="#000000" stroke="#000000" points="729.2993,-683.1187 736.2668,-675.1372 725.8427,-677.0317 729.2993,-683.1187"/>
</g>
<!-- staph_CN -->
<g id="node18" class="node">
<title>staph_CN</title>
<polygon fill="none" stroke="#000000" points="1060.5,-1001 944.5,-1001 944.5,-933 1060.5,-933 1060.5,-1001"/>
<text text-anchor="middle" x="1002.5" y="-985.8" font-family="Times,serif" font-size="14.00" fill="#000000">cnhome.aureus.ga</text>
<text text-anchor="middle" x="1002.5" y="-970.8" font-family="Times,serif" font-size="14.00" fill="#000000">(10.127.8.187</text>
<text text-anchor="middle" x="1002.5" y="-955.8" font-family="Times,serif" font-size="14.00" fill="#000000">fd10:127:7::3)</text>
<text text-anchor="middle" x="1002.5" y="-940.8" font-family="Times,serif" font-size="14.00" fill="#000000">(AS4201270007)</text>
</g>
<!-- staph&#45;&gt;staph_CN -->
<g id="edge15" class="edge">
<title>staph&#45;&gt;staph_CN</title>
<path fill="none" stroke="#000000" d="M822.2143,-1003.7461C855.7665,-996.9075 898.8617,-988.1237 934.5043,-980.859"/>
<polygon fill="#000000" stroke="#000000" points="935.246,-984.2799 944.3455,-978.8531 933.848,-977.4209 935.246,-984.2799"/>
</g>
<!-- staph&#45;&gt;septs -->
<g id="edge36" class="edge">
<title>staph&#45;&gt;septs</title>
<path fill="none" stroke="#000000" d="M831.9488,-1010.2776C855.3682,-1005.2556 879.9531,-995.5328 896,-977 907.9559,-963.1919 981.2617,-401.2643 998.7544,-266.0429"/>
<polygon fill="#000000" stroke="#000000" points="831.1884,-1006.8593 822.0115,-1012.1541 832.4873,-1013.7377 831.1884,-1006.8593"/>
<polygon fill="#000000" stroke="#000000" points="1002.2397,-266.3813 1000.0505,-256.0152 995.2974,-265.484 1002.2397,-266.3813"/>
</g>
<!-- santost12 -->
<g id="node28" class="node">
<title>santost12</title>
<polygon fill="none" stroke="#000000" points="1057.5,-887.5 947.5,-887.5 947.5,-834.5 1057.5,-834.5 1057.5,-887.5"/>
<text text-anchor="middle" x="1002.5" y="-872.3" font-family="Times,serif" font-size="14.00" fill="#000000">Santost12</text>
<text text-anchor="middle" x="1002.5" y="-857.3" font-family="Times,serif" font-size="14.00" fill="#000000">(10.127.69.1)</text>
<text text-anchor="middle" x="1002.5" y="-842.3" font-family="Times,serif" font-size="14.00" fill="#000000">(AS4201270009)</text>
</g>
<!-- staph&#45;&gt;santost12 -->
<g id="edge42" class="edge">
<title>staph&#45;&gt;santost12</title>
<path fill="none" stroke="#000000" d="M832.0885,-1006.3593C854.2158,-1000.8433 877.8996,-991.8061 896,-977 916.6207,-960.1324 907.0367,-944.542 924,-924 932.9537,-913.1574 944.0346,-902.9065 955.0209,-893.9466"/>
<polygon fill="#000000" stroke="#000000" points="831.0247,-1003.0122 822.057,-1008.654 832.5857,-1009.8359 831.0247,-1003.0122"/>
<polygon fill="#000000" stroke="#000000" points="957.298,-896.608 962.972,-887.6605 952.9568,-891.1167 957.298,-896.608"/>
</g>
<!-- JerryXiao&#45;&gt;ucbvax -->
<g id="edge29" class="edge">
<title>JerryXiao&#45;&gt;ucbvax</title>
<path fill="none" stroke="#000000" d="M736.0936,-80.9357C702.0776,-111.7057 649.3858,-166.5129 628,-227 612.1664,-271.7833 603.0278,-1041.5941 628,-1082 642.5726,-1105.5789 670.269,-1116.6512 697.1276,-1121.6105"/>
<polygon fill="#000000" stroke="#000000" points="738.7389,-83.2672 743.8887,-74.0082 734.0889,-78.0348 738.7389,-83.2672"/>
<polygon fill="#000000" stroke="#000000" points="696.9277,-1125.1223 707.3513,-1123.2253 698.0198,-1118.208 696.9277,-1125.1223"/>
</g>
<!-- JerryXiao_SH01 -->
<g id="node21" class="node">
<title>JerryXiao_SH01</title>
<polygon fill="none" stroke="#000000" points="1051.5,-74 953.5,-74 953.5,-36 1051.5,-36 1051.5,-74"/>
<text text-anchor="middle" x="1002.5" y="-58.8" font-family="Times,serif" font-size="14.00" fill="#000000">jerryxiao&#45;sh01</text>
<text text-anchor="middle" x="1002.5" y="-43.8" font-family="Times,serif" font-size="14.00" fill="#000000">(10.127.8.195)</text>
</g>
<!-- JerryXiao&#45;&gt;JerryXiao_SH01 -->
<g id="edge25" class="edge">
<title>JerryXiao&#45;&gt;JerryXiao_SH01</title>
<path fill="none" stroke="#000000" d="M839.9883,-55C873.067,-55 911.6829,-55 942.9705,-55"/>
<polygon fill="#000000" stroke="#000000" points="839.8004,-51.5001 829.8003,-55 839.8003,-58.5001 839.8004,-51.5001"/>
<polygon fill="#000000" stroke="#000000" points="943.2816,-58.5001 953.2816,-55 943.2816,-51.5001 943.2816,-58.5001"/>
</g>
<!-- JerryXiao_HK01 -->
<g id="node22" class="node">
<title>JerryXiao_HK01</title>
<polygon fill="none" stroke="#000000" points="1221,-64 1123,-64 1123,-26 1221,-26 1221,-64"/>
<text text-anchor="middle" x="1172" y="-48.8" font-family="Times,serif" font-size="14.00" fill="#000000">jerryxiao&#45;hk01</text>
<text text-anchor="middle" x="1172" y="-33.8" font-family="Times,serif" font-size="14.00" fill="#000000">(10.127.8.194)</text>
</g>
<!-- JerryXiao&#45;&gt;JerryXiao_HK01 -->
<g id="edge26" class="edge">
<title>JerryXiao&#45;&gt;JerryXiao_HK01</title>
<path fill="none" stroke="#000000" d="M839.6166,-39.2932C866.0459,-34.3081 896.2435,-29.4557 924,-27 993.5063,-20.8505 1011.5546,-20.1977 1081,-27 1091.3243,-28.0113 1102.2144,-29.6533 1112.7319,-31.5445"/>
<polygon fill="#000000" stroke="#000000" points="838.8425,-35.8779 829.6847,-41.2056 840.1661,-42.7516 838.8425,-35.8779"/>
<polygon fill="#000000" stroke="#000000" points="1112.195,-35.0049 1122.6709,-33.4217 1113.4942,-28.1265 1112.195,-35.0049"/>
</g>
<!-- JerryXiao&#45;&gt;septs -->
<g id="edge30" class="edge">
<title>JerryXiao&#45;&gt;septs</title>
<path fill="none" stroke="#000000" d="M838.4962,-77.8102C858.1679,-85.9281 878.8033,-96.286 896,-109 933.5456,-136.7584 966.109,-180.4435 985.0309,-208.9078"/>
<polygon fill="#000000" stroke="#000000" points="839.5214,-74.4512 828.936,-74.0044 836.9324,-80.9548 839.5214,-74.4512"/>
<polygon fill="#000000" stroke="#000000" points="982.2894,-211.1113 990.6841,-217.5751 988.1525,-207.2872 982.2894,-211.1113"/>
</g>
<!-- JerryXiao_SH01&#45;&gt;JerryXiao_HK01 -->
<g id="edge27" class="edge">
<title>JerryXiao_SH01&#45;&gt;JerryXiao_HK01</title>
<path fill="none" stroke="#000000" d="M1061.7396,-51.505C1078.2553,-50.5307 1096.1964,-49.4722 1112.7147,-48.4977"/>
<polygon fill="#000000" stroke="#000000" points="1061.3029,-48.0246 1051.5264,-52.1076 1061.7152,-55.0125 1061.3029,-48.0246"/>
<polygon fill="#000000" stroke="#000000" points="1113.0139,-51.9862 1122.7904,-47.9032 1112.6016,-44.9983 1113.0139,-51.9862"/>
</g>
<!-- dfceaef -->
<g id="node26" class="node">
<title>dfceaef</title>
<polygon fill="none" stroke="#000000" points="1227,-166.5 1117,-166.5 1117,-113.5 1227,-113.5 1227,-166.5"/>
<text text-anchor="middle" x="1172" y="-151.3" font-family="Times,serif" font-size="14.00" fill="#000000">dfceaef</text>
<text text-anchor="middle" x="1172" y="-136.3" font-family="Times,serif" font-size="14.00" fill="#000000">(10.127.8.64/26)</text>
<text text-anchor="middle" x="1172" y="-121.3" font-family="Times,serif" font-size="14.00" fill="#000000">(AS4242420140)</text>
</g>
<!-- JerryXiao_SH01&#45;&gt;dfceaef -->
<g id="edge31" class="edge">
<title>JerryXiao_SH01&#45;&gt;dfceaef</title>
<path fill="none" stroke="#000000" d="M1049.5085,-78.5736C1068.2092,-87.9515 1089.9909,-98.8745 1109.9573,-108.8871"/>
<polygon fill="#000000" stroke="#000000" points="1051.0471,-75.4297 1040.5391,-74.0757 1047.9092,-81.687 1051.0471,-75.4297"/>
<polygon fill="#000000" stroke="#000000" points="1108.4777,-112.0606 1118.9857,-113.4146 1111.6156,-105.8033 1108.4777,-112.0606"/>
</g>
<!-- JerryXiao_HK02 -->
<g id="node23" class="node">
<title>JerryXiao_HK02</title>
<polygon fill="none" stroke="#000000" points="1361,-64 1263,-64 1263,-26 1361,-26 1361,-64"/>
<text text-anchor="middle" x="1312" y="-48.8" font-family="Times,serif" font-size="14.00" fill="#000000">jerryxiao&#45;hk02</text>
<text text-anchor="middle" x="1312" y="-33.8" font-family="Times,serif" font-size="14.00" fill="#000000">(10.127.8.196)</text>
</g>
<!-- JerryXiao_HK01&#45;&gt;JerryXiao_HK02 -->
<g id="edge28" class="edge">
<title>JerryXiao_HK01&#45;&gt;JerryXiao_HK02</title>
<path fill="none" stroke="#000000" d="M1231.5689,-45C1238.5217,-45 1245.6149,-45 1252.5658,-45"/>
<polygon fill="#000000" stroke="#000000" points="1231.3588,-41.5001 1221.3588,-45 1231.3587,-48.5001 1231.3588,-41.5001"/>
<polygon fill="#000000" stroke="#000000" points="1252.6151,-48.5001 1262.6151,-45 1252.615,-41.5001 1252.6151,-48.5001"/>
</g>
<!-- septs&#45;&gt;frank_hsinchu -->
<g id="edge46" class="edge">
<title>septs&#45;&gt;frank_hsinchu</title>
<path fill="none" stroke="#000000" d="M1067.5308,-233.547C1080.4008,-232.8637 1093.9131,-232.1462 1106.7891,-231.4625"/>
<polygon fill="#000000" stroke="#000000" points="1067.3321,-230.0526 1057.5318,-234.078 1067.7033,-237.0427 1067.3321,-230.0526"/>
<polygon fill="#000000" stroke="#000000" points="1107.1542,-234.9482 1116.9545,-230.9228 1106.7829,-227.958 1107.1542,-234.9482"/>
</g>
<!-- lantian -->
<g id="node25" class="node">
<title>lantian</title>
<polygon fill="none" stroke="#000000" points="544,-108 434,-108 434,-70 544,-70 544,-108"/>
<text text-anchor="middle" x="489" y="-92.8" font-family="Times,serif" font-size="14.00" fill="#000000">lantian</text>
<text text-anchor="middle" x="489" y="-77.8" font-family="Times,serif" font-size="14.00" fill="#000000">(AS4201270010)</text>
</g>
<!-- lantian&#45;&gt;JerryXiao -->
<g id="edge34" class="edge">
<title>lantian&#45;&gt;JerryXiao</title>
<path fill="none" stroke="#000000" d="M554.2534,-81.0194C596.124,-75.8985 650.561,-69.2407 693.8872,-63.9419"/>
<polygon fill="#000000" stroke="#000000" points="553.7574,-77.5539 544.2562,-82.242 554.6072,-84.5021 553.7574,-77.5539"/>
<polygon fill="#000000" stroke="#000000" points="694.5799,-67.3833 704.081,-62.6951 693.7301,-60.4351 694.5799,-67.3833"/>
</g>
<!-- lantian&#45;&gt;septs -->
<g id="edge33" class="edge">
<title>lantian&#45;&gt;septs</title>
<path fill="none" stroke="#000000" d="M554.2049,-99.7495C635.6686,-114.2252 778.6345,-143.0967 896,-185 917.4821,-192.6698 940.3305,-203.4483 959.3333,-213.2048"/>
<polygon fill="#000000" stroke="#000000" points="554.5518,-96.2569 544.0966,-97.9713 553.3389,-103.151 554.5518,-96.2569"/>
<polygon fill="#000000" stroke="#000000" points="957.8448,-216.3758 968.3303,-217.8942 961.0802,-210.1684 957.8448,-216.3758"/>
</g>
<!-- santost12&#45;&gt;magicneko_JP03 -->
<g id="edge52" class="edge">
<title>santost12&#45;&gt;magicneko_JP03</title>
<path fill="none" stroke="#000000" d="M947.3419,-850.2209C867.1341,-831.4552 719.8473,-784.7303 646,-684 584.8251,-600.5553 678.1029,-531.8934 610,-454 609.2426,-453.1338 608.4654,-452.2879 607.6696,-451.462"/>
<polygon fill="#000000" stroke="#000000" points="609.7964,-448.6664 600.0324,-444.5536 605.1005,-453.8576 609.7964,-448.6664"/>
</g>
<!-- NNPCC -->
<g id="node30" class="node">
<title>NNPCC</title>
<polygon fill="none" stroke="#000000" points="87,-1301 25,-1301 25,-1265 87,-1265 87,-1301"/>
<text text-anchor="middle" x="56" y="-1279.3" font-family="Times,serif" font-size="14.00" fill="#000000">NNPCC</text>
</g>
<!-- NNPCC&#45;&gt;np11 -->
<g id="edge1" class="edge">
<title>NNPCC&#45;&gt;np11</title>
<path fill="none" stroke="#000000" d="M95.9081,-1261.0052C119.2005,-1248.1679 148.9807,-1231.755 174.7411,-1217.5574"/>
<polygon fill="#000000" stroke="#000000" points="94.1287,-1257.9895 87.0601,-1265.8816 97.5075,-1264.12 94.1287,-1257.9895"/>
<polygon fill="#000000" stroke="#000000" points="176.5995,-1220.5297 183.6681,-1212.6375 173.2207,-1214.3991 176.5995,-1220.5297"/>
</g>
<!-- NeoBOX -->
<g id="node31" class="node">
<title>NeoBOX</title>
<polygon fill="none" stroke="#000000" points="90,-1247 22,-1247 22,-1211 90,-1211 90,-1247"/>
<text text-anchor="middle" x="56" y="-1225.3" font-family="Times,serif" font-size="14.00" fill="#000000">NeoBOX</text>
</g>
<!-- NeoBOX&#45;&gt;np11 -->
<g id="edge2" class="edge">
<title>NeoBOX&#45;&gt;np11</title>
<path fill="none" stroke="#000000" d="M100.0761,-1218.2314C122.2649,-1212.8103 149.4644,-1206.1649 173.3895,-1200.3196"/>
<polygon fill="#000000" stroke="#000000" points="99.2359,-1214.8336 90.3524,-1220.6071 100.8974,-1221.6336 99.2359,-1214.8336"/>
<polygon fill="#000000" stroke="#000000" points="174.535,-1203.6428 183.4185,-1197.8693 172.8736,-1196.8428 174.535,-1203.6428"/>
</g>
<!-- cklvax -->
<g id="node32" class="node">
<title>cklvax</title>
<polygon fill="none" stroke="#000000" points="83,-1193 29,-1193 29,-1157 83,-1157 83,-1193"/>
<text text-anchor="middle" x="56" y="-1171.3" font-family="Times,serif" font-size="14.00" fill="#000000">cklvax</text>
</g>
<!-- cklvax&#45;&gt;np11 -->
<g id="edge3" class="edge">
<title>cklvax&#45;&gt;np11</title>
<path fill="none" stroke="#000000" d="M93.3818,-1177.3364C116.5028,-1178.7814 146.6876,-1180.668 172.9849,-1182.3116"/>
<polygon fill="#000000" stroke="#000000" points="93.3132,-1173.8253 83.1143,-1176.6946 92.8765,-1180.8117 93.3132,-1173.8253"/>
<polygon fill="#000000" stroke="#000000" points="173.0273,-1185.8209 183.2262,-1182.9516 173.464,-1178.8346 173.0273,-1185.8209"/>
</g>
<!-- NeoStorage -->
<g id="node33" class="node">
<title>NeoStorage</title>
<polygon fill="none" stroke="#000000" points="96,-1139 16,-1139 16,-1103 96,-1103 96,-1139"/>
<text text-anchor="middle" x="56" y="-1117.3" font-family="Times,serif" font-size="14.00" fill="#000000">NeoStorage</text>
</g>
<!-- NeoStorage&#45;&gt;np11 -->
<g id="edge4" class="edge">
<title>NeoStorage&#45;&gt;np11</title>
<path fill="none" stroke="#000000" d="M105.5689,-1140.0698C114.3625,-1143.4084 123.4426,-1146.8273 132,-1150 145.4347,-1154.9809 159.92,-1160.2524 173.5824,-1165.18"/>
<polygon fill="#000000" stroke="#000000" points="106.7685,-1136.7815 96.1776,-1136.4939 104.2776,-1143.3233 106.7685,-1136.7815"/>
<polygon fill="#000000" stroke="#000000" points="172.7641,-1168.6052 183.3585,-1168.6981 175.1344,-1162.0187 172.7641,-1168.6052"/>
</g>
</g>
</svg>
